<?xml version="1.0" encoding="utf-8"?>
<svg version="1.1" viewBox="0.0 0.0 960.0 540.0" fill="none" stroke="none" stroke-linecap="square" stroke-miterlimit="10" xmlns="http://www.w3.org/2000/svg">
  <clipPath id="g6b4b12fa62_0_107.0">
    <path d="m0 0l960.0 0l0 540.0l-960.0 0l0 -540.0z" clip-rule="nonzero"/>
  </clipPath>
  <g clip-path="url(#g6b4b12fa62_0_107.0)">
    <path fill="#000000" fill-opacity="0.0" d="m158.64043 286.0l619.0236 0" fill-rule="evenodd"/>
    <path stroke="#48ffd5" stroke-width="2.0" stroke-linejoin="round" stroke-linecap="butt" d="m158.64043 286.0l607.0236 0" fill-rule="evenodd"/>
    <path fill="#48ffd5" stroke="#48ffd5" stroke-width="2.0" stroke-linecap="butt" d="m765.66406 289.30347l9.076172 -3.3034668l-9.076172 -3.3034668z" fill-rule="evenodd"/>
    <path fill="#000000" fill-opacity="0.0" d="m21.044619 132.24147l273.7638 0l0 64.62991l-273.7638 0z" fill-rule="evenodd"/>
    <path fill="#ffd0d0" d="m108.25463 149.21147l7.4375 18.5625l7.4375 -18.5625l3.890625 0l0 22.75l-3.0 0l0 -8.859375l0.28125 -9.5625l-7.46875 18.421875l-2.296875 0l-7.453125 -18.375l0.296875 9.515625l0 8.859375l-3.0 0l0 -22.75l3.875 0zm26.750008 22.75l-2.890625 0l0 -16.90625l2.890625 0l0 16.90625zm-3.125 -21.390625q0 -0.703125 0.421875 -1.1875q0.4375 -0.484375 1.28125 -0.484375q0.84375 0 1.28125 0.484375q0.4375 0.484375 0.4375 1.1875q0 0.703125 -0.4375 1.171875q-0.4375 0.46875 -1.28125 0.46875q-0.84375 0 -1.28125 -0.46875q-0.421875 -0.46875 -0.421875 -1.171875zm17.59375 16.90625q0 -1.171875 -0.890625 -1.8125q-0.875 -0.65625 -3.078125 -1.125q-2.1875 -0.46875 -3.484375 -1.125q-1.28125 -0.65625 -1.90625 -1.5625q-0.609375 -0.90625 -0.609375 -2.15625q0 -2.078125 1.75 -3.515625q1.765625 -1.4375 4.5 -1.4375q2.875 0 4.65625 1.484375q1.796875 1.484375 1.796875 3.796875l-2.90625 0q0 -1.1875 -1.015625 -2.046875q-1.0 -0.859375 -2.53125 -0.859375q-1.578125 0 -2.46875 0.6875q-0.890625 0.6875 -0.890625 1.796875q0 1.046875 0.828125 1.578125q0.828125 0.53125 2.984375 1.015625q2.171875 0.484375 3.515625 1.15625q1.34375 0.671875 1.984375 1.625q0.65625 0.9375 0.65625 2.296875q0 2.265625 -1.8125 3.640625q-1.8125 1.359375 -4.703125 1.359375q-2.03125 0 -3.59375 -0.71875q-1.5625 -0.71875 -2.453125 -2.0q-0.875 -1.296875 -0.875 -2.796875l2.890625 0q0.078125 1.453125 1.15625 2.3125q1.09375 0.84375 2.875 0.84375q1.640625 0 2.625 -0.65625q1.0 -0.671875 1.0 -1.78125zm16.5 0q0 -1.171875 -0.890625 -1.8125q-0.875 -0.65625 -3.078125 -1.125q-2.1875 -0.46875 -3.484375 -1.125q-1.28125 -0.65625 -1.90625 -1.5625q-0.609375 -0.90625 -0.609375 -2.15625q0 -2.078125 1.75 -3.515625q1.765625 -1.4375 4.5 -1.4375q2.875 0 4.65625 1.484375q1.796875 1.484375 1.796875 3.796875l-2.90625 0q0 -1.1875 -1.015625 -2.046875q-1.0 -0.859375 -2.53125 -0.859375q-1.578125 0 -2.46875 0.6875q-0.890625 0.6875 -0.890625 1.796875q0 1.046875 0.828125 1.578125q0.828125 0.53125 2.984375 1.015625q2.171875 0.484375 3.515625 1.15625q1.34375 0.671875 1.984375 1.625q0.65625 0.9375 0.65625 2.296875q0 2.265625 -1.8125 3.640625q-1.8125 1.359375 -4.703125 1.359375q-2.03125 0 -3.59375 -0.71875q-1.5625 -0.71875 -2.453125 -2.0q-0.875 -1.296875 -0.875 -2.796875l2.890625 0q0.078125 1.453125 1.15625 2.3125q1.09375 0.84375 2.875 0.84375q1.640625 0 2.625 -0.65625q1.0 -0.671875 1.0 -1.78125zm9.796875 4.484375l-2.890625 0l0 -16.90625l2.890625 0l0 16.90625zm-3.125 -21.390625q0 -0.703125 0.421875 -1.1875q0.4375 -0.484375 1.28125 -0.484375q0.84375 0 1.28125 0.484375q0.4375 0.484375 0.4375 1.1875q0 0.703125 -0.4375 1.171875q-0.4375 0.46875 -1.28125 0.46875q-0.84375 0 -1.28125 -0.46875q-0.421875 -0.46875 -0.421875 -1.171875zm6.984375 12.78125q0 -2.484375 0.96875 -4.46875q0.984375 -1.984375 2.71875 -3.0625q1.75 -1.078125 3.984375 -1.078125q3.453125 0 5.578125 2.390625q2.140625 2.390625 2.140625 6.359375l0 0.203125q0 2.46875 -0.953125 4.4375q-0.9375 1.953125 -2.703125 3.046875q-1.75 1.09375 -4.03125 1.09375q-3.4375 0 -5.578125 -2.390625q-2.125 -2.390625 -2.125 -6.328125l0 -0.203125zm2.90625 0.34375q0 2.8125 1.296875 4.515625q1.3125 1.703125 3.5 1.703125q2.203125 0 3.5 -1.71875q1.296875 -1.734375 1.296875 -4.84375q0 -2.78125 -1.328125 -4.5q-1.3125 -1.734375 -3.5 -1.734375q-2.140625 0 -3.453125 1.703125q-1.3125 1.703125 -1.3125 4.875zm18.84375 -8.640625l0.09375 2.125q1.9375 -2.4375 5.0625 -2.4375q5.359375 0 5.40625 6.046875l0 11.171875l-2.890625 0l0 -11.1875q-0.015625 -1.828125 -0.84375 -2.703125q-0.8125 -0.875 -2.546875 -0.875q-1.40625 0 -2.46875 0.75q-1.0625 0.75 -1.65625 1.96875l0 12.046875l-2.890625 0l0 -16.90625l2.734375 0z" fill-rule="nonzero"/>
    <path fill="#ffd0d0" d="m121.01244 201.69585q0 3.875 -1.78125 6.234375q-1.78125 2.34375 -4.78125 2.34375q-3.203125 0 -4.953125 -2.265625l-0.140625 1.953125l-2.65625 0l0 -24.0l2.890625 0l0 8.953125q1.75 -2.171875 4.828125 -2.171875q3.078125 0 4.828125 2.328125q1.765625 2.328125 1.765625 6.375l0 0.25zm-2.890625 -0.328125q0 -2.953125 -1.140625 -4.5625q-1.140625 -1.609375 -3.28125 -1.609375q-2.859375 0 -4.109375 2.65625l0 7.3125q1.328125 2.65625 4.140625 2.65625q2.078125 0 3.234375 -1.609375q1.15625 -1.609375 1.15625 -4.84375zm14.703133 -5.71875q-0.65625 -0.109375 -1.421875 -0.109375q-2.84375 0 -3.8593826 2.421875l0 12.0l-2.890625 0l0 -16.90625l2.8125 0l0.046875 1.953125q1.4218826 -2.265625 4.0312576 -2.265625q0.84375 0 1.28125 0.21875l0 2.6875zm5.796875 14.3125l-2.890625 0l0 -16.90625l2.890625 0l0 16.90625zm-3.125 -21.390625q0 -0.703125 0.421875 -1.1875q0.4375 -0.484375 1.28125 -0.484375q0.84375 0 1.28125 0.484375q0.4375 0.484375 0.4375 1.1875q0 0.703125 -0.4375 1.171875q-0.4375 0.46875 -1.28125 0.46875q-0.84375 0 -1.28125 -0.46875q-0.421875 -0.46875 -0.421875 -1.171875zm14.765625 21.703125q-3.4375 0 -5.59375 -2.25q-2.15625 -2.265625 -2.15625 -6.046875l0 -0.53125q0 -2.515625 0.953125 -4.484375q0.96875 -1.984375 2.6875 -3.09375q1.734375 -1.125 3.75 -1.125q3.296875 0 5.125 2.171875q1.828125 2.171875 1.828125 6.21875l0 1.203125l-11.453125 0q0.0625 2.5 1.453125 4.046875q1.40625 1.53125 3.5625 1.53125q1.53125 0 2.59375 -0.625q1.0625 -0.625 1.859375 -1.65625l1.765625 1.375q-2.125 3.265625 -6.375 3.265625zm-0.359375 -15.15625q-1.75 0 -2.9375 1.28125q-1.1875 1.265625 -1.46875 3.5625l8.46875 0l0 -0.21875q-0.125 -2.203125 -1.1875 -3.40625q-1.0625 -1.21875 -2.875 -1.21875zm11.265625 14.84375l0 -14.671875l-2.671875 0l0 -2.234375l2.671875 0l0 -1.4375q0 -2.828125 1.609375 -4.40625q1.625 -1.578125 4.578125 -1.578125q1.75 0 4.421875 0.953125l-0.484375 2.4375q-1.953125 -0.78125 -3.71875 -0.78125q-1.859375 0 -2.6875 0.84375q-0.8125 0.828125 -0.8125 2.5l0 1.46875l3.453125 0l0 2.234375l-3.453125 0l0 14.671875l-2.90625 0zm12.046875 0l-2.90625 0l0 -16.90625l2.90625 0l0 16.90625zm7.4375 -16.90625l0.09375 2.125q1.9375 -2.4375 5.0625 -2.4375q5.359375 0 5.40625 6.046875l0 11.171875l-2.890625 0l0 -11.1875q-0.015625 -1.828125 -0.84375 -2.703125q-0.8125 -0.875 -2.546875 -0.875q-1.40625 0 -2.46875 0.75q-1.0625 0.75 -1.65625 1.96875l0 12.046875l-2.890625 0l0 -16.90625l2.734375 0zm14.234375 8.3125q0 -3.953125 1.828125 -6.28125q1.828125 -2.34375 4.84375 -2.34375q3.09375 0 4.828125 2.1875l0.140625 -1.875l2.640625 0l0 16.5q0 3.28125 -1.953125 5.171875q-1.9375 1.890625 -5.21875 1.890625q-1.828125 0 -3.578125 -0.78125q-1.75 -0.78125 -2.671875 -2.140625l1.5 -1.734375q1.859375 2.296875 4.546875 2.296875q2.109375 0 3.28125 -1.1875q1.1875 -1.1875 1.1875 -3.34375l0 -1.453125q-1.734375 2.0 -4.734375 2.0q-2.96875 0 -4.8125 -2.390625q-1.828125 -2.390625 -1.828125 -6.515625zm2.90625 0.328125q0 2.859375 1.171875 4.5q1.171875 1.625 3.28125 1.625q2.734375 0 4.015625 -2.484375l0 -7.71875q-1.328125 -2.421875 -3.984375 -2.421875q-2.109375 0 -3.296875 1.640625q-1.1875 1.640625 -1.1875 4.859375z" fill-rule="nonzero"/>
    <path fill="#000000" fill-opacity="0.0" d="m21.044619 343.1286l273.7638 0l0 64.629944l-273.7638 0z" fill-rule="evenodd"/>
    <path fill="#a1f7ff" d="m122.13744 372.70798q-3.859375 -1.109375 -5.625 -2.71875q-1.75 -1.625 -1.75 -4.0q0 -2.6875 2.140625 -4.4375q2.15625 -1.765625 5.59375 -1.765625q2.34375 0 4.171875 0.90625q1.8437576 0.90625 2.8437576 2.5q1.015625 1.59375 1.015625 3.484375l-3.0156326 0q0 -2.0625 -1.3125 -3.234375q-1.3125 -1.1875 -3.703125 -1.1875q-2.21875 0 -3.46875 0.984375q-1.234375 0.96875 -1.234375 2.703125q0 1.390625 1.171875 2.359375q1.1875 0.953125 4.015625 1.75q2.84375 0.796875 4.4375 1.765625q1.6093826 0.953125 2.3750076 2.234375q0.78125 1.28125 0.78125 3.015625q0 2.765625 -2.15625 4.4375q-2.1562576 1.65625 -5.7656326 1.65625q-2.34375 0 -4.375 -0.890625q-2.03125 -0.90625 -3.140625 -2.46875q-1.09375 -1.5625 -1.09375 -3.546875l3.015625 0q0 2.0625 1.515625 3.265625q1.53125 1.1875 4.078125 1.1875q2.375 0 3.640625 -0.96875q1.265625 -0.96875 1.265625 -2.640625q0 -1.671875 -1.171875 -2.578125q-1.171875 -0.921875 -4.25 -1.8125zm11.125008 1.546875q0 -3.984375 1.828125 -6.296875q1.828125 -2.328125 4.90625 -2.328125q3.0 0 4.734375 2.015625l0.125 -1.703125l2.65625 0l0 23.40625l-2.890625 0l0 -8.0625q-1.75 1.875 -4.65625 1.875q-3.0625 0 -4.890625 -2.375q-1.8125 -2.390625 -1.8125 -6.328125l0 -0.203125zm2.890625 0.328125q0 2.90625 1.21875 4.5625q1.234375 1.65625 3.3125 1.65625q2.578125 0 3.9375 -2.28125l0 -8.28125q-1.375 -2.234375 -3.90625 -2.234375q-2.09375 0 -3.328125 1.671875q-1.234375 1.65625 -1.234375 4.90625zm26.4375 6.59375q-1.6875 1.984375 -4.953125 1.984375q-2.703125 0 -4.125 -1.5625q-1.40625 -1.578125 -1.421875 -4.65625l0 -11.0l2.890625 0l0 10.921875q0 3.84375 3.125 3.84375q3.3125 0 4.40625 -2.46875l0 -12.296875l2.890625 0l0 16.90625l-2.75 0l-0.0625 -1.671875zm17.640625 1.671875q-0.25 -0.5 -0.40625 -1.78125q-2.015625 2.09375 -4.8125 2.09375q-2.5 0 -4.109375 -1.40625q-1.59375 -1.421875 -1.59375 -3.59375q0 -2.640625 2.0 -4.09375q2.015625 -1.46875 5.65625 -1.46875l2.8125 0l0 -1.328125q0 -1.515625 -0.90625 -2.40625q-0.90625 -0.90625 -2.671875 -0.90625q-1.546875 0 -2.59375 0.78125q-1.046875 0.78125 -1.046875 1.890625l-2.90625 0q0 -1.265625 0.890625 -2.4375q0.90625 -1.1875 2.4375 -1.875q1.546875 -0.6875 3.390625 -0.6875q2.921875 0 4.578125 1.46875q1.65625 1.453125 1.71875 4.015625l0 7.78125q0 2.328125 0.59375 3.703125l0 0.25l-3.03125 0zm-4.796875 -2.203125q1.359375 0 2.578125 -0.703125q1.21875 -0.703125 1.765625 -1.828125l0 -3.46875l-2.265625 0q-5.3125 0 -5.3125 3.109375q0 1.359375 0.90625 2.125q0.90625 0.765625 2.328125 0.765625zm11.0625 -6.390625q0 -3.890625 1.84375 -6.25q1.84375 -2.375 4.828125 -2.375q2.96875 0 4.703125 2.03125l0 -8.8125l2.890625 0l0 24.0l-2.65625 0l-0.140625 -1.8125q-1.734375 2.125 -4.828125 2.125q-2.9375 0 -4.796875 -2.40625q-1.84375 -2.40625 -1.84375 -6.28125l0 -0.21875zm2.890625 0.328125q0 2.875 1.1875 4.5q1.1875 1.625 3.28125 1.625q2.75 0 4.015625 -2.46875l0 -7.765625q-1.296875 -2.390625 -3.984375 -2.390625q-2.125 0 -3.3125 1.640625q-1.1875 1.640625 -1.1875 4.859375z" fill-rule="nonzero"/>
    <path fill="#a1f7ff" d="m91.65307 420.8486l0 -14.671875l-2.671875 0l0 -2.234375l2.671875 0l0 -1.734375q0 -2.71875 1.453125 -4.203125q1.453125 -1.484375 4.109375 -1.484375q1.0 0 1.984375 0.265625l-0.15625 2.34375q-0.734375 -0.140625 -1.5625 -0.140625q-1.40625 0 -2.171875 0.828125q-0.765625 0.8125 -0.765625 2.34375l0 1.78125l3.609375 0l0 2.234375l-3.609375 0l0 14.671875l-2.890625 0zm8.921875 -8.609375q0 -2.484375 0.96875 -4.46875q0.984375 -1.984375 2.71875 -3.0625q1.75 -1.078125 3.984375 -1.078125q3.453125 0 5.578125 2.390625q2.140625 2.390625 2.140625 6.359375l0 0.203125q0 2.46875 -0.953125 4.4375q-0.9375 1.953125 -2.703125 3.046875q-1.75 1.09375 -4.03125 1.09375q-3.4375 0 -5.578125 -2.390625q-2.125 -2.390625 -2.125 -6.328125l0 -0.203125zm2.90625 0.34375q0 2.8125 1.296875 4.515625q1.3125 1.703125 3.5 1.703125q2.203125 0 3.5 -1.71875q1.296875 -1.734375 1.296875 -4.84375q0 -2.78125 -1.328125 -4.5q-1.3125 -1.734375 -3.5 -1.734375q-2.140625 0 -3.453125 1.703125q-1.3125 1.703125 -1.3125 4.875zm24.28125 -6.046875q-0.65625 -0.109375 -1.421875 -0.109375q-2.84375 0 -3.859375 2.421875l0 12.0l-2.890625 0l0 -16.90625l2.8125 0l0.046875 1.953125q1.421875 -2.265625 4.03125 -2.265625q0.84375 0 1.28125 0.21875l0 2.6875zm5.3750076 -2.59375l0.078125 1.875q1.859375 -2.1875 5.015625 -2.1875q3.546875 0 4.828125 2.71875q0.84375 -1.21875 2.1875 -1.96875q1.359375 -0.75 3.203125 -0.75q5.5625 0 5.65625 5.890625l0 11.328125l-2.890625 0l0 -11.15625q0 -1.8125 -0.828125 -2.703125q-0.828125 -0.90625 -2.78125 -0.90625q-1.609375 0 -2.671875 0.96875q-1.0625 0.953125 -1.234375 2.578125l0 11.21875l-2.90625 0l0 -11.078125q0 -3.6875 -3.609375 -3.6875q-2.84375 0 -3.890625 2.421875l0 12.34375l-2.890625 0l0 -16.90625l2.734375 0zm35.765625 16.90625q-0.25 -0.5 -0.40625 -1.78125q-2.015625 2.09375 -4.8125 2.09375q-2.5 0 -4.109375 -1.40625q-1.59375 -1.421875 -1.59375 -3.59375q0 -2.640625 2.0 -4.09375q2.015625 -1.46875 5.65625 -1.46875l2.8125 0l0 -1.328125q0 -1.515625 -0.90625 -2.40625q-0.90625 -0.90625 -2.671875 -0.90625q-1.546875 0 -2.59375 0.78125q-1.046875 0.78125 -1.046875 1.890625l-2.90625 0q0 -1.265625 0.890625 -2.4375q0.90625 -1.1875 2.4375 -1.875q1.546875 -0.6875 3.390625 -0.6875q2.921875 0 4.578125 1.46875q1.65625 1.453125 1.71875 4.015625l0 7.78125q0 2.328125 0.59375 3.703125l0 0.25l-3.03125 0zm-4.796875 -2.203125q1.359375 0 2.578125 -0.703125q1.21875 -0.703125 1.765625 -1.828125l0 -3.46875l-2.265625 0q-5.3125 0 -5.3125 3.109375q0 1.359375 0.90625 2.125q0.90625 0.765625 2.328125 0.765625zm15.6875 -18.796875l0 4.09375l3.15625 0l0 2.234375l-3.15625 0l0 10.484375q0 1.015625 0.421875 1.53125q0.421875 0.5 1.4375 0.5q0.5 0 1.375 -0.1875l0 2.34375q-1.140625 0.3125 -2.21875 0.3125q-1.9375 0 -2.921875 -1.171875q-0.984375 -1.171875 -0.984375 -3.328125l0 -10.484375l-3.078125 0l0 -2.234375l3.078125 0l0 -4.09375l2.890625 0zm9.671875 21.0l-2.890625 0l0 -16.90625l2.890625 0l0 16.90625zm-3.125 -21.390625q0 -0.703125 0.421875 -1.1875q0.4375 -0.484375 1.28125 -0.484375q0.84375 0 1.28125 0.484375q0.4375 0.484375 0.4375 1.1875q0 0.703125 -0.4375 1.171875q-0.4375 0.46875 -1.28125 0.46875q-0.84375 0 -1.28125 -0.46875q-0.421875 -0.46875 -0.421875 -1.171875zm6.984375 12.78125q0 -2.484375 0.96875 -4.46875q0.984375 -1.984375 2.71875 -3.0625q1.75 -1.078125 3.984375 -1.078125q3.453125 0 5.578125 2.390625q2.140625 2.390625 2.140625 6.359375l0 0.203125q0 2.46875 -0.953125 4.4375q-0.9375 1.953125 -2.703125 3.046875q-1.75 1.09375 -4.03125 1.09375q-3.4375 0 -5.578125 -2.390625q-2.125 -2.390625 -2.125 -6.328125l0 -0.203125zm2.90625 0.34375q0 2.8125 1.296875 4.515625q1.3125 1.703125 3.5 1.703125q2.203125 0 3.5 -1.71875q1.296875 -1.734375 1.296875 -4.84375q0 -2.78125 -1.328125 -4.5q-1.3125 -1.734375 -3.5 -1.734375q-2.140625 0 -3.453125 1.703125q-1.3125 1.703125 -1.3125 4.875zm18.84375 -8.640625l0.09375 2.125q1.9375 -2.4375 5.0625 -2.4375q5.359375 0 5.40625 6.046875l0 11.171875l-2.890625 0l0 -11.1875q-0.015625 -1.828125 -0.84375 -2.703125q-0.8125 -0.875 -2.546875 -0.875q-1.40625 0 -2.46875 0.75q-1.0625 0.75 -1.65625 1.96875l0 12.046875l-2.890625 0l0 -16.90625l2.734375 0z" fill-rule="nonzero"/>
    <path fill="#000000" fill-opacity="0.0" d="m157.92651 258.54068l0 53.700775" fill-rule="evenodd"/>
    <path stroke="#48ffd5" stroke-width="2.0" stroke-linejoin="round" stroke-linecap="butt" d="m157.92651 258.54068l0 53.700775" fill-rule="evenodd"/>
    <path fill="#000000" fill-opacity="0.0" d="m613.53546 132.24147l325.4173 0l0 64.62991l-325.4173 0z" fill-rule="evenodd"/>
    <path fill="#ffd0d0" d="m726.5722 149.21147l7.4375 18.5625l7.4375 -18.5625l3.890625 0l0 22.75l-3.0 0l0 -8.859375l0.28125 -9.5625l-7.46875 18.421875l-2.296875 0l-7.453125 -18.375l0.296875 9.515625l0 8.859375l-3.0 0l0 -22.75l3.875 0zm26.75 22.75l-2.890625 0l0 -16.90625l2.890625 0l0 16.90625zm-3.125 -21.390625q0 -0.703125 0.421875 -1.1875q0.4375 -0.484375 1.28125 -0.484375q0.84375 0 1.28125 0.484375q0.4375 0.484375 0.4375 1.1875q0 0.703125 -0.4375 1.171875q-0.4375 0.46875 -1.28125 0.46875q-0.84375 0 -1.28125 -0.46875q-0.421875 -0.46875 -0.421875 -1.171875zm17.59375 16.90625q0 -1.171875 -0.890625 -1.8125q-0.875 -0.65625 -3.078125 -1.125q-2.1875 -0.46875 -3.484375 -1.125q-1.28125 -0.65625 -1.90625 -1.5625q-0.609375 -0.90625 -0.609375 -2.15625q0 -2.078125 1.75 -3.515625q1.765625 -1.4375 4.5 -1.4375q2.875 0 4.65625 1.484375q1.796875 1.484375 1.796875 3.796875l-2.90625 0q0 -1.1875 -1.015625 -2.046875q-1.0 -0.859375 -2.53125 -0.859375q-1.578125 0 -2.46875 0.6875q-0.890625 0.6875 -0.890625 1.796875q0 1.046875 0.828125 1.578125q0.828125 0.53125 2.984375 1.015625q2.171875 0.484375 3.515625 1.15625q1.34375 0.671875 1.984375 1.625q0.65625 0.9375 0.65625 2.296875q0 2.265625 -1.8125 3.640625q-1.8125 1.359375 -4.703125 1.359375q-2.03125 0 -3.59375 -0.71875q-1.5625 -0.71875 -2.453125 -2.0q-0.875 -1.296875 -0.875 -2.796875l2.890625 0q0.078125 1.453125 1.15625 2.3125q1.09375 0.84375 2.875 0.84375q1.640625 0 2.625 -0.65625q1.0 -0.671875 1.0 -1.78125zm16.5 0q0 -1.171875 -0.890625 -1.8125q-0.875 -0.65625 -3.078125 -1.125q-2.1875 -0.46875 -3.484375 -1.125q-1.28125 -0.65625 -1.90625 -1.5625q-0.609375 -0.90625 -0.609375 -2.15625q0 -2.078125 1.75 -3.515625q1.765625 -1.4375 4.5 -1.4375q2.875 0 4.65625 1.484375q1.796875 1.484375 1.796875 3.796875l-2.90625 0q0 -1.1875 -1.015625 -2.046875q-1.0 -0.859375 -2.53125 -0.859375q-1.578125 0 -2.46875 0.6875q-0.890625 0.6875 -0.890625 1.796875q0 1.046875 0.828125 1.578125q0.828125 0.53125 2.984375 1.015625q2.171875 0.484375 3.515625 1.15625q1.34375 0.671875 1.984375 1.625q0.65625 0.9375 0.65625 2.296875q0 2.265625 -1.8125 3.640625q-1.8125 1.359375 -4.703125 1.359375q-2.03125 0 -3.59375 -0.71875q-1.5625 -0.71875 -2.453125 -2.0q-0.875 -1.296875 -0.875 -2.796875l2.890625 0q0.078125 1.453125 1.15625 2.3125q1.09375 0.84375 2.875 0.84375q1.640625 0 2.625 -0.65625q1.0 -0.671875 1.0 -1.78125zm9.796875 4.484375l-2.890625 0l0 -16.90625l2.890625 0l0 16.90625zm-3.125 -21.390625q0 -0.703125 0.421875 -1.1875q0.4375 -0.484375 1.28125 -0.484375q0.84375 0 1.28125 0.484375q0.4375 0.484375 0.4375 1.1875q0 0.703125 -0.4375 1.171875q-0.4375 0.46875 -1.28125 0.46875q-0.84375 0 -1.28125 -0.46875q-0.421875 -0.46875 -0.421875 -1.171875zm6.984375 12.78125q0 -2.484375 0.96875 -4.46875q0.984375 -1.984375 2.71875 -3.0625q1.75 -1.078125 3.984375 -1.078125q3.453125 0 5.578125 2.390625q2.140625 2.390625 2.140625 6.359375l0 0.203125q0 2.46875 -0.953125 4.4375q-0.9375 1.953125 -2.703125 3.046875q-1.75 1.09375 -4.03125 1.09375q-3.4375 0 -5.578125 -2.390625q-2.125 -2.390625 -2.125 -6.328125l0 -0.203125zm2.90625 0.34375q0 2.8125 1.296875 4.515625q1.3125 1.703125 3.5 1.703125q2.203125 0 3.5 -1.71875q1.296875 -1.734375 1.296875 -4.84375q0 -2.78125 -1.328125 -4.5q-1.3125 -1.734375 -3.5 -1.734375q-2.140625 0 -3.453125 1.703125q-1.3125 1.703125 -1.3125 4.875zm18.84375 -8.640625l0.09375 2.125q1.9375 -2.4375 5.0625 -2.4375q5.359375 0 5.40625 6.046875l0 11.171875l-2.890625 0l0 -11.1875q-0.015625 -1.828125 -0.84375 -2.703125q-0.8125 -0.875 -2.546875 -0.875q-1.40625 0 -2.46875 0.75q-1.0625 0.75 -1.65625 1.96875l0 12.046875l-2.890625 0l0 -16.90625l2.734375 0z" fill-rule="nonzero"/>
    <path fill="#ffd0d0" d="m706.8144 201.36772q0 -3.890625 1.84375 -6.25q1.84375 -2.375 4.828125 -2.375q2.96875 0 4.703125 2.03125l0 -8.8125l2.890625 0l0 24.0l-2.65625 0l-0.140625 -1.8125q-1.734375 2.125 -4.828125 2.125q-2.9375 0 -4.796875 -2.40625q-1.84375 -2.40625 -1.84375 -6.28125l0 -0.21875zm2.890625 0.328125q0 2.875 1.1875 4.5q1.1875 1.625 3.28125 1.625q2.75 0 4.015625 -2.46875l0 -7.765625q-1.296875 -2.390625 -3.984375 -2.390625q-2.125 0 -3.3125 1.640625q-1.1875 1.640625 -1.1875 4.859375zm22.875 8.578125q-3.4375 0 -5.59375 -2.25q-2.15625 -2.265625 -2.15625 -6.046875l0 -0.53125q0 -2.515625 0.953125 -4.484375q0.96875 -1.984375 2.6875 -3.09375q1.734375 -1.125 3.75 -1.125q3.296875 0 5.125 2.171875q1.828125 2.171875 1.828125 6.21875l0 1.203125l-11.453125 0q0.0625 2.5 1.453125 4.046875q1.40625 1.53125 3.5625 1.53125q1.53125 0 2.59375 -0.625q1.0625 -0.625 1.859375 -1.65625l1.765625 1.375q-2.125 3.265625 -6.375 3.265625zm-0.359375 -15.15625q-1.75 0 -2.9375 1.28125q-1.1875 1.265625 -1.46875 3.5625l8.46875 0l0 -0.21875q-0.125 -2.203125 -1.1875 -3.40625q-1.0625 -1.21875 -2.875 -1.21875zm24.609375 6.578125q0 3.875 -1.78125 6.234375q-1.78125 2.34375 -4.78125 2.34375q-3.203125 0 -4.953125 -2.265625l-0.140625 1.953125l-2.65625 0l0 -24.0l2.890625 0l0 8.953125q1.75 -2.171875 4.828125 -2.171875q3.078125 0 4.828125 2.328125q1.765625 2.328125 1.765625 6.375l0 0.25zm-2.890625 -0.328125q0 -2.953125 -1.140625 -4.5625q-1.140625 -1.609375 -3.28125 -1.609375q-2.859375 0 -4.109375 2.65625l0 7.3125q1.328125 2.65625 4.140625 2.65625q2.078125 0 3.234375 -1.609375q1.15625 -1.609375 1.15625 -4.84375zm14.703125 -5.71875q-0.65625 -0.109375 -1.421875 -0.109375q-2.84375 0 -3.859375 2.421875l0 12.0l-2.890625 0l0 -16.90625l2.8125 0l0.046875 1.953125q1.421875 -2.265625 4.03125 -2.265625q0.84375 0 1.28125 0.21875l0 2.6875zm5.796875 14.3125l-2.890625 0l0 -16.90625l2.890625 0l0 16.90625zm-3.125 -21.390625q0 -0.703125 0.421875 -1.1875q0.4375 -0.484375 1.28125 -0.484375q0.84375 0 1.28125 0.484375q0.4375 0.484375 0.4375 1.1875q0 0.703125 -0.4375 1.171875q-0.4375 0.46875 -1.28125 0.46875q-0.84375 0 -1.28125 -0.46875q-0.421875 -0.46875 -0.421875 -1.171875zm14.765625 21.703125q-3.4375 0 -5.59375 -2.25q-2.15625 -2.265625 -2.15625 -6.046875l0 -0.53125q0 -2.515625 0.953125 -4.484375q0.96875 -1.984375 2.6875 -3.09375q1.734375 -1.125 3.75 -1.125q3.296875 0 5.125 2.171875q1.828125 2.171875 1.828125 6.21875l0 1.203125l-11.453125 0q0.0625 2.5 1.453125 4.046875q1.40625 1.53125 3.5625 1.53125q1.53125 0 2.59375 -0.625q1.0625 -0.625 1.859375 -1.65625l1.765625 1.375q-2.125 3.265625 -6.375 3.265625zm-0.359375 -15.15625q-1.75 0 -2.9375 1.28125q-1.1875 1.265625 -1.46875 3.5625l8.46875 0l0 -0.21875q-0.125 -2.203125 -1.1875 -3.40625q-1.0625 -1.21875 -2.875 -1.21875zm11.265625 14.84375l0 -14.671875l-2.671875 0l0 -2.234375l2.671875 0l0 -1.4375q0 -2.828125 1.609375 -4.40625q1.625 -1.578125 4.578125 -1.578125q1.75 0 4.421875 0.953125l-0.484375 2.4375q-1.953125 -0.78125 -3.71875 -0.78125q-1.859375 0 -2.6875 0.84375q-0.8125 0.828125 -0.8125 2.5l0 1.46875l3.453125 0l0 2.234375l-3.453125 0l0 14.671875l-2.90625 0zm12.046875 0l-2.90625 0l0 -16.90625l2.90625 0l0 16.90625zm7.4375 -16.90625l0.09375 2.125q1.9375 -2.4375 5.0625 -2.4375q5.359375 0 5.40625 6.046875l0 11.171875l-2.890625 0l0 -11.1875q-0.015625 -1.828125 -0.84375 -2.703125q-0.8125 -0.875 -2.546875 -0.875q-1.40625 0 -2.46875 0.75q-1.0625 0.75 -1.65625 1.96875l0 12.046875l-2.890625 0l0 -16.90625l2.734375 0zm14.234375 8.3125q0 -3.953125 1.828125 -6.28125q1.828125 -2.34375 4.84375 -2.34375q3.09375 0 4.828125 2.1875l0.140625 -1.875l2.640625 0l0 16.5q0 3.28125 -1.953125 5.171875q-1.9375 1.890625 -5.21875 1.890625q-1.828125 0 -3.578125 -0.78125q-1.75 -0.78125 -2.671875 -2.140625l1.5 -1.734375q1.859375 2.296875 4.546875 2.296875q2.109375 0 3.28125 -1.1875q1.1875 -1.1875 1.1875 -3.34375l0 -1.453125q-1.734375 2.0 -4.734375 2.0q-2.96875 0 -4.8125 -2.390625q-1.828125 -2.390625 -1.828125 -6.515625zm2.90625 0.328125q0 2.859375 1.171875 4.5q1.171875 1.625 3.28125 1.625q2.734375 0 4.015625 -2.484375l0 -7.71875q-1.328125 -2.421875 -3.984375 -2.421875q-2.109375 0 -3.296875 1.640625q-1.1875 1.640625 -1.1875 4.859375z" fill-rule="nonzero"/>
    <path fill="#000000" fill-opacity="0.0" d="m613.53546 343.1286l325.4173 0l0 64.629944l-325.4173 0z" fill-rule="evenodd"/>
    <path fill="#a1f7ff" d="m740.455 372.70798q-3.859375 -1.109375 -5.625 -2.71875q-1.75 -1.625 -1.75 -4.0q0 -2.6875 2.140625 -4.4375q2.15625 -1.765625 5.59375 -1.765625q2.34375 0 4.171875 0.90625q1.84375 0.90625 2.84375 2.5q1.015625 1.59375 1.015625 3.484375l-3.015625 0q0 -2.0625 -1.3125 -3.234375q-1.3125 -1.1875 -3.703125 -1.1875q-2.21875 0 -3.46875 0.984375q-1.234375 0.96875 -1.234375 2.703125q0 1.390625 1.171875 2.359375q1.1875 0.953125 4.015625 1.75q2.84375 0.796875 4.4375 1.765625q1.609375 0.953125 2.375 2.234375q0.78125 1.28125 0.78125 3.015625q0 2.765625 -2.15625 4.4375q-2.15625 1.65625 -5.765625 1.65625q-2.34375 0 -4.375 -0.890625q-2.03125 -0.90625 -3.140625 -2.46875q-1.09375 -1.5625 -1.09375 -3.546875l3.015625 0q0 2.0625 1.515625 3.265625q1.53125 1.1875 4.078125 1.1875q2.375 0 3.640625 -0.96875q1.265625 -0.96875 1.265625 -2.640625q0 -1.671875 -1.171875 -2.578125q-1.171875 -0.921875 -4.25 -1.8125zm11.125 1.546875q0 -3.984375 1.828125 -6.296875q1.828125 -2.328125 4.90625 -2.328125q3.0 0 4.734375 2.015625l0.125 -1.703125l2.65625 0l0 23.40625l-2.890625 0l0 -8.0625q-1.75 1.875 -4.65625 1.875q-3.0625 0 -4.890625 -2.375q-1.8125 -2.390625 -1.8125 -6.328125l0 -0.203125zm2.890625 0.328125q0 2.90625 1.21875 4.5625q1.234375 1.65625 3.3125 1.65625q2.578125 0 3.9375 -2.28125l0 -8.28125q-1.375 -2.234375 -3.90625 -2.234375q-2.09375 0 -3.328125 1.671875q-1.234375 1.65625 -1.234375 4.90625zm26.4375 6.59375q-1.6875 1.984375 -4.953125 1.984375q-2.703125 0 -4.125 -1.5625q-1.40625 -1.578125 -1.421875 -4.65625l0 -11.0l2.890625 0l0 10.921875q0 3.84375 3.125 3.84375q3.3125 0 4.40625 -2.46875l0 -12.296875l2.890625 0l0 16.90625l-2.75 0l-0.0625 -1.671875zm17.640625 1.671875q-0.25 -0.5 -0.40625 -1.78125q-2.015625 2.09375 -4.8125 2.09375q-2.5 0 -4.109375 -1.40625q-1.59375 -1.421875 -1.59375 -3.59375q0 -2.640625 2.0 -4.09375q2.015625 -1.46875 5.65625 -1.46875l2.8125 0l0 -1.328125q0 -1.515625 -0.90625 -2.40625q-0.90625 -0.90625 -2.671875 -0.90625q-1.546875 0 -2.59375 0.78125q-1.046875 0.78125 -1.046875 1.890625l-2.90625 0q0 -1.265625 0.890625 -2.4375q0.90625 -1.1875 2.4375 -1.875q1.546875 -0.6875 3.390625 -0.6875q2.921875 0 4.578125 1.46875q1.65625 1.453125 1.71875 4.015625l0 7.78125q0 2.328125 0.59375 3.703125l0 0.25l-3.03125 0zm-4.796875 -2.203125q1.359375 0 2.578125 -0.703125q1.21875 -0.703125 1.765625 -1.828125l0 -3.46875l-2.265625 0q-5.3125 0 -5.3125 3.109375q0 1.359375 0.90625 2.125q0.90625 0.765625 2.328125 0.765625zm11.0625 -6.390625q0 -3.890625 1.84375 -6.25q1.84375 -2.375 4.828125 -2.375q2.96875 0 4.703125 2.03125l0 -8.8125l2.890625 0l0 24.0l-2.65625 0l-0.140625 -1.8125q-1.734375 2.125 -4.828125 2.125q-2.9375 0 -4.796875 -2.40625q-1.84375 -2.40625 -1.84375 -6.28125l0 -0.21875zm2.890625 0.328125q0 2.875 1.1875 4.5q1.1875 1.625 3.28125 1.625q2.75 0 4.015625 -2.46875l0 -7.765625q-1.296875 -2.390625 -3.984375 -2.390625q-2.125 0 -3.3125 1.640625q-1.1875 1.640625 -1.1875 4.859375z" fill-rule="nonzero"/>
    <path fill="#a1f7ff" d="m677.34564 412.25485q0 -3.890625 1.84375 -6.25q1.84375 -2.375 4.828125 -2.375q2.96875 0 4.703125 2.03125l0 -8.8125l2.890625 0l0 24.0l-2.65625 0l-0.140625 -1.8125q-1.734375 2.125 -4.828125 2.125q-2.9375 0 -4.796875 -2.40625q-1.84375 -2.40625 -1.84375 -6.28125l0 -0.21875zm2.890625 0.328125q0 2.875 1.1875 4.5q1.1875 1.625 3.28125 1.625q2.75 0 4.015625 -2.46875l0 -7.765625q-1.296875 -2.390625 -3.984375 -2.390625q-2.125 0 -3.3125 1.640625q-1.1875 1.640625 -1.1875 4.859375zm19.0 8.265625l-2.890625 0l0 -16.90625l2.890625 0l0 16.90625zm-3.125 -21.390625q0 -0.703125 0.421875 -1.1875q0.4375 -0.484375 1.28125 -0.484375q0.84375 0 1.28125 0.484375q0.4375 0.484375 0.4375 1.1875q0 0.703125 -0.4375 1.171875q-0.4375 0.46875 -1.28125 0.46875q-0.84375 0 -1.28125 -0.46875q-0.421875 -0.46875 -0.421875 -1.171875zm17.59375 16.90625q0 -1.171875 -0.890625 -1.8125q-0.875 -0.65625 -3.078125 -1.125q-2.1875 -0.46875 -3.484375 -1.125q-1.28125 -0.65625 -1.90625 -1.5625q-0.609375 -0.90625 -0.609375 -2.15625q0 -2.078125 1.75 -3.515625q1.765625 -1.4375 4.5 -1.4375q2.875 0 4.65625 1.484375q1.796875 1.484375 1.796875 3.796875l-2.90625 0q0 -1.1875 -1.015625 -2.046875q-1.0 -0.859375 -2.53125 -0.859375q-1.578125 0 -2.46875 0.6875q-0.890625 0.6875 -0.890625 1.796875q0 1.046875 0.828125 1.578125q0.828125 0.53125 2.984375 1.015625q2.171875 0.484375 3.515625 1.15625q1.34375 0.671875 1.984375 1.625q0.65625 0.9375 0.65625 2.296875q0 2.265625 -1.8125 3.640625q-1.8125 1.359375 -4.703125 1.359375q-2.03125 0 -3.59375 -0.71875q-1.5625 -0.71875 -2.453125 -2.0q-0.875 -1.296875 -0.875 -2.796875l2.890625 0q0.078125 1.453125 1.15625 2.3125q1.09375 0.84375 2.875 0.84375q1.640625 0 2.625 -0.65625q1.0 -0.671875 1.0 -1.78125zm16.5 0q0 -1.171875 -0.890625 -1.8125q-0.875 -0.65625 -3.078125 -1.125q-2.1875 -0.46875 -3.484375 -1.125q-1.28125 -0.65625 -1.90625 -1.5625q-0.609375 -0.90625 -0.609375 -2.15625q0 -2.078125 1.75 -3.515625q1.765625 -1.4375 4.5 -1.4375q2.875 0 4.65625 1.484375q1.796875 1.484375 1.796875 3.796875l-2.90625 0q0 -1.1875 -1.015625 -2.046875q-1.0 -0.859375 -2.53125 -0.859375q-1.578125 0 -2.46875 0.6875q-0.890625 0.6875 -0.890625 1.796875q0 1.046875 0.828125 1.578125q0.828125 0.53125 2.984375 1.015625q2.171875 0.484375 3.515625 1.15625q1.34375 0.671875 1.984375 1.625q0.65625 0.9375 0.65625 2.296875q0 2.265625 -1.8125 3.640625q-1.8125 1.359375 -4.703125 1.359375q-2.03125 0 -3.59375 -0.71875q-1.5625 -0.71875 -2.453125 -2.0q-0.875 -1.296875 -0.875 -2.796875l2.890625 0q0.078125 1.453125 1.15625 2.3125q1.09375 0.84375 2.875 0.84375q1.640625 0 2.625 -0.65625q1.0 -0.671875 1.0 -1.78125zm13.671875 4.796875q-3.4375 0 -5.59375 -2.25q-2.15625 -2.265625 -2.15625 -6.046875l0 -0.53125q0 -2.515625 0.953125 -4.484375q0.96875 -1.984375 2.6875 -3.09375q1.734375 -1.125 3.75 -1.125q3.296875 0 5.125 2.171875q1.828125 2.171875 1.828125 6.21875l0 1.203125l-11.453125 0q0.0625 2.5 1.453125 4.046875q1.40625 1.53125 3.5625 1.53125q1.53125 0 2.59375 -0.625q1.0625 -0.625 1.859375 -1.65625l1.765625 1.375q-2.125 3.265625 -6.375 3.265625zm-0.359375 -15.15625q-1.75 0 -2.9375 1.28125q-1.1875 1.265625 -1.46875 3.5625l8.46875 0l0 -0.21875q-0.125 -2.203125 -1.1875 -3.40625q-1.0625 -1.21875 -2.875 -1.21875zm13.015625 -2.0625l0.078125 1.875q1.859375 -2.1875 5.015625 -2.1875q3.546875 0 4.828125 2.71875q0.84375 -1.21875 2.1875 -1.96875q1.359375 -0.75 3.203125 -0.75q5.5625 0 5.65625 5.890625l0 11.328125l-2.890625 0l0 -11.15625q0 -1.8125 -0.828125 -2.703125q-0.828125 -0.90625 -2.78125 -0.90625q-1.609375 0 -2.671875 0.96875q-1.0625 0.953125 -1.234375 2.578125l0 11.21875l-2.90625 0l0 -11.078125q0 -3.6875 -3.609375 -3.6875q-2.84375 0 -3.890625 2.421875l0 12.34375l-2.890625 0l0 -16.90625l2.734375 0zm28.46875 16.90625l-2.890625 0l0 -16.90625l2.890625 0l0 16.90625zm-3.125 -21.390625q0 -0.703125 0.421875 -1.1875q0.4375 -0.484375 1.28125 -0.484375q0.84375 0 1.28125 0.484375q0.4375 0.484375 0.4375 1.1875q0 0.703125 -0.4375 1.171875q-0.4375 0.46875 -1.28125 0.46875q-0.84375 0 -1.28125 -0.46875q-0.421875 -0.46875 -0.421875 -1.171875zm10.484375 4.484375l0.09375 2.125q1.9375 -2.4375 5.0625 -2.4375q5.359375 0 5.40625 6.046875l0 11.171875l-2.890625 0l0 -11.1875q-0.015625 -1.828125 -0.84375 -2.703125q-0.8125 -0.875 -2.546875 -0.875q-1.40625 0 -2.46875 0.75q-1.0625 0.75 -1.65625 1.96875l0 12.046875l-2.890625 0l0 -16.90625l2.734375 0zm25.359375 16.90625q-0.25 -0.5 -0.40625 -1.78125q-2.015625 2.09375 -4.8125 2.09375q-2.5 0 -4.109375 -1.40625q-1.59375 -1.421875 -1.59375 -3.59375q0 -2.640625 2.0 -4.09375q2.015625 -1.46875 5.65625 -1.46875l2.8125 0l0 -1.328125q0 -1.515625 -0.90625 -2.40625q-0.90625 -0.90625 -2.671875 -0.90625q-1.546875 0 -2.59375 0.78125q-1.046875 0.78125 -1.046875 1.890625l-2.90625 0q0 -1.265625 0.890625 -2.4375q0.90625 -1.1875 2.4375 -1.875q1.546875 -0.6875 3.390625 -0.6875q2.921875 0 4.578125 1.46875q1.65625 1.453125 1.71875 4.015625l0 7.78125q0 2.328125 0.59375 3.703125l0 0.25l-3.03125 0zm-4.796875 -2.203125q1.359375 0 2.578125 -0.703125q1.21875 -0.703125 1.765625 -1.828125l0 -3.46875l-2.265625 0q-5.3125 0 -5.3125 3.109375q0 1.359375 0.90625 2.125q0.90625 0.765625 2.328125 0.765625zm15.6875 -18.796875l0 4.09375l3.15625 0l0 2.234375l-3.15625 0l0 10.484375q0 1.015625 0.421875 1.53125q0.421875 0.5 1.4375 0.5q0.5 0 1.375 -0.1875l0 2.34375q-1.140625 0.3125 -2.21875 0.3125q-1.9375 0 -2.921875 -1.171875q-0.984375 -1.171875 -0.984375 -3.328125l0 -10.484375l-3.078125 0l0 -2.234375l3.078125 0l0 -4.09375l2.890625 0zm9.671875 21.0l-2.890625 0l0 -16.90625l2.890625 0l0 16.90625zm-3.125 -21.390625q0 -0.703125 0.421875 -1.1875q0.4375 -0.484375 1.28125 -0.484375q0.84375 0 1.28125 0.484375q0.4375 0.484375 0.4375 1.1875q0 0.703125 -0.4375 1.171875q-0.4375 0.46875 -1.28125 0.46875q-0.84375 0 -1.28125 -0.46875q-0.421875 -0.46875 -0.421875 -1.171875zm6.984375 12.78125q0 -2.484375 0.96875 -4.46875q0.984375 -1.984375 2.71875 -3.0625q1.75 -1.078125 3.984375 -1.078125q3.453125 0 5.578125 2.390625q2.140625 2.390625 2.140625 6.359375l0 0.203125q0 2.46875 -0.953125 4.4375q-0.9375 1.953125 -2.703125 3.046875q-1.75 1.09375 -4.03125 1.09375q-3.4375 0 -5.578125 -2.390625q-2.125 -2.390625 -2.125 -6.328125l0 -0.203125zm2.90625 0.34375q0 2.8125 1.296875 4.515625q1.3125 1.703125 3.5 1.703125q2.203125 0 3.5 -1.71875q1.296875 -1.734375 1.296875 -4.84375q0 -2.78125 -1.328125 -4.5q-1.3125 -1.734375 -3.5 -1.734375q-2.140625 0 -3.453125 1.703125q-1.3125 1.703125 -1.3125 4.875zm18.84375 -8.640625l0.09375 2.125q1.9375 -2.4375 5.0625 -2.4375q5.359436 0 5.406311 6.046875l0 11.171875l-2.890625 0l0 -11.1875q-0.015625 -1.828125 -0.84375 -2.703125q-0.8125 -0.875 -2.546936 -0.875q-1.40625 0 -2.46875 0.75q-1.0625 0.75 -1.65625 1.96875l0 12.046875l-2.890625 0l0 -16.90625l2.734375 0z" fill-rule="nonzero"/>
    <path fill="#a1f7ff" d="m654.66595 450.23923q0 -2.484375 0.96875 -4.46875q0.984375 -1.984375 2.71875 -3.0625q1.75 -1.078125 3.984375 -1.078125q3.453125 0 5.578125 2.390625q2.140625 2.390625 2.140625 6.359375l0 0.203125q0 2.46875 -0.953125 4.4375q-0.9375 1.953125 -2.703125 3.046875q-1.75 1.09375 -4.03125 1.09375q-3.4375 0 -5.578125 -2.390625q-2.125 -2.390625 -2.125 -6.328125l0 -0.203125zm2.90625 0.34375q0 2.8125 1.296875 4.515625q1.3125 1.703125 3.5 1.703125q2.203125 0 3.5 -1.71875q1.296875 -1.734375 1.296875 -4.84375q0 -2.78125 -1.328125 -4.5q-1.3125 -1.734375 -3.5 -1.734375q-2.140625 0 -3.453125 1.703125q-1.3125 1.703125 -1.3125 4.875zm24.28125 -6.046875q-0.65625 -0.109375 -1.421875 -0.109375q-2.84375 0 -3.859375 2.421875l0 12.0l-2.890625 0l0 -16.90625l2.8125 0l0.046875 1.953125q1.421875 -2.265625 4.03125 -2.265625q0.84375 0 1.28125 0.21875l0 2.6875zm18.75 0q-0.65625 -0.109375 -1.421875 -0.109375q-2.84375 0 -3.859375 2.421875l0 12.0l-2.890625 0l0 -16.90625l2.8125 0l0.046875 1.953125q1.421875 -2.265625 4.03125 -2.265625q0.84375 0 1.28125 0.21875l0 2.6875zm9.375 14.625q-3.4375 0 -5.59375 -2.25q-2.15625 -2.265625 -2.15625 -6.046875l0 -0.53125q0 -2.515625 0.953125 -4.484375q0.96875 -1.984375 2.6875 -3.09375q1.734375 -1.125 3.75 -1.125q3.296875 0 5.125 2.171875q1.828125 2.171875 1.828125 6.21875l0 1.203125l-11.453125 0q0.0625 2.5 1.453125 4.046875q1.40625 1.53125 3.5625 1.53125q1.53125 0 2.59375 -0.625q1.0625 -0.625 1.859375 -1.65625l1.765625 1.375q-2.125 3.265625 -6.375 3.265625zm-0.359375 -15.15625q-1.75 0 -2.9375 1.28125q-1.1875 1.265625 -1.46875 3.5625l8.46875 0l0 -0.21875q-0.125 -2.203125 -1.1875 -3.40625q-1.0625 -1.21875 -2.875 -1.21875zm20.734375 14.84375q-0.25 -0.5 -0.40625 -1.78125q-2.015625 2.09375 -4.8125 2.09375q-2.5 0 -4.109375 -1.40625q-1.59375 -1.421875 -1.59375 -3.59375q0 -2.640625 2.0 -4.09375q2.015625 -1.46875 5.65625 -1.46875l2.8125 0l0 -1.328125q0 -1.515625 -0.90625 -2.40625q-0.90625 -0.90625 -2.671875 -0.90625q-1.546875 0 -2.59375 0.78125q-1.046875 0.78125 -1.046875 1.890625l-2.90625 0q0 -1.265625 0.890625 -2.4375q0.90625 -1.1875 2.4375 -1.875q1.546875 -0.6875 3.390625 -0.6875q2.921875 0 4.578125 1.46875q1.65625 1.453125 1.71875 4.015625l0 7.78125q0 2.328125 0.59375 3.703125l0 0.25l-3.03125 0zm-4.796875 -2.203125q1.359375 0 2.578125 -0.703125q1.21875 -0.703125 1.765625 -1.828125l0 -3.46875l-2.265625 0q-5.3125 0 -5.3125 3.109375q0 1.359375 0.90625 2.125q0.90625 0.765625 2.328125 0.765625zm19.9375 -12.109375q-0.65625 -0.109375 -1.421875 -0.109375q-2.84375 0 -3.859375 2.421875l0 12.0l-2.890625 0l0 -16.90625l2.8125 0l0.046875 1.953125q1.421875 -2.265625 4.03125 -2.265625q0.84375 0 1.28125 0.21875l0 2.6875zm10.828125 0q-0.65625 -0.109375 -1.421875 -0.109375q-2.84375 0 -3.859375 2.421875l0 12.0l-2.890625 0l0 -16.90625l2.8125 0l0.046875 1.953125q1.421875 -2.265625 4.03125 -2.265625q0.84375 0 1.28125 0.21875l0 2.6875zm12.46875 14.3125q-0.25 -0.5 -0.40625 -1.78125q-2.015625 2.09375 -4.8125 2.09375q-2.5 0 -4.109375 -1.40625q-1.59375 -1.421875 -1.59375 -3.59375q0 -2.640625 2.0 -4.09375q2.015625 -1.46875 5.65625 -1.46875l2.8125 0l0 -1.328125q0 -1.515625 -0.90625 -2.40625q-0.90625 -0.90625 -2.671875 -0.90625q-1.546875 0 -2.59375 0.78125q-1.046875 0.78125 -1.046875 1.890625l-2.90625 0q0 -1.265625 0.890625 -2.4375q0.90625 -1.1875 2.4375 -1.875q1.546875 -0.6875 3.390625 -0.6875q2.921875 0 4.578125 1.46875q1.65625 1.453125 1.71875 4.015625l0 7.78125q0 2.328125 0.59375 3.703125l0 0.25l-3.03125 0zm-4.796875 -2.203125q1.359375 0 2.578125 -0.703125q1.21875 -0.703125 1.765625 -1.828125l0 -3.46875l-2.265625 0q-5.3125 0 -5.3125 3.109375q0 1.359375 0.90625 2.125q0.90625 0.765625 2.328125 0.765625zm14.5 -14.703125l0.09375 2.125q1.9375 -2.4375 5.0625 -2.4375q5.359375 0 5.40625 6.046875l0 11.171875l-2.890625 0l0 -11.1875q-0.015625 -1.828125 -0.84375 -2.703125q-0.8125 -0.875 -2.546875 -0.875q-1.40625 0 -2.46875 0.75q-1.0625 0.75 -1.65625 1.96875l0 12.046875l-2.890625 0l0 -16.90625l2.734375 0zm14.234375 8.3125q0 -3.953125 1.828125 -6.28125q1.828125 -2.34375 4.84375 -2.34375q3.09375 0 4.828125 2.1875l0.140625 -1.875l2.640625 0l0 16.5q0 3.28125 -1.953125 5.171875q-1.9375 1.890625 -5.21875 1.890625q-1.828125 0 -3.578125 -0.78125q-1.75 -0.78125 -2.671875 -2.140625l1.5 -1.734375q1.859375 2.296875 4.546875 2.296875q2.109375 0 3.28125 -1.1875q1.1875 -1.1875 1.1875 -3.34375l0 -1.453125q-1.734375 2.0 -4.734375 2.0q-2.96875 0 -4.8125 -2.390625q-1.828125 -2.390625 -1.828125 -6.515625zm2.90625 0.328125q0 2.859375 1.171875 4.5q1.171875 1.625 3.28125 1.625q2.734375 0 4.015625 -2.484375l0 -7.71875q-1.328125 -2.421875 -3.984375 -2.421875q-2.109375 0 -3.296875 1.640625q-1.1875 1.640625 -1.1875 4.859375zm22.75 8.578125q-3.4375 0 -5.59375 -2.25q-2.15625 -2.265625 -2.15625 -6.046875l0 -0.53125q0 -2.515625 0.953125 -4.484375q0.96875 -1.984375 2.6875 -3.09375q1.734375 -1.125 3.75 -1.125q3.296875 0 5.125 2.171875q1.828125 2.171875 1.828125 6.21875l0 1.203125l-11.453125 0q0.0625 2.5 1.453125 4.046875q1.40625 1.53125 3.5625 1.53125q1.53125 0 2.59375 -0.625q1.0625 -0.625 1.859375 -1.65625l1.765625 1.375q-2.125 3.265625 -6.375 3.265625zm-0.359375 -15.15625q-1.75 0 -2.9375 1.28125q-1.1875 1.265625 -1.46875 3.5625l8.46875 0l0 -0.21875q-0.125 -2.203125 -1.1875 -3.40625q-1.0625 -1.21875 -2.875 -1.21875zm13.015625 -2.0625l0.078125 1.875q1.859375 -2.1875 5.015625 -2.1875q3.546875 0 4.828125 2.71875q0.84375 -1.21875 2.1875 -1.96875q1.359375 -0.75 3.203125 -0.75q5.5625 0 5.65625 5.890625l0 11.328125l-2.890625 0l0 -11.15625q0 -1.8125 -0.828125 -2.703125q-0.828125 -0.90625 -2.78125 -0.90625q-1.609375 0 -2.671875 0.96875q-1.0625 0.953125 -1.234375 2.578125l0 11.21875l-2.90625 0l0 -11.078125q0 -3.6875 -3.609375 -3.6875q-2.84375 0 -3.890625 2.421875l0 12.34375l-2.890625 0l0 -16.90625l2.734375 0zm32.34375 17.21875q-3.4375 0 -5.59375 -2.25q-2.15625 -2.265625 -2.15625 -6.046875l0 -0.53125q0 -2.515625 0.953125 -4.484375q0.96875 -1.984375 2.6875 -3.09375q1.734375 -1.125 3.75 -1.125q3.296875 0 5.125 2.171875q1.828186 2.171875 1.828186 6.21875l0 1.203125l-11.453186 0q0.0625 2.5 1.453125 4.046875q1.40625 1.53125 3.5625 1.53125q1.53125 0 2.59375 -0.625q1.0625 -0.625 1.859375 -1.65625l1.765686 1.375q-2.125061 3.265625 -6.375061 3.265625zm-0.359375 -15.15625q-1.75 0 -2.9375 1.28125q-1.1875 1.265625 -1.46875 3.5625l8.46875 0l0 -0.21875q-0.125 -2.203125 -1.1875 -3.40625q-1.0625 -1.21875 -2.875 -1.21875zm13.031311 -2.0625l0.09375 2.125q1.9375 -2.4375 5.0625 -2.4375q5.359375 0 5.40625 6.046875l0 11.171875l-2.890625 0l0 -11.1875q-0.015625 -1.828125 -0.84375 -2.703125q-0.8125 -0.875 -2.546875 -0.875q-1.40625 0 -2.46875 0.75q-1.0625 0.75 -1.65625 1.96875l0 12.046875l-2.890625 0l0 -16.90625l2.734375 0zm18.84375 -4.09375l0 4.09375l3.15625 0l0 2.234375l-3.15625 0l0 10.484375q0 1.015625 0.421875 1.53125q0.421875 0.5 1.4375 0.5q0.5 0 1.375 -0.1875l0 2.34375q-1.140625 0.3125 -2.21875 0.3125q-1.9375 0 -2.921875 -1.171875q-0.984375 -1.171875 -0.984375 -3.328125l0 -10.484375l-3.078125 0l0 -2.234375l3.078125 0l0 -4.09375l2.890625 0z" fill-rule="nonzero"/>
    <path fill="#000000" fill-opacity="0.0" d="m776.2441 258.22568l0 53.700806" fill-rule="evenodd"/>
    <path stroke="#48ffd5" stroke-width="2.0" stroke-linejoin="round" stroke-linecap="butt" d="m776.2441 258.22568l0 53.700806" fill-rule="evenodd"/>
    <path fill="#000000" fill-opacity="0.0" d="m331.27036 237.46457l273.76376 0l0 45.07086l-273.76376 0z" fill-rule="evenodd"/>
    <path fill="#fbdfbb" d="m392.53503 268.54l-2.1875 0l0 -14.45314l-4.359375 1.609375l0 -1.96875l6.203125 -2.328125l0.34375 0l0 17.14064zm11.0859375 -6.359375l-5.71875 0l0 -1.78125l5.71875 0l0 1.78125zm10.386719 -10.718765l0 1.84375l-0.390625 0q-2.53125 0.046875 -4.03125 1.5q-1.5 1.4531403 -1.734375 4.0937653q1.34375 -1.546875 3.671875 -1.546875q2.234375 0 3.5625 1.578125q1.328125 1.5625 1.328125 4.046875q0 2.625 -1.4375 4.21875q-1.4375 1.578125 -3.84375 1.578125q-2.453125 0 -3.984375 -1.875q-1.515625 -1.890625 -1.515625 -4.859375l0 -0.828125q0 -4.703125 2.0 -7.1875153q2.015625 -2.5 6.0 -2.5625l0.375 0zm-2.84375 7.6875153q-1.109375 0 -2.046875 0.671875q-0.9375 0.671875 -1.296875 1.671875l0 0.796875q0 2.109375 0.9375 3.40625q0.953125 1.28125 2.375 1.28125q1.46875 0 2.296875 -1.078125q0.84375 -1.078125 0.84375 -2.828125q0 -1.75 -0.859375 -2.828125q-0.84375 -1.09375 -2.25 -1.09375zm25.214844 6.40625l2.4375 -9.70314l2.15625 0l-3.6875 12.687515l-1.75 0l-3.09375 -9.609375l-3.0 9.609375l-1.75 0l-3.6875 -12.687515l2.15625 0l2.5 9.500015l2.953125 -9.500015l1.75 0l3.015625 9.70314zm12.066406 3.21875q-2.578125 0 -4.203125 -1.6875q-1.609375 -1.703125 -1.609375 -4.53125l0 -0.40625q0 -1.890625 0.71875 -3.359375q0.71875 -1.484375 2.015625 -2.328125q1.296875 -0.84376526 2.8125 -0.84376526q2.46875 0 3.828125 1.6406403q1.375 1.625 1.375 4.65625l0 0.90625l-8.578125 0q0.046875 1.875 1.09375 3.03125q1.046875 1.15625 2.65625 1.15625q1.15625 0 1.953125 -0.46875q0.796875 -0.46875 1.390625 -1.25l1.328125 1.03125q-1.59375 2.453125 -4.78125 2.453125zm-0.265625 -11.375q-1.3125 0 -2.203125 0.96875q-0.890625 0.953125 -1.109375 2.671875l6.359375 0l0 -0.171875q-0.09375 -1.640625 -0.890625 -2.546875q-0.796875 -0.921875 -2.15625 -0.921875zm12.980499 11.375q-2.5781555 0 -4.2031555 -1.6875q-1.609375 -1.703125 -1.609375 -4.53125l0 -0.40625q0 -1.890625 0.71875 -3.359375q0.71875 -1.484375 2.015625 -2.328125q1.2969055 -0.84376526 2.8125305 -0.84376526q2.46875 0 3.828125 1.6406403q1.375 1.625 1.375 4.65625l0 0.90625l-8.5781555 0q0.046875 1.875 1.09375 3.03125q1.0469055 1.15625 2.6562805 1.15625q1.15625 0 1.953125 -0.46875q0.796875 -0.46875 1.390625 -1.25l1.328125 1.03125q-1.59375 2.453125 -4.78125 2.453125zm-0.265625 -11.375q-1.3125 0 -2.2031555 0.96875q-0.890625 0.953125 -1.109375 2.671875l6.3594055 0l0 -0.171875q-0.09375 -1.640625 -0.890625 -2.546875q-0.796875 -0.921875 -2.15625 -0.921875zm11.261719 5.265625l-1.359375 1.421875l0 4.453125l-2.171875 0l0 -18.000015l2.171875 0l0 10.89064l1.15625 -1.40625l3.953125 -4.1718903l2.625 0l-4.921875 5.2968903l5.5 7.390625l-2.546875 0l-4.40625 -5.875zm16.007812 2.515625q0 -0.890625 -0.671875 -1.375q-0.65625 -0.484375 -2.3125 -0.828125q-1.640625 -0.359375 -2.609375 -0.84375q-0.96875 -0.5 -1.4375 -1.171875q-0.453125 -0.6875 -0.453125 -1.625q0 -1.5625 1.3125 -2.640625q1.328125 -1.0781403 3.375 -1.0781403q2.15625 0 3.5 1.1250153q1.34375 1.109375 1.34375 2.84375l-2.1875 0q0 -0.890625 -0.75 -1.53125q-0.75 -0.65625 -1.90625 -0.65625q-1.1875 0 -1.859375 0.515625q-0.65625 0.515625 -0.65625 1.359375q0 0.78125 0.609375 1.1875q0.625 0.390625 2.25 0.75q1.625 0.359375 2.625 0.875q1.015625 0.5 1.5 1.21875q0.484375 0.703125 0.484375 1.71875q0 1.703125 -1.359375 2.734375q-1.359375 1.015625 -3.515625 1.015625q-1.53125 0 -2.703125 -0.53125q-1.171875 -0.546875 -1.84375 -1.515625q-0.65625 -0.96875 -0.65625 -2.09375l2.171875 0q0.0625 1.09375 0.875 1.734375q0.8125 0.640625 2.15625 0.640625q1.21875 0 1.96875 -0.5q0.75 -0.5 0.75 -1.328125zm16.019531 1.828125q1.15625 0 2.015625 -0.703125q0.875 -0.703125 0.96875 -1.765625l2.046875 0q-0.0625 1.09375 -0.75 2.078125q-0.6875 0.984375 -1.84375 1.578125q-1.15625 0.578125 -2.4375 0.578125q-2.59375 0 -4.125 -1.71875q-1.53125 -1.734375 -1.53125 -4.734375l0 -0.375q0 -1.84375 0.671875 -3.28125q0.6875 -1.453125 1.953125 -2.25q1.28125 -0.79689026 3.015625 -0.79689026q2.125 0 3.53125 1.2812653q1.421875 1.28125 1.515625 3.3125l-2.046875 0q-0.09375 -1.21875 -0.9375 -2.015625q-0.828125 -0.796875 -2.0625 -0.796875q-1.65625 0 -2.5625 1.203125q-0.90625 1.1875 -0.90625 3.4375l0 0.40625q0 2.1875 0.890625 3.375q0.90625 1.1875 2.59375 1.1875zm11.6249695 -1.640625l2.953125 -9.51564l2.3125 0l-5.09375 14.64064q-1.1875 3.171875 -3.765625 3.171875l-0.40621948 -0.03125l-0.8125 -0.15625l0 -1.765625l0.59375 0.046875q1.0937195 0 1.7030945 -0.453125q0.625 -0.4375 1.015625 -1.609375l0.484375 -1.296875l-4.5155945 -12.54689l2.3593445 0l3.171875 9.51564zm12.140625 1.640625q1.15625 0 2.015625 -0.703125q0.875 -0.703125 0.96875 -1.765625l2.046875 0q-0.0625 1.09375 -0.75 2.078125q-0.6875 0.984375 -1.84375 1.578125q-1.15625 0.578125 -2.4375 0.578125q-2.59375 0 -4.125 -1.71875q-1.53125 -1.734375 -1.53125 -4.734375l0 -0.375q0 -1.84375 0.671875 -3.28125q0.6875 -1.453125 1.953125 -2.25q1.28125 -0.79689026 3.015625 -0.79689026q2.125 0 3.53125 1.2812653q1.421875 1.28125 1.515625 3.3125l-2.046875 0q-0.09375 -1.21875 -0.9375 -2.015625q-0.828125 -0.796875 -2.0625 -0.796875q-1.65625 0 -2.5625 1.203125q-0.90625 1.1875 -0.90625 3.4375l0 0.40625q0 2.1875 0.890625 3.375q0.90625 1.1875 2.59375 1.1875zm9.828125 1.53125l-2.171875 0l0 -18.000015l2.171875 0l0 18.000015zm8.730469 0.234375q-2.578125 0 -4.203125 -1.6875q-1.609375 -1.703125 -1.609375 -4.53125l0 -0.40625q0 -1.890625 0.71875 -3.359375q0.71875 -1.484375 2.015625 -2.328125q1.296875 -0.84376526 2.8125 -0.84376526q2.46875 0 3.828125 1.6406403q1.375 1.625 1.375 4.65625l0 0.90625l-8.578125 0q0.046875 1.875 1.09375 3.03125q1.046875 1.15625 2.65625 1.15625q1.15625 0 1.953125 -0.46875q0.796875 -0.46875 1.390625 -1.25l1.328125 1.03125q-1.59375 2.453125 -4.78125 2.453125zm-0.265625 -11.375q-1.3125 0 -2.203125 0.96875q-0.890625 0.953125 -1.109375 2.671875l6.359375 0l0 -0.171875q-0.09375 -1.640625 -0.890625 -2.546875q-0.796875 -0.921875 -2.15625 -0.921875z" fill-rule="nonzero"/>
  </g>
</svg>