<?xml version="1.0" encoding="utf-8"?>
<svg version="1.1" viewBox="0.0 0.0 960.0 540.0" fill="none" stroke="none" stroke-linecap="square" stroke-miterlimit="10" xmlns="http://www.w3.org/2000/svg">
  <clipPath id="g7573bcd9e6_0_135.0">
    <path d="m0 0l960.0 0l0 540.0l-960.0 0l0 -540.0z" clip-rule="nonzero"/>
  </clipPath>
  <g clip-path="url(#g7573bcd9e6_0_135.0)">
    <path fill="#000000" fill-opacity="0.0" d="m553.3963 250.76714l0 0c0 -17.464722 14.157959 -31.62268 31.62268 -31.62268l147.08539 0c8.386841 0 16.430176 3.331665 22.360596 9.26207c5.93042 5.9304047 9.262085 13.973755 9.262085 22.360611l0 126.48692c0 17.464722 -14.157959 31.62268 -31.62268 31.62268l-147.08539 0c-17.464722 0 -31.62268 -14.157959 -31.62268 -31.62268z" fill-rule="evenodd"/>
    <path stroke="#fbdfbb" stroke-width="1.0" stroke-linejoin="round" stroke-linecap="butt" d="m553.3963 250.76714l0 0c0 -17.464722 14.157959 -31.62268 31.62268 -31.62268l147.08539 0c8.386841 0 16.430176 3.331665 22.360596 9.26207c5.93042 5.9304047 9.262085 13.973755 9.262085 22.360611l0 126.48692c0 17.464722 -14.157959 31.62268 -31.62268 31.62268l-147.08539 0c-17.464722 0 -31.62268 -14.157959 -31.62268 -31.62268z" fill-rule="evenodd"/>
    <path fill="#000000" fill-opacity="0.0" d="m68.16798 198.95497l0 0c0 -24.805481 20.10881 -44.91429 44.914284 -44.91429l179.65175 0l0 0c11.912018 0 23.33612 4.732025 31.759186 13.15509c8.423065 8.423065 13.15509 19.847183 13.15509 31.759201l0 230.10844c0 24.80545 -20.108795 44.914276 -44.914276 44.914276l-179.65175 0c-24.805473 0 -44.914284 -20.108826 -44.914284 -44.914276z" fill-rule="evenodd"/>
    <path stroke="#48ffd5" stroke-width="1.0" stroke-linejoin="round" stroke-linecap="butt" d="m68.16798 198.95497l0 0c0 -24.805481 20.10881 -44.91429 44.914284 -44.91429l179.65175 0l0 0c11.912018 0 23.33612 4.732025 31.759186 13.15509c8.423065 8.423065 13.15509 19.847183 13.15509 31.759201l0 230.10844c0 24.80545 -20.108795 44.914276 -44.914276 44.914276l-179.65175 0c-24.805473 0 -44.914284 -20.108826 -44.914284 -44.914276z" fill-rule="evenodd"/>
    <path fill="#435d74" d="m174.54967 184.34612c-3.1439972 0 -5.690735 2.5465393 -5.690735 5.6869354c0 3.133667 2.5467377 5.6802063 5.690735 5.6802063c3.1305695 0 5.677307 -2.5465393 5.677307 -5.6802063c0 -3.140396 -2.5467377 -5.6869354 -5.677307 -5.6869354z" fill-rule="evenodd"/>
    <path fill="#435d74" d="m166.96986 199.50119c-4.1808014 0 -7.5764465 3.5262299 -7.5764465 7.7066956l0 11.367142c0 1.9929504 1.3857727 3.7107697 3.7076874 3.7107697c0.5972595 0 1.2549133 -0.11407471 1.9696045 -0.3657074l0 23.297943c0 2.0902252 1.6978302 3.787918 3.7882233 3.787918c2.0937653 0 3.7915802 -1.6976929 3.7915802 -3.787918l0 -13.386932c0 -1.0501404 0.8455658 -1.8889313 1.8991547 -1.8889313c1.0401611 0 1.8890839 0.8387909 1.8890839 1.8889313l0 13.386932c0 2.0902252 1.697815 3.787918 3.7882233 3.787918c2.090393 0 3.7882233 -1.6976929 3.7882233 -3.787918l0 -23.297943c0.71469116 0.2516327 1.3757019 0.3657074 1.9729614 0.3657074c2.3219147 0 3.7177582 -1.7178192 3.7177582 -3.7107697l0 -11.367142c0 -4.1804657 -3.405716 -7.7066956 -7.5798035 -7.7066956z" fill-rule="evenodd"/>
    <path fill="#435d74" d="m233.04001 184.34612c-3.143982 0 -5.6907196 2.5465393 -5.6907196 5.6869354c0 3.133667 2.5467377 5.6802063 5.6907196 5.6802063c3.1305695 0 5.677307 -2.5465393 5.677307 -5.6802063c0 -3.140396 -2.5467377 -5.6869354 -5.677307 -5.6869354z" fill-rule="evenodd"/>
    <path fill="#435d74" d="m225.4602 199.50119c-4.1808014 0 -7.5764465 3.5262299 -7.5764465 7.7066956l0 11.367142c0 1.9929504 1.3857727 3.7107697 3.7076874 3.7107697c0.5972595 0 1.2549133 -0.11407471 1.9696198 -0.3657074l0 23.297943c0 2.0902252 1.697815 3.787918 3.7882233 3.787918c2.09375 0 3.7915802 -1.6976929 3.7915802 -3.787918l0 -13.386932c0 -1.0501404 0.84555054 -1.8889313 1.8991394 -1.8889313c1.0401764 0 1.8890839 0.8387909 1.8890839 1.8889313l0 13.386932c0 2.0902252 1.697815 3.787918 3.7882233 3.787918c2.0904083 0 3.7882233 -1.6976929 3.7882233 -3.787918l0 -23.297943c0.71469116 0.2516327 1.3757019 0.3657074 1.9729614 0.3657074c2.32193 0 3.7177582 -1.7178192 3.7177582 -3.7107697l0 -11.367142c0 -4.1804657 -3.4057007 -7.7066956 -7.5798035 -7.7066956z" fill-rule="evenodd"/>
    <path fill="#435d74" d="m291.53036 184.34612c-3.1440125 0 -5.690735 2.5465393 -5.690735 5.6869354c0 3.133667 2.5467224 5.6802063 5.690735 5.6802063c3.1305542 0 5.677307 -2.5465393 5.677307 -5.6802063c0 -3.140396 -2.546753 -5.6869354 -5.677307 -5.6869354z" fill-rule="evenodd"/>
    <path fill="#435d74" d="m283.95056 199.50119c-4.1808167 0 -7.5764465 3.5262299 -7.5764465 7.7066956l0 11.367142c0 1.9929504 1.3857727 3.7107697 3.707672 3.7107697c0.5972595 0 1.2549133 -0.11407471 1.969635 -0.3657074l0 23.297943c0 2.0902252 1.697815 3.787918 3.788208 3.787918c2.09375 0 3.7915955 -1.6976929 3.7915955 -3.787918l0 -13.386932c0 -1.0501404 0.84555054 -1.8889313 1.8991394 -1.8889313c1.0401611 0 1.8890686 0.8387909 1.8890686 1.8889313l0 13.386932c0 2.0902252 1.697815 3.787918 3.7882385 3.787918c2.090393 0 3.788208 -1.6976929 3.788208 -3.787918l0 -23.297943c0.71469116 0.2516327 1.3757019 0.3657074 1.9729614 0.3657074c2.32193 0 3.7177734 -1.7178192 3.7177734 -3.7107697l0 -11.367142c0 -4.1804657 -3.4057007 -7.7066956 -7.5798035 -7.7066956z" fill-rule="evenodd"/>
    <path fill="#000000" fill-opacity="0.0" d="m75.77325 34.157356l254.2677 0l0 64.62992l-254.2677 0z" fill-rule="evenodd"/>
    <path fill="#48ffd5" d="m134.74304 63.361732l-9.859375 0l0 8.0625l11.453125 0l0 2.453125l-14.453125 0l0 -22.75l14.296875 0l0 2.46875l-11.296875 0l0 7.3125l9.859375 0l0 2.453125zm7.609375 -6.390625l0.09375 2.125q1.9375 -2.4375 5.0625 -2.4375q5.359375 0 5.40625 6.046875l0 11.171875l-2.890625 0l0 -11.1875q-0.015625 -1.828125 -0.84375 -2.703125q-0.8125 -0.875 -2.546875 -0.875q-1.40625 0 -2.46875 0.75q-1.0625 0.75 -1.65625 1.96875l0 12.046875l-2.890625 0l0 -16.90625l2.734375 0zm14.234375 8.3125q0 -3.953125 1.828125 -6.28125q1.828125 -2.34375 4.84375 -2.34375q3.09375 0 4.828125 2.1875l0.140625 -1.875l2.640625 0l0 16.5q0 3.28125 -1.953125 5.171875q-1.9375 1.890625 -5.21875 1.890625q-1.828125 0 -3.578125 -0.78125q-1.75 -0.78125 -2.671875 -2.140625l1.5 -1.734375q1.859375 2.296875 4.546875 2.296875q2.109375 0 3.28125 -1.1875q1.1875 -1.1875 1.1875 -3.34375l0 -1.453125q-1.734375 2.0 -4.734375 2.0q-2.96875 0 -4.8125 -2.390625q-1.828125 -2.390625 -1.828125 -6.515625zm2.90625 0.328125q0 2.859375 1.171875 4.5q1.171875 1.625 3.28125 1.625q2.734375 0 4.015625 -2.484375l0 -7.71875q-1.328125 -2.421875 -3.984375 -2.421875q-2.109375 0 -3.296875 1.640625q-1.1875 1.640625 -1.1875 4.859375zm18.875 8.265625l-2.890625 0l0 -16.90625l2.890625 0l0 16.90625zm-3.125 -21.390625q0 -0.703125 0.421875 -1.1875q0.4375 -0.484375 1.28125 -0.484375q0.84375 0 1.28125 0.484375q0.4375 0.484375 0.4375 1.1875q0 0.703125 -0.4375 1.171875q-0.4375 0.46875 -1.28125 0.46875q-0.84375 0 -1.28125 -0.46875q-0.421875 -0.46875 -0.421875 -1.171875zm10.484375 4.484375l0.09375 2.125q1.9375 -2.4375 5.0625 -2.4375q5.359375 0 5.40625 6.046875l0 11.171875l-2.890625 0l0 -11.1875q-0.015625 -1.828125 -0.84375 -2.703125q-0.8125 -0.875 -2.546875 -0.875q-1.40625 0 -2.46875 0.75q-1.0625 0.75 -1.65625 1.96875l0 12.046875l-2.890625 0l0 -16.90625l2.734375 0zm21.9375 17.21875q-3.4375 0 -5.59375 -2.25q-2.15625 -2.265625 -2.15625 -6.046875l0 -0.53125q0 -2.515625 0.953125 -4.484375q0.96875 -1.984375 2.6875 -3.09375q1.734375 -1.125 3.75 -1.125q3.296875 0 5.125 2.171875q1.828125 2.171875 1.828125 6.21875l0 1.203125l-11.453125 0q0.0625 2.5 1.453125 4.046875q1.40625 1.53125 3.5625 1.53125q1.53125 0 2.59375 -0.625q1.0625 -0.625 1.859375 -1.65625l1.765625 1.375q-2.125 3.265625 -6.375 3.265625zm-0.359375 -15.15625q-1.75 0 -2.9375 1.28125q-1.1875 1.265625 -1.46875 3.5625l8.46875 0l0 -0.21875q-0.125 -2.203125 -1.1875 -3.40625q-1.0625 -1.21875 -2.875 -1.21875zm17.3125 15.15625q-3.4375 0 -5.59375 -2.25q-2.15625 -2.265625 -2.15625 -6.046875l0 -0.53125q0 -2.515625 0.953125 -4.484375q0.96875 -1.984375 2.6875 -3.09375q1.734375 -1.125 3.75 -1.125q3.296875 0 5.125 2.171875q1.828125 2.171875 1.828125 6.21875l0 1.203125l-11.453125 0q0.0625 2.5 1.453125 4.046875q1.40625 1.53125 3.5625 1.53125q1.53125 0 2.59375 -0.625q1.0625 -0.625 1.859375 -1.65625l1.765625 1.375q-2.125 3.265625 -6.375 3.265625zm-0.359375 -15.15625q-1.75 0 -2.9375 1.28125q-1.1875 1.265625 -1.46875 3.5625l8.46875 0l0 -0.21875q-0.125 -2.203125 -1.1875 -3.40625q-1.0625 -1.21875 -2.875 -1.21875zm18.46875 0.53125q-0.65625 -0.109375 -1.421875 -0.109375q-2.84375 0 -3.859375 2.421875l0 12.0l-2.890625 0l0 -16.90625l2.8125 0l0.046875 1.953125q1.421875 -2.265625 4.03125 -2.265625q0.84375 0 1.28125 0.21875l0 2.6875zm5.796875 14.3125l-2.890625 0l0 -16.90625l2.890625 0l0 16.90625zm-3.125 -21.390625q0 -0.703125 0.421875 -1.1875q0.4375 -0.484375 1.28125 -0.484375q0.84375 0 1.28125 0.484375q0.4375 0.484375 0.4375 1.1875q0 0.703125 -0.4375 1.171875q-0.4375 0.46875 -1.28125 0.46875q-0.84375 0 -1.28125 -0.46875q-0.421875 -0.46875 -0.421875 -1.171875zm10.484375 4.484375l0.09375 2.125q1.9375 -2.4375 5.0625 -2.4375q5.359375 0 5.40625 6.046875l0 11.171875l-2.890625 0l0 -11.1875q-0.015625 -1.828125 -0.84375 -2.703125q-0.8125 -0.875 -2.546875 -0.875q-1.40625 0 -2.46875 0.75q-1.0625 0.75 -1.65625 1.96875l0 12.046875l-2.890625 0l0 -16.90625l2.734375 0zm14.234375 8.3125q0 -3.953125 1.828125 -6.28125q1.828125 -2.34375 4.84375 -2.34375q3.09375 0 4.828125 2.1875l0.140625 -1.875l2.640625 0l0 16.5q0 3.28125 -1.953125 5.171875q-1.9375 1.890625 -5.21875 1.890625q-1.828125 0 -3.578125 -0.78125q-1.75 -0.78125 -2.671875 -2.140625l1.5 -1.734375q1.859375 2.296875 4.546875 2.296875q2.109375 0 3.28125 -1.1875q1.1875 -1.1875 1.1875 -3.34375l0 -1.453125q-1.734375 2.0 -4.734375 2.0q-2.96875 0 -4.8125 -2.390625q-1.828125 -2.390625 -1.828125 -6.515625zm2.90625 0.328125q0 2.859375 1.171875 4.5q1.171875 1.625 3.28125 1.625q2.734375 0 4.015625 -2.484375l0 -7.71875q-1.328125 -2.421875 -3.984375 -2.421875q-2.109375 0 -3.296875 1.640625q-1.1875 1.640625 -1.1875 4.859375z" fill-rule="nonzero"/>
    <path fill="#48ffd5" d="m141.39929 91.59611l-7.3125 0l0 20.28125l-2.984375 0l0 -20.28125l-7.296875 0l0 -2.46875l17.59375 0l0 2.46875zm11.59375 20.28125q-0.25 -0.5 -0.40625 -1.78125q-2.015625 2.09375 -4.8125 2.09375q-2.5 0 -4.109375 -1.40625q-1.59375 -1.421875 -1.59375 -3.59375q0 -2.640625 2.0 -4.09375q2.015625 -1.46875 5.65625 -1.46875l2.8125 0l0 -1.328125q0 -1.515625 -0.90625 -2.40625q-0.90625 -0.90625 -2.671875 -0.90625q-1.546875 0 -2.59375 0.78125q-1.046875 0.78125 -1.046875 1.890625l-2.90625 0q0 -1.265625 0.890625 -2.4375q0.90625 -1.1875 2.4375 -1.875q1.546875 -0.6875 3.390625 -0.6875q2.921875 0 4.578125 1.46875q1.65625 1.453125 1.71875 4.015625l0 7.78125q0 2.328125 0.59375 3.703125l0 0.25l-3.03125 0zm-4.796875 -2.203125q1.359375 0 2.578125 -0.703125q1.21875 -0.703125 1.765625 -1.828125l0 -3.46875l-2.265625 0q-5.3125 0 -5.3125 3.109375q0 1.359375 0.90625 2.125q0.90625 0.765625 2.328125 0.765625zm14.90625 2.203125l-2.890625 0l0 -24.0l2.890625 0l0 24.0zm11.640625 0.3125q-3.4375 0 -5.59375 -2.25q-2.15625 -2.265625 -2.15625 -6.046875l0 -0.53125q0 -2.515625 0.953125 -4.484375q0.96875 -1.984375 2.6875 -3.09375q1.734375 -1.125 3.75 -1.125q3.296875 0 5.125 2.171875q1.828125 2.171875 1.828125 6.21875l0 1.203125l-11.453125 0q0.0625 2.5 1.453125 4.046875q1.40625 1.53125 3.5625 1.53125q1.53125 0 2.59375 -0.625q1.0625 -0.625 1.859375 -1.65625l1.765625 1.375q-2.125 3.265625 -6.375 3.265625zm-0.359375 -15.15625q-1.75 0 -2.9375 1.28125q-1.1875 1.265625 -1.46875 3.5625l8.46875 0l0 -0.21875q-0.125 -2.203125 -1.1875 -3.40625q-1.0625 -1.21875 -2.875 -1.21875zm13.03125 -2.0625l0.09375 2.125q1.9375 -2.4375 5.0625 -2.4375q5.359375 0 5.40625 6.046875l0 11.171875l-2.890625 0l0 -11.1875q-0.015625 -1.828125 -0.84375 -2.703125q-0.8125 -0.875 -2.546875 -0.875q-1.40625 0 -2.46875 0.75q-1.0625 0.75 -1.65625 1.96875l0 12.046875l-2.890625 0l0 -16.90625l2.734375 0zm18.84375 -4.09375l0 4.09375l3.15625 0l0 2.234375l-3.15625 0l0 10.484375q0 1.015625 0.421875 1.53125q0.421875 0.5 1.4375 0.5q0.5 0 1.375 -0.1875l0 2.34375q-1.140625 0.3125 -2.21875 0.3125q-1.9375 0 -2.921875 -1.171875q-0.984375 -1.171875 -0.984375 -3.328125l0 -10.484375l-3.078125 0l0 -2.234375l3.078125 0l0 -4.09375l2.890625 0zm17.90625 12.09375l0 8.90625l-3.0 0l0 -22.75l8.390625 0q3.734375 0 5.84375 1.90625q2.125 1.90625 2.125 5.046875q0 3.3125 -2.078125 5.109375q-2.0625 1.78125 -5.921875 1.78125l-5.359375 0zm0 -2.453125l5.390625 0q2.40625 0 3.6875 -1.125q1.28125 -1.140625 1.28125 -3.28125q0 -2.03125 -1.28125 -3.25q-1.28125 -1.21875 -3.515625 -1.265625l-5.5625 0l0 8.921875zm15.765625 2.75q0 -2.484375 0.96875 -4.46875q0.984375 -1.984375 2.71875 -3.0625q1.75 -1.078125 3.984375 -1.078125q3.453125 0 5.578125 2.390625q2.140625 2.390625 2.140625 6.359375l0 0.203125q0 2.46875 -0.953125 4.4375q-0.9375 1.953125 -2.703125 3.046875q-1.75 1.09375 -4.03125 1.09375q-3.4375 0 -5.578125 -2.390625q-2.125 -2.390625 -2.125 -6.328125l0 -0.203125zm2.90625 0.34375q0 2.8125 1.296875 4.515625q1.3125 1.703125 3.5 1.703125q2.203125 0 3.5 -1.71875q1.296875 -1.734375 1.296875 -4.84375q0 -2.78125 -1.328125 -4.5q-1.3125 -1.734375 -3.5 -1.734375q-2.140625 0 -3.453125 1.703125q-1.3125 1.703125 -1.3125 4.875zm15.34375 -0.34375q0 -2.484375 0.96875 -4.46875q0.984375 -1.984375 2.71875 -3.0625q1.75 -1.078125 3.984375 -1.078125q3.453125 0 5.578125 2.390625q2.140625 2.390625 2.140625 6.359375l0 0.203125q0 2.46875 -0.953125 4.4375q-0.9375 1.953125 -2.703125 3.046875q-1.75 1.09375 -4.03125 1.09375q-3.4375 0 -5.578125 -2.390625q-2.125 -2.390625 -2.125 -6.328125l0 -0.203125zm2.90625 0.34375q0 2.8125 1.296875 4.515625q1.3125 1.703125 3.5 1.703125q2.203125 0 3.5 -1.71875q1.296875 -1.734375 1.296875 -4.84375q0 -2.78125 -1.328125 -4.5q-1.3125 -1.734375 -3.5 -1.734375q-2.140625 0 -3.453125 1.703125q-1.3125 1.703125 -1.3125 4.875zm19.25 8.265625l-2.890625 0l0 -24.0l2.890625 0l0 24.0z" fill-rule="nonzero"/>
    <path fill="#435d74" d="m116.06148 184.34612c-3.1439972 0 -5.690727 2.5465393 -5.690727 5.6869354c0 3.133667 2.54673 5.6802063 5.690727 5.6802063c3.1305695 0 5.6772995 -2.5465393 5.6772995 -5.6802063c0 -3.140396 -2.54673 -5.6869354 -5.6772995 -5.6869354z" fill-rule="evenodd"/>
    <path fill="#435d74" d="m108.481674 199.50119c-4.180809 0 -7.576454 3.5262299 -7.576454 7.7066956l0 11.367142c0 1.9929504 1.3857727 3.7107697 3.707695 3.7107697c0.5972595 0 1.2549133 -0.11407471 1.9696121 -0.3657074l0 23.297943c0 2.0902252 1.6978226 3.787918 3.7882233 3.787918c2.0937576 0 3.7915802 -1.6976929 3.7915802 -3.787918l0 -13.386932c0 -1.0501404 0.84555817 -1.8889313 1.899147 -1.8889313c1.0401688 0 1.8890762 0.8387909 1.8890762 1.8889313l0 13.386932c0 2.0902252 1.6978226 3.787918 3.7882233 3.787918c2.0904083 0 3.788231 -1.6976929 3.788231 -3.787918l0 -23.297943c0.71469116 0.2516327 1.3757019 0.3657074 1.9729614 0.3657074c2.3219147 0 3.7177582 -1.7178192 3.7177582 -3.7107697l0 -11.367142c0 -4.1804657 -3.4057083 -7.7066956 -7.5798035 -7.7066956z" fill-rule="evenodd"/>
    <path fill="#435d74" d="m174.54967 282.49048c-3.1439972 0 -5.690735 2.5465393 -5.690735 5.68692c0 3.133667 2.5467377 5.6802063 5.690735 5.6802063c3.1305695 0 5.677307 -2.5465393 5.677307 -5.6802063c0 -3.1403809 -2.5467377 -5.68692 -5.677307 -5.68692z" fill-rule="evenodd"/>
    <path fill="#435d74" d="m166.96986 297.64554c-4.1808014 0 -7.5764465 3.526245 -7.5764465 7.706726l0 11.367126c0 1.9929504 1.3857727 3.7107544 3.7076874 3.7107544c0.5972595 0 1.2549133 -0.11407471 1.9696045 -0.36569214l0 23.297943c0 2.09021 1.6978302 3.7879028 3.7882233 3.7879028c2.0937653 0 3.7915802 -1.6976929 3.7915802 -3.7879028l0 -13.386932c0 -1.0501404 0.8455658 -1.8889465 1.8991547 -1.8889465c1.0401611 0 1.8890839 0.83880615 1.8890839 1.8889465l0 13.386932c0 2.09021 1.697815 3.7879028 3.7882233 3.7879028c2.090393 0 3.7882233 -1.6976929 3.7882233 -3.7879028l0 -23.297943c0.71469116 0.25161743 1.3757019 0.36569214 1.9729614 0.36569214c2.3219147 0 3.7177582 -1.717804 3.7177582 -3.7107544l0 -11.367126c0 -4.180481 -3.405716 -7.706726 -7.5798035 -7.706726z" fill-rule="evenodd"/>
    <path fill="#435d74" d="m233.04001 282.49048c-3.143982 0 -5.6907196 2.5465393 -5.6907196 5.68692c0 3.133667 2.5467377 5.6802063 5.6907196 5.6802063c3.1305695 0 5.677307 -2.5465393 5.677307 -5.6802063c0 -3.1403809 -2.5467377 -5.68692 -5.677307 -5.68692z" fill-rule="evenodd"/>
    <path fill="#435d74" d="m225.4602 297.64554c-4.1808014 0 -7.5764465 3.526245 -7.5764465 7.706726l0 11.367126c0 1.9929504 1.3857727 3.7107544 3.7076874 3.7107544c0.5972595 0 1.2549133 -0.11407471 1.9696198 -0.36569214l0 23.297943c0 2.09021 1.697815 3.7879028 3.7882233 3.7879028c2.09375 0 3.7915802 -1.6976929 3.7915802 -3.7879028l0 -13.386932c0 -1.0501404 0.84555054 -1.8889465 1.8991394 -1.8889465c1.0401764 0 1.8890839 0.83880615 1.8890839 1.8889465l0 13.386932c0 2.09021 1.697815 3.7879028 3.7882233 3.7879028c2.0904083 0 3.7882233 -1.6976929 3.7882233 -3.7879028l0 -23.297943c0.71469116 0.25161743 1.3757019 0.36569214 1.9729614 0.36569214c2.32193 0 3.7177582 -1.717804 3.7177582 -3.7107544l0 -11.367126c0 -4.180481 -3.4057007 -7.706726 -7.5798035 -7.706726z" fill-rule="evenodd"/>
    <path fill="#435d74" d="m291.53036 282.49048c-3.1440125 0 -5.690735 2.5465393 -5.690735 5.68692c0 3.133667 2.5467224 5.6802063 5.690735 5.6802063c3.1305542 0 5.677307 -2.5465393 5.677307 -5.6802063c0 -3.1403809 -2.546753 -5.68692 -5.677307 -5.68692z" fill-rule="evenodd"/>
    <path fill="#435d74" d="m283.95056 297.64554c-4.1808167 0 -7.5764465 3.526245 -7.5764465 7.706726l0 11.367126c0 1.9929504 1.3857727 3.7107544 3.707672 3.7107544c0.5972595 0 1.2549133 -0.11407471 1.969635 -0.36569214l0 23.297943c0 2.09021 1.697815 3.7879028 3.788208 3.7879028c2.09375 0 3.7915955 -1.6976929 3.7915955 -3.7879028l0 -13.386932c0 -1.0501404 0.84555054 -1.8889465 1.8991394 -1.8889465c1.0401611 0 1.8890686 0.83880615 1.8890686 1.8889465l0 13.386932c0 2.09021 1.697815 3.7879028 3.7882385 3.7879028c2.090393 0 3.788208 -1.6976929 3.788208 -3.7879028l0 -23.297943c0.71469116 0.25161743 1.3757019 0.36569214 1.9729614 0.36569214c2.32193 0 3.7177734 -1.717804 3.7177734 -3.7107544l0 -11.367126c0 -4.180481 -3.4057007 -7.706726 -7.5798035 -7.706726z" fill-rule="evenodd"/>
    <path fill="#435d74" d="m116.06148 282.49048c-3.1439972 0 -5.690727 2.5465393 -5.690727 5.68692c0 3.133667 2.54673 5.6802063 5.690727 5.6802063c3.1305695 0 5.6772995 -2.5465393 5.6772995 -5.6802063c0 -3.1403809 -2.54673 -5.68692 -5.6772995 -5.68692z" fill-rule="evenodd"/>
    <path fill="#435d74" d="m108.481674 297.64554c-4.180809 0 -7.576454 3.526245 -7.576454 7.706726l0 11.367126c0 1.9929504 1.3857727 3.7107544 3.707695 3.7107544c0.5972595 0 1.2549133 -0.11407471 1.9696121 -0.36569214l0 23.297943c0 2.09021 1.6978226 3.7879028 3.7882233 3.7879028c2.0937576 0 3.7915802 -1.6976929 3.7915802 -3.7879028l0 -13.386932c0 -1.0501404 0.84555817 -1.8889465 1.899147 -1.8889465c1.0401688 0 1.8890762 0.83880615 1.8890762 1.8889465l0 13.386932c0 2.09021 1.6978226 3.7879028 3.7882233 3.7879028c2.0904083 0 3.788231 -1.6976929 3.788231 -3.7879028l0 -23.297943c0.71469116 0.25161743 1.3757019 0.36569214 1.9729614 0.36569214c2.3219147 0 3.7177582 -1.717804 3.7177582 -3.7107544l0 -11.367126c0 -4.180481 -3.4057083 -7.706726 -7.5798035 -7.706726z" fill-rule="evenodd"/>
    <path fill="#5f7d95" d="m174.54967 380.63483c-3.1439972 0 -5.690735 2.5465393 -5.690735 5.68692c0 3.1336975 2.5467377 5.680237 5.690735 5.680237c3.1305695 0 5.677307 -2.5465393 5.677307 -5.680237c0 -3.1403809 -2.5467377 -5.68692 -5.677307 -5.68692z" fill-rule="evenodd"/>
    <path fill="#5f7d95" d="m166.96986 395.7899c-4.1808014 0 -7.5764465 3.526245 -7.5764465 7.706726l0 11.367126c0 1.9929504 1.3857727 3.7107544 3.7076874 3.7107544c0.5972595 0 1.2549133 -0.11407471 1.9696045 -0.36569214l0 23.297943c0 2.0902405 1.6978302 3.7879333 3.7882233 3.7879333c2.0937653 0 3.7915802 -1.6976929 3.7915802 -3.7879333l0 -13.386932c0 -1.0501404 0.8455658 -1.888916 1.8991547 -1.888916c1.0401611 0 1.8890839 0.83877563 1.8890839 1.888916l0 13.386932c0 2.0902405 1.697815 3.7879333 3.7882233 3.7879333c2.090393 0 3.7882233 -1.6976929 3.7882233 -3.7879333l0 -23.297943c0.71469116 0.25161743 1.3757019 0.36569214 1.9729614 0.36569214c2.3219147 0 3.7177582 -1.717804 3.7177582 -3.7107544l0 -11.367126c0 -4.180481 -3.405716 -7.706726 -7.5798035 -7.706726z" fill-rule="evenodd"/>
    <path fill="#5f7d95" d="m233.04001 380.63483c-3.143982 0 -5.6907196 2.5465393 -5.6907196 5.68692c0 3.1336975 2.5467377 5.680237 5.6907196 5.680237c3.1305695 0 5.677307 -2.5465393 5.677307 -5.680237c0 -3.1403809 -2.5467377 -5.68692 -5.677307 -5.68692z" fill-rule="evenodd"/>
    <path fill="#5f7d95" d="m225.4602 395.7899c-4.1808014 0 -7.5764465 3.526245 -7.5764465 7.706726l0 11.367126c0 1.9929504 1.3857727 3.7107544 3.7076874 3.7107544c0.5972595 0 1.2549133 -0.11407471 1.9696198 -0.36569214l0 23.297943c0 2.0902405 1.697815 3.7879333 3.7882233 3.7879333c2.09375 0 3.7915802 -1.6976929 3.7915802 -3.7879333l0 -13.386932c0 -1.0501404 0.84555054 -1.888916 1.8991394 -1.888916c1.0401764 0 1.8890839 0.83877563 1.8890839 1.888916l0 13.386932c0 2.0902405 1.697815 3.7879333 3.7882233 3.7879333c2.0904083 0 3.7882233 -1.6976929 3.7882233 -3.7879333l0 -23.297943c0.71469116 0.25161743 1.3757019 0.36569214 1.9729614 0.36569214c2.32193 0 3.7177582 -1.717804 3.7177582 -3.7107544l0 -11.367126c0 -4.180481 -3.4057007 -7.706726 -7.5798035 -7.706726z" fill-rule="evenodd"/>
    <path fill="#5f7d95" d="m291.53036 380.63483c-3.1440125 0 -5.690735 2.5465393 -5.690735 5.68692c0 3.1336975 2.5467224 5.680237 5.690735 5.680237c3.1305542 0 5.677307 -2.5465393 5.677307 -5.680237c0 -3.1403809 -2.546753 -5.68692 -5.677307 -5.68692z" fill-rule="evenodd"/>
    <path fill="#5f7d95" d="m283.95056 395.7899c-4.1808167 0 -7.5764465 3.526245 -7.5764465 7.706726l0 11.367126c0 1.9929504 1.3857727 3.7107544 3.707672 3.7107544c0.5972595 0 1.2549133 -0.11407471 1.969635 -0.36569214l0 23.297943c0 2.0902405 1.697815 3.7879333 3.788208 3.7879333c2.09375 0 3.7915955 -1.6976929 3.7915955 -3.7879333l0 -13.386932c0 -1.0501404 0.84555054 -1.888916 1.8991394 -1.888916c1.0401611 0 1.8890686 0.83877563 1.8890686 1.888916l0 13.386932c0 2.0902405 1.697815 3.7879333 3.7882385 3.7879333c2.090393 0 3.788208 -1.6976929 3.788208 -3.7879333l0 -23.297943c0.71469116 0.25161743 1.3757019 0.36569214 1.9729614 0.36569214c2.32193 0 3.7177734 -1.717804 3.7177734 -3.7107544l0 -11.367126c0 -4.180481 -3.4057007 -7.706726 -7.5798035 -7.706726z" fill-rule="evenodd"/>
    <path fill="#435d74" d="m116.06148 380.63483c-3.1439972 0 -5.690727 2.5465393 -5.690727 5.68692c0 3.1336975 2.54673 5.680237 5.690727 5.680237c3.1305695 0 5.6772995 -2.5465393 5.6772995 -5.680237c0 -3.1403809 -2.54673 -5.68692 -5.6772995 -5.68692z" fill-rule="evenodd"/>
    <path fill="#435d74" d="m108.481674 395.7899c-4.180809 0 -7.576454 3.526245 -7.576454 7.706726l0 11.367126c0 1.9929504 1.3857727 3.7107544 3.707695 3.7107544c0.5972595 0 1.2549133 -0.11407471 1.9696121 -0.36569214l0 23.297943c0 2.0902405 1.6978226 3.7879333 3.7882233 3.7879333c2.0937576 0 3.7915802 -1.6976929 3.7915802 -3.7879333l0 -13.386932c0 -1.0501404 0.84555817 -1.888916 1.899147 -1.888916c1.0401688 0 1.8890762 0.83877563 1.8890762 1.888916l0 13.386932c0 2.0902405 1.6978226 3.7879333 3.7882233 3.7879333c2.0904083 0 3.788231 -1.6976929 3.788231 -3.7879333l0 -23.297943c0.71469116 0.25161743 1.3757019 0.36569214 1.9729614 0.36569214c2.3219147 0 3.7177582 -1.717804 3.7177582 -3.7107544l0 -11.367126c0 -4.180481 -3.4057083 -7.706726 -7.5798035 -7.706726z" fill-rule="evenodd"/>
    <path fill="#fbdfbb" d="m659.778 316.22537c-3.143982 0 -5.690735 2.5465393 -5.690735 5.6869507c0 3.133667 2.546753 5.6802063 5.690735 5.6802063c3.1305542 0 5.677307 -2.5465393 5.677307 -5.6802063c0 -3.1404114 -2.546753 -5.6869507 -5.677307 -5.6869507z" fill-rule="evenodd"/>
    <path fill="#fbdfbb" d="m652.1982 331.38046c-4.180786 0 -7.576416 3.5262146 -7.576416 7.7066956l0 11.367126c0 1.9929504 1.3857422 3.710785 3.7077026 3.710785c0.597229 0 1.2548828 -0.11407471 1.9696045 -0.36572266l0 23.297943c0 2.0902405 1.697815 3.7879333 3.788208 3.7879333c2.09375 0 3.791565 -1.6976929 3.791565 -3.7879333l0 -13.386932c0 -1.0501404 0.84558105 -1.888916 1.8991699 -1.888916c1.0401611 0 1.8890991 0.83877563 1.8890991 1.888916l0 13.386932c0 2.0902405 1.697815 3.7879333 3.788208 3.7879333c2.090393 0 3.788208 -1.6976929 3.788208 -3.7879333l0 -23.297943c0.7147217 0.25164795 1.3757324 0.36572266 1.9729614 0.36572266c2.3219604 0 3.7177734 -1.7178345 3.7177734 -3.710785l0 -11.367126c0 -4.180481 -3.4057007 -7.7066956 -7.579834 -7.7066956z" fill-rule="evenodd"/>
    <path fill="#fbdfbb" d="m718.2684 316.22537c-3.143982 0 -5.690735 2.5465393 -5.690735 5.6869507c0 3.133667 2.546753 5.6802063 5.690735 5.6802063c3.1305542 0 5.677307 -2.5465393 5.677307 -5.6802063c0 -3.1404114 -2.546753 -5.6869507 -5.677307 -5.6869507z" fill-rule="evenodd"/>
    <path fill="#fbdfbb" d="m710.68854 331.38046c-4.180786 0 -7.576416 3.5262146 -7.576416 7.7066956l0 11.367126c0 1.9929504 1.3857422 3.710785 3.7077026 3.710785c0.597229 0 1.2548828 -0.11407471 1.9696045 -0.36572266l0 23.297943c0 2.0902405 1.697815 3.7879333 3.788208 3.7879333c2.09375 0 3.791565 -1.6976929 3.791565 -3.7879333l0 -13.386932c0 -1.0501404 0.84558105 -1.888916 1.8991699 -1.888916c1.0401611 0 1.8890381 0.83877563 1.8890381 1.888916l0 13.386932c0 2.0902405 1.697876 3.7879333 3.788269 3.7879333c2.090393 0 3.788208 -1.6976929 3.788208 -3.7879333l0 -23.297943c0.7147217 0.25164795 1.3757324 0.36572266 1.9729614 0.36572266c2.3218994 0 3.7177734 -1.7178345 3.7177734 -3.710785l0 -11.367126c0 -4.180481 -3.4057007 -7.7066956 -7.579834 -7.7066956z" fill-rule="evenodd"/>
    <path fill="#fbdfbb" d="m601.2898 316.22537c-3.143982 0 -5.690674 2.5465393 -5.690674 5.6869507c0 3.133667 2.546692 5.6802063 5.690674 5.6802063c3.1306152 0 5.677307 -2.5465393 5.677307 -5.6802063c0 -3.1404114 -2.546692 -5.6869507 -5.677307 -5.6869507z" fill-rule="evenodd"/>
    <path fill="#fbdfbb" d="m593.71 331.38046c-4.180786 0 -7.576477 3.5262146 -7.576477 7.7066956l0 11.367126c0 1.9929504 1.3858032 3.710785 3.7077026 3.710785c0.59729004 0 1.2549438 -0.11407471 1.9696045 -0.36572266l0 23.297943c0 2.0902405 1.697815 3.7879333 3.788269 3.7879333c2.09375 0 3.791565 -1.6976929 3.791565 -3.7879333l0 -13.386932c0 -1.0501404 0.84552 -1.888916 1.8991089 -1.888916c1.0402222 0 1.8890991 0.83877563 1.8890991 1.888916l0 13.386932c0 2.0902405 1.697815 3.7879333 3.788208 3.7879333c2.090454 0 3.788269 -1.6976929 3.788269 -3.7879333l0 -23.297943c0.71466064 0.25164795 1.3756714 0.36572266 1.9729614 0.36572266c2.3218994 0 3.7177734 -1.7178345 3.7177734 -3.710785l0 -11.367126c0 -4.180481 -3.4057617 -7.7066956 -7.579834 -7.7066956z" fill-rule="evenodd"/>
    <path fill="#000000" fill-opacity="0.0" d="m583.4304 224.75984l152.69293 0l0 47.181107l-152.69293 0z" fill-rule="evenodd"/>
    <path fill="#fbdfbb" d="m626.2613 254.56548q-0.859375 1.234375 -2.421875 1.8593597q-1.546875 0.609375 -3.609375 0.609375q-2.09375 0 -3.71875 -0.96875q-1.609375 -0.98435974 -2.5 -2.7812347q-0.875 -1.8125 -0.890625 -4.203125l0 -1.484375q0 -3.859375 1.796875 -5.96875q1.796875 -2.125 5.046875 -2.125q2.671875 0 4.296875 1.375q1.640625 1.359375 2.0 3.859375l-2.25 0q-0.625 -3.390625 -4.03125 -3.390625q-2.265625 0 -3.4375 1.59375q-1.15625 1.59375 -1.171875 4.59375l0 1.40625q0 2.859375 1.3125 4.5625q1.3125 1.6875 3.5625 1.6875q1.265625 0 2.203125 -0.28125q0.953125 -0.28125 1.578125 -0.953125l0 -3.828125l-3.953125 0l0 -1.828125l6.1875 0l0 6.265625zm11.238281 0.984375q-1.265625 1.4843597 -3.71875 1.4843597q-2.015625 0 -3.078125 -1.1718597q-1.0625 -1.1875 -1.078125 -3.5l0 -8.25l2.171875 0l0 8.203125q0 2.875 2.34375 2.875q2.484375 0 3.296875 -1.84375l0 -9.234375l2.171875 0l0 12.687485l-2.0625 0l-0.046875 -1.2499847zm13.230469 1.2499847q-0.1875 -0.375 -0.296875 -1.3437347q-1.515625 1.5781097 -3.609375 1.5781097q-1.875 0 -3.078125 -1.0624847q-1.203125 -1.0625 -1.203125 -2.6875q0 -1.984375 1.5 -3.078125q1.515625 -1.09375 4.234375 -1.09375l2.109375 0l0 -1.0q0 -1.140625 -0.6875 -1.8125q-0.671875 -0.671875 -1.984375 -0.671875q-1.171875 0 -1.953125 0.59375q-0.78125 0.578125 -0.78125 1.40625l-2.1875 0q0 -0.9375 0.671875 -1.828125q0.6875 -0.890625 1.828125 -1.40625q1.15625 -0.515625 2.546875 -0.515625q2.1875 0 3.421875 1.109375q1.25 1.09375 1.296875 3.015625l0 5.828125q0 1.75 0.453125 2.7812347l0 0.1875l-2.28125 0zm-3.59375 -1.6562347q1.015625 0 1.921875 -0.515625q0.921875 -0.53125 1.328125 -1.375l0 -2.609375l-1.6875 0q-3.984375 0 -3.984375 2.328125q0 1.03125 0.671875 1.609375q0.6875 0.5625 1.75 0.5625zm14.9453125 -9.078125q-0.484375 -0.078125 -1.0625 -0.078125q-2.125 0 -2.890625 1.8125l0 8.999985l-2.171875 0l0 -12.687485l2.109375 0l0.03125 1.46875q1.078125 -1.703125 3.03125 -1.703125q0.625 0 0.953125 0.171875l0 2.015625zm1.2421875 4.28125q0 -2.90625 1.375 -4.6875q1.390625 -1.78125 3.640625 -1.78125q2.21875 0 3.515625 1.53125l0 -6.609375l2.171875 0l0 17.999985l-1.984375 0l-0.109375 -1.3593597q-1.296875 1.5937347 -3.625 1.5937347q-2.203125 0 -3.59375 -1.7968597q-1.390625 -1.8125 -1.390625 -4.71875l0 -0.171875zm2.171875 0.25q0 2.15625 0.890625 3.375q0.890625 1.21875 2.46875 1.21875q2.0625 0 3.0 -1.84375l0 -5.828125q-0.96875 -1.796875 -2.984375 -1.796875q-1.59375 0 -2.484375 1.234375q-0.890625 1.234375 -0.890625 3.640625zm14.253906 6.2031097l-2.171875 0l0 -12.687485l2.171875 0l0 12.687485zm-2.34375 -16.04686q0 -0.53125 0.3125 -0.890625q0.328125 -0.359375 0.953125 -0.359375q0.640625 0 0.96875 0.359375q0.328125 0.359375 0.328125 0.890625q0 0.53125 -0.328125 0.890625q-0.328125 0.34375 -0.96875 0.34375q-0.625 0 -0.953125 -0.34375q-0.3125 -0.359375 -0.3125 -0.890625zm13.636719 16.04686q-0.1875 -0.375 -0.296875 -1.3437347q-1.515625 1.5781097 -3.609375 1.5781097q-1.875 0 -3.078125 -1.0624847q-1.203125 -1.0625 -1.203125 -2.6875q0 -1.984375 1.5 -3.078125q1.515625 -1.09375 4.234375 -1.09375l2.109375 0l0 -1.0q0 -1.140625 -0.6875 -1.8125q-0.671875 -0.671875 -1.984375 -0.671875q-1.171875 0 -1.953125 0.59375q-0.78125 0.578125 -0.78125 1.40625l-2.1875 0q0 -0.9375 0.671875 -1.828125q0.6875 -0.890625 1.828125 -1.40625q1.15625 -0.515625 2.546875 -0.515625q2.1875 0 3.421875 1.109375q1.25 1.09375 1.296875 3.015625l0 5.828125q0 1.75 0.453125 2.7812347l0 0.1875l-2.28125 0zm-3.59375 -1.6562347q1.015625 0 1.921875 -0.515625q0.921875 -0.53125 1.328125 -1.375l0 -2.609375l-1.6875 0q-3.984375 0 -3.984375 2.328125q0 1.03125 0.671875 1.609375q0.6875 0.5625 1.75 0.5625zm10.8671875 -11.03125l0.078125 1.59375q1.453125 -1.828125 3.796875 -1.828125q4.015625 0 4.046875 4.546875l0 8.374985l-2.15625 0l0 -8.39061q-0.015625 -1.375 -0.640625 -2.03125q-0.609375 -0.65625 -1.90625 -0.65625q-1.0625 0 -1.859375 0.5625q-0.796875 0.5625 -1.234375 1.484375l0 9.031235l-2.171875 0l0 -12.687485l2.046875 0z" fill-rule="nonzero"/>
    <path fill="#fbdfbb" d="m632.94293 278.19046q-2.90625 -0.828125 -4.21875 -2.03125q-1.3125 -1.21875 -1.3125 -3.0q0 -2.015625 1.609375 -3.328125q1.609375 -1.328125 4.1875 -1.328125q1.75 0 3.125 0.6875q1.390625 0.671875 2.140625 1.875q0.75 1.1875 0.75 2.609375l-2.25 0q0 -1.546875 -0.984375 -2.4375q-0.984375 -0.890625 -2.78125 -0.890625q-1.671875 0 -2.609375 0.734375q-0.921875 0.734375 -0.921875 2.03125q0 1.046875 0.875 1.765625q0.890625 0.71875 3.015625 1.328125q2.140625 0.59375 3.328125 1.3125q1.203125 0.71875 1.78125 1.6875q0.59375 0.953125 0.59375 2.25q0 2.078125 -1.625 3.328125q-1.609375 1.25 -4.328125 1.25q-1.75 0 -3.28125 -0.671875q-1.515625 -0.671875 -2.34375 -1.84375q-0.828125 -1.171875 -0.828125 -2.671875l2.265625 0q0 1.546875 1.140625 2.453125q1.140625 0.890625 3.046875 0.890625q1.78125 0 2.734375 -0.71875q0.953125 -0.734375 0.953125 -1.984375q0 -1.25 -0.890625 -1.9375q-0.875 -0.6875 -3.171875 -1.359375zm8.332031 1.15625q0 -2.984375 1.375 -4.71875q1.375 -1.75 3.6875 -1.75q2.25 0 3.546875 1.515625l0.09375 -1.28125l1.984375 0l0 17.5625l-2.15625 0l0 -6.046875q-1.3125 1.40625 -3.5 1.40625q-2.296875 0 -3.671875 -1.78125q-1.359375 -1.796875 -1.359375 -4.75l0 -0.15625zm2.171875 0.25q0 2.1875 0.921875 3.4375q0.921875 1.234375 2.484375 1.234375q1.921875 0 2.953125 -1.71875l0 -6.203125q-1.03125 -1.6875 -2.9375 -1.6875q-1.5625 0 -2.5 1.25q-0.921875 1.25 -0.921875 3.6875zm19.828125 4.953125q-1.265625 1.484375 -3.71875 1.484375q-2.015625 0 -3.078125 -1.171875q-1.0625 -1.1875 -1.078125 -3.5l0 -8.25l2.171875 0l0 8.203125q0 2.875 2.34375 2.875q2.484375 0 3.296875 -1.84375l0 -9.234375l2.171875 0l0 12.6875l-2.0625 0l-0.046875 -1.25zm13.230469 1.25q-0.1875 -0.375 -0.296875 -1.34375q-1.515625 1.578125 -3.609375 1.578125q-1.875 0 -3.078125 -1.0625q-1.203125 -1.0625 -1.203125 -2.6875q0 -1.984375 1.5 -3.078125q1.515625 -1.09375 4.234375 -1.09375l2.109375 0l0 -1.0q0 -1.140625 -0.6875 -1.8125q-0.671875 -0.671875 -1.984375 -0.671875q-1.171875 0 -1.953125 0.59375q-0.78125 0.578125 -0.78125 1.40625l-2.1875 0q0 -0.9375 0.671875 -1.828125q0.6875 -0.890625 1.828125 -1.40625q1.15625 -0.515625 2.546875 -0.515625q2.1875 0 3.421875 1.109375q1.25 1.09375 1.296875 3.015625l0 5.828125q0 1.75 0.453125 2.78125l0 0.1875l-2.28125 0zm-3.59375 -1.65625q1.015625 0 1.921875 -0.515625q0.921875 -0.53125 1.328125 -1.375l0 -2.609375l-1.6875 0q-3.984375 0 -3.984375 2.328125q0 1.03125 0.671875 1.609375q0.6875 0.5625 1.75 0.5625zm8.2890625 -4.796875q0 -2.90625 1.375 -4.6875q1.390625 -1.78125 3.640625 -1.78125q2.21875 0 3.515625 1.53125l0 -6.609375l2.171875 0l0 18.0l-1.984375 0l-0.109375 -1.359375q-1.296875 1.59375 -3.625 1.59375q-2.203125 0 -3.59375 -1.796875q-1.390625 -1.8125 -1.390625 -4.71875l0 -0.171875zm2.171875 0.25q0 2.15625 0.890625 3.375q0.890625 1.21875 2.46875 1.21875q2.0625 0 3.0 -1.84375l0 -5.828125q-0.96875 -1.796875 -2.984375 -1.796875q-1.59375 0 -2.484375 1.234375q-0.890625 1.234375 -0.890625 3.640625z" fill-rule="nonzero"/>
    <path fill="#000000" fill-opacity="0.0" d="m337.6483 314.0092c53.93701 0 80.90552 0.01574707 107.87402 0.03149414c26.968506 0.01574707 53.93701 0.03149414 107.87399 0.03149414" fill-rule="evenodd"/>
    <path stroke="#48ffd5" stroke-width="2.0" stroke-linejoin="round" stroke-linecap="butt" stroke-dasharray="8.0,6.0" d="m337.6483 314.0092c53.93701 0 80.90552 0.01574707 107.87402 0.03149414c13.484253 0.007873535 26.968506 0.01574707 43.823822 0.02166748c8.427643 0.0029296875 17.69809 0.0054016113 28.232666 0.0071105957l23.817505 0.0018310547" fill-rule="evenodd"/>
    <path fill="#48ffd5" stroke="#48ffd5" stroke-width="2.0" stroke-linecap="butt" d="m541.39606 317.37473l9.076477 -3.302765l-9.075989 -3.3041687z" fill-rule="evenodd"/>
    <path fill="#000000" fill-opacity="0.0" d="m569.6352 56.37008l180.28345 0l0 47.1811l-180.28345 0z" fill-rule="evenodd"/>
    <path fill="#fbdfbb" d="m595.4449 71.34758l5.578125 13.921875l5.578125 -13.921875l2.921875 0l0 17.0625l-2.25 0l0 -6.640625l0.203125 -7.171875l-5.59375 13.8125l-1.734375 0l-5.578125 -13.78125l0.21875 7.140625l0 6.640625l-2.25 0l0 -17.0625l2.90625 0zm25.53125 17.0625q-0.1875 -0.375 -0.296875 -1.34375q-1.515625 1.578125 -3.609375 1.578125q-1.875 0 -3.078125 -1.0625q-1.203125 -1.0625 -1.203125 -2.6875q0 -1.984375 1.5 -3.078125q1.515625 -1.09375 4.234375 -1.09375l2.109375 0l0 -1.0q0 -1.140625 -0.6875 -1.8125q-0.671875 -0.671875 -1.984375 -0.671875q-1.171875 0 -1.953125 0.59375q-0.78125 0.578125 -0.78125 1.40625l-2.1875 0q0 -0.9375 0.671875 -1.828125q0.6875 -0.890625 1.828125 -1.40625q1.15625 -0.515625 2.546875 -0.515625q2.1875 0 3.421875 1.109375q1.25 1.09375 1.296875 3.015625l0 5.828125q0 1.75 0.453125 2.78125l0 0.1875l-2.28125 0zm-3.59375 -1.65625q1.015625 0 1.921875 -0.515625q0.921875 -0.53125 1.328125 -1.375l0 -2.609375l-1.6875 0q-3.984375 0 -3.984375 2.328125q0 1.03125 0.671875 1.609375q0.6875 0.5625 1.75 0.5625zm11.1796875 1.65625l-2.171875 0l0 -12.6875l2.171875 0l0 12.6875zm-2.34375 -16.046875q0 -0.53125 0.3125 -0.890625q0.328125 -0.359375 0.953125 -0.359375q0.640625 0 0.96875 0.359375q0.328125 0.359375 0.328125 0.890625q0 0.53125 -0.328125 0.890625q-0.328125 0.34375 -0.96875 0.34375q-0.625 0 -0.953125 -0.34375q-0.3125 -0.359375 -0.3125 -0.890625zm7.8554688 3.359375l0.078125 1.59375q1.453125 -1.828125 3.796875 -1.828125q4.015625 0 4.046875 4.546875l0 8.375l-2.15625 0l0 -8.390625q-0.015625 -1.375 -0.640625 -2.03125q-0.609375 -0.65625 -1.90625 -0.65625q-1.0625 0 -1.859375 0.5625q-0.796875 0.5625 -1.234375 1.484375l0 9.03125l-2.171875 0l0 -12.6875l2.046875 0zm14.1328125 -3.0625l0 3.0625l2.375 0l0 1.6875l-2.375 0l0 7.859375q0 0.765625 0.3125 1.140625q0.328125 0.375 1.09375 0.375q0.375 0 1.03125 -0.140625l0 1.765625q-0.859375 0.234375 -1.671875 0.234375q-1.453125 0 -2.1875 -0.875q-0.734375 -0.890625 -0.734375 -2.5l0 -7.859375l-2.3125 0l0 -1.6875l2.3125 0l0 -3.0625l2.15625 0zm10.167969 15.984375q-2.578125 0 -4.203125 -1.6875q-1.609375 -1.703125 -1.609375 -4.53125l0 -0.40625q0 -1.890625 0.71875 -3.359375q0.71875 -1.484375 2.015625 -2.328125q1.296875 -0.84375 2.8125 -0.84375q2.46875 0 3.828125 1.640625q1.375 1.625 1.375 4.65625l0 0.90625l-8.578125 0q0.046875 1.875 1.09375 3.03125q1.046875 1.15625 2.65625 1.15625q1.15625 0 1.953125 -0.46875q0.796875 -0.46875 1.390625 -1.25l1.328125 1.03125q-1.59375 2.453125 -4.78125 2.453125zm-0.265625 -11.375q-1.3125 0 -2.203125 0.96875q-0.890625 0.953125 -1.109375 2.671875l6.359375 0l0 -0.171875q-0.09375 -1.640625 -0.890625 -2.546875q-0.796875 -0.921875 -2.15625 -0.921875zm9.761719 -1.546875l0.078125 1.59375q1.453125 -1.828125 3.796875 -1.828125q4.015625 0 4.046875 4.546875l0 8.375l-2.15625 0l0 -8.390625q-0.015625 -1.375 -0.640625 -2.03125q-0.609375 -0.65625 -1.90625 -0.65625q-1.0625 0 -1.859375 0.5625q-0.796875 0.5625 -1.234375 1.484375l0 9.03125l-2.171875 0l0 -12.6875l2.046875 0zm19.023438 12.6875q-0.1875 -0.375 -0.296875 -1.34375q-1.515625 1.578125 -3.609375 1.578125q-1.875 0 -3.078125 -1.0625q-1.203125 -1.0625 -1.203125 -2.6875q0 -1.984375 1.5 -3.078125q1.515625 -1.09375 4.234375 -1.09375l2.109375 0l0 -1.0q0 -1.140625 -0.6875 -1.8125q-0.671875 -0.671875 -1.984375 -0.671875q-1.171875 0 -1.953125 0.59375q-0.78125 0.578125 -0.78125 1.40625l-2.1875 0q0 -0.9375 0.671875 -1.828125q0.6875 -0.890625 1.828125 -1.40625q1.15625 -0.515625 2.546875 -0.515625q2.1875 0 3.421875 1.109375q1.25 1.09375 1.296875 3.015625l0 5.828125q0 1.75 0.453125 2.78125l0 0.1875l-2.28125 0zm-3.59375 -1.65625q1.015625 0 1.921875 -0.515625q0.921875 -0.53125 1.328125 -1.375l0 -2.609375l-1.6875 0q-3.984375 0 -3.984375 2.328125q0 1.03125 0.671875 1.609375q0.6875 0.5625 1.75 0.5625zm10.8671875 -11.03125l0.078125 1.59375q1.453125 -1.828125 3.796875 -1.828125q4.015625 0 4.046875 4.546875l0 8.375l-2.15625 0l0 -8.390625q-0.015625 -1.375 -0.640625 -2.03125q-0.609375 -0.65625 -1.90625 -0.65625q-1.0625 0 -1.859375 0.5625q-0.796875 0.5625 -1.234375 1.484375l0 9.03125l-2.171875 0l0 -12.6875l2.046875 0zm16.289062 11.15625q1.15625 0 2.015625 -0.703125q0.875 -0.703125 0.96875 -1.765625l2.046875 0q-0.0625 1.09375 -0.75 2.078125q-0.6875 0.984375 -1.84375 1.578125q-1.15625 0.578125 -2.4375 0.578125q-2.59375 0 -4.125 -1.71875q-1.53125 -1.734375 -1.53125 -4.734375l0 -0.375q0 -1.84375 0.671875 -3.28125q0.6875 -1.453125 1.953125 -2.25q1.28125 -0.796875 3.015625 -0.796875q2.125 0 3.53125 1.28125q1.421875 1.28125 1.515625 3.3125l-2.046875 0q-0.09375 -1.21875 -0.9375 -2.015625q-0.828125 -0.796875 -2.0625 -0.796875q-1.65625 0 -2.5625 1.203125q-0.90625 1.1875 -0.90625 3.4375l0 0.40625q0 2.1875 0.890625 3.375q0.90625 1.1875 2.59375 1.1875zm12.734375 1.765625q-2.578125 0 -4.203125 -1.6875q-1.609375 -1.703125 -1.609375 -4.53125l0 -0.40625q0 -1.890625 0.71875 -3.359375q0.71875 -1.484375 2.015625 -2.328125q1.296875 -0.84375 2.8125 -0.84375q2.46875 0 3.828125 1.640625q1.375 1.625 1.375 4.65625l0 0.90625l-8.578125 0q0.046875 1.875 1.09375 3.03125q1.046875 1.15625 2.65625 1.15625q1.15625 0 1.953125 -0.46875q0.796875 -0.46875 1.390625 -1.25l1.328125 1.03125q-1.59375 2.453125 -4.78125 2.453125zm-0.265625 -11.375q-1.3125 0 -2.203125 0.96875q-0.890625 0.953125 -1.109375 2.671875l6.359375 0l0 -0.171875q-0.09375 -1.640625 -0.890625 -2.546875q-0.796875 -0.921875 -2.15625 -0.921875z" fill-rule="nonzero"/>
    <path fill="#fbdfbb" d="m624.47614 109.800705q-2.90625 -0.828125 -4.21875 -2.03125q-1.3125 -1.21875 -1.3125 -3.0q0 -2.015625 1.609375 -3.328125q1.609375 -1.328125 4.1875 -1.328125q1.75 0 3.125 0.6875q1.390625 0.671875 2.140625 1.875q0.75 1.1875 0.75 2.609375l-2.25 0q0 -1.546875 -0.984375 -2.4375q-0.984375 -0.890625 -2.78125 -0.890625q-1.671875 0 -2.609375 0.734375q-0.921875 0.734375 -0.921875 2.03125q0 1.046875 0.875 1.765625q0.890625 0.71875 3.015625 1.328125q2.140625 0.59375 3.328125 1.3125q1.203125 0.71875 1.78125 1.6875q0.59375 0.953125 0.59375 2.25q0 2.078125 -1.625 3.328125q-1.609375 1.25 -4.328125 1.25q-1.75 0 -3.28125 -0.671875q-1.515625 -0.671875 -2.34375 -1.84375q-0.828125 -1.171875 -0.828125 -2.671875l2.265625 0q0 1.546875 1.140625 2.453125q1.140625 0.890625 3.046875 0.890625q1.78125 0 2.734375 -0.71875q0.953125 -0.734375 0.953125 -1.984375q0 -1.25 -0.890625 -1.9375q-0.875 -0.6875 -3.171875 -1.359375zm16.691406 6.359375q-1.265625 1.484375 -3.71875 1.484375q-2.015625 0 -3.078125 -1.171875q-1.0625 -1.1875 -1.078125 -3.5l0 -8.25l2.171875 0l0 8.203125q0 2.875 2.34375 2.875q2.484375 0 3.296875 -1.84375l0 -9.234375l2.171875 0l0 12.6875l-2.0625 0l-0.046875 -1.25zm16.121094 -4.953125q0 2.890625 -1.328125 4.671875q-1.328125 1.765625 -3.59375 1.765625q-2.296875 0 -3.625 -1.46875l0 6.109375l-2.171875 0l0 -17.5625l1.984375 0l0.109375 1.40625q1.3125 -1.640625 3.671875 -1.640625q2.28125 0 3.609375 1.734375q1.34375 1.71875 1.34375 4.78125l0 0.203125zm-2.171875 -0.25q0 -2.140625 -0.921875 -3.375q-0.90625 -1.25 -2.5 -1.25q-1.96875 0 -2.953125 1.75l0 6.0625q0.96875 1.734375 2.96875 1.734375q1.5625 0 2.484375 -1.234375q0.921875 -1.25 0.921875 -3.6875zm15.636719 0.25q0 2.890625 -1.328125 4.671875q-1.328125 1.765625 -3.59375 1.765625q-2.296875 0 -3.625 -1.46875l0 6.109375l-2.171875 0l0 -17.5625l1.984375 0l0.109375 1.40625q1.3125 -1.640625 3.671875 -1.640625q2.28125 0 3.609375 1.734375q1.34375 1.71875 1.34375 4.78125l0 0.203125zm-2.171875 -0.25q0 -2.140625 -0.921875 -3.375q-0.90625 -1.25 -2.5 -1.25q-1.96875 0 -2.953125 1.75l0 6.0625q0.96875 1.734375 2.96875 1.734375q1.5625 0 2.484375 -1.234375q0.921875 -1.25 0.921875 -3.6875zm4.3398438 0q0 -1.875 0.734375 -3.359375q0.734375 -1.484375 2.03125 -2.296875q1.3125 -0.8125 3.0 -0.8125q2.578125 0 4.171875 1.796875q1.609375 1.796875 1.609375 4.765625l0 0.15625q0 1.859375 -0.71875 3.328125q-0.703125 1.46875 -2.015625 2.296875q-1.3125 0.8125 -3.03125 0.8125q-2.578125 0 -4.1875 -1.796875q-1.59375 -1.796875 -1.59375 -4.75l0 -0.140625zm2.1875 0.25q0 2.109375 0.96875 3.390625q0.984375 1.28125 2.625 1.28125q1.65625 0 2.625 -1.296875q0.96875 -1.296875 0.96875 -3.625q0 -2.09375 -0.984375 -3.390625q-0.984375 -1.296875 -2.625 -1.296875q-1.609375 0 -2.59375 1.28125q-0.984375 1.28125 -0.984375 3.65625zm18.203125 -4.53125q-0.484375 -0.078125 -1.0625 -0.078125q-2.125 0 -2.890625 1.8125l0 9.0l-2.171875 0l0 -12.6875l2.109375 0l0.03125 1.46875q1.078125 -1.703125 3.03125 -1.703125q0.625 0 0.953125 0.171875l0 2.015625zm5.5195312 -5.015625l0 3.0625l2.375 0l0 1.6875l-2.375 0l0 7.859375q0 0.765625 0.3125 1.140625q0.328125 0.375 1.09375 0.375q0.375 0 1.03125 -0.140625l0 1.765625q-0.859375 0.234375 -1.671875 0.234375q-1.453125 0 -2.1875 -0.875q-0.734375 -0.890625 -0.734375 -2.5l0 -7.859375l-2.3125 0l0 -1.6875l2.3125 0l0 -3.0625l2.15625 0z" fill-rule="nonzero"/>
    <path fill="#fbdfbb" d="m634.75543 146.41008l0 -17.0625l5.578125 0q2.78125 0 4.171875 1.15625q1.40625 1.140625 1.40625 3.390625q0 1.1875 -0.6875 2.109375q-0.671875 0.921875 -1.84375 1.421875q1.375 0.390625 2.171875 1.484375q0.8125 1.078125 0.8125 2.578125q0 2.296875 -1.484375 3.609375q-1.484375 1.3125 -4.203125 1.3125l-5.921875 0zm2.25 -7.984375l0 6.140625l3.71875 0q1.5625 0 2.46875 -0.8125q0.90625 -0.8125 0.90625 -2.25q0 -3.078125 -3.34375 -3.078125l-3.75 0zm0 -1.796875l3.390625 0q1.484375 0 2.359375 -0.734375q0.890625 -0.75 0.890625 -2.015625q0 -1.40625 -0.828125 -2.046875q-0.8125 -0.640625 -2.484375 -0.640625l-3.328125 0l0 5.4375zm20.175781 8.53125q-1.265625 1.484375 -3.71875 1.484375q-2.015625 0 -3.078125 -1.171875q-1.0625 -1.1875 -1.078125 -3.5l0 -8.25l2.171875 0l0 8.203125q0 2.875 2.34375 2.875q2.484375 0 3.296875 -1.84375l0 -9.234375l2.171875 0l0 12.6875l-2.0625 0l-0.046875 -1.25zm4.8867188 -5.203125q0 -2.953125 1.375 -4.703125q1.375 -1.765625 3.625 -1.765625q2.328125 0 3.625 1.640625l0.109375 -1.40625l1.984375 0l0 12.375q0 2.46875 -1.46875 3.890625q-1.453125 1.421875 -3.921875 1.421875q-1.359375 0 -2.671875 -0.59375q-1.3125 -0.578125 -2.015625 -1.609375l1.125 -1.296875q1.40625 1.71875 3.421875 1.71875q1.578125 0 2.453125 -0.890625q0.890625 -0.890625 0.890625 -2.5l0 -1.09375q-1.296875 1.5 -3.546875 1.5q-2.234375 0 -3.609375 -1.796875q-1.375 -1.796875 -1.375 -4.890625zm2.1875 0.25q0 2.140625 0.875 3.375q0.875 1.21875 2.453125 1.21875q2.0625 0 3.015625 -1.859375l0 -5.796875q-1.0 -1.8125 -2.984375 -1.8125q-1.578125 0 -2.46875 1.234375q-0.890625 1.234375 -0.890625 3.640625zm19.183594 2.84375q0 -0.890625 -0.671875 -1.375q-0.65625 -0.484375 -2.3125 -0.828125q-1.640625 -0.359375 -2.609375 -0.84375q-0.96875 -0.5 -1.4375 -1.171875q-0.453125 -0.6875 -0.453125 -1.625q0 -1.5625 1.3125 -2.640625q1.328125 -1.078125 3.375 -1.078125q2.15625 0 3.5 1.125q1.34375 1.109375 1.34375 2.84375l-2.1875 0q0 -0.890625 -0.75 -1.53125q-0.75 -0.65625 -1.90625 -0.65625q-1.1875 0 -1.859375 0.515625q-0.65625 0.515625 -0.65625 1.359375q0 0.78125 0.609375 1.1875q0.625 0.390625 2.25 0.75q1.625 0.359375 2.625 0.875q1.015625 0.5 1.5 1.21875q0.484375 0.703125 0.484375 1.71875q0 1.703125 -1.359375 2.734375q-1.359375 1.015625 -3.515625 1.015625q-1.53125 0 -2.703125 -0.53125q-1.171875 -0.546875 -1.84375 -1.515625q-0.65625 -0.96875 -0.65625 -2.09375l2.171875 0q0.0625 1.09375 0.875 1.734375q0.8125 0.640625 2.15625 0.640625q1.21875 0 1.96875 -0.5q0.75 -0.5 0.75 -1.328125z" fill-rule="nonzero"/>
    <path fill="#000000" fill-opacity="0.0" d="m581.32806 112.456696l0 83.055115" fill-rule="evenodd"/>
    <path stroke="#fbdfbb" stroke-width="2.0" stroke-linejoin="round" stroke-linecap="butt" stroke-dasharray="8.0,6.0" d="m581.32806 112.456696l0 71.055115" fill-rule="evenodd"/>
    <path fill="#fbdfbb" stroke="#fbdfbb" stroke-width="2.0" stroke-linecap="butt" d="m578.0246 183.51181l3.3034668 9.076202l3.3034668 -9.076202z" fill-rule="evenodd"/>
    <path fill="#000000" fill-opacity="0.0" d="m745.86615 112.456696l0 83.055115" fill-rule="evenodd"/>
    <path stroke="#fbdfbb" stroke-width="2.0" stroke-linejoin="round" stroke-linecap="butt" stroke-dasharray="8.0,6.0" d="m745.86615 112.456696l0 71.055115" fill-rule="evenodd"/>
    <path fill="#fbdfbb" stroke="#fbdfbb" stroke-width="2.0" stroke-linecap="butt" d="m742.5627 183.51181l3.3034668 9.076202l3.3034668 -9.076202z" fill-rule="evenodd"/>
  </g>
</svg>