<?xml version="1.0" encoding="utf-8"?>
<svg version="1.1" viewBox="0.0 0.0 960.0 540.0" fill="none" stroke="none" stroke-linecap="square" stroke-miterlimit="10" xmlns="http://www.w3.org/2000/svg">
  <clipPath id="g6b4b12fa62_0_405.0">
    <path d="m0 0l960.0 0l0 540.0l-960.0 0l0 -540.0z" clip-rule="nonzero"/>
  </clipPath>
  <g clip-path="url(#g6b4b12fa62_0_405.0)">
    <path fill="#000000" fill-opacity="0.0" d="m425.38846 192.47446l0 0c0 -19.360794 15.695007 -35.055817 35.055817 -35.055817l140.21906 0l0 0c9.297363 0 18.21399 3.6933594 24.788208 10.267609c6.57428 6.574234 10.267639 15.490829 10.267639 24.788208l0 155.80963c0 19.360779 -15.695068 35.055817 -35.055847 35.055817l-140.21906 0l0 0c-19.36081 0 -35.055817 -15.695038 -35.055817 -35.055817z" fill-rule="evenodd"/>
    <path stroke="#a1f7ff" stroke-width="1.0" stroke-linejoin="round" stroke-linecap="butt" d="m425.38846 192.47446l0 0c0 -19.360794 15.695007 -35.055817 35.055817 -35.055817l140.21906 0l0 0c9.297363 0 18.21399 3.6933594 24.788208 10.267609c6.57428 6.574234 10.267639 15.490829 10.267639 24.788208l0 155.80963c0 19.360779 -15.695068 35.055817 -35.055847 35.055817l-140.21906 0l0 0c-19.36081 0 -35.055817 -15.695038 -35.055817 -35.055817z" fill-rule="evenodd"/>
    <path fill="#000000" fill-opacity="0.0" d="m68.16798 198.95497l0 0c0 -24.805481 20.10881 -44.91429 44.914284 -44.91429l179.65175 0l0 0c11.912018 0 23.33612 4.732025 31.759186 13.15509c8.423065 8.423065 13.15509 19.847183 13.15509 31.759201l0 230.10844c0 24.80545 -20.108795 44.914276 -44.914276 44.914276l-179.65175 0c-24.805473 0 -44.914284 -20.108826 -44.914284 -44.914276z" fill-rule="evenodd"/>
    <path stroke="#48ffd5" stroke-width="1.0" stroke-linejoin="round" stroke-linecap="butt" d="m68.16798 198.95497l0 0c0 -24.805481 20.10881 -44.91429 44.914284 -44.91429l179.65175 0l0 0c11.912018 0 23.33612 4.732025 31.759186 13.15509c8.423065 8.423065 13.15509 19.847183 13.15509 31.759201l0 230.10844c0 24.80545 -20.108795 44.914276 -44.914276 44.914276l-179.65175 0c-24.805473 0 -44.914284 -20.108826 -44.914284 -44.914276z" fill-rule="evenodd"/>
    <path fill="#5f7d95" d="m174.54967 184.34612c-3.1439972 0 -5.690735 2.5465393 -5.690735 5.6869354c0 3.133667 2.5467377 5.6802063 5.690735 5.6802063c3.1305695 0 5.677307 -2.5465393 5.677307 -5.6802063c0 -3.140396 -2.5467377 -5.6869354 -5.677307 -5.6869354z" fill-rule="evenodd"/>
    <path fill="#5f7d95" d="m166.96986 199.50119c-4.1808014 0 -7.5764465 3.5262299 -7.5764465 7.7066956l0 11.367142c0 1.9929504 1.3857727 3.7107697 3.7076874 3.7107697c0.5972595 0 1.2549133 -0.11407471 1.9696045 -0.3657074l0 23.297943c0 2.0902252 1.6978302 3.787918 3.7882233 3.787918c2.0937653 0 3.7915802 -1.6976929 3.7915802 -3.787918l0 -13.386932c0 -1.0501404 0.8455658 -1.8889313 1.8991547 -1.8889313c1.0401611 0 1.8890839 0.8387909 1.8890839 1.8889313l0 13.386932c0 2.0902252 1.697815 3.787918 3.7882233 3.787918c2.090393 0 3.7882233 -1.6976929 3.7882233 -3.787918l0 -23.297943c0.71469116 0.2516327 1.3757019 0.3657074 1.9729614 0.3657074c2.3219147 0 3.7177582 -1.7178192 3.7177582 -3.7107697l0 -11.367142c0 -4.1804657 -3.405716 -7.7066956 -7.5798035 -7.7066956z" fill-rule="evenodd"/>
    <path fill="#5f7d95" d="m233.04001 184.34612c-3.143982 0 -5.6907196 2.5465393 -5.6907196 5.6869354c0 3.133667 2.5467377 5.6802063 5.6907196 5.6802063c3.1305695 0 5.677307 -2.5465393 5.677307 -5.6802063c0 -3.140396 -2.5467377 -5.6869354 -5.677307 -5.6869354z" fill-rule="evenodd"/>
    <path fill="#5f7d95" d="m225.4602 199.50119c-4.1808014 0 -7.5764465 3.5262299 -7.5764465 7.7066956l0 11.367142c0 1.9929504 1.3857727 3.7107697 3.7076874 3.7107697c0.5972595 0 1.2549133 -0.11407471 1.9696198 -0.3657074l0 23.297943c0 2.0902252 1.697815 3.787918 3.7882233 3.787918c2.09375 0 3.7915802 -1.6976929 3.7915802 -3.787918l0 -13.386932c0 -1.0501404 0.84555054 -1.8889313 1.8991394 -1.8889313c1.0401764 0 1.8890839 0.8387909 1.8890839 1.8889313l0 13.386932c0 2.0902252 1.697815 3.787918 3.7882233 3.787918c2.0904083 0 3.7882233 -1.6976929 3.7882233 -3.787918l0 -23.297943c0.71469116 0.2516327 1.3757019 0.3657074 1.9729614 0.3657074c2.32193 0 3.7177582 -1.7178192 3.7177582 -3.7107697l0 -11.367142c0 -4.1804657 -3.4057007 -7.7066956 -7.5798035 -7.7066956z" fill-rule="evenodd"/>
    <path fill="#5f7d95" d="m291.53036 184.34612c-3.1440125 0 -5.690735 2.5465393 -5.690735 5.6869354c0 3.133667 2.5467224 5.6802063 5.690735 5.6802063c3.1305542 0 5.677307 -2.5465393 5.677307 -5.6802063c0 -3.140396 -2.546753 -5.6869354 -5.677307 -5.6869354z" fill-rule="evenodd"/>
    <path fill="#5f7d95" d="m283.95056 199.50119c-4.1808167 0 -7.5764465 3.5262299 -7.5764465 7.7066956l0 11.367142c0 1.9929504 1.3857727 3.7107697 3.707672 3.7107697c0.5972595 0 1.2549133 -0.11407471 1.969635 -0.3657074l0 23.297943c0 2.0902252 1.697815 3.787918 3.788208 3.787918c2.09375 0 3.7915955 -1.6976929 3.7915955 -3.787918l0 -13.386932c0 -1.0501404 0.84555054 -1.8889313 1.8991394 -1.8889313c1.0401611 0 1.8890686 0.8387909 1.8890686 1.8889313l0 13.386932c0 2.0902252 1.697815 3.787918 3.7882385 3.787918c2.090393 0 3.788208 -1.6976929 3.788208 -3.787918l0 -23.297943c0.71469116 0.2516327 1.3757019 0.3657074 1.9729614 0.3657074c2.32193 0 3.7177734 -1.7178192 3.7177734 -3.7107697l0 -11.367142c0 -4.1804657 -3.4057007 -7.7066956 -7.5798035 -7.7066956z" fill-rule="evenodd"/>
    <path fill="#000000" fill-opacity="0.0" d="m75.77325 34.157356l254.2677 0l0 64.62992l-254.2677 0z" fill-rule="evenodd"/>
    <path fill="#48ffd5" d="m134.74304 63.361732l-9.859375 0l0 8.0625l11.453125 0l0 2.453125l-14.453125 0l0 -22.75l14.296875 0l0 2.46875l-11.296875 0l0 7.3125l9.859375 0l0 2.453125zm7.609375 -6.390625l0.09375 2.125q1.9375 -2.4375 5.0625 -2.4375q5.359375 0 5.40625 6.046875l0 11.171875l-2.890625 0l0 -11.1875q-0.015625 -1.828125 -0.84375 -2.703125q-0.8125 -0.875 -2.546875 -0.875q-1.40625 0 -2.46875 0.75q-1.0625 0.75 -1.65625 1.96875l0 12.046875l-2.890625 0l0 -16.90625l2.734375 0zm14.234375 8.3125q0 -3.953125 1.828125 -6.28125q1.828125 -2.34375 4.84375 -2.34375q3.09375 0 4.828125 2.1875l0.140625 -1.875l2.640625 0l0 16.5q0 3.28125 -1.953125 5.171875q-1.9375 1.890625 -5.21875 1.890625q-1.828125 0 -3.578125 -0.78125q-1.75 -0.78125 -2.671875 -2.140625l1.5 -1.734375q1.859375 2.296875 4.546875 2.296875q2.109375 0 3.28125 -1.1875q1.1875 -1.1875 1.1875 -3.34375l0 -1.453125q-1.734375 2.0 -4.734375 2.0q-2.96875 0 -4.8125 -2.390625q-1.828125 -2.390625 -1.828125 -6.515625zm2.90625 0.328125q0 2.859375 1.171875 4.5q1.171875 1.625 3.28125 1.625q2.734375 0 4.015625 -2.484375l0 -7.71875q-1.328125 -2.421875 -3.984375 -2.421875q-2.109375 0 -3.296875 1.640625q-1.1875 1.640625 -1.1875 4.859375zm18.875 8.265625l-2.890625 0l0 -16.90625l2.890625 0l0 16.90625zm-3.125 -21.390625q0 -0.703125 0.421875 -1.1875q0.4375 -0.484375 1.28125 -0.484375q0.84375 0 1.28125 0.484375q0.4375 0.484375 0.4375 1.1875q0 0.703125 -0.4375 1.171875q-0.4375 0.46875 -1.28125 0.46875q-0.84375 0 -1.28125 -0.46875q-0.421875 -0.46875 -0.421875 -1.171875zm10.484375 4.484375l0.09375 2.125q1.9375 -2.4375 5.0625 -2.4375q5.359375 0 5.40625 6.046875l0 11.171875l-2.890625 0l0 -11.1875q-0.015625 -1.828125 -0.84375 -2.703125q-0.8125 -0.875 -2.546875 -0.875q-1.40625 0 -2.46875 0.75q-1.0625 0.75 -1.65625 1.96875l0 12.046875l-2.890625 0l0 -16.90625l2.734375 0zm21.9375 17.21875q-3.4375 0 -5.59375 -2.25q-2.15625 -2.265625 -2.15625 -6.046875l0 -0.53125q0 -2.515625 0.953125 -4.484375q0.96875 -1.984375 2.6875 -3.09375q1.734375 -1.125 3.75 -1.125q3.296875 0 5.125 2.171875q1.828125 2.171875 1.828125 6.21875l0 1.203125l-11.453125 0q0.0625 2.5 1.453125 4.046875q1.40625 1.53125 3.5625 1.53125q1.53125 0 2.59375 -0.625q1.0625 -0.625 1.859375 -1.65625l1.765625 1.375q-2.125 3.265625 -6.375 3.265625zm-0.359375 -15.15625q-1.75 0 -2.9375 1.28125q-1.1875 1.265625 -1.46875 3.5625l8.46875 0l0 -0.21875q-0.125 -2.203125 -1.1875 -3.40625q-1.0625 -1.21875 -2.875 -1.21875zm17.3125 15.15625q-3.4375 0 -5.59375 -2.25q-2.15625 -2.265625 -2.15625 -6.046875l0 -0.53125q0 -2.515625 0.953125 -4.484375q0.96875 -1.984375 2.6875 -3.09375q1.734375 -1.125 3.75 -1.125q3.296875 0 5.125 2.171875q1.828125 2.171875 1.828125 6.21875l0 1.203125l-11.453125 0q0.0625 2.5 1.453125 4.046875q1.40625 1.53125 3.5625 1.53125q1.53125 0 2.59375 -0.625q1.0625 -0.625 1.859375 -1.65625l1.765625 1.375q-2.125 3.265625 -6.375 3.265625zm-0.359375 -15.15625q-1.75 0 -2.9375 1.28125q-1.1875 1.265625 -1.46875 3.5625l8.46875 0l0 -0.21875q-0.125 -2.203125 -1.1875 -3.40625q-1.0625 -1.21875 -2.875 -1.21875zm18.46875 0.53125q-0.65625 -0.109375 -1.421875 -0.109375q-2.84375 0 -3.859375 2.421875l0 12.0l-2.890625 0l0 -16.90625l2.8125 0l0.046875 1.953125q1.421875 -2.265625 4.03125 -2.265625q0.84375 0 1.28125 0.21875l0 2.6875zm5.796875 14.3125l-2.890625 0l0 -16.90625l2.890625 0l0 16.90625zm-3.125 -21.390625q0 -0.703125 0.421875 -1.1875q0.4375 -0.484375 1.28125 -0.484375q0.84375 0 1.28125 0.484375q0.4375 0.484375 0.4375 1.1875q0 0.703125 -0.4375 1.171875q-0.4375 0.46875 -1.28125 0.46875q-0.84375 0 -1.28125 -0.46875q-0.421875 -0.46875 -0.421875 -1.171875zm10.484375 4.484375l0.09375 2.125q1.9375 -2.4375 5.0625 -2.4375q5.359375 0 5.40625 6.046875l0 11.171875l-2.890625 0l0 -11.1875q-0.015625 -1.828125 -0.84375 -2.703125q-0.8125 -0.875 -2.546875 -0.875q-1.40625 0 -2.46875 0.75q-1.0625 0.75 -1.65625 1.96875l0 12.046875l-2.890625 0l0 -16.90625l2.734375 0zm14.234375 8.3125q0 -3.953125 1.828125 -6.28125q1.828125 -2.34375 4.84375 -2.34375q3.09375 0 4.828125 2.1875l0.140625 -1.875l2.640625 0l0 16.5q0 3.28125 -1.953125 5.171875q-1.9375 1.890625 -5.21875 1.890625q-1.828125 0 -3.578125 -0.78125q-1.75 -0.78125 -2.671875 -2.140625l1.5 -1.734375q1.859375 2.296875 4.546875 2.296875q2.109375 0 3.28125 -1.1875q1.1875 -1.1875 1.1875 -3.34375l0 -1.453125q-1.734375 2.0 -4.734375 2.0q-2.96875 0 -4.8125 -2.390625q-1.828125 -2.390625 -1.828125 -6.515625zm2.90625 0.328125q0 2.859375 1.171875 4.5q1.171875 1.625 3.28125 1.625q2.734375 0 4.015625 -2.484375l0 -7.71875q-1.328125 -2.421875 -3.984375 -2.421875q-2.109375 0 -3.296875 1.640625q-1.1875 1.640625 -1.1875 4.859375z" fill-rule="nonzero"/>
    <path fill="#48ffd5" d="m141.39929 91.59611l-7.3125 0l0 20.28125l-2.984375 0l0 -20.28125l-7.296875 0l0 -2.46875l17.59375 0l0 2.46875zm11.59375 20.28125q-0.25 -0.5 -0.40625 -1.78125q-2.015625 2.09375 -4.8125 2.09375q-2.5 0 -4.109375 -1.40625q-1.59375 -1.421875 -1.59375 -3.59375q0 -2.640625 2.0 -4.09375q2.015625 -1.46875 5.65625 -1.46875l2.8125 0l0 -1.328125q0 -1.515625 -0.90625 -2.40625q-0.90625 -0.90625 -2.671875 -0.90625q-1.546875 0 -2.59375 0.78125q-1.046875 0.78125 -1.046875 1.890625l-2.90625 0q0 -1.265625 0.890625 -2.4375q0.90625 -1.1875 2.4375 -1.875q1.546875 -0.6875 3.390625 -0.6875q2.921875 0 4.578125 1.46875q1.65625 1.453125 1.71875 4.015625l0 7.78125q0 2.328125 0.59375 3.703125l0 0.25l-3.03125 0zm-4.796875 -2.203125q1.359375 0 2.578125 -0.703125q1.21875 -0.703125 1.765625 -1.828125l0 -3.46875l-2.265625 0q-5.3125 0 -5.3125 3.109375q0 1.359375 0.90625 2.125q0.90625 0.765625 2.328125 0.765625zm14.90625 2.203125l-2.890625 0l0 -24.0l2.890625 0l0 24.0zm11.640625 0.3125q-3.4375 0 -5.59375 -2.25q-2.15625 -2.265625 -2.15625 -6.046875l0 -0.53125q0 -2.515625 0.953125 -4.484375q0.96875 -1.984375 2.6875 -3.09375q1.734375 -1.125 3.75 -1.125q3.296875 0 5.125 2.171875q1.828125 2.171875 1.828125 6.21875l0 1.203125l-11.453125 0q0.0625 2.5 1.453125 4.046875q1.40625 1.53125 3.5625 1.53125q1.53125 0 2.59375 -0.625q1.0625 -0.625 1.859375 -1.65625l1.765625 1.375q-2.125 3.265625 -6.375 3.265625zm-0.359375 -15.15625q-1.75 0 -2.9375 1.28125q-1.1875 1.265625 -1.46875 3.5625l8.46875 0l0 -0.21875q-0.125 -2.203125 -1.1875 -3.40625q-1.0625 -1.21875 -2.875 -1.21875zm13.03125 -2.0625l0.09375 2.125q1.9375 -2.4375 5.0625 -2.4375q5.359375 0 5.40625 6.046875l0 11.171875l-2.890625 0l0 -11.1875q-0.015625 -1.828125 -0.84375 -2.703125q-0.8125 -0.875 -2.546875 -0.875q-1.40625 0 -2.46875 0.75q-1.0625 0.75 -1.65625 1.96875l0 12.046875l-2.890625 0l0 -16.90625l2.734375 0zm18.84375 -4.09375l0 4.09375l3.15625 0l0 2.234375l-3.15625 0l0 10.484375q0 1.015625 0.421875 1.53125q0.421875 0.5 1.4375 0.5q0.5 0 1.375 -0.1875l0 2.34375q-1.140625 0.3125 -2.21875 0.3125q-1.9375 0 -2.921875 -1.171875q-0.984375 -1.171875 -0.984375 -3.328125l0 -10.484375l-3.078125 0l0 -2.234375l3.078125 0l0 -4.09375l2.890625 0zm17.90625 12.09375l0 8.90625l-3.0 0l0 -22.75l8.390625 0q3.734375 0 5.84375 1.90625q2.125 1.90625 2.125 5.046875q0 3.3125 -2.078125 5.109375q-2.0625 1.78125 -5.921875 1.78125l-5.359375 0zm0 -2.453125l5.390625 0q2.40625 0 3.6875 -1.125q1.28125 -1.140625 1.28125 -3.28125q0 -2.03125 -1.28125 -3.25q-1.28125 -1.21875 -3.515625 -1.265625l-5.5625 0l0 8.921875zm15.765625 2.75q0 -2.484375 0.96875 -4.46875q0.984375 -1.984375 2.71875 -3.0625q1.75 -1.078125 3.984375 -1.078125q3.453125 0 5.578125 2.390625q2.140625 2.390625 2.140625 6.359375l0 0.203125q0 2.46875 -0.953125 4.4375q-0.9375 1.953125 -2.703125 3.046875q-1.75 1.09375 -4.03125 1.09375q-3.4375 0 -5.578125 -2.390625q-2.125 -2.390625 -2.125 -6.328125l0 -0.203125zm2.90625 0.34375q0 2.8125 1.296875 4.515625q1.3125 1.703125 3.5 1.703125q2.203125 0 3.5 -1.71875q1.296875 -1.734375 1.296875 -4.84375q0 -2.78125 -1.328125 -4.5q-1.3125 -1.734375 -3.5 -1.734375q-2.140625 0 -3.453125 1.703125q-1.3125 1.703125 -1.3125 4.875zm15.34375 -0.34375q0 -2.484375 0.96875 -4.46875q0.984375 -1.984375 2.71875 -3.0625q1.75 -1.078125 3.984375 -1.078125q3.453125 0 5.578125 2.390625q2.140625 2.390625 2.140625 6.359375l0 0.203125q0 2.46875 -0.953125 4.4375q-0.9375 1.953125 -2.703125 3.046875q-1.75 1.09375 -4.03125 1.09375q-3.4375 0 -5.578125 -2.390625q-2.125 -2.390625 -2.125 -6.328125l0 -0.203125zm2.90625 0.34375q0 2.8125 1.296875 4.515625q1.3125 1.703125 3.5 1.703125q2.203125 0 3.5 -1.71875q1.296875 -1.734375 1.296875 -4.84375q0 -2.78125 -1.328125 -4.5q-1.3125 -1.734375 -3.5 -1.734375q-2.140625 0 -3.453125 1.703125q-1.3125 1.703125 -1.3125 4.875zm19.25 8.265625l-2.890625 0l0 -24.0l2.890625 0l0 24.0z" fill-rule="nonzero"/>
    <path fill="#5f7d95" d="m116.06148 184.34612c-3.1439972 0 -5.690727 2.5465393 -5.690727 5.6869354c0 3.133667 2.54673 5.6802063 5.690727 5.6802063c3.1305695 0 5.6772995 -2.5465393 5.6772995 -5.6802063c0 -3.140396 -2.54673 -5.6869354 -5.6772995 -5.6869354z" fill-rule="evenodd"/>
    <path fill="#5f7d95" d="m108.481674 199.50119c-4.180809 0 -7.576454 3.5262299 -7.576454 7.7066956l0 11.367142c0 1.9929504 1.3857727 3.7107697 3.707695 3.7107697c0.5972595 0 1.2549133 -0.11407471 1.9696121 -0.3657074l0 23.297943c0 2.0902252 1.6978226 3.787918 3.7882233 3.787918c2.0937576 0 3.7915802 -1.6976929 3.7915802 -3.787918l0 -13.386932c0 -1.0501404 0.84555817 -1.8889313 1.899147 -1.8889313c1.0401688 0 1.8890762 0.8387909 1.8890762 1.8889313l0 13.386932c0 2.0902252 1.6978226 3.787918 3.7882233 3.787918c2.0904083 0 3.788231 -1.6976929 3.788231 -3.787918l0 -23.297943c0.71469116 0.2516327 1.3757019 0.3657074 1.9729614 0.3657074c2.3219147 0 3.7177582 -1.7178192 3.7177582 -3.7107697l0 -11.367142c0 -4.1804657 -3.4057083 -7.7066956 -7.5798035 -7.7066956z" fill-rule="evenodd"/>
    <path fill="#5f7d95" d="m174.54967 282.49048c-3.1439972 0 -5.690735 2.5465393 -5.690735 5.68692c0 3.133667 2.5467377 5.6802063 5.690735 5.6802063c3.1305695 0 5.677307 -2.5465393 5.677307 -5.6802063c0 -3.1403809 -2.5467377 -5.68692 -5.677307 -5.68692z" fill-rule="evenodd"/>
    <path fill="#5f7d95" d="m166.96986 297.64554c-4.1808014 0 -7.5764465 3.526245 -7.5764465 7.706726l0 11.367126c0 1.9929504 1.3857727 3.7107544 3.7076874 3.7107544c0.5972595 0 1.2549133 -0.11407471 1.9696045 -0.36569214l0 23.297943c0 2.09021 1.6978302 3.7879028 3.7882233 3.7879028c2.0937653 0 3.7915802 -1.6976929 3.7915802 -3.7879028l0 -13.386932c0 -1.0501404 0.8455658 -1.8889465 1.8991547 -1.8889465c1.0401611 0 1.8890839 0.83880615 1.8890839 1.8889465l0 13.386932c0 2.09021 1.697815 3.7879028 3.7882233 3.7879028c2.090393 0 3.7882233 -1.6976929 3.7882233 -3.7879028l0 -23.297943c0.71469116 0.25161743 1.3757019 0.36569214 1.9729614 0.36569214c2.3219147 0 3.7177582 -1.717804 3.7177582 -3.7107544l0 -11.367126c0 -4.180481 -3.405716 -7.706726 -7.5798035 -7.706726z" fill-rule="evenodd"/>
    <path fill="#5f7d95" d="m233.04001 282.49048c-3.143982 0 -5.6907196 2.5465393 -5.6907196 5.68692c0 3.133667 2.5467377 5.6802063 5.6907196 5.6802063c3.1305695 0 5.677307 -2.5465393 5.677307 -5.6802063c0 -3.1403809 -2.5467377 -5.68692 -5.677307 -5.68692z" fill-rule="evenodd"/>
    <path fill="#5f7d95" d="m225.4602 297.64554c-4.1808014 0 -7.5764465 3.526245 -7.5764465 7.706726l0 11.367126c0 1.9929504 1.3857727 3.7107544 3.7076874 3.7107544c0.5972595 0 1.2549133 -0.11407471 1.9696198 -0.36569214l0 23.297943c0 2.09021 1.697815 3.7879028 3.7882233 3.7879028c2.09375 0 3.7915802 -1.6976929 3.7915802 -3.7879028l0 -13.386932c0 -1.0501404 0.84555054 -1.8889465 1.8991394 -1.8889465c1.0401764 0 1.8890839 0.83880615 1.8890839 1.8889465l0 13.386932c0 2.09021 1.697815 3.7879028 3.7882233 3.7879028c2.0904083 0 3.7882233 -1.6976929 3.7882233 -3.7879028l0 -23.297943c0.71469116 0.25161743 1.3757019 0.36569214 1.9729614 0.36569214c2.32193 0 3.7177582 -1.717804 3.7177582 -3.7107544l0 -11.367126c0 -4.180481 -3.4057007 -7.706726 -7.5798035 -7.706726z" fill-rule="evenodd"/>
    <path fill="#5f7d95" d="m291.53036 282.49048c-3.1440125 0 -5.690735 2.5465393 -5.690735 5.68692c0 3.133667 2.5467224 5.6802063 5.690735 5.6802063c3.1305542 0 5.677307 -2.5465393 5.677307 -5.6802063c0 -3.1403809 -2.546753 -5.68692 -5.677307 -5.68692z" fill-rule="evenodd"/>
    <path fill="#5f7d95" d="m283.95056 297.64554c-4.1808167 0 -7.5764465 3.526245 -7.5764465 7.706726l0 11.367126c0 1.9929504 1.3857727 3.7107544 3.707672 3.7107544c0.5972595 0 1.2549133 -0.11407471 1.969635 -0.36569214l0 23.297943c0 2.09021 1.697815 3.7879028 3.788208 3.7879028c2.09375 0 3.7915955 -1.6976929 3.7915955 -3.7879028l0 -13.386932c0 -1.0501404 0.84555054 -1.8889465 1.8991394 -1.8889465c1.0401611 0 1.8890686 0.83880615 1.8890686 1.8889465l0 13.386932c0 2.09021 1.697815 3.7879028 3.7882385 3.7879028c2.090393 0 3.788208 -1.6976929 3.788208 -3.7879028l0 -23.297943c0.71469116 0.25161743 1.3757019 0.36569214 1.9729614 0.36569214c2.32193 0 3.7177734 -1.717804 3.7177734 -3.7107544l0 -11.367126c0 -4.180481 -3.4057007 -7.706726 -7.5798035 -7.706726z" fill-rule="evenodd"/>
    <path fill="#5f7d95" d="m116.06148 282.49048c-3.1439972 0 -5.690727 2.5465393 -5.690727 5.68692c0 3.133667 2.54673 5.6802063 5.690727 5.6802063c3.1305695 0 5.6772995 -2.5465393 5.6772995 -5.6802063c0 -3.1403809 -2.54673 -5.68692 -5.6772995 -5.68692z" fill-rule="evenodd"/>
    <path fill="#5f7d95" d="m108.481674 297.64554c-4.180809 0 -7.576454 3.526245 -7.576454 7.706726l0 11.367126c0 1.9929504 1.3857727 3.7107544 3.707695 3.7107544c0.5972595 0 1.2549133 -0.11407471 1.9696121 -0.36569214l0 23.297943c0 2.09021 1.6978226 3.7879028 3.7882233 3.7879028c2.0937576 0 3.7915802 -1.6976929 3.7915802 -3.7879028l0 -13.386932c0 -1.0501404 0.84555817 -1.8889465 1.899147 -1.8889465c1.0401688 0 1.8890762 0.83880615 1.8890762 1.8889465l0 13.386932c0 2.09021 1.6978226 3.7879028 3.7882233 3.7879028c2.0904083 0 3.788231 -1.6976929 3.788231 -3.7879028l0 -23.297943c0.71469116 0.25161743 1.3757019 0.36569214 1.9729614 0.36569214c2.3219147 0 3.7177582 -1.717804 3.7177582 -3.7107544l0 -11.367126c0 -4.180481 -3.4057083 -7.706726 -7.5798035 -7.706726z" fill-rule="evenodd"/>
    <path fill="#5f7d95" d="m174.54967 380.63483c-3.1439972 0 -5.690735 2.5465393 -5.690735 5.68692c0 3.1336975 2.5467377 5.680237 5.690735 5.680237c3.1305695 0 5.677307 -2.5465393 5.677307 -5.680237c0 -3.1403809 -2.5467377 -5.68692 -5.677307 -5.68692z" fill-rule="evenodd"/>
    <path fill="#5f7d95" d="m166.96986 395.7899c-4.1808014 0 -7.5764465 3.526245 -7.5764465 7.706726l0 11.367126c0 1.9929504 1.3857727 3.7107544 3.7076874 3.7107544c0.5972595 0 1.2549133 -0.11407471 1.9696045 -0.36569214l0 23.297943c0 2.0902405 1.6978302 3.7879333 3.7882233 3.7879333c2.0937653 0 3.7915802 -1.6976929 3.7915802 -3.7879333l0 -13.386932c0 -1.0501404 0.8455658 -1.888916 1.8991547 -1.888916c1.0401611 0 1.8890839 0.83877563 1.8890839 1.888916l0 13.386932c0 2.0902405 1.697815 3.7879333 3.7882233 3.7879333c2.090393 0 3.7882233 -1.6976929 3.7882233 -3.7879333l0 -23.297943c0.71469116 0.25161743 1.3757019 0.36569214 1.9729614 0.36569214c2.3219147 0 3.7177582 -1.717804 3.7177582 -3.7107544l0 -11.367126c0 -4.180481 -3.405716 -7.706726 -7.5798035 -7.706726z" fill-rule="evenodd"/>
    <path fill="#5f7d95" d="m233.04001 380.63483c-3.143982 0 -5.6907196 2.5465393 -5.6907196 5.68692c0 3.1336975 2.5467377 5.680237 5.6907196 5.680237c3.1305695 0 5.677307 -2.5465393 5.677307 -5.680237c0 -3.1403809 -2.5467377 -5.68692 -5.677307 -5.68692z" fill-rule="evenodd"/>
    <path fill="#5f7d95" d="m225.4602 395.7899c-4.1808014 0 -7.5764465 3.526245 -7.5764465 7.706726l0 11.367126c0 1.9929504 1.3857727 3.7107544 3.7076874 3.7107544c0.5972595 0 1.2549133 -0.11407471 1.9696198 -0.36569214l0 23.297943c0 2.0902405 1.697815 3.7879333 3.7882233 3.7879333c2.09375 0 3.7915802 -1.6976929 3.7915802 -3.7879333l0 -13.386932c0 -1.0501404 0.84555054 -1.888916 1.8991394 -1.888916c1.0401764 0 1.8890839 0.83877563 1.8890839 1.888916l0 13.386932c0 2.0902405 1.697815 3.7879333 3.7882233 3.7879333c2.0904083 0 3.7882233 -1.6976929 3.7882233 -3.7879333l0 -23.297943c0.71469116 0.25161743 1.3757019 0.36569214 1.9729614 0.36569214c2.32193 0 3.7177582 -1.717804 3.7177582 -3.7107544l0 -11.367126c0 -4.180481 -3.4057007 -7.706726 -7.5798035 -7.706726z" fill-rule="evenodd"/>
    <path fill="#5f7d95" d="m291.53036 380.63483c-3.1440125 0 -5.690735 2.5465393 -5.690735 5.68692c0 3.1336975 2.5467224 5.680237 5.690735 5.680237c3.1305542 0 5.677307 -2.5465393 5.677307 -5.680237c0 -3.1403809 -2.546753 -5.68692 -5.677307 -5.68692z" fill-rule="evenodd"/>
    <path fill="#5f7d95" d="m283.95056 395.7899c-4.1808167 0 -7.5764465 3.526245 -7.5764465 7.706726l0 11.367126c0 1.9929504 1.3857727 3.7107544 3.707672 3.7107544c0.5972595 0 1.2549133 -0.11407471 1.969635 -0.36569214l0 23.297943c0 2.0902405 1.697815 3.7879333 3.788208 3.7879333c2.09375 0 3.7915955 -1.6976929 3.7915955 -3.7879333l0 -13.386932c0 -1.0501404 0.84555054 -1.888916 1.8991394 -1.888916c1.0401611 0 1.8890686 0.83877563 1.8890686 1.888916l0 13.386932c0 2.0902405 1.697815 3.7879333 3.7882385 3.7879333c2.090393 0 3.788208 -1.6976929 3.788208 -3.7879333l0 -23.297943c0.71469116 0.25161743 1.3757019 0.36569214 1.9729614 0.36569214c2.32193 0 3.7177734 -1.717804 3.7177734 -3.7107544l0 -11.367126c0 -4.180481 -3.4057007 -7.706726 -7.5798035 -7.706726z" fill-rule="evenodd"/>
    <path fill="#5f7d95" d="m116.06148 380.63483c-3.1439972 0 -5.690727 2.5465393 -5.690727 5.68692c0 3.1336975 2.54673 5.680237 5.690727 5.680237c3.1305695 0 5.6772995 -2.5465393 5.6772995 -5.680237c0 -3.1403809 -2.54673 -5.68692 -5.6772995 -5.68692z" fill-rule="evenodd"/>
    <path fill="#5f7d95" d="m108.481674 395.7899c-4.180809 0 -7.576454 3.526245 -7.576454 7.706726l0 11.367126c0 1.9929504 1.3857727 3.7107544 3.707695 3.7107544c0.5972595 0 1.2549133 -0.11407471 1.9696121 -0.36569214l0 23.297943c0 2.0902405 1.6978226 3.7879333 3.7882233 3.7879333c2.0937576 0 3.7915802 -1.6976929 3.7915802 -3.7879333l0 -13.386932c0 -1.0501404 0.84555817 -1.888916 1.899147 -1.888916c1.0401688 0 1.8890762 0.83877563 1.8890762 1.888916l0 13.386932c0 2.0902405 1.6978226 3.7879333 3.7882233 3.7879333c2.0904083 0 3.788231 -1.6976929 3.788231 -3.7879333l0 -23.297943c0.71469116 0.25161743 1.3757019 0.36569214 1.9729614 0.36569214c2.3219147 0 3.7177582 -1.717804 3.7177582 -3.7107544l0 -11.367126c0 -4.180481 -3.4057083 -7.706726 -7.5798035 -7.706726z" fill-rule="evenodd"/>
    <path fill="#000000" fill-opacity="0.0" d="m442.41208 63.99887l0 0c0 -5.0358963 4.0823975 -9.118294 9.118286 -9.118294l158.0469 0c2.418274 0 4.737549 0.9606743 6.447571 2.6706848c1.710022 1.7100143 2.6707153 4.0292854 2.6707153 6.447609l0 36.472076c0 5.0358963 -4.0823975 9.118294 -9.118286 9.118294l-158.0469 0c-5.0358887 0 -9.118286 -4.0823975 -9.118286 -9.118294z" fill-rule="evenodd"/>
    <path stroke="#ffd0d0" stroke-width="1.0" stroke-linejoin="round" stroke-linecap="butt" d="m442.41208 63.99887l0 0c0 -5.0358963 4.0823975 -9.118294 9.118286 -9.118294l158.0469 0c2.418274 0 4.737549 0.9606743 6.447571 2.6706848c1.710022 1.7100143 2.6707153 4.0292854 2.6707153 6.447609l0 36.472076c0 5.0358963 -4.0823975 9.118294 -9.118286 9.118294l-158.0469 0c-5.0358887 0 -9.118286 -4.0823975 -9.118286 -9.118294z" fill-rule="evenodd"/>
    <path fill="#ffd0d0" d="m480.88193 71.2049l7.4375 18.5625l7.4375 -18.5625l3.890625 0l0 22.75l-3.0 0l0 -8.859375l0.28125 -9.5625l-7.46875 18.421875l-2.296875 0l-7.453125 -18.375l0.296875 9.515625l0 8.859375l-3.0 0l0 -22.75l3.875 0zm26.75 22.75l-2.890625 0l0 -16.90625l2.890625 0l0 16.90625zm-3.125 -21.390625q0 -0.703125 0.421875 -1.1875q0.4375 -0.484375 1.28125 -0.484375q0.84375 0 1.28125 0.484375q0.4375 0.484375 0.4375 1.1875q0 0.703125 -0.4375 1.171875q-0.4375 0.46875 -1.28125 0.46875q-0.84375 0 -1.28125 -0.46875q-0.421875 -0.46875 -0.421875 -1.171875zm17.59378 16.90625q0 -1.171875 -0.890625 -1.8125q-0.875 -0.65625 -3.078125 -1.125q-2.1875 -0.46875 -3.484375 -1.125q-1.28125 -0.65625 -1.90625 -1.5625q-0.609375 -0.90625 -0.609375 -2.15625q0 -2.078125 1.75 -3.515625q1.765625 -1.4375 4.5 -1.4375q2.875 0 4.65625 1.484375q1.796875 1.484375 1.796875 3.796875l-2.90625 0q0 -1.1875 -1.015625 -2.046875q-1.0 -0.859375 -2.53125 -0.859375q-1.578125 0 -2.46875 0.6875q-0.890625 0.6875 -0.890625 1.796875q0 1.046875 0.828125 1.578125q0.828125 0.53125 2.984375 1.015625q2.171875 0.484375 3.515625 1.15625q1.34375 0.671875 1.984375 1.625q0.65625 0.9375 0.65625 2.296875q0 2.265625 -1.8125 3.640625q-1.8125 1.359375 -4.703125 1.359375q-2.03125 0 -3.59375 -0.71875q-1.5625 -0.71875 -2.453125 -2.0q-0.8750305 -1.296875 -0.8750305 -2.796875l2.8906555 0q0.078125 1.453125 1.15625 2.3125q1.09375 0.84375 2.875 0.84375q1.640625 0 2.625 -0.65625q1.0 -0.671875 1.0 -1.78125zm16.5 0q0 -1.171875 -0.890625 -1.8125q-0.875 -0.65625 -3.078125 -1.125q-2.1875 -0.46875 -3.484375 -1.125q-1.28125 -0.65625 -1.90625 -1.5625q-0.609375 -0.90625 -0.609375 -2.15625q0 -2.078125 1.75 -3.515625q1.765625 -1.4375 4.5 -1.4375q2.875 0 4.65625 1.484375q1.796875 1.484375 1.796875 3.796875l-2.90625 0q0 -1.1875 -1.015625 -2.046875q-1.0 -0.859375 -2.53125 -0.859375q-1.578125 0 -2.46875 0.6875q-0.890625 0.6875 -0.890625 1.796875q0 1.046875 0.828125 1.578125q0.828125 0.53125 2.984375 1.015625q2.171875 0.484375 3.515625 1.15625q1.34375 0.671875 1.984375 1.625q0.65625 0.9375 0.65625 2.296875q0 2.265625 -1.8125 3.640625q-1.8125 1.359375 -4.703125 1.359375q-2.03125 0 -3.59375 -0.71875q-1.5625 -0.71875 -2.453125 -2.0q-0.875 -1.296875 -0.875 -2.796875l2.890625 0q0.078125 1.453125 1.15625 2.3125q1.09375 0.84375 2.875 0.84375q1.640625 0 2.625 -0.65625q1.0 -0.671875 1.0 -1.78125zm9.796875 4.484375l-2.890625 0l0 -16.90625l2.890625 0l0 16.90625zm-3.125 -21.390625q0 -0.703125 0.421875 -1.1875q0.4375 -0.484375 1.28125 -0.484375q0.84375 0 1.28125 0.484375q0.4375 0.484375 0.4375 1.1875q0 0.703125 -0.4375 1.171875q-0.4375 0.46875 -1.28125 0.46875q-0.84375 0 -1.28125 -0.46875q-0.421875 -0.46875 -0.421875 -1.171875zm6.984375 12.78125q0 -2.484375 0.96875 -4.46875q0.984375 -1.984375 2.71875 -3.0625q1.75 -1.078125 3.984375 -1.078125q3.453125 0 5.578125 2.390625q2.140625 2.390625 2.140625 6.359375l0 0.203125q0 2.46875 -0.953125 4.4375q-0.9375 1.953125 -2.703125 3.046875q-1.75 1.09375 -4.03125 1.09375q-3.4375 0 -5.578125 -2.390625q-2.125 -2.390625 -2.125 -6.328125l0 -0.203125zm2.90625 0.34375q0 2.8125 1.296875 4.515625q1.3125 1.703125 3.5 1.703125q2.203125 0 3.5 -1.71875q1.296875 -1.734375 1.296875 -4.84375q0 -2.78125 -1.328125 -4.5q-1.3125 -1.734375 -3.5 -1.734375q-2.140625 0 -3.453125 1.703125q-1.3125 1.703125 -1.3125 4.875zm18.843689 -8.640625l0.09375 2.125q1.9375 -2.4375 5.0625 -2.4375q5.359375 0 5.40625 6.046875l0 11.171875l-2.890625 0l0 -11.1875q-0.015625 -1.828125 -0.84375 -2.703125q-0.8125 -0.875 -2.546875 -0.875q-1.40625 0 -2.46875 0.75q-1.0625 0.75 -1.65625 1.96875l0 12.046875l-2.890564 0l0 -16.90625l2.734314 0z" fill-rule="nonzero"/>
    <path fill="#000000" fill-opacity="0.0" d="m698.52496 63.99887l0 0c0 -5.0358963 4.0823975 -9.118294 9.118286 -9.118294l158.04688 0c2.418274 0 4.737549 0.9606743 6.447571 2.6706848c1.710022 1.7100143 2.6707153 4.0292854 2.6707153 6.447609l0 36.472076c0 5.0358963 -4.0823975 9.118294 -9.118286 9.118294l-158.04688 0c-5.0358887 0 -9.118286 -4.0823975 -9.118286 -9.118294z" fill-rule="evenodd"/>
    <path stroke="#ffd0d0" stroke-width="1.0" stroke-linejoin="round" stroke-linecap="butt" d="m698.52496 63.99887l0 0c0 -5.0358963 4.0823975 -9.118294 9.118286 -9.118294l158.04688 0c2.418274 0 4.737549 0.9606743 6.447571 2.6706848c1.710022 1.7100143 2.6707153 4.0292854 2.6707153 6.447609l0 36.472076c0 5.0358963 -4.0823975 9.118294 -9.118286 9.118294l-158.04688 0c-5.0358887 0 -9.118286 -4.0823975 -9.118286 -9.118294z" fill-rule="evenodd"/>
    <path fill="#ffd0d0" d="m736.9948 71.2049l7.4375 18.5625l7.4375 -18.5625l3.890625 0l0 22.75l-3.0 0l0 -8.859375l0.28125 -9.5625l-7.46875 18.421875l-2.296875 0l-7.453125 -18.375l0.296875 9.515625l0 8.859375l-3.0 0l0 -22.75l3.875 0zm26.75 22.75l-2.890625 0l0 -16.90625l2.890625 0l0 16.90625zm-3.125 -21.390625q0 -0.703125 0.421875 -1.1875q0.4375 -0.484375 1.28125 -0.484375q0.84375 0 1.28125 0.484375q0.4375 0.484375 0.4375 1.1875q0 0.703125 -0.4375 1.171875q-0.4375 0.46875 -1.28125 0.46875q-0.84375 0 -1.28125 -0.46875q-0.421875 -0.46875 -0.421875 -1.171875zm17.59375 16.90625q0 -1.171875 -0.890625 -1.8125q-0.875 -0.65625 -3.078125 -1.125q-2.1875 -0.46875 -3.484375 -1.125q-1.28125 -0.65625 -1.90625 -1.5625q-0.609375 -0.90625 -0.609375 -2.15625q0 -2.078125 1.75 -3.515625q1.765625 -1.4375 4.5 -1.4375q2.875 0 4.65625 1.484375q1.796875 1.484375 1.796875 3.796875l-2.90625 0q0 -1.1875 -1.015625 -2.046875q-1.0 -0.859375 -2.53125 -0.859375q-1.578125 0 -2.46875 0.6875q-0.890625 0.6875 -0.890625 1.796875q0 1.046875 0.828125 1.578125q0.828125 0.53125 2.984375 1.015625q2.171875 0.484375 3.515625 1.15625q1.34375 0.671875 1.984375 1.625q0.65625 0.9375 0.65625 2.296875q0 2.265625 -1.8125 3.640625q-1.8125 1.359375 -4.703125 1.359375q-2.03125 0 -3.59375 -0.71875q-1.5625 -0.71875 -2.453125 -2.0q-0.875 -1.296875 -0.875 -2.796875l2.890625 0q0.078125 1.453125 1.15625 2.3125q1.09375 0.84375 2.875 0.84375q1.640625 0 2.625 -0.65625q1.0 -0.671875 1.0 -1.78125zm16.5 0q0 -1.171875 -0.890625 -1.8125q-0.875 -0.65625 -3.078125 -1.125q-2.1875 -0.46875 -3.484375 -1.125q-1.28125 -0.65625 -1.90625 -1.5625q-0.609375 -0.90625 -0.609375 -2.15625q0 -2.078125 1.75 -3.515625q1.765625 -1.4375 4.5 -1.4375q2.875 0 4.65625 1.484375q1.796875 1.484375 1.796875 3.796875l-2.90625 0q0 -1.1875 -1.015625 -2.046875q-1.0 -0.859375 -2.53125 -0.859375q-1.578125 0 -2.46875 0.6875q-0.890625 0.6875 -0.890625 1.796875q0 1.046875 0.828125 1.578125q0.828125 0.53125 2.984375 1.015625q2.171875 0.484375 3.515625 1.15625q1.34375 0.671875 1.984375 1.625q0.65625 0.9375 0.65625 2.296875q0 2.265625 -1.8125 3.640625q-1.8125 1.359375 -4.703125 1.359375q-2.03125 0 -3.59375 -0.71875q-1.5625 -0.71875 -2.453125 -2.0q-0.875 -1.296875 -0.875 -2.796875l2.890625 0q0.078125 1.453125 1.15625 2.3125q1.09375 0.84375 2.875 0.84375q1.640625 0 2.625 -0.65625q1.0 -0.671875 1.0 -1.78125zm9.796875 4.484375l-2.890625 0l0 -16.90625l2.890625 0l0 16.90625zm-3.125 -21.390625q0 -0.703125 0.421875 -1.1875q0.4375 -0.484375 1.28125 -0.484375q0.84375 0 1.28125 0.484375q0.4375 0.484375 0.4375 1.1875q0 0.703125 -0.4375 1.171875q-0.4375 0.46875 -1.28125 0.46875q-0.84375 0 -1.28125 -0.46875q-0.421875 -0.46875 -0.421875 -1.171875zm6.984375 12.78125q0 -2.484375 0.96875 -4.46875q0.984375 -1.984375 2.71875 -3.0625q1.75 -1.078125 3.984375 -1.078125q3.453125 0 5.578125 2.390625q2.140625 2.390625 2.140625 6.359375l0 0.203125q0 2.46875 -0.953125 4.4375q-0.9375 1.953125 -2.703125 3.046875q-1.75 1.09375 -4.03125 1.09375q-3.4375 0 -5.578125 -2.390625q-2.125 -2.390625 -2.125 -6.328125l0 -0.203125zm2.90625 0.34375q0 2.8125 1.296875 4.515625q1.3125 1.703125 3.5 1.703125q2.203125 0 3.5 -1.71875q1.296875 -1.734375 1.296875 -4.84375q0 -2.78125 -1.328125 -4.5q-1.3125 -1.734375 -3.5 -1.734375q-2.140625 0 -3.453125 1.703125q-1.3125 1.703125 -1.3125 4.875zm18.84375 -8.640625l0.09375 2.125q1.9375 -2.4375 5.0625 -2.4375q5.359375 0 5.40625 6.046875l0 11.171875l-2.890625 0l0 -11.1875q-0.015625 -1.828125 -0.84375 -2.703125q-0.8125 -0.875 -2.546875 -0.875q-1.40625 0 -2.46875 0.75q-1.0625 0.75 -1.65625 1.96875l0 12.046875l-2.890625 0l0 -16.90625l2.734375 0z" fill-rule="nonzero"/>
    <path fill="#a1f7ff" d="m531.77014 214.50098c-3.143982 0 -5.690735 2.546524 -5.690735 5.68692c0 3.1336823 2.546753 5.6802216 5.690735 5.6802216c3.1305542 0 5.677307 -2.5465393 5.677307 -5.6802216c0 -3.140396 -2.546753 -5.68692 -5.677307 -5.68692z" fill-rule="evenodd"/>
    <path fill="#a1f7ff" d="m524.1903 229.65604c-4.180786 0 -7.576416 3.5262299 -7.576416 7.706711l0 11.367142c0 1.9929352 1.3857422 3.7107544 3.7077026 3.7107544c0.597229 0 1.2548828 -0.11407471 1.9696045 -0.3657074l0 23.297958c0 2.0902405 1.697815 3.7879028 3.788208 3.7879028c2.09375 0 3.791565 -1.6976624 3.791565 -3.7879028l0 -13.386932c0 -1.0501404 0.84558105 -1.8889465 1.8991699 -1.8889465c1.0401611 0 1.8890991 0.83880615 1.8890991 1.8889465l0 13.386932c0 2.0902405 1.697815 3.7879028 3.788208 3.7879028c2.090393 0 3.788208 -1.6976624 3.788208 -3.7879028l0 -23.297958c0.7147217 0.2516327 1.3757324 0.3657074 1.9729614 0.3657074c2.3219604 0 3.7177734 -1.7178192 3.7177734 -3.7107544l0 -11.367142c0 -4.180481 -3.4057007 -7.706711 -7.579834 -7.706711z" fill-rule="evenodd"/>
    <path fill="#a1f7ff" d="m590.2605 214.50098c-3.143982 0 -5.690735 2.546524 -5.690735 5.68692c0 3.1336823 2.546753 5.6802216 5.690735 5.6802216c3.1305542 0 5.677307 -2.5465393 5.677307 -5.6802216c0 -3.140396 -2.546753 -5.68692 -5.677307 -5.68692z" fill-rule="evenodd"/>
    <path fill="#a1f7ff" d="m582.68066 229.65604c-4.180786 0 -7.576416 3.5262299 -7.576416 7.706711l0 11.367142c0 1.9929352 1.3857422 3.7107544 3.7077026 3.7107544c0.597229 0 1.2548828 -0.11407471 1.9696045 -0.3657074l0 23.297958c0 2.0902405 1.697815 3.7879028 3.788208 3.7879028c2.09375 0 3.791565 -1.6976624 3.791565 -3.7879028l0 -13.386932c0 -1.0501404 0.84558105 -1.8889465 1.8991699 -1.8889465c1.0401611 0 1.8890381 0.83880615 1.8890381 1.8889465l0 13.386932c0 2.0902405 1.697876 3.7879028 3.788269 3.7879028c2.090393 0 3.788208 -1.6976624 3.788208 -3.7879028l0 -23.297958c0.7147217 0.2516327 1.3757324 0.3657074 1.9729614 0.3657074c2.3218994 0 3.7177734 -1.7178192 3.7177734 -3.7107544l0 -11.367142c0 -4.180481 -3.4057007 -7.706711 -7.579834 -7.706711z" fill-rule="evenodd"/>
    <path fill="#a1f7ff" d="m531.7705 296.64532c-3.143982 0 -5.690735 2.5465393 -5.690735 5.68692c0 3.1336975 2.546753 5.680237 5.690735 5.680237c3.1305542 0 5.677307 -2.5465393 5.677307 -5.680237c0 -3.1403809 -2.546753 -5.68692 -5.677307 -5.68692z" fill-rule="evenodd"/>
    <path fill="#a1f7ff" d="m524.19073 311.80038c-4.180847 0 -7.576477 3.526245 -7.576477 7.706726l0 11.367126c0 1.9929504 1.3858032 3.7107544 3.7077026 3.7107544c0.597229 0 1.2548828 -0.11404419 1.9696045 -0.36569214l0 23.297943c0 2.0902405 1.697815 3.7879333 3.788208 3.7879333c2.09375 0 3.791626 -1.6976929 3.791626 -3.7879333l0 -13.386932c0 -1.0501404 0.84552 -1.888916 1.8991089 -1.888916c1.0401611 0 1.8890991 0.83877563 1.8890991 1.888916l0 13.386932c0 2.0902405 1.697815 3.7879333 3.788208 3.7879333c2.090393 0 3.788208 -1.6976929 3.788208 -3.7879333l0 -23.297943c0.7147217 0.25164795 1.3757324 0.36569214 1.9729614 0.36569214c2.3219604 0 3.7177734 -1.717804 3.7177734 -3.7107544l0 -11.367126c0 -4.180481 -3.4057007 -7.706726 -7.579773 -7.706726z" fill-rule="evenodd"/>
    <path fill="#a1f7ff" d="m473.28195 214.50098c-3.143982 0 -5.690735 2.546524 -5.690735 5.68692c0 3.1336823 2.546753 5.6802216 5.690735 5.6802216c3.1305542 0 5.677307 -2.5465393 5.677307 -5.6802216c0 -3.140396 -2.546753 -5.68692 -5.677307 -5.68692z" fill-rule="evenodd"/>
    <path fill="#a1f7ff" d="m465.70215 229.65604c-4.1808167 0 -7.5764465 3.5262299 -7.5764465 7.706711l0 11.367142c0 1.9929352 1.3857727 3.7107544 3.7077026 3.7107544c0.597229 0 1.2548828 -0.11407471 1.9696045 -0.3657074l0 23.297958c0 2.0902405 1.697815 3.7879028 3.788208 3.7879028c2.09375 0 3.7915955 -1.6976624 3.7915955 -3.7879028l0 -13.386932c0 -1.0501404 0.84555054 -1.8889465 1.8991394 -1.8889465c1.0401611 0 1.8890686 0.83880615 1.8890686 1.8889465l0 13.386932c0 2.0902405 1.697815 3.7879028 3.7882385 3.7879028c2.090393 0 3.788208 -1.6976624 3.788208 -3.7879028l0 -23.297958c0.71469116 0.2516327 1.3757019 0.3657074 1.9729614 0.3657074c2.32193 0 3.7177734 -1.7178192 3.7177734 -3.7107544l0 -11.367142c0 -4.180481 -3.4057007 -7.706711 -7.5798035 -7.706711z" fill-rule="evenodd"/>
    <path fill="#a1f7ff" d="m473.28195 296.64532c-3.143982 0 -5.690735 2.5465393 -5.690735 5.68692c0 3.1336975 2.546753 5.680237 5.690735 5.680237c3.1305542 0 5.677307 -2.5465393 5.677307 -5.680237c0 -3.1403809 -2.546753 -5.68692 -5.677307 -5.68692z" fill-rule="evenodd"/>
    <path fill="#a1f7ff" d="m465.70215 311.80038c-4.1808167 0 -7.5764465 3.526245 -7.5764465 7.706726l0 11.367126c0 1.9929504 1.3857727 3.7107544 3.7077026 3.7107544c0.597229 0 1.2548828 -0.11404419 1.9696045 -0.36569214l0 23.297943c0 2.0902405 1.697815 3.7879333 3.788208 3.7879333c2.09375 0 3.7915955 -1.6976929 3.7915955 -3.7879333l0 -13.386932c0 -1.0501404 0.84555054 -1.888916 1.8991394 -1.888916c1.0401611 0 1.8890686 0.83877563 1.8890686 1.888916l0 13.386932c0 2.0902405 1.697815 3.7879333 3.7882385 3.7879333c2.090393 0 3.788208 -1.6976929 3.788208 -3.7879333l0 -23.297943c0.71469116 0.25164795 1.3757019 0.36569214 1.9729614 0.36569214c2.32193 0 3.7177734 -1.717804 3.7177734 -3.7107544l0 -11.367126c0 -4.180481 -3.4057007 -7.706726 -7.5798035 -7.706726z" fill-rule="evenodd"/>
    <path fill="#000000" fill-opacity="0.0" d="m455.42258 163.03543l152.6929 0l0 47.181107l-152.6929 0z" fill-rule="evenodd"/>
    <path fill="#a1f7ff" d="m484.34326 195.07544l-2.265625 0l0 -7.890625l-8.59375 0l0 7.890625l-2.25 0l0 -17.0625l2.25 0l0 7.328125l8.59375 0l0 -7.328125l2.265625 0l0 17.0625zm8.921875 0.234375q-2.578125 0 -4.203125 -1.6875q-1.609375 -1.703125 -1.609375 -4.53125l0 -0.40625q0 -1.890625 0.71875 -3.359375q0.71875 -1.484375 2.015625 -2.328125q1.296875 -0.84375 2.8125 -0.84375q2.46875 0 3.828125 1.640625q1.375 1.625 1.375 4.65625l0 0.90625l-8.578125 0q0.046875 1.875 1.09375 3.03125q1.046875 1.15625 2.65625 1.15625q1.15625 0 1.953125 -0.46875q0.796875 -0.46875 1.390625 -1.25l1.328125 1.03125q-1.59375 2.453125 -4.78125 2.453125zm-0.265625 -11.375q-1.3125 0 -2.203125 0.96875q-0.890625 0.953125 -1.109375 2.671875l6.359375 0l0 -0.171875q-0.09375 -1.640625 -0.890625 -2.546875q-0.796875 -0.921875 -2.15625 -0.921875zm13.839844 0.40625q-0.484375 -0.078125 -1.0625 -0.078125q-2.125 0 -2.890625 1.8125l0 9.0l-2.171875 0l0 -12.6875l2.109375 0l0.03125 1.46875q1.078125 -1.703125 3.03125 -1.703125q0.625 0 0.953125 0.171875l0 2.015625zm1.1835938 4.28125q0 -1.875 0.734375 -3.359375q0.734375 -1.484375 2.03125 -2.296875q1.3125 -0.8125 3.0 -0.8125q2.578125 0 4.171875 1.796875q1.609375 1.796875 1.609375 4.765625l0 0.15625q0 1.859375 -0.71875 3.328125q-0.703125 1.46875 -2.015625 2.296875q-1.3125 0.8125 -3.03125 0.8125q-2.578125 0 -4.1875 -1.796875q-1.59375 -1.796875 -1.59375 -4.75l0 -0.140625zm2.1875 0.25q0 2.109375 0.96875 3.390625q0.984375 1.28125 2.625 1.28125q1.65625 0 2.625 -1.296875q0.96875 -1.296875 0.96875 -3.625q0 -2.09375 -0.984375 -3.390625q-0.984375 -1.296875 -2.625 -1.296875q-1.609375 0 -2.59375 1.28125q-0.984375 1.28125 -0.984375 3.65625zm23.394531 -1.40625q-2.90625 -0.828125 -4.21875 -2.03125q-1.3125 -1.21875 -1.3125 -3.0q0 -2.015625 1.609375 -3.328125q1.609375 -1.328125 4.1875 -1.328125q1.75 0 3.125 0.6875q1.390625 0.671875 2.140625 1.875q0.75 1.1875 0.75 2.609375l-2.25 0q0 -1.546875 -0.984375 -2.4375q-0.984375 -0.890625 -2.78125 -0.890625q-1.671875 0 -2.609375 0.734375q-0.921875 0.734375 -0.921875 2.03125q0 1.046875 0.875 1.765625q0.890625 0.71875 3.015625 1.328125q2.140625 0.59375 3.328125 1.3125q1.203125 0.71875 1.78125 1.6875q0.59375 0.953125 0.59375 2.25q0 2.078125 -1.625 3.328125q-1.609375 1.25 -4.328125 1.25q-1.75 0 -3.28125 -0.671875q-1.515625 -0.671875 -2.34375 -1.84375q-0.828125 -1.171875 -0.828125 -2.671875l2.265625 0q0 1.546875 1.140625 2.453125q1.140625 0.890625 3.046875 0.890625q1.78125 0 2.734375 -0.71875q0.953125 -0.734375 0.953125 -1.984375q0 -1.25 -0.890625 -1.9375q-0.875 -0.6875 -3.171875 -1.359375zm8.332031 1.15625q0 -2.984375 1.375 -4.71875q1.375 -1.75 3.6875 -1.75q2.25 0 3.546875 1.515625l0.09375 -1.28125l1.984375 0l0 17.5625l-2.15625 0l0 -6.046875q-1.3125 1.40625 -3.5 1.40625q-2.296875 0 -3.671875 -1.78125q-1.359375 -1.796875 -1.359375 -4.75l0 -0.15625zm2.171875 0.25q0 2.1875 0.921875 3.4375q0.921875 1.234375 2.484375 1.234375q1.921875 0 2.953125 -1.71875l0 -6.203125q-1.03125 -1.6875 -2.9375 -1.6875q-1.5625 0 -2.5 1.25q-0.921875 1.25 -0.921875 3.6875zm19.828125 4.953125q-1.265625 1.484375 -3.71875 1.484375q-2.015625 0 -3.078125 -1.171875q-1.0625 -1.1875 -1.078125 -3.5l0 -8.25l2.171875 0l0 8.203125q0 2.875 2.34375 2.875q2.484375 0 3.296875 -1.84375l0 -9.234375l2.171875 0l0 12.6875l-2.0625 0l-0.046875 -1.25zm13.230469 1.25q-0.1875 -0.375 -0.296875 -1.34375q-1.515625 1.578125 -3.609375 1.578125q-1.875 0 -3.078125 -1.0625q-1.203125 -1.0625 -1.203125 -2.6875q0 -1.984375 1.5 -3.078125q1.515625 -1.09375 4.234375 -1.09375l2.109375 0l0 -1.0q0 -1.140625 -0.6875 -1.8125q-0.671875 -0.671875 -1.984375 -0.671875q-1.171875 0 -1.953125 0.59375q-0.78125 0.578125 -0.78125 1.40625l-2.1875 0q0 -0.9375 0.671875 -1.828125q0.6875 -0.890625 1.828125 -1.40625q1.15625 -0.515625 2.546875 -0.515625q2.1875 0 3.421875 1.109375q1.25 1.09375 1.296875 3.015625l0 5.828125q0 1.75 0.453125 2.78125l0 0.1875l-2.28125 0zm-3.59375 -1.65625q1.015625 0 1.921875 -0.515625q0.921875 -0.53125 1.328125 -1.375l0 -2.609375l-1.6875 0q-3.984375 0 -3.984375 2.328125q0 1.03125 0.671875 1.609375q0.6875 0.5625 1.75 0.5625zm8.2890625 -4.796875q0 -2.90625 1.375 -4.6875q1.390625 -1.78125 3.640625 -1.78125q2.21875 0 3.515625 1.53125l0 -6.609375l2.171875 0l0 18.0l-1.984375 0l-0.109375 -1.359375q-1.296875 1.59375 -3.625 1.59375q-2.203125 0 -3.59375 -1.796875q-1.390625 -1.8125 -1.390625 -4.71875l0 -0.171875zm2.171875 0.25q0 2.15625 0.890625 3.375q0.890625 1.21875 2.46875 1.21875q2.0625 0 3.0 -1.84375l0 -5.828125q-0.96875 -1.796875 -2.984375 -1.796875q-1.59375 0 -2.484375 1.234375q-0.890625 1.234375 -0.890625 3.640625z" fill-rule="nonzero"/>
    <path fill="#000000" fill-opacity="0.0" d="m681.50134 192.47446l0 0c0 -19.360794 15.695007 -35.055817 35.055786 -35.055817l140.21906 0l0 0c9.297424 0 18.21399 3.6933594 24.788208 10.267609c6.57428 6.574234 10.267639 15.490829 10.267639 24.788208l0 155.80963c0 19.360779 -15.695007 35.055817 -35.055847 35.055817l-140.21906 0l0 0c-19.360779 0 -35.055786 -15.695038 -35.055786 -35.055817z" fill-rule="evenodd"/>
    <path stroke="#a1f7ff" stroke-width="1.0" stroke-linejoin="round" stroke-linecap="butt" d="m681.50134 192.47446l0 0c0 -19.360794 15.695007 -35.055817 35.055786 -35.055817l140.21906 0l0 0c9.297424 0 18.21399 3.6933594 24.788208 10.267609c6.57428 6.574234 10.267639 15.490829 10.267639 24.788208l0 155.80963c0 19.360779 -15.695007 35.055817 -35.055847 35.055817l-140.21906 0l0 0c-19.360779 0 -35.055786 -15.695038 -35.055786 -35.055817z" fill-rule="evenodd"/>
    <path fill="#a1f7ff" d="m787.883 214.50098c-3.143982 0 -5.690735 2.546524 -5.690735 5.68692c0 3.1336823 2.546753 5.6802216 5.690735 5.6802216c3.1305542 0 5.677307 -2.5465393 5.677307 -5.6802216c0 -3.140396 -2.546753 -5.68692 -5.677307 -5.68692z" fill-rule="evenodd"/>
    <path fill="#a1f7ff" d="m780.3032 229.65604c-4.180847 0 -7.576477 3.5262299 -7.576477 7.706711l0 11.367142c0 1.9929352 1.3857422 3.7107544 3.7077026 3.7107544c0.597229 0 1.2548828 -0.11407471 1.9696045 -0.3657074l0 23.297958c0 2.0902405 1.697815 3.7879028 3.788208 3.7879028c2.09375 0 3.791565 -1.6976624 3.791565 -3.7879028l0 -13.386932c0 -1.0501404 0.84558105 -1.8889465 1.8991699 -1.8889465c1.0401611 0 1.8890991 0.83880615 1.8890991 1.8889465l0 13.386932c0 2.0902405 1.697815 3.7879028 3.788208 3.7879028c2.090393 0 3.788208 -1.6976624 3.788208 -3.7879028l0 -23.297958c0.7147217 0.2516327 1.3757324 0.3657074 1.9729614 0.3657074c2.3219604 0 3.7177734 -1.7178192 3.7177734 -3.7107544l0 -11.367142c0 -4.180481 -3.4057007 -7.706711 -7.579773 -7.706711z" fill-rule="evenodd"/>
    <path fill="#a1f7ff" d="m846.37335 214.50098c-3.143982 0 -5.690735 2.546524 -5.690735 5.68692c0 3.1336823 2.546753 5.6802216 5.690735 5.6802216c3.1305542 0 5.677307 -2.5465393 5.677307 -5.6802216c0 -3.140396 -2.546753 -5.68692 -5.677307 -5.68692z" fill-rule="evenodd"/>
    <path fill="#a1f7ff" d="m838.7935 229.65604c-4.180786 0 -7.576416 3.5262299 -7.576416 7.706711l0 11.367142c0 1.9929352 1.3857422 3.7107544 3.7077026 3.7107544c0.597229 0 1.2548828 -0.11407471 1.9696045 -0.3657074l0 23.297958c0 2.0902405 1.697815 3.7879028 3.788208 3.7879028c2.09375 0 3.791565 -1.6976624 3.791565 -3.7879028l0 -13.386932c0 -1.0501404 0.84558105 -1.8889465 1.8991699 -1.8889465c1.0401611 0 1.8890991 0.83880615 1.8890991 1.8889465l0 13.386932c0 2.0902405 1.697815 3.7879028 3.788208 3.7879028c2.090393 0 3.788208 -1.6976624 3.788208 -3.7879028l0 -23.297958c0.7147217 0.2516327 1.3757324 0.3657074 1.9729614 0.3657074c2.3219604 0 3.7177734 -1.7178192 3.7177734 -3.7107544l0 -11.367142c0 -4.180481 -3.4057007 -7.706711 -7.579834 -7.706711z" fill-rule="evenodd"/>
    <path fill="#a1f7ff" d="m729.39484 214.50098c-3.144043 0 -5.690735 2.546524 -5.690735 5.68692c0 3.1336823 2.546692 5.6802216 5.690735 5.6802216c3.1305542 0 5.677307 -2.5465393 5.677307 -5.6802216c0 -3.140396 -2.546753 -5.68692 -5.677307 -5.68692z" fill-rule="evenodd"/>
    <path fill="#a1f7ff" d="m721.815 229.65604c-4.180786 0 -7.576477 3.5262299 -7.576477 7.706711l0 11.367142c0 1.9929352 1.3858032 3.7107544 3.7077026 3.7107544c0.59729004 0 1.2549438 -0.11407471 1.9696045 -0.3657074l0 23.297958c0 2.0902405 1.697876 3.7879028 3.788269 3.7879028c2.09375 0 3.791565 -1.6976624 3.791565 -3.7879028l0 -13.386932c0 -1.0501404 0.84558105 -1.8889465 1.8991699 -1.8889465c1.0401611 0 1.8890381 0.83880615 1.8890381 1.8889465l0 13.386932c0 2.0902405 1.697815 3.7879028 3.788269 3.7879028c2.090393 0 3.788208 -1.6976624 3.788208 -3.7879028l0 -23.297958c0.71466064 0.2516327 1.3756714 0.3657074 1.9729614 0.3657074c2.3218994 0 3.7177734 -1.7178192 3.7177734 -3.7107544l0 -11.367142c0 -4.180481 -3.4057617 -7.706711 -7.579834 -7.706711z" fill-rule="evenodd"/>
    <path fill="#a1f7ff" d="m729.39484 296.64532c-3.144043 0 -5.690735 2.5465393 -5.690735 5.68692c0 3.1336975 2.546692 5.680237 5.690735 5.680237c3.1305542 0 5.677307 -2.5465393 5.677307 -5.680237c0 -3.1403809 -2.546753 -5.68692 -5.677307 -5.68692z" fill-rule="evenodd"/>
    <path fill="#a1f7ff" d="m721.815 311.80038c-4.180786 0 -7.576477 3.526245 -7.576477 7.706726l0 11.367126c0 1.9929504 1.3858032 3.7107544 3.7077026 3.7107544c0.59729004 0 1.2549438 -0.11404419 1.9696045 -0.36569214l0 23.297943c0 2.0902405 1.697876 3.7879333 3.788269 3.7879333c2.09375 0 3.791565 -1.6976929 3.791565 -3.7879333l0 -13.386932c0 -1.0501404 0.84558105 -1.888916 1.8991699 -1.888916c1.0401611 0 1.8890381 0.83877563 1.8890381 1.888916l0 13.386932c0 2.0902405 1.697815 3.7879333 3.788269 3.7879333c2.090393 0 3.788208 -1.6976929 3.788208 -3.7879333l0 -23.297943c0.71466064 0.25164795 1.3756714 0.36569214 1.9729614 0.36569214c2.3218994 0 3.7177734 -1.717804 3.7177734 -3.7107544l0 -11.367126c0 -4.180481 -3.4057617 -7.706726 -7.579834 -7.706726z" fill-rule="evenodd"/>
    <path fill="#000000" fill-opacity="0.0" d="m711.53546 163.03543l152.69287 0l0 47.181107l-152.69287 0z" fill-rule="evenodd"/>
    <path fill="#a1f7ff" d="m740.4561 195.07544l-2.265625 0l0 -7.890625l-8.59375 0l0 7.890625l-2.25 0l0 -17.0625l2.25 0l0 7.328125l8.59375 0l0 -7.328125l2.265625 0l0 17.0625zm8.921875 0.234375q-2.578125 0 -4.203125 -1.6875q-1.609375 -1.703125 -1.609375 -4.53125l0 -0.40625q0 -1.890625 0.71875 -3.359375q0.71875 -1.484375 2.015625 -2.328125q1.296875 -0.84375 2.8125 -0.84375q2.46875 0 3.828125 1.640625q1.375 1.625 1.375 4.65625l0 0.90625l-8.578125 0q0.046875 1.875 1.09375 3.03125q1.046875 1.15625 2.65625 1.15625q1.15625 0 1.953125 -0.46875q0.796875 -0.46875 1.390625 -1.25l1.328125 1.03125q-1.59375 2.453125 -4.78125 2.453125zm-0.265625 -11.375q-1.3125 0 -2.203125 0.96875q-0.890625 0.953125 -1.109375 2.671875l6.359375 0l0 -0.171875q-0.09375 -1.640625 -0.890625 -2.546875q-0.796875 -0.921875 -2.15625 -0.921875zm13.839844 0.40625q-0.484375 -0.078125 -1.0625 -0.078125q-2.125 0 -2.890625 1.8125l0 9.0l-2.171875 0l0 -12.6875l2.109375 0l0.03125 1.46875q1.078125 -1.703125 3.03125 -1.703125q0.625 0 0.953125 0.171875l0 2.015625zm1.1835938 4.28125q0 -1.875 0.734375 -3.359375q0.734375 -1.484375 2.03125 -2.296875q1.3125 -0.8125 3.0 -0.8125q2.578125 0 4.171875 1.796875q1.609375 1.796875 1.609375 4.765625l0 0.15625q0 1.859375 -0.71875 3.328125q-0.703125 1.46875 -2.015625 2.296875q-1.3125 0.8125 -3.03125 0.8125q-2.578125 0 -4.1875 -1.796875q-1.59375 -1.796875 -1.59375 -4.75l0 -0.140625zm2.1875 0.25q0 2.109375 0.96875 3.390625q0.984375 1.28125 2.625 1.28125q1.65625 0 2.625 -1.296875q0.96875 -1.296875 0.96875 -3.625q0 -2.09375 -0.984375 -3.390625q-0.984375 -1.296875 -2.625 -1.296875q-1.609375 0 -2.59375 1.28125q-0.984375 1.28125 -0.984375 3.65625zm23.394531 -1.40625q-2.90625 -0.828125 -4.21875 -2.03125q-1.3125 -1.21875 -1.3125 -3.0q0 -2.015625 1.609375 -3.328125q1.609375 -1.328125 4.1875 -1.328125q1.75 0 3.125 0.6875q1.390625 0.671875 2.140625 1.875q0.75 1.1875 0.75 2.609375l-2.25 0q0 -1.546875 -0.984375 -2.4375q-0.984375 -0.890625 -2.78125 -0.890625q-1.671875 0 -2.609375 0.734375q-0.921875 0.734375 -0.921875 2.03125q0 1.046875 0.875 1.765625q0.890625 0.71875 3.015625 1.328125q2.140625 0.59375 3.328125 1.3125q1.203125 0.71875 1.78125 1.6875q0.59375 0.953125 0.59375 2.25q0 2.078125 -1.625 3.328125q-1.609375 1.25 -4.328125 1.25q-1.75 0 -3.28125 -0.671875q-1.515625 -0.671875 -2.34375 -1.84375q-0.828125 -1.171875 -0.828125 -2.671875l2.265625 0q0 1.546875 1.140625 2.453125q1.140625 0.890625 3.046875 0.890625q1.78125 0 2.734375 -0.71875q0.953125 -0.734375 0.953125 -1.984375q0 -1.25 -0.890625 -1.9375q-0.875 -0.6875 -3.171875 -1.359375zm8.332031 1.15625q0 -2.984375 1.375 -4.71875q1.375 -1.75 3.6875 -1.75q2.25 0 3.546875 1.515625l0.09375 -1.28125l1.984375 0l0 17.5625l-2.15625 0l0 -6.046875q-1.3125 1.40625 -3.5 1.40625q-2.296875 0 -3.671875 -1.78125q-1.359375 -1.796875 -1.359375 -4.75l0 -0.15625zm2.171875 0.25q0 2.1875 0.921875 3.4375q0.921875 1.234375 2.484375 1.234375q1.921875 0 2.953125 -1.71875l0 -6.203125q-1.03125 -1.6875 -2.9375 -1.6875q-1.5625 0 -2.5 1.25q-0.921875 1.25 -0.921875 3.6875zm19.828125 4.953125q-1.265625 1.484375 -3.71875 1.484375q-2.015625 0 -3.078125 -1.171875q-1.0625 -1.1875 -1.078125 -3.5l0 -8.25l2.171875 0l0 8.203125q0 2.875 2.34375 2.875q2.484375 0 3.296875 -1.84375l0 -9.234375l2.171875 0l0 12.6875l-2.0625 0l-0.046875 -1.25zm13.230469 1.25q-0.1875 -0.375 -0.296875 -1.34375q-1.515625 1.578125 -3.609375 1.578125q-1.875 0 -3.078125 -1.0625q-1.203125 -1.0625 -1.203125 -2.6875q0 -1.984375 1.5 -3.078125q1.515625 -1.09375 4.234375 -1.09375l2.109375 0l0 -1.0q0 -1.140625 -0.6875 -1.8125q-0.671875 -0.671875 -1.984375 -0.671875q-1.171875 0 -1.953125 0.59375q-0.78125 0.578125 -0.78125 1.40625l-2.1875 0q0 -0.9375 0.671875 -1.828125q0.6875 -0.890625 1.828125 -1.40625q1.15625 -0.515625 2.546875 -0.515625q2.1875 0 3.421875 1.109375q1.25 1.09375 1.296875 3.015625l0 5.828125q0 1.75 0.453125 2.78125l0 0.1875l-2.28125 0zm-3.59375 -1.65625q1.015625 0 1.921875 -0.515625q0.921875 -0.53125 1.328125 -1.375l0 -2.609375l-1.6875 0q-3.984375 0 -3.984375 2.328125q0 1.03125 0.671875 1.609375q0.6875 0.5625 1.75 0.5625zm8.2890625 -4.796875q0 -2.90625 1.375 -4.6875q1.390625 -1.78125 3.640625 -1.78125q2.21875 0 3.515625 1.53125l0 -6.609375l2.171875 0l0 18.0l-1.984375 0l-0.109375 -1.359375q-1.296875 1.59375 -3.625 1.59375q-2.203125 0 -3.59375 -1.796875q-1.390625 -1.8125 -1.390625 -4.71875l0 -0.171875zm2.171875 0.25q0 2.15625 0.890625 3.375q0.890625 1.21875 2.46875 1.21875q2.0625 0 3.0 -1.84375l0 -5.828125q-0.96875 -1.796875 -2.984375 -1.796875q-1.59375 0 -2.484375 1.234375q-0.890625 1.234375 -0.890625 3.640625z" fill-rule="nonzero"/>
    <path fill="#000000" fill-opacity="0.0" d="m530.55383 109.58924l0 47.84252" fill-rule="evenodd"/>
    <path stroke="#ffd0d0" stroke-width="2.0" stroke-linejoin="round" stroke-linecap="butt" d="m530.55383 109.58924l0 35.84252" fill-rule="evenodd"/>
    <path fill="#ffd0d0" stroke="#ffd0d0" stroke-width="2.0" stroke-linecap="butt" d="m527.25037 145.43176l3.3034668 9.076187l3.3034668 -9.076187z" fill-rule="evenodd"/>
    <path fill="#000000" fill-opacity="0.0" d="m786.6667 109.58924l0 47.84252" fill-rule="evenodd"/>
    <path stroke="#ffd0d0" stroke-width="2.0" stroke-linejoin="round" stroke-linecap="butt" d="m786.6667 109.58924l0 35.84252" fill-rule="evenodd"/>
    <path fill="#ffd0d0" stroke="#ffd0d0" stroke-width="2.0" stroke-linecap="butt" d="m783.3632 145.43176l3.3034668 9.076187l3.3034668 -9.076187z" fill-rule="evenodd"/>
    <path fill="#000000" fill-opacity="0.0" d="m337.6483 314.0092c21.935272 0 32.902008 -10.905518 43.870514 -21.811035c10.968506 -10.905487 21.938751 -21.811005 43.877533 -21.811005" fill-rule="evenodd"/>
    <path stroke="#48ffd5" stroke-width="2.0" stroke-linejoin="round" stroke-linecap="butt" stroke-dasharray="8.0,6.0" d="m337.6483 314.0092c21.935242 0 32.902008 -10.905518 43.870483 -21.811035c5.484253 -5.452759 10.968964 -10.905487 17.824951 -14.995056c3.4279785 -2.0447998 7.198761 -3.7487793 11.483734 -4.941559c0.53564453 -0.14910889 1.0793152 -0.29022217 1.6313171 -0.42300415c0.27600098 -0.06640625 0.5541382 -0.13070679 0.8343811 -0.19293213l0.16567993 -0.035217285" fill-rule="evenodd"/>
    <path fill="#48ffd5" stroke="#48ffd5" stroke-width="2.0" stroke-linecap="butt" d="m413.7956 274.89664l8.692169 -4.2114563l-9.365662 -2.3610535z" fill-rule="evenodd"/>
    <path fill="#000000" fill-opacity="0.0" d="m337.6483 314.0092c37.689728 0 40.420288 42.21869 75.379456 85.517c34.959137 43.29831 102.14688 87.67621 186.81424 85.517c84.6673 -2.1592407 186.81421 -50.85559 186.81421 -101.71115" fill-rule="evenodd"/>
    <path stroke="#48ffd5" stroke-width="2.0" stroke-linejoin="round" stroke-linecap="butt" stroke-dasharray="8.0,6.0" d="m337.6483 314.0092c37.689728 0 40.420288 42.21872 75.379425 85.51697c34.959167 43.29831 102.14691 87.67624 186.81421 85.51703c42.33368 -1.0795898 89.03729 -13.793518 125.15741 -32.59445c18.060059 -9.400452 33.474243 -20.322693 44.373474 -32.073273c5.449646 -5.875305 9.770386 -11.957672 12.728882 -18.160492c0.739624 -1.5506897 1.394043 -3.1089172 1.9597778 -4.6733093c0.14135742 -0.39111328 0.27722168 -0.7825928 0.4074707 -1.1744385c0.06512451 -0.19592285 0.12884521 -0.39193726 0.19116211 -0.58807373l0.18170166 -0.585083" fill-rule="evenodd"/>
    <path fill="#48ffd5" stroke="#48ffd5" stroke-width="2.0" stroke-linecap="butt" d="m788.10724 395.69354l-1.8931274 -9.471344l-4.6378174 8.472382z" fill-rule="evenodd"/>
  </g>
</svg>