<?xml version="1.0" encoding="utf-8"?>
<svg version="1.1" viewBox="180 0 600 550" fill="none" stroke="none" stroke-linecap="square" stroke-miterlimit="10" xmlns="http://www.w3.org/2000/svg">
  <clipPath id="g6b5be5c681_0_43.0">
    <path d="m0 0l960.0 0l0 540.0l-960.0 0l0 -540.0z" clip-rule="nonzero"/>
  </clipPath>
  <g clip-path="url(#g6b5be5c681_0_43.0)">
    <path fill="#5f7d95" d="m427.83682 225.00917l104.32083 0l-52.1604 90.22371z" fill-rule="evenodd"/>
    <path fill="#5f7d95" d="m532.15643 404.14984l-104.32089 0l52.16043 -90.223694z" fill-rule="evenodd"/>
    <path fill="#ffd0d0" d="m427.83655 161.90921l52.16043 -90.34477l52.055573 90.28424z" fill-rule="evenodd"/>
    <path stroke="#5f7d95" stroke-width="8.0" stroke-linejoin="round" stroke-linecap="butt" d="m427.83655 161.90921l52.16043 -90.34477l52.055573 90.28424z" fill-rule="evenodd"/>
    <path fill="#a1f7ff" d="m699.1155 436.15176l-104.32086 0l52.1604 -90.223724z" fill-rule="evenodd"/>
    <path stroke="#5f7d95" stroke-width="8.0" stroke-linejoin="round" stroke-linecap="butt" d="m699.1155 436.15176l-104.32086 0l52.1604 -90.223724z" fill-rule="evenodd"/>
    <path fill="#5f7d95" d="m583.7851 315.231l-104.32086 0l52.1604 -90.223724z" fill-rule="evenodd"/>
    <path fill="#5f7d95" d="m531.6257 404.15414l-52.16046 -90.34479l104.216 0.060546875z" fill-rule="evenodd"/>
    <path fill="#5f7d95" d="m480.29504 315.23077l-104.32086 0l52.16043 -90.223724z" fill-rule="evenodd"/>
    <path fill="#5f7d95" d="m480.48572 314.09103l-52.16043 90.34479l-52.055573 -90.28424z" fill-rule="evenodd"/>
    <path fill="#fbdfbb" d="m365.145 436.15176l-104.32086 0l52.16043 -90.223724z" fill-rule="evenodd"/>
    <path stroke="#5f7d95" stroke-width="8.0" stroke-linejoin="round" stroke-linecap="butt" d="m365.145 436.15176l-104.32086 0l52.16043 -90.223724z" fill-rule="evenodd"/>
    <path fill="#48ffd5" d="m524.2219 277.38574l-5.937439 3.4279785c-22.279999 -24.878372 -62.15384 -22.48758 -80.93799 4.852936l16.368958 8.012634c2.5125427 -3.342102 5.6559753 -6.124695 9.218445 -8.181488c12.997803 -7.1963806 28.846558 -5.56958 39.649323 4.381012l-5.475647 3.161377l20.657135 5.5368347l6.4572144 -21.191284z" fill-rule="evenodd"/>
    <path fill="#48ffd5" d="m528.4009 297.80276l-15.701233 9.0651245c3.3493652 14.561737 -3.1114807 29.72879 -15.975952 37.156067c-3.331543 1.9234924 -6.929779 3.3851013 -10.716156 3.9875793l0.8406067 -8.447144l-16.230988 14.165649l13.808014 17.365051l0.5817566 -5.086609c7.230316 -0.655365 14.217712 -2.7980652 20.649933 -6.511688c21.407776 -12.359802 30.814758 -38.421265 22.744019 -61.69403z" fill-rule="evenodd"/>
    <path fill="#48ffd5" d="m444.26953 294.38217l-20.38327 6.9736023l5.7101135 2.7296143c-2.8894958 12.973175 -0.5394287 25.956451 5.6509094 36.67856c6.342743 10.986023 16.723694 19.596588 29.705444 23.494476l0.23092651 -0.1333313l1.2644958 -18.149292c-6.8446655 -2.866394 -12.366577 -7.860077 -15.909363 -13.996399c-3.3904114 -5.8724365 -4.9856567 -12.825256 -4.3425293 -20.01471l5.810486 2.9795837l-7.737213 -20.562103z" fill-rule="evenodd"/>
    <path fill="#000000" fill-opacity="0.0" d="m420.17453 188.97885l119.590546 0l0 34.330704l-119.590546 0z" fill-rule="evenodd"/>
    <path fill="#48ffd5" d="m453.21982 207.55107l0 4.453125l-1.5 0l0 -11.375l4.1875 0q1.875 0 2.921875 0.953125q1.0625 0.953125 1.0625 2.515625q0 1.65625 -1.03125 2.5625q-1.03125 0.890625 -2.96875 0.890625l-2.671875 0zm0 -1.234375l2.6875 0q1.203125 0 1.84375 -0.5625q0.640625 -0.5625 0.640625 -1.640625q0 -1.015625 -0.640625 -1.625q-0.640625 -0.609375 -1.75 -0.625l-2.78125 0l0 4.453125zm13.578125 4.84375q-0.84375 1.0 -2.46875 1.0q-1.359375 0 -2.0625 -0.78125q-0.703125 -0.796875 -0.71875 -2.328125l0 -5.5l1.453125 0l0 5.453125q0 1.921875 1.5625 1.921875q1.65625 0 2.203125 -1.234375l0 -6.140625l1.4375 0l0 8.453125l-1.375 0l-0.03125 -0.84375zm7.6953125 -6.3125q-0.328125 -0.0625 -0.71875 -0.0625q-1.421875 0 -1.921875 1.21875l0 6.0l-1.453125 0l0 -8.453125l1.40625 0l0.03125 0.96875q0.703125 -1.125 2.015625 -1.125q0.421875 0 0.640625 0.109375l0 1.34375zm8.4609375 3.015625q0 1.9375 -0.890625 3.125q-0.875 1.171875 -2.375 1.171875q-1.546875 0 -2.421875 -0.984375l0 4.078125l-1.453125 0l0 -11.703125l1.328125 0l0.0625 0.9375q0.890625 -1.09375 2.453125 -1.09375q1.53125 0 2.40625 1.15625q0.890625 1.140625 0.890625 3.1875l0 0.125zm-1.4375 -0.15625q0 -1.4375 -0.609375 -2.265625q-0.609375 -0.828125 -1.671875 -0.828125q-1.3125 0 -1.96875 1.171875l0 4.03125q0.640625 1.15625 1.984375 1.15625q1.03125 0 1.640625 -0.8125q0.625 -0.828125 0.625 -2.453125zm2.8984375 -0.015625q0 -1.234375 0.484375 -2.21875q0.484375 -1.0 1.359375 -1.53125q0.875 -0.546875 1.984375 -0.546875q1.734375 0 2.796875 1.203125q1.0625 1.1875 1.0625 3.171875l0 0.09375q0 1.234375 -0.46875 2.21875q-0.46875 0.984375 -1.359375 1.53125q-0.875 0.546875 -2.015625 0.546875q-1.71875 0 -2.78125 -1.1875q-1.0625 -1.203125 -1.0625 -3.171875l0 -0.109375zm1.453125 0.171875q0 1.40625 0.640625 2.265625q0.65625 0.84375 1.75 0.84375q1.109375 0 1.75 -0.859375q0.65625 -0.859375 0.65625 -2.421875q0 -1.390625 -0.671875 -2.25q-0.65625 -0.859375 -1.75 -0.859375q-1.0625 0 -1.71875 0.859375q-0.65625 0.84375 -0.65625 2.421875zm12.96875 1.890625q0 -0.578125 -0.4375 -0.90625q-0.4375 -0.328125 -1.546875 -0.5625q-1.09375 -0.234375 -1.734375 -0.5625q-0.640625 -0.328125 -0.953125 -0.78125q-0.3125 -0.453125 -0.3125 -1.078125q0 -1.03125 0.875 -1.75q0.890625 -0.71875 2.25 -0.71875q1.4375 0 2.328125 0.75q0.90625 0.734375 0.90625 1.890625l-1.453125 0q0 -0.59375 -0.515625 -1.015625q-0.5 -0.4375 -1.265625 -0.4375q-0.78125 0 -1.234375 0.34375q-0.4375 0.34375 -0.4375 0.890625q0 0.53125 0.40625 0.796875q0.421875 0.265625 1.5 0.515625q1.078125 0.234375 1.75 0.578125q0.671875 0.328125 1.0 0.796875q0.328125 0.46875 0.328125 1.15625q0 1.125 -0.90625 1.8125q-0.90625 0.6875 -2.359375 0.6875q-1.015625 0 -1.796875 -0.359375q-0.78125 -0.359375 -1.21875 -1.0q-0.4375 -0.65625 -0.4375 -1.40625l1.4375 0q0.046875 0.734375 0.578125 1.15625q0.546875 0.421875 1.4375 0.421875q0.828125 0 1.3125 -0.328125q0.5 -0.328125 0.5 -0.890625zm6.84375 2.40625q-1.71875 0 -2.796875 -1.125q-1.078125 -1.140625 -1.078125 -3.03125l0 -0.265625q0 -1.25 0.46875 -2.234375q0.484375 -1.0 1.34375 -1.546875q0.875 -0.5625 1.875 -0.5625q1.65625 0 2.5625 1.09375q0.921875 1.078125 0.921875 3.09375l0 0.609375l-5.734375 0q0.03125 1.25 0.734375 2.015625q0.703125 0.765625 1.78125 0.765625q0.765625 0 1.296875 -0.3125q0.53125 -0.3125 0.921875 -0.828125l0.890625 0.6875q-1.0625 1.640625 -3.1875 1.640625zm-0.1875 -7.578125q-0.875 0 -1.46875 0.640625q-0.59375 0.625 -0.734375 1.78125l4.234375 0l0 -0.109375q-0.0625 -1.109375 -0.59375 -1.703125q-0.53125 -0.609375 -1.4375 -0.609375z" fill-rule="nonzero"/>
    <path fill="#000000" fill-opacity="0.0" d="m557.1847 198.03915l59.77954 103.55905l-29.7323 17.165344l-59.77954 -103.55905z" fill-rule="evenodd"/>
    <path fill="#48ffd5" d="m557.49133 237.4082q-1.6577148 0.72250366 -3.0726318 0.24035645q-1.414917 -0.48214722 -2.3444824 -2.0924835q-1.0076904 -1.7456665 -0.3720703 -3.5199127q0.6569824 -1.7685242 2.7543945 -2.9794312l0.9472046 -0.54685974q1.380249 -0.7968445 2.7034302 -0.9112396q1.3231201 -0.11437988 2.3934937 0.45843506q1.078186 0.58636475 1.765564 1.7771912q0.9061279 1.5697479 0.57336426 3.0247955q-0.31921387 1.4472504 -1.7894287 2.494522l-0.7498779 -1.2991028q1.0756836 -0.8555908 1.2753296 -1.7286224q0.2074585 -0.8594971 -0.37835693 -1.8744202q-0.71868896 -1.2449646 -2.0528564 -1.4309387q-1.326355 -0.17243958 -3.0178223 0.80410767l-0.9607544 0.55467224q-1.5967407 0.9218445 -2.1611938 2.1317902q-0.5566406 1.223465 0.1385498 2.4278412q0.62493896 1.0825806 1.447937 1.3832245q0.8230591 0.30064392 2.1502686 -0.2130127l0.74993896 1.2990875zm4.951782 0.92099q1.491394 0.23954773 2.2647095 1.5792389q1.3357544 2.3140106 -1.2602539 3.8488464l-4.8443604 2.7967987l-0.7264404 -1.2584991l4.8443604 -2.7967987q0.79833984 -0.46092224 0.9663086 -1.045044q0.17584229 -0.5705719 -0.25378418 -1.3148499q-0.3515625 -0.60894775 -0.94189453 -0.881546q-0.59033203 -0.27259827 -1.2665405 -0.22503662l-5.2232056 3.0155487l-0.72650146 -1.2584991l10.392395 -5.9998474l0.7264404 1.2584991l-3.951233 2.281189zm-0.15289307 14.612106q0.15405273 -0.23326111 0.6697998 -0.6212311q-1.4066162 -0.3426361 -2.1096191 -1.5605316q-0.62493896 -1.0825806 -0.41436768 -2.1242828q0.22406006 -1.0494995 1.1577759 -1.5885468q1.1501465 -0.66404724 2.272583 -0.15734863q1.1359253 0.4988861 2.0498657 2.0821533l0.7030029 1.2178955l0.5819092 -0.33592224q0.64953613 -0.375 0.81536865 -0.99398804q0.16589355 -0.61898804 -0.2793579 -1.3903198q-0.38275146 -0.66308594 -0.9866333 -0.9278717q-0.59606934 -0.25126648 -1.0831909 0.02998352l-0.72650146 -1.2584991q0.5548096 -0.32029724 1.274231 -0.23045349q0.74072266 0.095565796 1.4212036 0.58677673q0.6882324 0.5047455 1.1491089 1.3031464q0.72650146 1.2584991 0.5045166 2.3428802q-0.20843506 1.0765686 -1.3024292 1.7442474l-3.3694458 1.9452667q-1.0148315 0.58592224 -1.461853 1.1867676l-0.10821533 0.0625l-0.75775146 -1.3126221zm-0.234375 -2.6251068q0.33587646 0.58187866 0.9382324 0.93777466q0.6158447 0.34806824 1.2435913 0.31040955l1.5020752 -0.86717224l-0.57025146 -0.987854q-1.3279419 -2.300476 -2.6811523 -1.5192413q-0.58184814 0.33592224 -0.6936035 0.92367554q-0.0982666 0.57992554 0.2611084 1.2024078zm2.7653198 7.009552l-0.72650146 -1.2585144l10.392395 -5.999832l0.72650146 1.2584991l-10.392395 5.9998474zm1.9411621 3.3627625l-0.72650146 -1.2585144l10.392395 -5.999832l0.72650146 1.2584839l-10.392395 5.9998627zm2.774414 5.118866q-0.8592529 -1.4885559 -0.4239502 -2.9847412q0.44885254 -1.5040283 2.0861816 -2.4493103l0.2300415 -0.1328125q1.0825195 -0.625 2.1693726 -0.71121216q1.1082153 -0.08047485 2.0114136 0.39038086q0.9246216 0.4765625 1.4245605 1.3426208q0.8280029 1.4344177 0.3338623 2.7661438q-0.47283936 1.3374329 -2.2184448 2.3452454l-0.52770996 0.30465698l-2.8668213 -4.9663086q-1.0668945 0.6520386 -1.378479 1.6437988q-0.31152344 0.99172974 0.22747803 1.9254761q0.38275146 0.66308594 0.91900635 0.96691895q0.53619385 0.30386353 1.1780396 0.38433838l-0.15014648 1.1150818q-1.9520264 -0.09988403 -3.0144043 -1.9402771zm6.4691772 -3.951355q-0.43743896 -0.7578125 -1.2890625 -0.9517212q-0.83813477 -0.20172119 -1.90979 0.25457764l2.1169434 3.6672363l0.09472656 -0.0546875q0.9295044 -0.60879517 1.1781006 -1.3657532q0.262146 -0.7647705 -0.19091797 -1.5496521zm4.154419 5.134094l-0.8967285 0.5718384q1.5397949 0.22964478 2.3209229 1.5828552q1.3357544 2.3140259 -1.2602539 3.8488464l-4.8443604 2.796814l-0.7264404 -1.2584839l4.8443604 -2.796814q0.79833984 -0.4609375 0.9663696 -1.045044q0.17578125 -0.57058716 -0.2538452 -1.3148499q-0.3515625 -0.60894775 -0.94189453 -0.8815613q-0.59033203 -0.272583 -1.2664795 -0.22503662l-5.2232666 3.015564l-0.72650146 -1.2585144l7.3206787 -4.2264404l0.68743896 1.1908264zm-0.04522705 8.2352295q1.7185059 -0.992157 3.1729736 -0.7854004q1.475708 0.2124939 2.2334595 1.525116q0.7733154 1.3396912 0.2557373 2.6308289l0.85095215 -0.40109253l0.65618896 1.1367188l-7.1447754 4.1249084q-1.4208374 0.820282 -2.717041 0.4500122q-1.3097534 -0.36245728 -2.130005 -1.7833252q-0.46087646 -0.7984009 -0.55999756 -1.7515259q-0.09918213 -0.9530945 0.25616455 -1.6814575l1.1327515 0.21203613q-0.5404663 1.3765259 0.13128662 2.5402832q0.53118896 0.92019653 1.3344116 1.1240234q0.8110962 0.21737671 1.7583008 -0.3294983l0.6224365 -0.359375q-1.2956543 -0.2442627 -2.0455322 -1.5433655q-0.74212646 -1.285553 -0.17456055 -2.6777039q0.5810547 -1.3999329 2.3672485 -2.4311829zm0.5911255 1.3366394q-1.244873 0.7187195 -1.6595459 1.6256714q-0.40679932 0.9204407 0.12438965 1.8406372q0.6795654 1.1773071 2.0688477 1.1149597l3.3423462 -1.9296265q0.727417 -1.1777344 0.06341553 -2.3279724q-0.5311279 -0.92019653 -1.545166 -1.0203552q-1.0004883 -0.10797119 -2.394287 0.6966858zm1.9694824 12.006622q-0.85931396 -1.4885559 -0.42401123 -2.9847717q0.44885254 -1.5040283 2.0861816 -2.4493103l0.2300415 -0.1328125q1.0825195 -0.6249695 2.1693726 -0.71118164q1.1082153 -0.08050537 2.0114746 0.39035034q0.92456055 0.4765625 1.4244995 1.3426208q0.8280029 1.4344177 0.3338623 2.7661438q-0.47283936 1.3374634 -2.2184448 2.3452454l-0.52770996 0.3046875l-2.8668213 -4.966339q-1.0668945 0.6520386 -1.378479 1.6437988q-0.31152344 0.99176025 0.22747803 1.9254761q0.38275146 0.66308594 0.91900635 0.96691895q0.53619385 0.30386353 1.1780396 0.3843689l-0.15014648 1.1150818q-1.9520264 -0.09991455 -3.0143433 -1.9402771zm6.469116 -3.951355q-0.43743896 -0.7578125 -1.2890625 -0.9517517q-0.83807373 -0.20172119 -1.909729 0.25460815l2.1168823 3.6672363l0.09472656 -0.0546875q0.9295044 -0.60879517 1.1781006 -1.3657837q0.262146 -0.7647705 -0.19091797 -1.5496216z" fill-rule="nonzero"/>
    <path fill="#000000" fill-opacity="0.0" d="m530.3546 409.24982l59.77954 -103.55905l29.7323 17.165344l-59.77954 103.55905z" fill-rule="evenodd"/>
    <path fill="#48ffd5" d="m568.81354 378.61926l-2.3825073 4.12735l4.357239 2.515564l-0.74993896 1.2990723l-9.851074 -5.6873474l3.5229492 -6.1030273l1.0690308 0.617157l-2.7730713 4.803955l3.3693848 1.9452515l2.3825073 -4.1273193l1.055481 0.6093445zm1.5246582 -1.2035828q-1.0689697 -0.6171875 -1.6793213 -1.5288696q-0.62390137 -0.9194641 -0.6465454 -1.9429016q-0.036132812 -1.0312195 0.51849365 -1.9920349q0.8670654 -1.5020752 2.4401855 -1.8207092q1.5595703 -0.32644653 3.2781372 0.66571045l0.08117676 0.046875q1.0690308 0.617157 1.6871948 1.5153198q0.618103 0.8981323 0.6464844 1.9429016q0.036193848 1.0312195 -0.5340576 2.0190735q-0.8592529 1.4885559 -2.4188843 1.8150024q-1.5731201 0.31866455 -3.2781372 -0.66571045l-0.09472656 -0.054656982zm0.8753662 -1.1725769q1.2178345 0.7030945 2.2823486 0.5779724q1.0587769 -0.1465149 1.6055908 -1.09375q0.55462646 -0.9607849 0.13067627 -1.945282q-0.41619873 -0.9980469 -1.7693481 -1.7792664q-1.2043457 -0.6953125 -2.2844849 -0.5430908q-1.0723267 0.13867188 -1.6191406 1.0859375q-0.53118896 0.92019653 -0.114990234 1.9182129q0.4025879 0.9902344 1.7693481 1.7792664zm8.410828 -8.350952q0.39056396 -0.6766052 0.2736206 -1.4116516q-0.11694336 -0.7350769 -0.6945801 -1.1407471l0.6795654 -1.1773071q0.6203613 0.39422607 0.9543457 1.1283264q0.34179688 0.72055054 0.28955078 1.5924683q-0.04449463 0.8583679 -0.4741211 1.6026611q-0.8592529 1.4885254 -2.3761597 1.8035583q-1.5090942 0.30148315 -3.24115 -0.6984863l-0.20300293 -0.1171875q-1.0689697 -0.6171875 -1.6679077 -1.4861755q-0.61242676 -0.87677 -0.6506958 -1.8731384q-0.030456543 -1.0098877 0.5476074 -2.0112915q0.71087646 -1.2314148 1.9237671 -1.613678q1.1994019 -0.39007568 2.407959 0.23547363l-0.67962646 1.1773071q-0.7484131 -0.35992432 -1.4761963 -0.13058472q-0.741272 0.22155762 -1.1474609 0.92523193q-0.55462646 0.9607849 -0.16918945 1.8869629q0.37976074 0.9048462 1.678833 1.6548157l0.24353027 0.140625q1.2584839 0.7265625 2.2454224 0.6107483q0.9812622 -0.137146 1.5358887 -1.0979309zm5.2632446 -8.742798q0.44421387 1.2307434 -0.36816406 2.638092q-0.67962646 1.1773071 -1.7077026 1.3956299q-1.041626 0.21051025 -2.3755493 -0.5415344l-4.7631836 -2.749939l0.7264404 -1.2585144l4.722595 2.7265015q1.6644287 0.960907 2.4455566 -0.39230347q0.8280029 -1.4344177 0.032409668 -2.5252075l-5.317993 -3.0702515l0.71868896 -1.2449646l7.3206787 4.226471l-0.68743896 1.1908264l-0.7463379 -0.3948059zm3.043335 -8.08493q-0.5006714 -0.2890625 -1.0036011 -0.07421875q-0.50286865 0.21484375 -1.260437 1.0584412q-0.7498169 0.8300781 -1.354248 1.2208557q-0.60443115 0.39074707 -1.1530762 0.43484497q-0.548645 0.0440979 -1.0899048 -0.2684021q-0.89312744 -0.515625 -1.078125 -1.632782q-0.17718506 -1.1307068 0.5023804 -2.308014q0.71868896 -1.2449646 1.8134155 -1.6412964q1.0891113 -0.4176941 2.090454 0.16040039l-0.72650146 1.2585144q-0.51416016 -0.296875 -1.1373291 -0.06124878q-0.6288452 0.21429443 -1.0115967 0.8773804q-0.390625 0.6766052 -0.319458 1.2409058q0.07897949 0.55078125 0.5526123 0.82418823q0.460083 0.265625 0.8932495 0.04660034q0.44091797 -0.23257446 1.1964111 -1.0412903q0.7420044 -0.8165283 1.3755493 -1.2265625q0.6201172 -0.41781616 1.1900635 -0.46762085q0.5700073 -0.049804688 1.1654053 0.2939148q0.9743042 0.5625 1.1166382 1.6911011q0.14233398 1.1286316 -0.5841675 2.3871155q-0.50775146 0.87960815 -1.2095337 1.3765259q-0.7017822 0.49691772 -1.4753418 0.555542q-0.78704834 0.05078125 -1.4365845 -0.32421875l0.71868896 -1.2449646q0.6594238 0.3265686 1.2903442 0.077423096q0.63879395 -0.2626953 1.0840454 -1.0340271q0.41400146 -0.7172241 0.37200928 -1.3007812q-0.034240723 -0.5970764 -0.5213623 -0.8783264z" fill-rule="nonzero"/>
    <path fill="#000000" fill-opacity="0.0" d="m420.22018 406.2227l119.55905 0l0 34.33072l-119.55905 0z" fill-rule="evenodd"/>
    <path fill="#48ffd5" d="m462.25363 424.16992q-1.921875 -0.546875 -2.8125 -1.359375q-0.875 -0.8125 -0.875 -2.0q0 -1.34375 1.078125 -2.21875q1.078125 -0.875 2.796875 -0.875q1.171875 0 2.078125 0.453125q0.921875 0.453125 1.421875 1.25q0.515625 0.796875 0.515625 1.734375l-1.515625 0q0 -1.03125 -0.65625 -1.609375q-0.65625 -0.59375 -1.84375 -0.59375q-1.109375 0 -1.734375 0.484375q-0.625 0.484375 -0.625 1.359375q0 0.6875 0.59375 1.171875q0.59375 0.484375 2.0 0.890625q1.421875 0.390625 2.21875 0.875q0.8125 0.46875 1.1875 1.109375q0.390625 0.640625 0.390625 1.515625q0 1.375 -1.078125 2.21875q-1.078125 0.828125 -2.875 0.828125q-1.171875 0 -2.1875 -0.453125q-1.015625 -0.453125 -1.578125 -1.234375q-0.546875 -0.78125 -0.546875 -1.765625l1.515625 0q0 1.03125 0.75 1.625q0.765625 0.59375 2.046875 0.59375q1.1875 0 1.8125 -0.484375q0.640625 -0.484375 0.640625 -1.3125q0 -0.84375 -0.59375 -1.296875q-0.578125 -0.453125 -2.125 -0.90625zm11.1328125 5.078125q-0.125 -0.25 -0.203125 -0.890625q-1.0 1.046875 -2.40625 1.046875q-1.25 0 -2.046875 -0.703125q-0.796875 -0.71875 -0.796875 -1.796875q0 -1.328125 1.0 -2.046875q1.0 -0.734375 2.828125 -0.734375l1.40625 0l0 -0.671875q0 -0.75 -0.453125 -1.203125q-0.453125 -0.453125 -1.34375 -0.453125q-0.765625 0 -1.296875 0.390625q-0.515625 0.390625 -0.515625 0.953125l-1.453125 0q0 -0.640625 0.4375 -1.21875q0.453125 -0.59375 1.21875 -0.9375q0.78125 -0.34375 1.703125 -0.34375q1.453125 0 2.28125 0.734375q0.828125 0.71875 0.859375 2.0l0 3.890625q0 1.171875 0.296875 1.859375l0 0.125l-1.515625 0zm-2.390625 -1.109375q0.671875 0 1.28125 -0.34375q0.609375 -0.359375 0.890625 -0.921875l0 -1.734375l-1.140625 0q-2.65625 0 -2.65625 1.5625q0 0.671875 0.453125 1.0625q0.453125 0.375 1.171875 0.375zm6.59375 1.109375l0 -7.34375l-1.34375 0l0 -1.109375l1.34375 0l0 -0.875q0 -1.359375 0.71875 -2.09375q0.734375 -0.75 2.0625 -0.75q0.5 0 0.984375 0.140625l-0.078125 1.171875q-0.359375 -0.078125 -0.78125 -0.078125q-0.703125 0 -1.09375 0.421875q-0.375 0.40625 -0.375 1.171875l0 0.890625l1.8125 0l0 1.109375l-1.8125 0l0 7.34375l-1.4375 0zm8.1640625 0.15625q-1.71875 0 -2.796875 -1.125q-1.078125 -1.140625 -1.078125 -3.03125l0 -0.265625q0 -1.25 0.46875 -2.234375q0.484375 -1.0 1.34375 -1.546875q0.875 -0.5625 1.875 -0.5625q1.65625 0 2.5625 1.09375q0.921875 1.078125 0.921875 3.09375l0 0.609375l-5.734375 0q0.03125 1.25 0.734375 2.015625q0.703125 0.765625 1.78125 0.765625q0.765625 0 1.296875 -0.3125q0.53125 -0.3125 0.921875 -0.828125l0.890625 0.6875q-1.0625 1.640625 -3.1875 1.640625zm-0.1875 -7.578125q-0.875 0 -1.46875 0.640625q-0.59375 0.625 -0.734375 1.78125l4.234375 0l0 -0.109375q-0.0625 -1.109375 -0.59375 -1.703125q-0.53125 -0.609375 -1.4375 -0.609375zm7.1171875 -3.078125l0 2.046875l1.578125 0l0 1.109375l-1.578125 0l0 5.25q0 0.5 0.203125 0.765625q0.21875 0.25 0.71875 0.25q0.25 0 0.6875 -0.09375l0 1.171875q-0.5625 0.15625 -1.109375 0.15625q-0.96875 0 -1.46875 -0.578125q-0.484375 -0.59375 -0.484375 -1.671875l0 -5.25l-1.53125 0l0 -1.109375l1.53125 0l0 -2.046875l1.453125 0zm6.0234375 8.375l1.96875 -6.328125l1.546875 0l-3.390625 9.765625q-0.796875 2.109375 -2.515625 2.109375l-0.265625 -0.03125l-0.546875 -0.09375l0 -1.171875l0.390625 0.03125q0.734375 0 1.140625 -0.296875q0.421875 -0.296875 0.6875 -1.09375l0.3125 -0.859375l-3.015625 -8.359375l1.578125 0l2.109375 6.328125z" fill-rule="nonzero"/>
    <path fill="#000000" fill-opacity="0.0" d="m371.58646 310.39755l59.77951 103.52756l-29.73227 17.165344l-59.77954 -103.52756z" fill-rule="evenodd"/>
    <path fill="#48ffd5" d="m365.7587 339.13394q-1.6577148 0.72250366 -3.0727844 0.24041748q-1.4150391 -0.48205566 -2.344818 -2.0922852q-1.0079346 -1.7455139 -0.37243652 -3.5196838q0.65682983 -1.7684326 2.754242 -2.9793396l0.9472351 -0.546875q1.380249 -0.7968445 2.7034607 -0.9112854q1.3232422 -0.1144104 2.3937073 0.4583435q1.0782776 0.5862732 1.7658691 1.7770386q0.90634155 1.5696106 0.57369995 3.0245972q-0.3191223 1.4471741 -1.7893066 2.4944153l-0.75009155 -1.2989807q1.0756836 -0.8555908 1.2752686 -1.7285767q0.20739746 -0.85946655 -0.37860107 -1.8742981q-0.71881104 -1.244873 -2.05307 -1.4307861q-1.3264465 -0.1723938 -3.0179138 0.8041687l-0.9607544 0.554657q-1.5967712 0.9218445 -2.1611328 2.1317444q-0.5565491 1.2234192 0.13882446 2.4277039q0.62506104 1.082489 1.4481812 1.3830872q0.8231201 0.30059814 2.15036 -0.21307373l0.75006104 1.2990112zm1.331665 0.90008545q1.0690002 -0.6171875 2.1637268 -0.6898804q1.1082458 -0.08053589 2.0058594 0.41159058q0.91116333 0.48431396 1.4658813 1.4450378q0.86727905 1.5019531 0.35665894 3.0236206q-0.49713135 1.513855 -2.2156677 2.5060425l-0.08117676 0.046875q-1.0690002 0.617157 -2.1559143 0.70339966q-1.0869141 0.086242676 -2.0058594 -0.4116211q-0.91116333 -0.48431396 -1.4815369 -1.4720764q-0.85946655 -1.4884338 -0.3623352 -3.0022888q0.51065063 -1.5216675 2.2156372 -2.5060425l0.09472656 -0.054656982zm0.5777893 1.3443298q-1.217865 0.7030945 -1.6417847 1.687561q-0.40255737 0.99017334 0.14437866 1.9373474q0.55474854 0.9607239 1.6193542 1.0858154q1.0723877 0.13864136 2.4255676 -0.6425781q1.2043152 -0.6953125 1.6126099 -1.7068176q0.41607666 -0.99798584 -0.13085938 -1.9451904q-0.5312805 -0.920105 -1.6036987 -1.0587463q-1.0588684 -0.14645386 -2.4255676 0.64260864zm1.2270508 10.405487l-0.72662354 -1.2584229l10.392395 -5.9998474l0.72662354 1.2584229l-10.392395 5.9998474zm1.9415894 3.3624878l-0.72662354 -1.2583923l10.392395 -5.9998474l0.72662354 1.2583923l-10.392395 5.9998474zm3.762085 6.5152893q0.15402222 -0.23324585 0.66973877 -0.6212158q-1.4066772 -0.34259033 -2.1098633 -1.5603943q-0.62506104 -1.082489 -0.41461182 -2.1241455q0.22399902 -1.0494385 1.1576843 -1.588501q1.1502075 -0.664032 2.272705 -0.15740967q1.1360474 0.4988098 2.0502014 2.0819702l0.70318604 1.217804l0.58187866 -0.33590698q0.6495056 -0.375 0.81533813 -0.9939575q0.16586304 -0.6189575 -0.2795105 -1.3902588q-0.38284302 -0.6630249 -0.9867859 -0.9277649q-0.5961304 -0.2512207 -1.0832825 0.02999878l-0.72662354 -1.2583923q0.55477905 -0.3203125 1.274231 -0.23046875q0.7408142 0.09552002 1.4213562 0.5866699q0.6883545 0.5046997 1.149353 1.3030396q0.72662354 1.2583923 0.5047302 2.342743q-0.2083435 1.0765076 -1.3023376 1.7441711l-3.3694153 1.945282q-1.0148621 0.585907 -1.4618225 1.1867371l-0.10824585 0.0625l-0.75790405 -1.3125zm-0.23464966 -2.6249695q0.33596802 0.58184814 0.938385 0.9376831q0.6159363 0.34805298 1.2437134 0.31036377l1.5020447 -0.867157l-0.57037354 -0.98779297q-1.3282776 -2.300293 -2.681427 -1.5190735q-0.58187866 0.3359375 -0.6936035 0.923645q-0.09817505 0.579895 0.261261 1.2023315zm9.141418 9.76944q-1.677948 0.9687195 -3.151703 0.79119873q-1.4602356 -0.18536377 -2.2103271 -1.484375q-0.79693604 -1.3801575 -0.24667358 -2.7082214l-0.89157104 0.42453003l-0.66412354 -1.1501465l10.392395 -5.9998474l0.72662354 1.2583923l-3.8700867 2.234314q1.3712463 0.21868896 2.136963 1.5447693q0.77349854 1.3395691 0.19616699 2.683258q-0.56381226 1.335846 -2.3094177 2.343628l-0.10824585 0.0625zm-0.5834961 -1.322998q1.2855225 -0.742157 1.6865234 -1.6412354q0.4223938 -0.8933716 -0.11672974 -1.8270264q-0.71099854 -1.2313232 -2.1737366 -1.108551l-3.1664429 1.8280945q-0.8220215 1.2323608 -0.11883545 2.4501648q0.52349854 0.9065857 1.5026855 1.0088196q0.99276733 0.09442139 2.3865356 -0.7102661zm1.4550781 2.4887085q1.0690002 -0.6171875 2.1637268 -0.6898804q1.1082458 -0.08053589 2.0058594 0.41159058q0.91116333 0.48434448 1.4658813 1.4450378q0.86727905 1.5019836 0.35662842 3.0236511q-0.49710083 1.513855 -2.2156372 2.506012l-0.08117676 0.046875q-1.0690308 0.617157 -2.1559143 0.70339966q-1.0869141 0.086242676 -2.0058594 -0.41159058q-0.91116333 -0.48431396 -1.4815369 -1.4721069q-0.85946655 -1.4884338 -0.3623352 -3.0022888q0.5106201 -1.5216675 2.2156372 -2.506012l0.09472656 -0.0546875zm0.5777893 1.3443298q-1.217865 0.7030945 -1.6417847 1.687561q-0.40255737 0.99017334 0.14437866 1.9373779q0.55474854 0.96069336 1.6193237 1.0858154q1.0724182 0.13861084 2.4255981 -0.64260864q1.2043152 -0.695282 1.6126099 -1.7068176q0.41607666 -0.99798584 -0.13085938 -1.9451599q-0.5312805 -0.9201355 -1.6036987 -1.0587769q-1.0588684 -0.14642334 -2.4255676 0.64260864zm8.682526 9.005981q-0.109954834 -0.31539917 -0.30526733 -0.6536865q-0.71102905 -1.2313538 -2.01651 -1.0549927l-5.1961975 2.999939l-0.72665405 -1.2584229l7.3206787 -4.2264404l0.70321655 1.217804l-0.82336426 0.5114136q1.3258972 0.046447754 1.9822083 1.1830444q0.21096802 0.36535645 0.22561646 0.60946655l-1.1637268 0.671875zm-3.0839539 8.970215q0.1539917 -0.23324585 0.66973877 -0.6212158q-1.4066772 -0.3425598 -2.1098633 -1.5603638q-0.62506104 -1.0825195 -0.41461182 -2.1241455q0.2239685 -1.049469 1.1576538 -1.588501q1.1502075 -0.6640625 2.2727356 -0.15744019q1.1360168 0.49884033 2.050171 2.0819702l0.70321655 1.217804l0.58184814 -0.33590698q0.64953613 -0.375 0.81536865 -0.9939575q0.16583252 -0.6189575 -0.2795105 -1.3902283q-0.38287354 -0.6630554 -0.9868164 -0.9277954q-0.5961304 -0.2512207 -1.083252 0.030029297l-0.72665405 -1.2584229q0.5548096 -0.32028198 1.2742615 -0.23046875q0.7407837 0.09552002 1.4213257 0.58670044q0.688385 0.5046692 1.149353 1.303009q0.72662354 1.2584229 0.50476074 2.342743q-0.20837402 1.0765076 -1.3023376 1.7442017l-3.3694153 1.9452515q-1.0148926 0.5859375 -1.4618225 1.1867676l-0.10827637 0.0625l-0.75787354 -1.3125305zm-0.23468018 -2.624939q0.33596802 0.5818176 0.938385 0.9376831q0.6159668 0.34802246 1.2437439 0.31033325l1.5020142 -0.867157l-0.57037354 -0.98776245q-1.3282471 -2.3003235 -2.681427 -1.5190735q-0.58184814 0.33590698 -0.693573 0.9236145q-0.09817505 0.57992554 0.26123047 1.2023621zm12.054871 2.0974426l-1.7726746 1.0234375l0.78915405 1.3666382l-0.9607849 0.5546875l-0.78912354 -1.3666687l-4.5466614 2.624939q-0.43304443 0.25 -0.5614929 0.5587158q-0.1071167 0.3144226 0.1428833 0.7474365q0.12503052 0.2164917 0.4249878 0.54849243l-1.0148926 0.585907q-0.41659546 -0.40899658 -0.69003296 -0.8825989q-0.48443604 -0.8389282 -0.23379517 -1.5609741q0.27200317 -0.7163391 1.2056885 -1.2553711l4.546692 -2.624939l-0.76571655 -1.3260498l0.9607544 -0.5546875l0.76571655 1.3260498l1.772644 -1.023407l0.72665405 1.2583923zm-6.6751404 9.437775l-0.72665405 -1.2583923l7.3206787 -4.2264404l0.72665405 1.2583923l-7.3206787 4.2264404zm8.487915 -6.704529q0.29769897 -0.171875 0.6022644 -0.11315918q0.3258667 0.064453125 0.5368347 0.42977905q0.21096802 0.36535645 0.10385132 0.67977905q-0.09359741 0.30664062 -0.4048462 0.4862976q-0.29769897 0.171875 -0.6100464 0.09963989q-0.31237793 -0.072265625 -0.5233154 -0.43759155q-0.21096802 -0.36535645 -0.117370605 -0.67196655q0.10140991 -0.29309082 0.41262817 -0.47277832zm-3.788208 6.219452q1.0690002 -0.6171875 2.1636963 -0.6898804q1.1082458 -0.08053589 2.00589 0.4116211q0.9111328 0.48431396 1.4658813 1.4450073q0.86727905 1.5019836 0.35662842 3.0236511q-0.49710083 1.513855 -2.2156372 2.506012l-0.081207275 0.046875q-1.0690002 0.617157 -2.1558838 0.70339966q-1.0869141 0.086242676 -2.00589 -0.41159058q-0.9111328 -0.48431396 -1.4815063 -1.4721069q-0.85946655 -1.4884338 -0.36236572 -3.0022888q0.51065063 -1.5216675 2.2156677 -2.506012l0.09472656 -0.0546875zm0.5777588 1.3443298q-1.2178345 0.703125 -1.6417542 1.687561q-0.40255737 0.99017334 0.14437866 1.9373779q0.55474854 0.96069336 1.6193237 1.0858154q1.0724182 0.13861084 2.4255981 -0.64260864q1.2043152 -0.695282 1.6125793 -1.7068176q0.41610718 -0.99798584 -0.13082886 -1.9451599q-0.53131104 -0.9201355 -1.6036987 -1.0587463q-1.0588684 -0.14645386 -2.4255981 0.6425781zm8.446167 6.003113l-0.896698 0.5718384q1.5398865 0.22958374 2.321228 1.5827026q1.3360596 2.3138428 -1.2599487 3.8486633l-4.8443604 2.796814l-0.72665405 -1.2584229l4.844391 -2.7967834q0.79837036 -0.4609375 0.9663086 -1.0450134q0.17575073 -0.57055664 -0.2539978 -1.3147888q-0.35159302 -0.6088867 -0.9420166 -0.8814697q-0.59039307 -0.2725525 -1.2666016 -0.22497559l-5.2232666 3.015564l-0.72662354 -1.2584229l7.3206787 -4.2264404l0.68756104 1.1907349z" fill-rule="nonzero"/>
    <path fill="#000000" fill-opacity="0.0" d="m340.11948 303.93362l59.77954 -103.52757l29.73227 17.16536l-59.77951 103.52756z" fill-rule="evenodd"/>
    <path fill="#48ffd5" d="m374.86432 287.34024l2.6955872 -4.668274l1.0690002 0.6171875l-3.4456482 5.9672546l-9.851105 -5.6873474l0.75006104 -1.2990112l8.7821045 5.0701904zm6.400177 -8.302948q-0.85946655 1.4884338 -2.3728638 1.8595886q-1.526947 0.3633423 -3.1642761 -0.5819397l-0.2300415 -0.1328125q-1.08255 -0.6249695 -1.7006531 -1.5230713q-0.6238098 -0.9194641 -0.6676941 -1.9371033q-0.049621582 -1.0390015 0.45043945 -1.9049988q0.82821655 -1.4342957 2.2286072 -1.6722412q1.3946533 -0.25930786 3.1402588 0.7484741l0.5277405 0.3046875l-2.8674622 4.9659424q1.098175 0.5979309 2.1128235 0.37182617q1.0146484 -0.22610474 1.553772 -1.1597595q0.38284302 -0.6630249 0.37786865 -1.2793274q-0.005004883 -0.6163025 -0.2562256 -1.2124023l1.0407715 -0.42752075q0.88952637 1.7404175 -0.17306519 3.580658zm-6.6566772 -3.626587q-0.43753052 0.75772095 -0.17965698 1.5922241q0.24438477 0.8266907 1.175415 1.5265808l2.1174011 -3.6669617l-0.09472656 -0.0546875q-0.9920044 -0.5005493 -1.7718811 -0.33737183q-0.793396 0.15539551 -1.2465515 0.94021606zm11.611694 -5.2671204q-0.27902222 -0.01675415 -0.8728943 -0.26940918q0.4065857 1.3894348 -0.29660034 2.6072388q-0.62506104 1.082489 -1.6324768 1.4210205q-1.020935 0.3307495 -1.9546204 -0.20831299q-1.1502075 -0.664032 -1.2726135 -1.8894043q-0.13595581 -1.2331848 0.77819824 -2.8163147l0.70318604 -1.217804l-0.58184814 -0.3359375q-0.64953613 -0.375 -1.2685242 -0.20913696q-0.61901855 0.16583252 -1.0643616 0.9371033q-0.38287354 0.6630554 -0.31021118 1.3184204q0.080444336 0.6418152 0.56759644 0.9230652l-0.72662354 1.2583923q-0.5548096 -0.32028198 -0.83673096 -0.9882202q-0.28759766 -0.68927 -0.20245361 -1.5241699q0.09295654 -0.8484192 0.5539551 -1.646759q0.72662354 -1.2584229 1.7767029 -1.6083984q1.0365906 -0.3577881 2.1618042 0.25576782l3.3694153 1.9452515q1.0148926 0.5859375 1.758728 0.6725769l0.10824585 0.0625l-0.75787354 1.3125305zm-2.156189 1.5155945q0.33596802 -0.58184814 0.34298706 -1.2814331q-0.006500244 -0.70739746 -0.35302734 -1.2322083l-1.5020142 -0.867157l-0.57037354 0.98779297q-1.3282471 2.300293 0.024932861 3.0815125q0.58184814 0.3359375 1.1467285 0.13885498q0.5513611 -0.20492554 0.9107666 -0.82736206zm-0.2519226 -11.65625q-0.21820068 0.25289917 -0.4135437 0.5911865q-0.71099854 1.2313232 0.094451904 2.2736816l5.1961975 2.999939l-0.72662354 1.2583923l-7.320709 -4.226471l0.70321655 -1.217804l0.85458374 0.4573059q-0.62268066 -1.1713867 0.03363037 -2.308014q0.21096802 -0.36532593 0.41506958 -0.50009155l1.1637268 0.671875zm0.2246399 -2.9825745l0.9436035 0.49066162q-0.5710449 -1.4483032 0.21026611 -2.801422q1.3360901 -2.3138428 3.9633484 -0.8331299l4.8443604 2.796814l-0.72662354 1.2583923l-4.844391 -2.7967987q-0.79837036 -0.46092224 -1.3882141 -0.31433105q-0.58203125 0.1330719 -1.0117493 0.8772888q-0.35159302 0.608902 -0.292511 1.2564545q0.05911255 0.6475525 0.43841553 1.2093201l5.2232666 3.015564l-0.72665405 1.2583923l-7.3206787 -4.2264404l0.68756104 -1.1907654zm11.836761 -3.594574l-0.72662354 1.2584076l-7.3206787 -4.2264557l0.72662354 -1.2584076l7.3206787 4.2264557zm-10.050568 -3.9983063q-0.29769897 -0.171875 -0.3991089 -0.46496582q-0.1071167 -0.3144226 0.1038208 -0.6797638q0.21096802 -0.3653412 0.53686523 -0.4297943q0.3123474 -0.072250366 0.6235962 0.107437134q0.29769897 0.171875 0.3912964 0.4784851q0.093566895 0.30662537 -0.117370605 0.67196655q-0.21096802 0.3653412 -0.52334595 0.43759155q-0.3045349 0.05873108 -0.6157532 -0.12095642zm4.569916 -3.4147491l0.9436035 0.49064636q-0.57107544 -1.448288 0.21026611 -2.8014069q1.3360596 -2.3138428 3.9633179 -0.8331299l4.844391 2.7967987l-0.72665405 1.2584076l-4.8443604 -2.7967987q-0.79837036 -0.4609375 -1.3882141 -0.31433105q-0.58203125 0.13305664 -1.0117798 0.87727356q-0.35159302 0.60891724 -0.29248047 1.2564697q0.05911255 0.6475525 0.438385 1.2093201l5.2232666 3.0155487l-0.72662354 1.2584076l-7.3206787 -4.2264557l0.68756104 -1.1907501zm7.15448 -4.0786133q-1.7185364 -0.99217224 -2.2667236 -2.3550873q-0.55389404 -1.3842621 0.20401001 -2.6967926q0.77349854 -1.3395844 2.1504517 -1.5369415l-0.77282715 -0.5363922l0.65631104 -1.1366272l7.1447754 4.124893q1.4208374 0.82029724 1.7483215 2.1279602q0.34100342 1.3154907 -0.47940063 2.736267q-0.46096802 0.79833984 -1.2368164 1.3607788q-0.7758179 0.56243896 -1.5842896 0.61891174l-0.38272095 -1.0869751q1.4623108 -0.2202301 2.1342773 -1.3839111q0.5312805 -0.9201355 0.30618286 -1.7176514q-0.21731567 -0.8110504 -1.1645203 -1.3579102l-0.62246704 -0.359375q0.4362793 1.2442017 -0.31378174 2.5431976q-0.74224854 1.2854767 -2.231659 1.4900818q-1.5029297 0.1967926 -3.2891235 -0.8344269zm0.861969 -1.1802826q1.2449036 0.71873474 2.2376404 0.62431335q1.0005798 -0.107940674 1.5318604 -1.0280609q0.67977905 -1.1772156 -0.06890869 -2.3491669l-3.3423462 -1.9296417q-1.3836365 -0.041046143 -2.04776 1.1091003q-0.53131104 0.92012024 -0.11102295 1.8483582q0.40673828 0.9204254 1.8005371 1.7250977z" fill-rule="nonzero"/>
    <path fill="#000000" fill-opacity="0.0" d="m420.17322 297.6009l119.590576 0l0 34.33072l-119.590576 0z" fill-rule="evenodd"/>
    <path fill="#48ffd5" d="m470.3474 317.01688q-0.203125 1.796875 -1.328125 2.78125q-1.125 0.984375 -2.984375 0.984375q-2.015625 0 -3.234375 -1.4375q-1.203125 -1.453125 -1.203125 -3.875l0 -1.09375q0 -1.59375 0.5625 -2.796875q0.5625 -1.203125 1.59375 -1.84375q1.046875 -0.640625 2.421875 -0.640625q1.8125 0 2.90625 1.015625q1.09375 1.0 1.265625 2.796875l-1.5 0q-0.203125 -1.359375 -0.859375 -1.96875q-0.640625 -0.609375 -1.8125 -0.609375q-1.4375 0 -2.265625 1.0625q-0.8125 1.0625 -0.8125 3.015625l0 1.109375q0 1.84375 0.765625 2.9375q0.78125 1.09375 2.171875 1.09375q1.25 0 1.921875 -0.5625q0.671875 -0.5625 0.890625 -1.96875l1.5 0zm4.5859375 1.484375l1.96875 -6.328125l1.546875 0l-3.390625 9.765625q-0.796875 2.109375 -2.515625 2.109375l-0.265625 -0.03125l-0.546875 -0.09375l0 -1.171875l0.390625 0.03125q0.734375 0 1.140625 -0.296875q0.421875 -0.296875 0.6875 -1.09375l0.3125 -0.859375l-3.015625 -8.359375l1.578125 0l2.109375 6.328125zm8.09375 1.09375q0.78125 0 1.359375 -0.46875q0.578125 -0.46875 0.640625 -1.171875l1.359375 0q-0.03125 0.734375 -0.5 1.390625q-0.453125 0.65625 -1.234375 1.046875q-0.765625 0.390625 -1.625 0.390625q-1.71875 0 -2.75 -1.15625q-1.015625 -1.15625 -1.015625 -3.15625l0 -0.234375q0 -1.234375 0.453125 -2.1875q0.453125 -0.96875 1.296875 -1.5q0.859375 -0.53125 2.015625 -0.53125q1.421875 0 2.359375 0.859375q0.9375 0.84375 1.0 2.203125l-1.359375 0q-0.0625 -0.828125 -0.625 -1.34375q-0.5625 -0.53125 -1.375 -0.53125q-1.109375 0 -1.71875 0.796875q-0.59375 0.78125 -0.59375 2.28125l0 0.28125q0 1.453125 0.59375 2.25q0.609375 0.78125 1.71875 0.78125zm6.5625 1.03125l-1.453125 0l0 -12.0l1.453125 0l0 12.0zm5.8203125 0.15625q-1.71875 0 -2.796875 -1.125q-1.078125 -1.140625 -1.078125 -3.03125l0 -0.265625q0 -1.25 0.46875 -2.234375q0.484375 -1.0 1.34375 -1.546875q0.875 -0.5625 1.875 -0.5625q1.65625 0 2.5625 1.09375q0.921875 1.078125 0.921875 3.09375l0 0.609375l-5.734375 0q0.03125 1.25 0.734375 2.015625q0.703125 0.765625 1.78125 0.765625q0.765625 0 1.296875 -0.3125q0.53125 -0.3125 0.921875 -0.828125l0.890625 0.6875q-1.0625 1.640625 -3.1875 1.640625zm-0.1875 -7.578125q-0.875 0 -1.46875 0.640625q-0.59375 0.625 -0.734375 1.78125l4.234375 0l0 -0.109375q-0.0625 -1.109375 -0.59375 -1.703125q-0.53125 -0.609375 -1.4375 -0.609375z" fill-rule="nonzero"/>
    <path fill="#000000" fill-opacity="0.0" d="m414.85046 24.979002l130.2992 0l0 34.33071l-130.2992 0z" fill-rule="evenodd"/>
    <path fill="#ffd0d0" d="m430.32037 43.55123l0 4.453125l-1.5 0l0 -11.375l4.1875 0q1.875 0 2.921875 0.953125q1.0625 0.953125 1.0625 2.515625q0 1.65625 -1.03125 2.5625q-1.03125 0.890625 -2.96875 0.890625l-2.671875 0zm0 -1.234375l2.6875 0q1.203125 0 1.84375 -0.5625q0.640625 -0.5625 0.640625 -1.640625q0 -1.015625 -0.640625 -1.625q-0.640625 -0.609375 -1.75 -0.625l-2.78125 0l0 4.453125zm12.453125 -1.46875q-0.328125 -0.0625 -0.71875 -0.0625q-1.421875 0 -1.921875 1.21875l0 6.0l-1.453125 0l0 -8.453125l1.40625 0l0.03125 0.96875q0.703125 -1.125 2.015625 -1.125q0.421875 0 0.640625 0.109375l0 1.34375zm0.7890625 2.84375q0 -1.234375 0.484375 -2.21875q0.484375 -1.0 1.359375 -1.53125q0.875 -0.546875 1.984375 -0.546875q1.734375 0 2.796875 1.203125q1.0625 1.1875 1.0625 3.171875l0 0.09375q0 1.234375 -0.46875 2.21875q-0.46875 0.984375 -1.359375 1.53125q-0.875 0.546875 -2.015625 0.546875q-1.71875 0 -2.78125 -1.1875q-1.0625 -1.203125 -1.0625 -3.171875l0 -0.109375zm1.453125 0.171875q0 1.40625 0.640625 2.265625q0.65625 0.84375 1.75 0.84375q1.109375 0 1.75 -0.859375q0.65625 -0.859375 0.65625 -2.421875q0 -1.390625 -0.671875 -2.25q-0.65625 -0.859375 -1.75 -0.859375q-1.0625 0 -1.71875 0.859375q-0.65625 0.84375 -0.65625 2.421875zm7.703125 -0.15625q0 -1.953125 0.921875 -3.125q0.921875 -1.1875 2.40625 -1.1875q1.484375 0 2.359375 1.015625l0 -4.40625l1.4375 0l0 12.0l-1.328125 0l-0.0625 -0.90625q-0.875 1.0625 -2.421875 1.0625q-1.46875 0 -2.390625 -1.203125q-0.921875 -1.203125 -0.921875 -3.140625l0 -0.109375zm1.4375 0.15625q0 1.4375 0.59375 2.25q0.59375 0.8125 1.640625 0.8125q1.375 0 2.015625 -1.234375l0 -3.875q-0.65625 -1.203125 -2.0 -1.203125q-1.0625 0 -1.65625 0.828125q-0.59375 0.8125 -0.59375 2.421875zm13.1484375 3.296875q-0.84375 1.0 -2.46875 1.0q-1.359375 0 -2.0625 -0.78125q-0.703125 -0.796875 -0.71875 -2.328125l0 -5.5l1.453125 0l0 5.453125q0 1.921875 1.5625 1.921875q1.65625 0 2.203125 -1.234375l0 -6.140625l1.4375 0l0 8.453125l-1.375 0l-0.03125 -0.84375zm6.9921875 -0.1875q0.78125 0 1.359375 -0.46875q0.578125 -0.46875 0.640625 -1.171875l1.359375 0q-0.03125 0.734375 -0.5 1.390625q-0.453125 0.65625 -1.234375 1.046875q-0.765625 0.390625 -1.625 0.390625q-1.71875 0 -2.75 -1.15625q-1.015625 -1.15625 -1.015625 -3.15625l0 -0.234375q0 -1.234375 0.453125 -2.1875q0.453125 -0.96875 1.296875 -1.5q0.859375 -0.53125 2.015625 -0.53125q1.421875 0 2.359375 0.859375q0.9375 0.84375 1.0 2.203125l-1.359375 0q-0.0625 -0.828125 -0.625 -1.34375q-0.5625 -0.53125 -1.375 -0.53125q-1.109375 0 -1.71875 0.796875q-0.59375 0.78125 -0.59375 2.28125l0 0.28125q0 1.453125 0.59375 2.25q0.609375 0.78125 1.71875 0.78125zm6.953125 -9.46875l0 2.046875l1.578125 0l0 1.109375l-1.578125 0l0 5.25q0 0.5 0.203125 0.765625q0.21875 0.25 0.71875 0.25q0.25 0 0.6875 -0.09375l0 1.171875q-0.5625 0.15625 -1.109375 0.15625q-0.96875 0 -1.46875 -0.578125q-0.484375 -0.59375 -0.484375 -1.671875l0 -5.25l-1.53125 0l0 -1.109375l1.53125 0l0 -2.046875l1.453125 0zm10.796875 5.421875q-1.921875 -0.546875 -2.8125 -1.359375q-0.875 -0.8125 -0.875 -2.0q0 -1.34375 1.078125 -2.21875q1.078125 -0.875 2.796875 -0.875q1.171875 0 2.078125 0.453125q0.921875 0.453125 1.421875 1.25q0.515625 0.796875 0.515625 1.734375l-1.515625 0q0 -1.03125 -0.65625 -1.609375q-0.65625 -0.59375 -1.84375 -0.59375q-1.109375 0 -1.734375 0.484375q-0.625 0.484375 -0.625 1.359375q0 0.6875 0.59375 1.171875q0.59375 0.484375 2.0 0.890625q1.421875 0.390625 2.21875 0.875q0.8125 0.46875 1.1875 1.109375q0.390625 0.640625 0.390625 1.515625q0 1.375 -1.078125 2.21875q-1.078125 0.828125 -2.875 0.828125q-1.171875 0 -2.1875 -0.453125q-1.015625 -0.453125 -1.578125 -1.234375q-0.546875 -0.78125 -0.546875 -1.765625l1.515625 0q0 1.03125 0.75 1.625q0.765625 0.59375 2.046875 0.59375q1.1875 0 1.8125 -0.484375q0.640625 -0.484375 0.640625 -1.3125q0 -0.84375 -0.59375 -1.296875q-0.578125 -0.453125 -2.125 -0.90625zm5.5703125 0.78125q0 -2.0 0.90625 -3.15625q0.921875 -1.15625 2.453125 -1.15625q1.5 0 2.375 1.0l0.0625 -0.84375l1.328125 0l0 11.703125l-1.453125 0l0 -4.03125q-0.875 0.9375 -2.328125 0.9375q-1.53125 0 -2.4375 -1.1875q-0.90625 -1.203125 -0.90625 -3.171875l0 -0.09375zm1.4375 0.15625q0 1.453125 0.609375 2.28125q0.625 0.828125 1.65625 0.828125q1.296875 0 1.96875 -1.140625l0 -4.140625q-0.6875 -1.109375 -1.953125 -1.109375q-1.046875 0 -1.671875 0.828125q-0.609375 0.828125 -0.609375 2.453125zm13.21875 3.296875q-0.84375 1.0 -2.46875 1.0q-1.359375 0 -2.0625 -0.78125q-0.703125 -0.796875 -0.71875 -2.328125l0 -5.5l1.453125 0l0 5.453125q0 1.921875 1.5625 1.921875q1.65625 0 2.203125 -1.234375l0 -6.140625l1.4375 0l0 8.453125l-1.375 0l-0.03125 -0.84375zm8.8203125 0.84375q-0.125 -0.25 -0.203125 -0.890625q-1.0 1.046875 -2.40625 1.046875q-1.25 0 -2.046875 -0.703125q-0.796875 -0.71875 -0.796875 -1.796875q0 -1.328125 1.0 -2.046875q1.0 -0.734375 2.828125 -0.734375l1.40625 0l0 -0.671875q0 -0.75 -0.453125 -1.203125q-0.453125 -0.453125 -1.34375 -0.453125q-0.765625 0 -1.296875 0.390625q-0.515625 0.390625 -0.515625 0.953125l-1.453125 0q0 -0.640625 0.4375 -1.21875q0.453125 -0.59375 1.21875 -0.9375q0.78125 -0.34375 1.703125 -0.34375q1.453125 0 2.28125 0.734375q0.828125 0.71875 0.859375 2.0l0 3.890625q0 1.171875 0.296875 1.859375l0 0.125l-1.515625 0zm-2.390625 -1.109375q0.671875 0 1.28125 -0.34375q0.609375 -0.359375 0.890625 -0.921875l0 -1.734375l-1.140625 0q-2.65625 0 -2.65625 1.5625q0 0.671875 0.453125 1.0625q0.453125 0.375 1.171875 0.375zm5.53125 -3.1875q0 -1.953125 0.921875 -3.125q0.921875 -1.1875 2.40625 -1.1875q1.484375 0 2.359375 1.015625l0 -4.40625l1.4375 0l0 12.0l-1.328125 0l-0.0625 -0.90625q-0.875 1.0625 -2.421875 1.0625q-1.46875 0 -2.390625 -1.203125q-0.921875 -1.203125 -0.921875 -3.140625l0 -0.109375zm1.4375 0.15625q0 1.4375 0.59375 2.25q0.59375 0.8125 1.640625 0.8125q1.375 0 2.015625 -1.234375l0 -3.875q-0.65625 -1.203125 -2.0 -1.203125q-1.0625 0 -1.65625 0.828125q-0.59375 0.8125 -0.59375 2.421875z" fill-rule="nonzero"/>
    <path fill="#000000" fill-opacity="0.0" d="m170.02106 373.87402l130.29922 0l0 34.33069l-130.29922 0z" fill-rule="evenodd"/>
    <path fill="#fbdfbb" d="m212.82692 385.89938q-0.578125 0.828125 -1.609375 1.25q-1.03125 0.40625 -2.40625 0.40625q-1.390625 0 -2.46875 -0.65625q-1.078125 -0.65625 -1.671875 -1.859375q-0.59375 -1.203125 -0.609375 -2.78125l0 -1.0q0 -2.5625 1.203125 -3.96875q1.203125 -1.421875 3.375 -1.421875q1.78125 0 2.859375 0.90625q1.09375 0.90625 1.328125 2.578125l-1.5 0q-0.421875 -2.25 -2.6875 -2.25q-1.5 0 -2.28125 1.0625q-0.78125 1.046875 -0.78125 3.0625l0 0.921875q0 1.921875 0.875 3.046875q0.875 1.125 2.359375 1.125q0.84375 0 1.46875 -0.1875q0.640625 -0.1875 1.0625 -0.625l0 -2.5625l-2.640625 0l0 -1.21875l4.125 0l0 4.171875zm7.4921875 0.65625q-0.84375 1.0 -2.46875 1.0q-1.359375 0 -2.0625 -0.78125q-0.703125 -0.796875 -0.71875 -2.328125l0 -5.5l1.453125 0l0 5.453125q0 1.921875 1.5625 1.921875q1.65625 0 2.203125 -1.234375l0 -6.140625l1.4375 0l0 8.453125l-1.375 0l-0.03125 -0.84375zm8.8203125 0.84375q-0.125 -0.25 -0.203125 -0.890625q-1.0 1.046875 -2.40625 1.046875q-1.25 0 -2.046875 -0.703125q-0.796875 -0.71875 -0.796875 -1.796875q0 -1.328125 1.0 -2.046875q1.0 -0.734375 2.828125 -0.734375l1.40625 0l0 -0.671875q0 -0.75 -0.453125 -1.203125q-0.453125 -0.453125 -1.34375 -0.453125q-0.765625 0 -1.296875 0.390625q-0.515625 0.390625 -0.515625 0.953125l-1.453125 0q0 -0.640625 0.4375 -1.21875q0.453125 -0.59375 1.21875 -0.9375q0.78125 -0.34375 1.703125 -0.34375q1.453125 0 2.28125 0.734375q0.828125 0.71875 0.859375 2.0l0 3.890625q0 1.171875 0.296875 1.859375l0 0.125l-1.515625 0zm-2.390625 -1.109375q0.671875 0 1.28125 -0.34375q0.609375 -0.359375 0.890625 -0.921875l0 -1.734375l-1.140625 0q-2.65625 0 -2.65625 1.5625q0 0.671875 0.453125 1.0625q0.453125 0.375 1.171875 0.375zm9.96875 -6.046875q-0.328125 -0.0625 -0.71875 -0.0625q-1.421875 0 -1.921875 1.21875l0 6.0l-1.453125 0l0 -8.453125l1.40625 0l0.03125 0.96875q0.703125 -1.125 2.015625 -1.125q0.421875 0 0.640625 0.109375l0 1.34375zm0.828125 2.859375q0 -1.953125 0.921875 -3.125q0.921875 -1.1875 2.40625 -1.1875q1.484375 0 2.359375 1.015625l0 -4.40625l1.4375 0l0 12.0l-1.328125 0l-0.0625 -0.90625q-0.875 1.0625 -2.421875 1.0625q-1.46875 0 -2.390625 -1.203125q-0.921875 -1.203125 -0.921875 -3.140625l0 -0.109375zm1.4375 0.15625q0 1.4375 0.59375 2.25q0.59375 0.8125 1.640625 0.8125q1.375 0 2.015625 -1.234375l0 -3.875q-0.65625 -1.203125 -2.0 -1.203125q-1.0625 0 -1.65625 0.828125q-0.59375 0.8125 -0.59375 2.421875zm9.5078125 4.140625l-1.453125 0l0 -8.453125l1.453125 0l0 8.453125zm-1.5625 -10.703125q0 -0.34375 0.203125 -0.578125q0.21875 -0.25 0.640625 -0.25q0.421875 0 0.640625 0.25q0.21875 0.234375 0.21875 0.59375q0 0.34375 -0.21875 0.578125q-0.21875 0.234375 -0.640625 0.234375q-0.421875 0 -0.640625 -0.234375q-0.203125 -0.234375 -0.203125 -0.59375zm9.085922 10.703125q-0.12498474 -0.25 -0.20310974 -0.890625q-1.0 1.046875 -2.40625 1.046875q-1.25 0 -2.046875 -0.703125q-0.796875 -0.71875 -0.796875 -1.796875q0 -1.328125 1.0 -2.046875q1.0 -0.734375 2.828125 -0.734375l1.40625 0l0 -0.671875q0 -0.75 -0.453125 -1.203125q-0.453125 -0.453125 -1.34375 -0.453125q-0.765625 0 -1.296875 0.390625q-0.515625 0.390625 -0.515625 0.953125l-1.453125 0q0 -0.640625 0.4375 -1.21875q0.453125 -0.59375 1.21875 -0.9375q0.78125 -0.34375 1.703125 -0.34375q1.453125 0 2.2812347 0.734375q0.828125 0.71875 0.859375 2.0l0 3.890625q0 1.171875 0.296875 1.859375l0 0.125l-1.515625 0zm-2.3906097 -1.109375q0.671875 0 1.28125 -0.34375q0.609375 -0.359375 0.890625 -0.921875l0 -1.734375l-1.140625 0q-2.65625 0 -2.65625 1.5625q0 0.671875 0.453125 1.0625q0.453125 0.375 1.171875 0.375zm7.2499847 -7.34375l0.046875 1.0625q0.96875 -1.21875 2.53125 -1.21875q2.671875 0 2.703125 3.015625l0 5.59375l-1.453125 0l0 -5.59375q0 -0.921875 -0.421875 -1.359375q-0.40625 -0.4375 -1.265625 -0.4375q-0.703125 0 -1.234375 0.375q-0.53125 0.375 -0.828125 0.984375l0 6.03125l-1.453125 0l0 -8.453125l1.375 0z" fill-rule="nonzero"/>
    <path fill="#fbdfbb" d="m217.27614 401.32126q-1.921875 -0.546875 -2.8125 -1.359375q-0.875 -0.8125 -0.875 -2.0q0 -1.34375 1.078125 -2.21875q1.078125 -0.875 2.796875 -0.875q1.171875 0 2.078125 0.453125q0.921875 0.453125 1.421875 1.25q0.515625 0.796875 0.515625 1.734375l-1.515625 0q0 -1.03125 -0.65625 -1.609375q-0.65625 -0.59375 -1.84375 -0.59375q-1.109375 0 -1.734375 0.484375q-0.625 0.484375 -0.625 1.359375q0 0.6875 0.59375 1.171875q0.59375 0.484375 2.0 0.890625q1.421875 0.390625 2.21875 0.875q0.8125 0.46875 1.1875 1.109375q0.390625 0.640625 0.390625 1.515625q0 1.375 -1.078125 2.21875q-1.078125 0.828125 -2.875 0.828125q-1.171875 0 -2.1875 -0.453125q-1.015625 -0.453125 -1.578125 -1.234375q-0.546875 -0.78125 -0.546875 -1.765625l1.515625 0q0 1.03125 0.75 1.625q0.765625 0.59375 2.046875 0.59375q1.1875 0 1.8125 -0.484375q0.640625 -0.484375 0.640625 -1.3125q0 -0.84375 -0.59375 -1.296875q-0.578125 -0.453125 -2.125 -0.90625zm5.5703125 0.78125q0 -2.0 0.90625 -3.15625q0.921875 -1.15625 2.453125 -1.15625q1.5 0 2.375 1.0l0.0625 -0.84375l1.328125 0l0 11.703125l-1.453125 0l0 -4.03125q-0.875 0.9375 -2.328125 0.9375q-1.53125 0 -2.4375 -1.1875q-0.90625 -1.203125 -0.90625 -3.171875l0 -0.09375zm1.4375 0.15625q0 1.453125 0.609375 2.28125q0.625 0.828125 1.65625 0.828125q1.296875 0 1.96875 -1.140625l0 -4.140625q-0.6875 -1.109375 -1.953125 -1.109375q-1.046875 0 -1.671875 0.828125q-0.609375 0.828125 -0.609375 2.453125zm13.21875 3.296875q-0.84375 1.0 -2.46875 1.0q-1.359375 0 -2.0625 -0.78125q-0.703125 -0.796875 -0.71875 -2.328125l0 -5.5l1.453125 0l0 5.453125q0 1.921875 1.5625 1.921875q1.65625 0 2.203125 -1.234375l0 -6.140625l1.4375 0l0 8.453125l-1.375 0l-0.03125 -0.84375zm8.8203125 0.84375q-0.125 -0.25 -0.203125 -0.890625q-1.0 1.046875 -2.40625 1.046875q-1.25 0 -2.046875 -0.703125q-0.796875 -0.71875 -0.796875 -1.796875q0 -1.328125 1.0 -2.046875q1.0 -0.734375 2.828125 -0.734375l1.40625 0l0 -0.671875q0 -0.75 -0.453125 -1.203125q-0.453125 -0.453125 -1.34375 -0.453125q-0.765625 0 -1.296875 0.390625q-0.515625 0.390625 -0.515625 0.953125l-1.453125 0q0 -0.640625 0.4375 -1.21875q0.453125 -0.59375 1.21875 -0.9375q0.78125 -0.34375 1.703125 -0.34375q1.453125 0 2.28125 0.734375q0.828125 0.71875 0.859375 2.0l0 3.890625q0 1.171875 0.296875 1.859375l0 0.125l-1.515625 0zm-2.390625 -1.109375q0.671875 0 1.28125 -0.34375q0.609375 -0.359375 0.890625 -0.921875l0 -1.734375l-1.140625 0q-2.65625 0 -2.65625 1.5625q0 0.671875 0.453125 1.0625q0.453125 0.375 1.171875 0.375zm5.53125 -3.1875q0 -1.953125 0.921875 -3.125q0.921875 -1.1875 2.40625 -1.1875q1.484375 0 2.359375 1.015625l0 -4.40625l1.4374847 0l0 12.0l-1.3281097 0l-0.0625 -0.90625q-0.875 1.0625 -2.421875 1.0625q-1.46875 0 -2.390625 -1.203125q-0.921875 -1.203125 -0.921875 -3.140625l0 -0.109375zm1.4375 0.15625q0 1.4375 0.59375 2.25q0.59375 0.8125 1.640625 0.8125q1.375 0 2.015625 -1.234375l0 -3.875q-0.65625 -1.203125 -2.0 -1.203125q-1.0625 0 -1.65625 0.828125q-0.59375 0.8125 -0.59375 2.421875z" fill-rule="nonzero"/>
    <path fill="#000000" fill-opacity="0.0" d="m657.9161 373.8727l130.2992 0l0 34.33069l-130.2992 0z" fill-rule="evenodd"/>
    <path fill="#a1f7ff" d="m715.99536 387.39807l-1.5 0l0 -5.265625l-5.734375 0l0 5.265625l-1.5 0l0 -11.375l1.5 0l0 4.890625l5.734375 0l0 -4.890625l1.5 0l0 11.375zm5.953125 0.15625q-1.71875 0 -2.796875 -1.125q-1.078125 -1.140625 -1.078125 -3.03125l0 -0.265625q0 -1.25 0.46875 -2.234375q0.484375 -1.0 1.34375 -1.546875q0.875 -0.5625 1.875 -0.5625q1.65625 0 2.5625 1.09375q0.921875 1.078125 0.921875 3.09375l0 0.609375l-5.734375 0q0.03125 1.25 0.734375 2.015625q0.703125 0.765625 1.78125 0.765625q0.765625 0 1.296875 -0.3125q0.53125 -0.3125 0.921875 -0.828125l0.890625 0.6875q-1.0625 1.640625 -3.1875 1.640625zm-0.1875 -7.578125q-0.875 0 -1.46875 0.640625q-0.59375 0.625 -0.734375 1.78125l4.234375 0l0 -0.109375q-0.0625 -1.109375 -0.59375 -1.703125q-0.53125 -0.609375 -1.4375 -0.609375zm9.2421875 0.265625q-0.328125 -0.0625 -0.71875 -0.0625q-1.421875 0 -1.921875 1.21875l0 6.0l-1.453125 0l0 -8.453125l1.40625 0l0.03125 0.96875q0.703125 -1.125 2.015625 -1.125q0.421875 0 0.640625 0.109375l0 1.34375zm0.7890625 2.84375q0 -1.234375 0.484375 -2.21875q0.484375 -1.0 1.359375 -1.53125q0.875 -0.546875 1.984375 -0.546875q1.734375 0 2.796875 1.203125q1.0625 1.1875 1.0625 3.171875l0 0.09375q0 1.234375 -0.46875 2.21875q-0.46875 0.984375 -1.359375 1.53125q-0.875 0.546875 -2.015625 0.546875q-1.71875 0 -2.78125 -1.1875q-1.0625 -1.203125 -1.0625 -3.171875l0 -0.109375zm1.453125 0.171875q0 1.40625 0.640625 2.265625q0.65625 0.84375 1.75 0.84375q1.109375 0 1.75 -0.859375q0.65625 -0.859375 0.65625 -2.421875q0 -1.390625 -0.671875 -2.25q-0.65625 -0.859375 -1.75 -0.859375q-1.0625 0 -1.71875 0.859375q-0.65625 0.84375 -0.65625 2.421875z" fill-rule="nonzero"/>
    <path fill="#a1f7ff" d="m705.17114 401.31995q-1.921875 -0.546875 -2.8125 -1.359375q-0.875 -0.8125 -0.875 -2.0q0 -1.34375 1.078125 -2.21875q1.078125 -0.875 2.796875 -0.875q1.171875 0 2.078125 0.453125q0.921875 0.453125 1.421875 1.25q0.515625 0.796875 0.515625 1.734375l-1.515625 0q0 -1.03125 -0.65625 -1.609375q-0.65625 -0.59375 -1.84375 -0.59375q-1.109375 0 -1.734375 0.484375q-0.625 0.484375 -0.625 1.359375q0 0.6875 0.59375 1.171875q0.59375 0.484375 2.0 0.890625q1.421875 0.390625 2.21875 0.875q0.8125 0.46875 1.1875 1.109375q0.390625 0.640625 0.390625 1.515625q0 1.375 -1.078125 2.21875q-1.078125 0.828125 -2.875 0.828125q-1.171875 0 -2.1875 -0.453125q-1.015625 -0.453125 -1.578125 -1.234375q-0.546875 -0.78125 -0.546875 -1.765625l1.515625 0q0 1.03125 0.75 1.625q0.765625 0.59375 2.046875 0.59375q1.1875 0 1.8125 -0.484375q0.640625 -0.484375 0.640625 -1.3125q0 -0.84375 -0.59375 -1.296875q-0.578125 -0.453125 -2.125 -0.90625zm5.5703125 0.78125q0 -2.0 0.90625 -3.15625q0.921875 -1.15625 2.453125 -1.15625q1.5 0 2.375 1.0l0.0625 -0.84375l1.328125 0l0 11.703125l-1.453125 0l0 -4.03125q-0.875 0.9375 -2.328125 0.9375q-1.53125 0 -2.4375 -1.1875q-0.90625 -1.203125 -0.90625 -3.171875l0 -0.09375zm1.4375 0.15625q0 1.453125 0.609375 2.28125q0.625 0.828125 1.65625 0.828125q1.296875 0 1.96875 -1.140625l0 -4.140625q-0.6875 -1.109375 -1.953125 -1.109375q-1.046875 0 -1.671875 0.828125q-0.609375 0.828125 -0.609375 2.453125zm13.21875 3.296875q-0.84375 1.0 -2.46875 1.0q-1.359375 0 -2.0625 -0.78125q-0.703125 -0.796875 -0.71875 -2.328125l0 -5.5l1.453125 0l0 5.453125q0 1.921875 1.5625 1.921875q1.65625 0 2.203125 -1.234375l0 -6.140625l1.4375 0l0 8.453125l-1.375 0l-0.03125 -0.84375zm8.8203125 0.84375q-0.125 -0.25 -0.203125 -0.890625q-1.0 1.046875 -2.40625 1.046875q-1.25 0 -2.046875 -0.703125q-0.796875 -0.71875 -0.796875 -1.796875q0 -1.328125 1.0 -2.046875q1.0 -0.734375 2.828125 -0.734375l1.40625 0l0 -0.671875q0 -0.75 -0.453125 -1.203125q-0.453125 -0.453125 -1.34375 -0.453125q-0.765625 0 -1.296875 0.390625q-0.515625 0.390625 -0.515625 0.953125l-1.453125 0q0 -0.640625 0.4375 -1.21875q0.453125 -0.59375 1.21875 -0.9375q0.78125 -0.34375 1.703125 -0.34375q1.453125 0 2.28125 0.734375q0.828125 0.71875 0.859375 2.0l0 3.890625q0 1.171875 0.296875 1.859375l0 0.125l-1.515625 0zm-2.390625 -1.109375q0.671875 0 1.28125 -0.34375q0.609375 -0.359375 0.890625 -0.921875l0 -1.734375l-1.140625 0q-2.65625 0 -2.65625 1.5625q0 0.671875 0.453125 1.0625q0.453125 0.375 1.171875 0.375zm5.53125 -3.1875q0 -1.953125 0.921875 -3.125q0.921875 -1.1875 2.40625 -1.1875q1.484375 0 2.359375 1.015625l0 -4.40625l1.4375 0l0 12.0l-1.328125 0l-0.0625 -0.90625q-0.875 1.0625 -2.421875 1.0625q-1.46875 0 -2.390625 -1.203125q-0.921875 -1.203125 -0.921875 -3.140625l0 -0.109375zm1.4375 0.15625q0 1.4375 0.59375 2.25q0.59375 0.8125 1.640625 0.8125q1.375 0 2.015625 -1.234375l0 -3.875q-0.65625 -1.203125 -2.0 -1.203125q-1.0625 0 -1.65625 0.828125q-0.59375 0.8125 -0.59375 2.421875z" fill-rule="nonzero"/>
    <path fill="#000000" fill-opacity="0.0" d="m392.67715 472.0l174.58267 0l0 34.33072l-174.58267 0z" fill-rule="evenodd"/>
    <path fill="#5f7d95" d="m413.00757 484.88474l-3.65625 0l0 10.140625l-1.5 0l0 -10.140625l-3.640625 0l0 -1.234375l8.796875 0l0 1.234375zm2.90625 2.703125q0.953125 -1.171875 2.5 -1.171875q2.671875 0 2.703125 3.015625l0 5.59375l-1.453125 0l0 -5.59375q0 -0.921875 -0.421875 -1.359375q-0.40625 -0.4375 -1.265625 -0.4375q-0.703125 0 -1.234375 0.375q-0.53125 0.375 -0.828125 0.984375l0 6.03125l-1.453125 0l0 -12.0l1.453125 0l0 4.5625zm10.875 7.59375q-1.71875 0 -2.796875 -1.125q-1.078125 -1.140625 -1.078125 -3.03125l0 -0.265625q0 -1.25 0.46875 -2.234375q0.484375 -1.0 1.34375 -1.546875q0.875 -0.5625 1.875 -0.5625q1.65625 0 2.5625 1.09375q0.921875 1.078125 0.921875 3.09375l0 0.609375l-5.734375 0q0.03125 1.25 0.734375 2.015625q0.703125 0.765625 1.78125 0.765625q0.765625 0 1.296875 -0.3125q0.53125 -0.3125 0.921875 -0.828125l0.890625 0.6875q-1.0625 1.640625 -3.1875 1.640625zm-0.1875 -7.578125q-0.875 0 -1.46875 0.640625q-0.59375 0.625 -0.734375 1.78125l4.234375 0l0 -0.109375q-0.0625 -1.109375 -0.59375 -1.703125q-0.53125 -0.609375 -1.4375 -0.609375zm18.078125 7.421875l-1.5 0l0 -5.265625l-5.734375 0l0 5.265625l-1.5 0l0 -11.375l1.5 0l0 4.890625l5.734375 0l0 -4.890625l1.5 0l0 11.375zm5.953125 0.15625q-1.71875 0 -2.796875 -1.125q-1.078125 -1.140625 -1.078125 -3.03125l0 -0.265625q0 -1.25 0.46875 -2.234375q0.484375 -1.0 1.34375 -1.546875q0.875 -0.5625 1.875 -0.5625q1.65625 0 2.5625 1.09375q0.921875 1.078125 0.921875 3.09375l0 0.609375l-5.734375 0q0.03125 1.25 0.734375 2.015625q0.703125 0.765625 1.78125 0.765625q0.765625 0 1.296875 -0.3125q0.53125 -0.3125 0.921875 -0.828125l0.890625 0.6875q-1.0625 1.640625 -3.1875 1.640625zm-0.1875 -7.578125q-0.875 0 -1.46875 0.640625q-0.59375 0.625 -0.734375 1.78125l4.234375 0l0 -0.109375q-0.0625 -1.109375 -0.59375 -1.703125q-0.53125 -0.609375 -1.4375 -0.609375zm7.9921875 2.046875l1.875 -3.078125l1.6875 0l-2.765625 4.171875l2.84375 4.28125l-1.671875 0l-1.953125 -3.171875l-1.953125 3.171875l-1.671875 0l2.84375 -4.28125l-2.765625 -4.171875l1.671875 0l1.859375 3.078125zm10.3046875 5.375q-0.125 -0.25 -0.203125 -0.890625q-1.0 1.046875 -2.40625 1.046875q-1.25 0 -2.046875 -0.703125q-0.796875 -0.71875 -0.796875 -1.796875q0 -1.328125 1.0 -2.046875q1.0 -0.734375 2.828125 -0.734375l1.40625 0l0 -0.671875q0 -0.75 -0.453125 -1.203125q-0.453125 -0.453125 -1.34375 -0.453125q-0.765625 0 -1.296875 0.390625q-0.515625 0.390625 -0.515625 0.953125l-1.453125 0q0 -0.640625 0.4375 -1.21875q0.453125 -0.59375 1.21875 -0.9375q0.78125 -0.34375 1.703125 -0.34375q1.453125 0 2.28125 0.734375q0.828125 0.71875 0.859375 2.0l0 3.890625q0 1.171875 0.296875 1.859375l0 0.125l-1.515625 0zm-2.390625 -1.109375q0.671875 0 1.28125 -0.34375q0.609375 -0.359375 0.890625 -0.921875l0 -1.734375l-1.140625 0q-2.65625 0 -2.65625 1.5625q0 0.671875 0.453125 1.0625q0.453125 0.375 1.171875 0.375zm5.53125 -3.1875q0 -1.984375 0.90625 -3.140625q0.921875 -1.171875 2.4375 -1.171875q1.546875 0 2.40625 1.09375l0.078125 -0.9375l1.3125 0l0 8.25q0 1.640625 -0.96875 2.578125q-0.96875 0.953125 -2.609375 0.953125q-0.921875 0 -1.796875 -0.390625q-0.875 -0.390625 -1.328125 -1.0625l0.75 -0.875q0.921875 1.15625 2.265625 1.15625q1.0625 0 1.640625 -0.59375q0.59375 -0.59375 0.59375 -1.6875l0 -0.71875q-0.859375 1.0 -2.359375 1.0q-1.484375 0 -2.40625 -1.1875q-0.921875 -1.203125 -0.921875 -3.265625zm1.453125 0.15625q0 1.4375 0.578125 2.25q0.59375 0.8125 1.65625 0.8125q1.359375 0 2.0 -1.234375l0 -3.859375q-0.65625 -1.21875 -1.984375 -1.21875q-1.0625 0 -1.65625 0.828125q-0.59375 0.8125 -0.59375 2.421875zm7.4921875 -0.171875q0 -1.234375 0.484375 -2.21875q0.484375 -1.0 1.359375 -1.53125q0.875 -0.546875 1.984375 -0.546875q1.734375 0 2.796875 1.203125q1.0625 1.1875 1.0625 3.171875l0 0.09375q0 1.234375 -0.46875 2.21875q-0.46875 0.984375 -1.359375 1.53125q-0.875 0.546875 -2.015625 0.546875q-1.71875 0 -2.78125 -1.1875q-1.0625 -1.203125 -1.0625 -3.171875l0 -0.109375zm1.453125 0.171875q0 1.40625 0.640625 2.265625q0.65625 0.84375 1.75 0.84375q1.109375 0 1.75 -0.859375q0.65625 -0.859375 0.65625 -2.421875q0 -1.390625 -0.671875 -2.25q-0.65625 -0.859375 -1.75 -0.859375q-1.0625 0 -1.71875 0.859375q-0.65625 0.84375 -0.65625 2.421875zm9.421875 -4.3125l0.046875 1.0625q0.96875 -1.21875 2.53125 -1.21875q2.671875 0 2.703125 3.015625l0 5.59375l-1.453125 0l0 -5.59375q0 -0.921875 -0.421875 -1.359375q-0.40625 -0.4375 -1.265625 -0.4375q-0.703125 0 -1.234375 0.375q-0.53125 0.375 -0.828125 0.984375l0 6.03125l-1.453125 0l0 -8.453125l1.375 0zm19.195312 -1.6875l-3.65625 0l0 10.140625l-1.5 0l0 -10.140625l-3.640625 0l0 -1.234375l8.796875 0l0 1.234375zm4.9609375 2.984375q-0.328125 -0.0625 -0.71875 -0.0625q-1.421875 0 -1.921875 1.21875l0 6.0l-1.453125 0l0 -8.453125l1.40625 0l0.03125 0.96875q0.703125 -1.125 2.015625 -1.125q0.421875 0 0.640625 0.109375l0 1.34375zm2.8984375 7.15625l-1.453125 0l0 -8.453125l1.453125 0l0 8.453125zm-1.5625 -10.703125q0 -0.34375 0.203125 -0.578125q0.21875 -0.25 0.640625 -0.25q0.421875 0 0.640625 0.25q0.21875 0.234375 0.21875 0.59375q0 0.34375 -0.21875 0.578125q-0.21875 0.234375 -0.640625 0.234375q-0.421875 0 -0.640625 -0.234375q-0.203125 -0.234375 -0.203125 -0.59375zm4.5859375 10.703125l0 -7.34375l-1.34375 0l0 -1.109375l1.34375 0l0 -0.875q0 -1.359375 0.71875 -2.09375q0.734375 -0.75 2.0625 -0.75q0.5 0 0.984375 0.140625l-0.078125 1.171875q-0.359375 -0.078125 -0.78125 -0.078125q-0.703125 0 -1.09375 0.421875q-0.375 0.40625 -0.375 1.171875l0 0.890625l1.8125 0l0 1.109375l-1.8125 0l0 7.34375l-1.4375 0zm8.1640625 0.15625q-1.71875 0 -2.796875 -1.125q-1.078125 -1.140625 -1.078125 -3.03125l0 -0.265625q0 -1.25 0.46875 -2.234375q0.484375 -1.0 1.34375 -1.546875q0.875 -0.5625 1.875 -0.5625q1.65625 0 2.5625 1.09375q0.921875 1.078125 0.921875 3.09375l0 0.609375l-5.734375 0q0.03125 1.25 0.734375 2.015625q0.703125 0.765625 1.78125 0.765625q0.765625 0 1.296875 -0.3125q0.53125 -0.3125 0.921875 -0.828125l0.890625 0.6875q-1.0625 1.640625 -3.1875 1.640625zm-0.1875 -7.578125q-0.875 0 -1.46875 0.640625q-0.59375 0.625 -0.734375 1.78125l4.234375 0l0 -0.109375q-0.0625 -1.109375 -0.59375 -1.703125q-0.53125 -0.609375 -1.4375 -0.609375zm8.5390625 6.390625q0.78125 0 1.359375 -0.46875q0.578125 -0.46875 0.640625 -1.171875l1.359375 0q-0.03125 0.734375 -0.5 1.390625q-0.453125 0.65625 -1.234375 1.046875q-0.765625 0.390625 -1.625 0.390625q-1.71875 0 -2.75 -1.15625q-1.015625 -1.15625 -1.015625 -3.15625l0 -0.234375q0 -1.234375 0.453125 -2.1875q0.453125 -0.96875 1.296875 -1.5q0.859375 -0.53125 2.015625 -0.53125q1.421875 0 2.359375 0.859375q0.9375 0.84375 1.0 2.203125l-1.359375 0q-0.0625 -0.828125 -0.625 -1.34375q-0.5625 -0.53125 -1.375 -0.53125q-1.109375 0 -1.71875 0.796875q-0.59375 0.78125 -0.59375 2.28125l0 0.28125q0 1.453125 0.59375 2.25q0.609375 0.78125 1.71875 0.78125zm6.953125 -9.46875l0 2.046875l1.578125 0l0 1.109375l-1.578125 0l0 5.25q0 0.5 0.203125 0.765625q0.21875 0.25 0.71875 0.25q0.25 0 0.6875 -0.09375l0 1.171875q-0.5625 0.15625 -1.109375 0.15625q-0.96875 0 -1.46875 -0.578125q-0.484375 -0.59375 -0.484375 -1.671875l0 -5.25l-1.53125 0l0 -1.109375l1.53125 0l0 -2.046875l1.453125 0zm8.4765625 10.5q-0.125 -0.25 -0.203125 -0.890625q-1.0 1.046875 -2.40625 1.046875q-1.25 0 -2.046875 -0.703125q-0.796875 -0.71875 -0.796875 -1.796875q0 -1.328125 1.0 -2.046875q1.0 -0.734375 2.828125 -0.734375l1.40625 0l0 -0.671875q0 -0.75 -0.453125 -1.203125q-0.453125 -0.453125 -1.34375 -0.453125q-0.765625 0 -1.296875 0.390625q-0.515625 0.390625 -0.515625 0.953125l-1.453125 0q0 -0.640625 0.4375 -1.21875q0.453125 -0.59375 1.21875 -0.9375q0.78125 -0.34375 1.703125 -0.34375q1.453125 0 2.28125 0.734375q0.828125 0.71875 0.859375 2.0l0 3.890625q0 1.171875 0.296875 1.859375l0 0.125l-1.515625 0zm-2.390625 -1.109375q0.671875 0 1.28125 -0.34375q0.609375 -0.359375 0.890625 -0.921875l0 -1.734375l-1.140625 0q-2.65625 0 -2.65625 1.5625q0 0.671875 0.453125 1.0625q0.453125 0.375 1.171875 0.375z" fill-rule="nonzero"/>
  </g>
</svg>