<?xml version="1.0" encoding="utf-8"?>
<svg version="1.1" viewBox="0.0 0.0 960.0 540.0" fill="none" stroke="none" stroke-linecap="square" stroke-miterlimit="10" xmlns="http://www.w3.org/2000/svg">
  <clipPath id="g6b4b12fa62_0_230.0">
    <path d="m0 0l960.0 0l0 540.0l-960.0 0l0 -540.0z" clip-rule="nonzero"/>
  </clipPath>
  <g clip-path="url(#g6b4b12fa62_0_230.0)">
    <path fill="#000000" fill-opacity="0.0" d="m105.22184 64.657906l0 0c0 -11.811298 9.574951 -21.386253 21.386253 -21.386253l285.19598 0c5.671997 0 11.111664 2.253189 15.1223755 6.2638893c4.0107117 4.0107 6.2638855 9.450378 6.2638855 15.122364l0 85.54246c0 11.811295 -9.574951 21.386246 -21.386261 21.386246l-285.19598 0l0 0c-11.811302 0 -21.386253 -9.574951 -21.386253 -21.386246z" fill-rule="evenodd"/>
    <path stroke="#48ffd5" stroke-width="1.0" stroke-linejoin="round" stroke-linecap="butt" d="m105.22184 64.657906l0 0c0 -11.811298 9.574951 -21.386253 21.386253 -21.386253l285.19598 0c5.671997 0 11.111664 2.253189 15.1223755 6.2638893c4.0107117 4.0107 6.2638855 9.450378 6.2638855 15.122364l0 85.54246c0 11.811295 -9.574951 21.386246 -21.386261 21.386246l-285.19598 0l0 0c-11.811302 0 -21.386253 -9.574951 -21.386253 -21.386246z" fill-rule="evenodd"/>
    <path fill="#000000" fill-opacity="0.0" d="m624.70605 154.62556l0 0c0 -24.805466 20.108765 -44.914276 44.914246 -44.914276l179.6518 0l0 0c11.911987 0 23.33612 4.732025 31.759155 13.15509c8.423096 8.423065 13.15509 19.847183 13.15509 31.759186l0 230.10844c0 24.805481 -20.108826 44.914276 -44.914246 44.914276l-179.6518 0c-24.805481 0 -44.914246 -20.108795 -44.914246 -44.914276z" fill-rule="evenodd"/>
    <path stroke="#48ffd5" stroke-width="1.0" stroke-linejoin="round" stroke-linecap="butt" d="m624.70605 154.62556l0 0c0 -24.805466 20.108765 -44.914276 44.914246 -44.914276l179.6518 0l0 0c11.911987 0 23.33612 4.732025 31.759155 13.15509c8.423096 8.423065 13.15509 19.847183 13.15509 31.759186l0 230.10844c0 24.805481 -20.108826 44.914276 -44.914246 44.914276l-179.6518 0c-24.805481 0 -44.914246 -20.108795 -44.914246 -44.914276z" fill-rule="evenodd"/>
    <path fill="#5f7d95" d="m151.21193 73.57254c-3.143982 0 -5.6907196 2.5465393 -5.6907196 5.686928c0 3.1336823 2.5467377 5.680214 5.6907196 5.680214c3.1305695 0 5.677307 -2.5465317 5.677307 -5.680214c0 -3.1403885 -2.5467377 -5.686928 -5.677307 -5.686928z" fill-rule="evenodd"/>
    <path fill="#5f7d95" d="m143.63213 88.72761c-4.1808014 0 -7.5764465 3.5262299 -7.5764465 7.706711l0 11.367142c0 1.9929352 1.3857727 3.7107544 3.7077026 3.7107544c0.5972595 0 1.2549133 -0.11406708 1.9696045 -0.3657074l0 23.29795c0 2.0902252 1.697815 3.787918 3.7882233 3.787918c2.0937653 0 3.7915802 -1.6976929 3.7915802 -3.787918l0 -13.386932c0 -1.050148 0.84555054 -1.8889313 1.8991394 -1.8889313c1.0401764 0 1.8890839 0.83878326 1.8890839 1.8889313l0 13.386932c0 2.0902252 1.6978302 3.787918 3.7882233 3.787918c2.0904083 0 3.7882233 -1.6976929 3.7882233 -3.787918l0 -23.29795c0.7147064 0.25164032 1.3757172 0.3657074 1.9729614 0.3657074c2.32193 0 3.7177734 -1.7178192 3.7177734 -3.7107544l0 -11.367142c0 -4.180481 -3.405716 -7.706711 -7.5798035 -7.706711z" fill-rule="evenodd"/>
    <path fill="#48ffd5" d="m209.70341 73.57254c-3.1439972 0 -5.690735 2.5465393 -5.690735 5.686928c0 3.1336823 2.5467377 5.680214 5.690735 5.680214c3.1305695 0 5.677292 -2.5465317 5.677292 -5.680214c0 -3.1403885 -2.5467224 -5.686928 -5.677292 -5.686928z" fill-rule="evenodd"/>
    <path fill="#48ffd5" d="m202.1236 88.72761c-4.1808014 0 -7.5764465 3.5262299 -7.5764465 7.706711l0 11.367142c0 1.9929352 1.3857727 3.7107544 3.7077026 3.7107544c0.5972595 0 1.2549133 -0.11406708 1.9696045 -0.3657074l0 23.29795c0 2.0902252 1.6978302 3.787918 3.7882233 3.787918c2.0937653 0 3.7915802 -1.6976929 3.7915802 -3.787918l0 -13.386932c0 -1.050148 0.8455658 -1.8889313 1.8991547 -1.8889313c1.0401611 0 1.8890686 0.83878326 1.8890686 1.8889313l0 13.386932c0 2.0902252 1.6978302 3.787918 3.7882233 3.787918c2.0904083 0 3.7882233 -1.6976929 3.7882233 -3.787918l0 -23.29795c0.7147064 0.25164032 1.3757172 0.3657074 1.9729767 0.3657074c2.3219147 0 3.7177582 -1.7178192 3.7177582 -3.7107544l0 -11.367142c0 -4.180481 -3.405716 -7.706711 -7.5798035 -7.706711z" fill-rule="evenodd"/>
    <path fill="#48ffd5" d="m268.1949 73.57254c-3.143982 0 -5.690735 2.5465393 -5.690735 5.686928c0 3.1336823 2.546753 5.680214 5.690735 5.680214c3.1305542 0 5.677307 -2.5465317 5.677307 -5.680214c0 -3.1403885 -2.546753 -5.686928 -5.677307 -5.686928z" fill-rule="evenodd"/>
    <path fill="#48ffd5" d="m260.61508 88.72761c-4.1808167 0 -7.576462 3.5262299 -7.576462 7.706711l0 11.367142c0 1.9929352 1.3857727 3.7107544 3.707718 3.7107544c0.597229 0 1.2548828 -0.11406708 1.9696045 -0.3657074l0 23.29795c0 2.0902252 1.697815 3.787918 3.788208 3.787918c2.09375 0 3.7915955 -1.6976929 3.7915955 -3.787918l0 -13.386932c0 -1.050148 0.84555054 -1.8889313 1.8991394 -1.8889313c1.0401611 0 1.8890686 0.83878326 1.8890686 1.8889313l0 13.386932c0 2.0902252 1.697815 3.787918 3.7882385 3.787918c2.090393 0 3.788208 -1.6976929 3.788208 -3.787918l0 -23.29795c0.71469116 0.25164032 1.3757019 0.3657074 1.9729614 0.3657074c2.32193 0 3.7177734 -1.7178192 3.7177734 -3.7107544l0 -11.367142c0 -4.180481 -3.4057007 -7.706711 -7.5798035 -7.706711z" fill-rule="evenodd"/>
    <path fill="#48ffd5" d="m385.17783 73.57204c-3.143982 0 -5.690735 2.5465317 -5.690735 5.68692c0 3.1336823 2.546753 5.6802216 5.690735 5.6802216c3.1305847 0 5.677307 -2.5465393 5.677307 -5.6802216c0 -3.1403885 -2.5467224 -5.68692 -5.677307 -5.68692z" fill-rule="evenodd"/>
    <path fill="#48ffd5" d="m377.59802 88.727104c-4.1808167 0 -7.5764465 3.5262299 -7.5764465 7.706703l0 11.367142c0 1.9929428 1.3857727 3.710762 3.7077026 3.710762c0.5972595 0 1.2549133 -0.11407471 1.9696045 -0.3657074l0 23.297935c0 2.0902405 1.697815 3.7879333 3.788208 3.7879333c2.0937805 0 3.7915955 -1.6976929 3.7915955 -3.7879333l0 -13.386917c0 -1.0501556 0.84555054 -1.8889313 1.8991394 -1.8889313c1.0401611 0 1.8890686 0.83877563 1.8890686 1.8889313l0 13.386917c0 2.0902405 1.6978455 3.7879333 3.7882385 3.7879333c2.090393 0 3.788208 -1.6976929 3.788208 -3.7879333l0 -23.297935c0.7147217 0.2516327 1.3757324 0.3657074 1.972992 0.3657074c2.3218994 0 3.717743 -1.7178192 3.717743 -3.710762l0 -11.367142c0 -4.1804733 -3.4057007 -7.706703 -7.5798035 -7.706703z" fill-rule="evenodd"/>
    <path fill="#48ffd5" d="m326.68634 73.57204c-3.143982 0 -5.6907043 2.5465317 -5.6907043 5.68692c0 3.1336823 2.5467224 5.6802216 5.6907043 5.6802216c3.1305847 0 5.677307 -2.5465393 5.677307 -5.6802216c0 -3.1403885 -2.5467224 -5.68692 -5.677307 -5.68692z" fill-rule="evenodd"/>
    <path fill="#48ffd5" d="m319.10654 88.727104c-4.180786 0 -7.5764465 3.5262299 -7.5764465 7.706703l0 11.367142c0 1.9929428 1.3857727 3.710762 3.7077026 3.710762c0.5972595 0 1.2549133 -0.11407471 1.9696045 -0.3657074l0 23.297935c0 2.0902405 1.697815 3.7879333 3.7882385 3.7879333c2.09375 0 3.791565 -1.6976929 3.791565 -3.7879333l0 -13.386917c0 -1.0501556 0.84555054 -1.8889313 1.8991394 -1.8889313c1.0401917 0 1.8890991 0.83877563 1.8890991 1.8889313l0 13.386917c0 2.0902405 1.697815 3.7879333 3.788208 3.7879333c2.0904236 0 3.7882385 -1.6976929 3.7882385 -3.7879333l0 -23.297935c0.71469116 0.2516327 1.3757019 0.3657074 1.9729614 0.3657074c2.32193 0 3.7177734 -1.7178192 3.7177734 -3.710762l0 -11.367142c0 -4.1804733 -3.4057312 -7.706703 -7.5798035 -7.706703z" fill-rule="evenodd"/>
    <path fill="#000000" fill-opacity="0.0" d="m43.249344 171.45271l0 -128.06299l64.62992 0l0 128.06299z" fill-rule="evenodd"/>
    <path fill="#48ffd5" d="m62.688095 129.0384l0 7.3125l20.28125 0l0 2.984375l-20.28125 0l0 7.296875l-2.46875 0l0 -17.59375l2.46875 0zm20.59375 -8.390625q0 3.4375 -2.25 5.59375q-2.265625 2.15625 -6.046875 2.15625l-0.53125 0q-2.515625 0 -4.484375 -0.953125q-1.984375 -0.96875 -3.09375 -2.6875q-1.125 -1.734375 -1.125 -3.75q0 -3.296875 2.171875 -5.125q2.171875 -1.828125 6.21875 -1.828125l1.203125 0l0 11.453125q2.5 -0.0625 4.046875 -1.453125q1.53125 -1.40625 1.53125 -3.5625q0 -1.53125 -0.625 -2.59375q-0.625 -1.0625 -1.65625 -1.859375l1.375 -1.765625q3.265625 2.125 3.265625 6.375zm-15.15625 0.359375q0 1.75 1.28125 2.9375q1.265625 1.1875 3.5625 1.46875l0 -8.46875l-0.21875 0q-2.203125 0.125 -3.40625 1.1875q-1.21875 1.0625 -1.21875 2.875zm14.84375 -20.734367q-0.5 0.25 -1.78125 0.40625q2.09375 2.015625 2.09375 4.8125q0 2.4999924 -1.40625 4.1093674q-1.421875 1.59375 -3.59375 1.59375q-2.640625 0 -4.09375 -2.0q-1.46875 -2.0156174 -1.46875 -5.6562424l0 -2.8125l-1.328125 0q-1.515625 0 -2.40625 0.90625q-0.90625 0.90625 -0.90625 2.671875q0 1.546875 0.78125 2.59375q0.78125 1.0468674 1.890625 1.0468674l0 2.90625q-1.265625 0 -2.4375 -0.890625q-1.1875 -0.90625 -1.875 -2.4375q-0.6875 -1.5468674 -0.6875 -3.3906174q0 -2.921875 1.46875 -4.578125q1.453125 -1.65625 4.015625 -1.71875l7.78125 0q2.328125 0 3.703125 -0.59375l0.25 0l0 3.03125zm-2.203125 4.796875q0 -1.359375 -0.703125 -2.578125q-0.703125 -1.21875 -1.828125 -1.765625l-3.46875 0l0 2.265625q0 5.3124924 3.109375 5.3124924q1.359375 0 2.125 -0.9062424q0.765625 -0.90625 0.765625 -2.328125zm-14.703125 -14.484375l1.875 -0.078125q-2.1875 -1.859375 -2.1875 -5.015625q0 -3.546875 2.71875 -4.828125q-1.21875 -0.84375 -1.96875 -2.1875q-0.75 -1.359375 -0.75 -3.203125q0 -5.5625 5.890625 -5.65625l11.328125 0l0 2.890625l-11.15625 0q-1.8125 0 -2.703125 0.828125q-0.90625 0.828125 -0.90625 2.78125q0 1.609375 0.96875 2.671875q0.953125 1.0625 2.578125 1.234375l11.21875 0l0 2.90625l-11.078125 0q-3.6875 0 -3.6875 3.609375q0 2.84375 2.421875 3.890625l12.34375 0l0 2.890625l-16.90625 0l0 -2.734375z" fill-rule="nonzero"/>
    <path fill="#48ffd5" d="m731.0877 140.01672c-3.143982 0 -5.690735 2.5465393 -5.690735 5.68692c0 3.1336823 2.546753 5.6802216 5.690735 5.6802216c3.1306152 0 5.677307 -2.5465393 5.677307 -5.6802216c0 -3.1403809 -2.546692 -5.68692 -5.677307 -5.68692z" fill-rule="evenodd"/>
    <path fill="#48ffd5" d="m723.50793 155.17178c-4.180847 0 -7.576477 3.5262299 -7.576477 7.706711l0 11.367142c0 1.9929352 1.3858032 3.7107544 3.7077026 3.7107544c0.59729004 0 1.2549438 -0.11407471 1.9696045 -0.3657074l0 23.297943c0 2.0902405 1.697815 3.7879333 3.788208 3.7879333c2.093811 0 3.791626 -1.6976929 3.791626 -3.7879333l0 -13.386917c0 -1.0501556 0.84552 -1.8889313 1.8991089 -1.8889313c1.0401611 0 1.8890991 0.83877563 1.8890991 1.8889313l0 13.386917c0 2.0902405 1.697815 3.7879333 3.788208 3.7879333c2.090393 0 3.788208 -1.6976929 3.788208 -3.7879333l0 -23.297943c0.7147217 0.2516327 1.3757324 0.3657074 1.9730225 0.3657074c2.3218994 0 3.7177124 -1.7178192 3.7177124 -3.7107544l0 -11.367142c0 -4.180481 -3.4057007 -7.706711 -7.579773 -7.706711z" fill-rule="evenodd"/>
    <path fill="#48ffd5" d="m789.57806 140.01672c-3.143982 0 -5.690735 2.5465393 -5.690735 5.68692c0 3.1336823 2.546753 5.6802216 5.690735 5.6802216c3.1305542 0 5.677307 -2.5465393 5.677307 -5.6802216c0 -3.1403809 -2.546753 -5.68692 -5.677307 -5.68692z" fill-rule="evenodd"/>
    <path fill="#48ffd5" d="m781.9983 155.17178c-4.180847 0 -7.576477 3.5262299 -7.576477 7.706711l0 11.367142c0 1.9929352 1.3858032 3.7107544 3.7077026 3.7107544c0.597229 0 1.2548828 -0.11407471 1.9696045 -0.3657074l0 23.297943c0 2.0902405 1.697815 3.7879333 3.788208 3.7879333c2.09375 0 3.791565 -1.6976929 3.791565 -3.7879333l0 -13.386917c0 -1.0501556 0.84558105 -1.8889313 1.8991699 -1.8889313c1.0401611 0 1.8890991 0.83877563 1.8890991 1.8889313l0 13.386917c0 2.0902405 1.697815 3.7879333 3.788208 3.7879333c2.090393 0 3.788208 -1.6976929 3.788208 -3.7879333l0 -23.297943c0.7147217 0.2516327 1.3757324 0.3657074 1.9729614 0.3657074c2.3219604 0 3.7177734 -1.7178192 3.7177734 -3.7107544l0 -11.367142c0 -4.180481 -3.4057007 -7.706711 -7.579773 -7.706711z" fill-rule="evenodd"/>
    <path fill="#48ffd5" d="m848.0684 140.01672c-3.143982 0 -5.690735 2.5465393 -5.690735 5.68692c0 3.1336823 2.546753 5.6802216 5.690735 5.6802216c3.1305542 0 5.677307 -2.5465393 5.677307 -5.6802216c0 -3.1403809 -2.546753 -5.68692 -5.677307 -5.68692z" fill-rule="evenodd"/>
    <path fill="#48ffd5" d="m840.4886 155.17178c-4.180786 0 -7.576416 3.5262299 -7.576416 7.706711l0 11.367142c0 1.9929352 1.3857422 3.7107544 3.7077026 3.7107544c0.597229 0 1.2548828 -0.11407471 1.9696045 -0.3657074l0 23.297943c0 2.0902405 1.697815 3.7879333 3.788208 3.7879333c2.09375 0 3.791565 -1.6976929 3.791565 -3.7879333l0 -13.386917c0 -1.0501556 0.84558105 -1.8889313 1.8991699 -1.8889313c1.0401611 0 1.8890991 0.83877563 1.8890991 1.8889313l0 13.386917c0 2.0902405 1.697815 3.7879333 3.788208 3.7879333c2.090393 0 3.788208 -1.6976929 3.788208 -3.7879333l0 -23.297943c0.7147217 0.2516327 1.3757324 0.3657074 1.9729614 0.3657074c2.3219604 0 3.7177734 -1.7178192 3.7177734 -3.7107544l0 -11.367142c0 -4.180481 -3.4057007 -7.706711 -7.579834 -7.706711z" fill-rule="evenodd"/>
    <path fill="#000000" fill-opacity="0.0" d="m632.3113 13.82796l254.26776 0l0 64.62992l-254.26776 0z" fill-rule="evenodd"/>
    <path fill="#48ffd5" d="m691.2811 43.032337l-9.859375 0l0 8.0625l11.453125 0l0 2.453125l-14.453125 0l0 -22.750002l14.296875 0l0 2.468752l-11.296875 0l0 7.3125l9.859375 0l0 2.453125zm7.609375 -6.390625l0.09375 2.125q1.9375 -2.4375 5.0625 -2.4375q5.359375 0 5.40625 6.046875l0 11.171875l-2.890625 0l0 -11.1875q-0.015625 -1.828125 -0.84375 -2.703125q-0.8125 -0.875 -2.546875 -0.875q-1.40625 0 -2.46875 0.75q-1.0625 0.75 -1.65625 1.96875l0 12.046875l-2.890625 0l0 -16.90625l2.734375 0zm14.234375 8.3125q0 -3.953125 1.828125 -6.28125q1.828125 -2.34375 4.84375 -2.34375q3.09375 0 4.828125 2.1875l0.140625 -1.875l2.640625 0l0 16.5q0 3.28125 -1.953125 5.171875q-1.9375 1.890625 -5.21875 1.890625q-1.828125 0 -3.578125 -0.78125q-1.75 -0.78125 -2.671875 -2.140625l1.5 -1.734375q1.859375 2.296875 4.546875 2.296875q2.109375 0 3.28125 -1.1875q1.1875 -1.1875 1.1875 -3.34375l0 -1.453125q-1.734375 2.0 -4.734375 2.0q-2.96875 0 -4.8125 -2.390625q-1.828125 -2.390625 -1.828125 -6.515625zm2.90625 0.328125q0 2.859375 1.171875 4.5q1.171875 1.625 3.28125 1.625q2.734375 0 4.015625 -2.484375l0 -7.71875q-1.328125 -2.421875 -3.984375 -2.421875q-2.109375 0 -3.296875 1.640625q-1.1875 1.640625 -1.1875 4.859375zm18.875 8.265625l-2.890625 0l0 -16.90625l2.890625 0l0 16.90625zm-3.125 -21.390625q0 -0.7031269 0.421875 -1.1875019q0.4375 -0.484375 1.28125 -0.484375q0.84375 0 1.28125 0.484375q0.4375 0.484375 0.4375 1.1875019q0 0.703125 -0.4375 1.171875q-0.4375 0.46875 -1.28125 0.46875q-0.84375 0 -1.28125 -0.46875q-0.421875 -0.46875 -0.421875 -1.171875zm10.484375 4.484375l0.09375 2.125q1.9375 -2.4375 5.0625 -2.4375q5.359375 0 5.40625 6.046875l0 11.171875l-2.890625 0l0 -11.1875q-0.015625 -1.828125 -0.84375 -2.703125q-0.8125 -0.875 -2.546875 -0.875q-1.40625 0 -2.46875 0.75q-1.0625 0.75 -1.65625 1.96875l0 12.046875l-2.890625 0l0 -16.90625l2.734375 0zm21.937439 17.21875q-3.4375 0 -5.593689 -2.25q-2.15625 -2.265625 -2.15625 -6.046875l0 -0.53125q0 -2.515625 0.953125 -4.484375q0.96875 -1.984375 2.6875 -3.09375q1.734314 -1.125 3.749939 -1.125q3.296875 0 5.125 2.171875q1.828125 2.171875 1.828125 6.21875l0 1.203125l-11.453064 0q0.0625 2.5 1.453064 4.046875q1.40625 1.53125 3.5625 1.53125q1.53125 0 2.59375 -0.625q1.0625 -0.625 1.859375 -1.65625l1.765625 1.375q-2.125 3.265625 -6.375 3.265625zm-0.359375 -15.15625q-1.75 0 -2.9375 1.28125q-1.187439 1.265625 -1.468689 3.5625l8.468689 0l0 -0.21875q-0.125 -2.203125 -1.1875 -3.40625q-1.0625 -1.21875 -2.875 -1.21875zm17.3125 15.15625q-3.4375 0 -5.59375 -2.25q-2.15625 -2.265625 -2.15625 -6.046875l0 -0.53125q0 -2.515625 0.953125 -4.484375q0.96875 -1.984375 2.6875 -3.09375q1.734375 -1.125 3.75 -1.125q3.296875 0 5.125 2.171875q1.828125 2.171875 1.828125 6.21875l0 1.203125l-11.453125 0q0.0625 2.5 1.453125 4.046875q1.40625 1.53125 3.5625 1.53125q1.53125 0 2.59375 -0.625q1.0625 -0.625 1.859375 -1.65625l1.765625 1.375q-2.125 3.265625 -6.375 3.265625zm-0.359375 -15.15625q-1.75 0 -2.9375 1.28125q-1.1875 1.265625 -1.46875 3.5625l8.46875 0l0 -0.21875q-0.125 -2.203125 -1.1875 -3.40625q-1.0625 -1.21875 -2.875 -1.21875zm18.46875 0.53125q-0.65625 -0.109375 -1.421875 -0.109375q-2.84375 0 -3.859375 2.421875l0 12.0l-2.890625 0l0 -16.90625l2.8125 0l0.046875 1.953125q1.421875 -2.265625 4.03125 -2.265625q0.84375 0 1.28125 0.21875l0 2.6875zm5.796875 14.3125l-2.890625 0l0 -16.90625l2.890625 0l0 16.90625zm-3.125 -21.390625q0 -0.7031269 0.421875 -1.1875019q0.4375 -0.484375 1.28125 -0.484375q0.84375 0 1.28125 0.484375q0.4375 0.484375 0.4375 1.1875019q0 0.703125 -0.4375 1.171875q-0.4375 0.46875 -1.28125 0.46875q-0.84375 0 -1.28125 -0.46875q-0.421875 -0.46875 -0.421875 -1.171875zm10.484375 4.484375l0.09375 2.125q1.9375 -2.4375 5.0625 -2.4375q5.359375 0 5.40625 6.046875l0 11.171875l-2.890625 0l0 -11.1875q-0.015625 -1.828125 -0.84375 -2.703125q-0.8125 -0.875 -2.546875 -0.875q-1.40625 0 -2.46875 0.75q-1.0625 0.75 -1.65625 1.96875l0 12.046875l-2.890625 0l0 -16.90625l2.734375 0zm14.234375 8.3125q0 -3.953125 1.828125 -6.28125q1.828125 -2.34375 4.84375 -2.34375q3.09375 0 4.828125 2.1875l0.140625 -1.875l2.640625 0l0 16.5q0 3.28125 -1.953125 5.171875q-1.9375 1.890625 -5.21875 1.890625q-1.828125 0 -3.578125 -0.78125q-1.75 -0.78125 -2.671875 -2.140625l1.5 -1.734375q1.859375 2.296875 4.546875 2.296875q2.109375 0 3.28125 -1.1875q1.1875 -1.1875 1.1875 -3.34375l0 -1.453125q-1.734375 2.0 -4.734375 2.0q-2.96875 0 -4.8125 -2.390625q-1.828125 -2.390625 -1.828125 -6.515625zm2.90625 0.328125q0 2.859375 1.171875 4.5q1.171875 1.625 3.28125 1.625q2.734375 0 4.015625 -2.484375l0 -7.71875q-1.328125 -2.421875 -3.984375 -2.421875q-2.109375 0 -3.296875 1.640625q-1.1875 1.640625 -1.1875 4.859375z" fill-rule="nonzero"/>
    <path fill="#48ffd5" d="m697.9374 71.26671l-7.3125 0l0 20.28125l-2.984375 0l0 -20.28125l-7.296875 0l0 -2.46875l17.59375 0l0 2.46875zm11.59375 20.28125q-0.25 -0.5 -0.40625 -1.78125q-2.015625 2.09375 -4.8125 2.09375q-2.5 0 -4.109375 -1.40625q-1.59375 -1.421875 -1.59375 -3.59375q0 -2.640625 2.0 -4.09375q2.015625 -1.46875 5.65625 -1.46875l2.8125 0l0 -1.328125q0 -1.515625 -0.90625 -2.40625q-0.90625 -0.90625 -2.671875 -0.90625q-1.546875 0 -2.59375 0.78125q-1.046875 0.78125 -1.046875 1.890625l-2.90625 0q0 -1.265625 0.890625 -2.4375q0.90625 -1.1875 2.4375 -1.875q1.546875 -0.6875 3.390625 -0.6875q2.921875 0 4.578125 1.46875q1.65625 1.453125 1.71875 4.015625l0 7.78125q0 2.328125 0.59375 3.703125l0 0.25l-3.03125 0zm-4.796875 -2.203125q1.359375 0 2.578125 -0.703125q1.21875 -0.703125 1.765625 -1.828125l0 -3.46875l-2.265625 0q-5.3125 0 -5.3125 3.109375q0 1.359375 0.90625 2.125q0.90625 0.765625 2.328125 0.765625zm14.90625 2.203125l-2.890625 0l0 -24.0l2.890625 0l0 24.0zm11.640625 0.3125q-3.4375 0 -5.59375 -2.25q-2.15625 -2.265625 -2.15625 -6.046875l0 -0.53125q0 -2.515625 0.953125 -4.484375q0.96875 -1.984375 2.6875 -3.09375q1.734375 -1.125 3.75 -1.125q3.296875 0 5.125 2.171875q1.828125 2.171875 1.828125 6.21875l0 1.203125l-11.453125 0q0.0625 2.5 1.453125 4.046875q1.40625 1.53125 3.5625 1.53125q1.53125 0 2.59375 -0.625q1.0625 -0.625 1.859375 -1.65625l1.765625 1.375q-2.125 3.265625 -6.375 3.265625zm-0.359375 -15.15625q-1.75 0 -2.9375 1.28125q-1.1875 1.265625 -1.46875 3.5625l8.46875 0l0 -0.21875q-0.125 -2.203125 -1.1875 -3.40625q-1.0625 -1.21875 -2.875 -1.21875zm13.03125 -2.0625l0.09375 2.125q1.9375 -2.4375 5.0625 -2.4375q5.359375 0 5.40625 6.046875l0 11.171875l-2.890625 0l0 -11.1875q-0.015625 -1.828125 -0.84375 -2.703125q-0.8125 -0.875 -2.546875 -0.875q-1.40625 0 -2.46875 0.75q-1.0625 0.75 -1.65625 1.96875l0 12.046875l-2.890625 0l0 -16.90625l2.734375 0zm18.843689 -4.09375l0 4.09375l3.15625 0l0 2.234375l-3.15625 0l0 10.484375q0 1.015625 0.421875 1.53125q0.421875 0.5 1.4375 0.5q0.5 0 1.375 -0.1875l0 2.34375q-1.140625 0.3125 -2.21875 0.3125q-1.9375 0 -2.921875 -1.171875q-0.98431396 -1.171875 -0.98431396 -3.328125l0 -10.484375l-3.078125 0l0 -2.234375l3.078125 0l0 -4.09375l2.890564 0zm17.90625 12.09375l0 8.90625l-3.0 0l0 -22.75l8.390625 0q3.734375 0 5.84375 1.90625q2.125 1.90625 2.125 5.046875q0 3.3125 -2.078125 5.109375q-2.0625 1.78125 -5.921875 1.78125l-5.359375 0zm0 -2.453125l5.390625 0q2.40625 0 3.6875 -1.125q1.28125 -1.140625 1.28125 -3.28125q0 -2.03125 -1.28125 -3.25q-1.28125 -1.21875 -3.515625 -1.265625l-5.5625 0l0 8.921875zm15.765625 2.75q0 -2.484375 0.96875 -4.46875q0.984375 -1.984375 2.71875 -3.0625q1.75 -1.078125 3.984375 -1.078125q3.453125 0 5.578125 2.390625q2.140625 2.390625 2.140625 6.359375l0 0.203125q0 2.46875 -0.953125 4.4375q-0.9375 1.953125 -2.703125 3.046875q-1.75 1.09375 -4.03125 1.09375q-3.4375 0 -5.578125 -2.390625q-2.125 -2.390625 -2.125 -6.328125l0 -0.203125zm2.90625 0.34375q0 2.8125 1.296875 4.515625q1.3125 1.703125 3.5 1.703125q2.203125 0 3.5 -1.71875q1.296875 -1.734375 1.296875 -4.84375q0 -2.78125 -1.328125 -4.5q-1.3125 -1.734375 -3.5 -1.734375q-2.140625 0 -3.453125 1.703125q-1.3125 1.703125 -1.3125 4.875zm15.34375 -0.34375q0 -2.484375 0.96875 -4.46875q0.984375 -1.984375 2.71875 -3.0625q1.75 -1.078125 3.984375 -1.078125q3.453125 0 5.578125 2.390625q2.140625 2.390625 2.140625 6.359375l0 0.203125q0 2.46875 -0.953125 4.4375q-0.9375 1.953125 -2.703125 3.046875q-1.75 1.09375 -4.03125 1.09375q-3.4375 0 -5.578125 -2.390625q-2.125 -2.390625 -2.125 -6.328125l0 -0.203125zm2.90625 0.34375q0 2.8125 1.296875 4.515625q1.3125 1.703125 3.5 1.703125q2.203125 0 3.5 -1.71875q1.296875 -1.734375 1.296875 -4.84375q0 -2.78125 -1.328125 -4.5q-1.3125 -1.734375 -3.5 -1.734375q-2.140625 0 -3.453125 1.703125q-1.3125 1.703125 -1.3125 4.875zm19.25 8.265625l-2.890625 0l0 -24.0l2.890625 0l0 24.0z" fill-rule="nonzero"/>
    <path fill="#000000" fill-opacity="0.0" d="m105.22184 227.22943l0 0c0 -11.81131 9.574951 -21.386261 21.386253 -21.386261l285.19598 0c5.671997 0 11.111664 2.253189 15.1223755 6.2638855c4.0107117 4.0107117 6.2638855 9.450378 6.2638855 15.1223755l0 85.54245c0 11.81131 -9.574951 21.386261 -21.386261 21.386261l-285.19598 0l0 0c-11.811302 0 -21.386253 -9.574951 -21.386253 -21.386261z" fill-rule="evenodd"/>
    <path stroke="#48ffd5" stroke-width="1.0" stroke-linejoin="round" stroke-linecap="butt" d="m105.22184 227.22943l0 0c0 -11.81131 9.574951 -21.386261 21.386253 -21.386261l285.19598 0c5.671997 0 11.111664 2.253189 15.1223755 6.2638855c4.0107117 4.0107117 6.2638855 9.450378 6.2638855 15.1223755l0 85.54245c0 11.81131 -9.574951 21.386261 -21.386261 21.386261l-285.19598 0l0 0c-11.811302 0 -21.386253 -9.574951 -21.386253 -21.386261z" fill-rule="evenodd"/>
    <path fill="#5f7d95" d="m151.21193 236.14406c-3.143982 0 -5.6907196 2.5465393 -5.6907196 5.6869354c0 3.133667 2.5467377 5.6802063 5.6907196 5.6802063c3.1305695 0 5.677307 -2.5465393 5.677307 -5.6802063c0 -3.140396 -2.5467377 -5.6869354 -5.677307 -5.6869354z" fill-rule="evenodd"/>
    <path fill="#5f7d95" d="m143.63213 251.29913c-4.1808014 0 -7.5764465 3.5262299 -7.5764465 7.7066956l0 11.367157c0 1.9929199 1.3857727 3.7107544 3.7077026 3.7107544c0.5972595 0 1.2549133 -0.11407471 1.9696045 -0.36572266l0 23.297943c0 2.0902405 1.697815 3.7879333 3.7882233 3.7879333c2.0937653 0 3.7915802 -1.6976929 3.7915802 -3.7879333l0 -13.386902c0 -1.0501709 0.84555054 -1.8889465 1.8991394 -1.8889465c1.0401764 0 1.8890839 0.83877563 1.8890839 1.8889465l0 13.386902c0 2.0902405 1.6978302 3.7879333 3.7882233 3.7879333c2.0904083 0 3.7882233 -1.6976929 3.7882233 -3.7879333l0 -23.297943c0.7147064 0.25164795 1.3757172 0.36572266 1.9729614 0.36572266c2.32193 0 3.7177734 -1.7178345 3.7177734 -3.7107544l0 -11.367157c0 -4.1804657 -3.405716 -7.7066956 -7.5798035 -7.7066956z" fill-rule="evenodd"/>
    <path fill="#48ffd5" d="m209.70341 236.14406c-3.1439972 0 -5.690735 2.5465393 -5.690735 5.6869354c0 3.133667 2.5467377 5.6802063 5.690735 5.6802063c3.1305695 0 5.677292 -2.5465393 5.677292 -5.6802063c0 -3.140396 -2.5467224 -5.6869354 -5.677292 -5.6869354z" fill-rule="evenodd"/>
    <path fill="#48ffd5" d="m202.1236 251.29913c-4.1808014 0 -7.5764465 3.5262299 -7.5764465 7.7066956l0 11.367157c0 1.9929199 1.3857727 3.7107544 3.7077026 3.7107544c0.5972595 0 1.2549133 -0.11407471 1.9696045 -0.36572266l0 23.297943c0 2.0902405 1.6978302 3.7879333 3.7882233 3.7879333c2.0937653 0 3.7915802 -1.6976929 3.7915802 -3.7879333l0 -13.386902c0 -1.0501709 0.8455658 -1.8889465 1.8991547 -1.8889465c1.0401611 0 1.8890686 0.83877563 1.8890686 1.8889465l0 13.386902c0 2.0902405 1.6978302 3.7879333 3.7882233 3.7879333c2.0904083 0 3.7882233 -1.6976929 3.7882233 -3.7879333l0 -23.297943c0.7147064 0.25164795 1.3757172 0.36572266 1.9729767 0.36572266c2.3219147 0 3.7177582 -1.7178345 3.7177582 -3.7107544l0 -11.367157c0 -4.1804657 -3.405716 -7.7066956 -7.5798035 -7.7066956z" fill-rule="evenodd"/>
    <path fill="#48ffd5" d="m268.1949 236.14406c-3.143982 0 -5.690735 2.5465393 -5.690735 5.6869354c0 3.133667 2.546753 5.6802063 5.690735 5.6802063c3.1305542 0 5.677307 -2.5465393 5.677307 -5.6802063c0 -3.140396 -2.546753 -5.6869354 -5.677307 -5.6869354z" fill-rule="evenodd"/>
    <path fill="#48ffd5" d="m260.61508 251.29913c-4.1808167 0 -7.576462 3.5262299 -7.576462 7.7066956l0 11.367157c0 1.9929199 1.3857727 3.7107544 3.707718 3.7107544c0.597229 0 1.2548828 -0.11407471 1.9696045 -0.36572266l0 23.297943c0 2.0902405 1.697815 3.7879333 3.788208 3.7879333c2.09375 0 3.7915955 -1.6976929 3.7915955 -3.7879333l0 -13.386902c0 -1.0501709 0.84555054 -1.8889465 1.8991394 -1.8889465c1.0401611 0 1.8890686 0.83877563 1.8890686 1.8889465l0 13.386902c0 2.0902405 1.697815 3.7879333 3.7882385 3.7879333c2.090393 0 3.788208 -1.6976929 3.788208 -3.7879333l0 -23.297943c0.71469116 0.25164795 1.3757019 0.36572266 1.9729614 0.36572266c2.32193 0 3.7177734 -1.7178345 3.7177734 -3.7107544l0 -11.367157c0 -4.1804657 -3.4057007 -7.7066956 -7.5798035 -7.7066956z" fill-rule="evenodd"/>
    <path fill="#48ffd5" d="m385.17783 236.14355c-3.143982 0 -5.690735 2.5465393 -5.690735 5.68692c0 3.1336823 2.546753 5.6802216 5.690735 5.6802216c3.1305847 0 5.677307 -2.5465393 5.677307 -5.6802216c0 -3.1403809 -2.5467224 -5.68692 -5.677307 -5.68692z" fill-rule="evenodd"/>
    <path fill="#48ffd5" d="m377.59802 251.29863c-4.1808167 0 -7.5764465 3.5262146 -7.5764465 7.706711l0 11.367126c0 1.9929504 1.3857727 3.7107544 3.7077026 3.7107544c0.5972595 0 1.2549133 -0.11407471 1.9696045 -0.36569214l0 23.297943c0 2.0902405 1.697815 3.7879028 3.788208 3.7879028c2.0937805 0 3.7915955 -1.6976624 3.7915955 -3.7879028l0 -13.386932c0 -1.0501404 0.84555054 -1.888916 1.8991394 -1.888916c1.0401611 0 1.8890686 0.83877563 1.8890686 1.888916l0 13.386932c0 2.0902405 1.6978455 3.7879028 3.7882385 3.7879028c2.090393 0 3.788208 -1.6976624 3.788208 -3.7879028l0 -23.297943c0.7147217 0.25161743 1.3757324 0.36569214 1.972992 0.36569214c2.3218994 0 3.717743 -1.717804 3.717743 -3.7107544l0 -11.367126c0 -4.180496 -3.4057007 -7.706711 -7.5798035 -7.706711z" fill-rule="evenodd"/>
    <path fill="#48ffd5" d="m326.68634 236.14355c-3.143982 0 -5.6907043 2.5465393 -5.6907043 5.68692c0 3.1336823 2.5467224 5.6802216 5.6907043 5.6802216c3.1305847 0 5.677307 -2.5465393 5.677307 -5.6802216c0 -3.1403809 -2.5467224 -5.68692 -5.677307 -5.68692z" fill-rule="evenodd"/>
    <path fill="#48ffd5" d="m319.10654 251.29863c-4.180786 0 -7.5764465 3.5262146 -7.5764465 7.706711l0 11.367126c0 1.9929504 1.3857727 3.7107544 3.7077026 3.7107544c0.5972595 0 1.2549133 -0.11407471 1.9696045 -0.36569214l0 23.297943c0 2.0902405 1.697815 3.7879028 3.7882385 3.7879028c2.09375 0 3.791565 -1.6976624 3.791565 -3.7879028l0 -13.386932c0 -1.0501404 0.84555054 -1.888916 1.8991394 -1.888916c1.0401917 0 1.8890991 0.83877563 1.8890991 1.888916l0 13.386932c0 2.0902405 1.697815 3.7879028 3.788208 3.7879028c2.0904236 0 3.7882385 -1.6976624 3.7882385 -3.7879028l0 -23.297943c0.71469116 0.25161743 1.3757019 0.36569214 1.9729614 0.36569214c2.32193 0 3.7177734 -1.717804 3.7177734 -3.7107544l0 -11.367126c0 -4.180496 -3.4057312 -7.706711 -7.5798035 -7.706711z" fill-rule="evenodd"/>
    <path fill="#000000" fill-opacity="0.0" d="m43.249344 334.02423l0 -128.06299l64.62992 0l0 128.06299z" fill-rule="evenodd"/>
    <path fill="#48ffd5" d="m62.688095 291.60992l0 7.3125l20.28125 0l0 2.984375l-20.28125 0l0 7.296875l-2.46875 0l0 -17.59375l2.46875 0zm20.59375 -8.390625q0 3.4375 -2.25 5.59375q-2.265625 2.15625 -6.046875 2.15625l-0.53125 0q-2.515625 0 -4.484375 -0.953125q-1.984375 -0.96875 -3.09375 -2.6875q-1.125 -1.734375 -1.125 -3.75q0 -3.296875 2.171875 -5.125q2.171875 -1.828125 6.21875 -1.828125l1.203125 0l0 11.453125q2.5 -0.0625 4.046875 -1.453125q1.53125 -1.40625 1.53125 -3.5625q0 -1.53125 -0.625 -2.59375q-0.625 -1.0625 -1.65625 -1.859375l1.375 -1.765625q3.265625 2.125 3.265625 6.375zm-15.15625 0.359375q0 1.75 1.28125 2.9375q1.265625 1.1875 3.5625 1.46875l0 -8.46875l-0.21875 0q-2.203125 0.125 -3.40625 1.1875q-1.21875 1.0625 -1.21875 2.875zm14.84375 -20.734375q-0.5 0.25 -1.78125 0.40625q2.09375 2.015625 2.09375 4.8125q0 2.5 -1.40625 4.109375q-1.421875 1.59375 -3.59375 1.59375q-2.640625 0 -4.09375 -2.0q-1.46875 -2.015625 -1.46875 -5.65625l0 -2.8125l-1.328125 0q-1.515625 0 -2.40625 0.90625q-0.90625 0.90625 -0.90625 2.671875q0 1.546875 0.78125 2.59375q0.78125 1.046875 1.890625 1.046875l0 2.90625q-1.265625 0 -2.4375 -0.890625q-1.1875 -0.90625 -1.875 -2.4375q-0.6875 -1.546875 -0.6875 -3.390625q0 -2.921875 1.46875 -4.578125q1.453125 -1.65625 4.015625 -1.71875l7.78125 0q2.328125 0 3.703125 -0.59375l0.25 0l0 3.03125zm-2.203125 4.796875q0 -1.359375 -0.703125 -2.578125q-0.703125 -1.21875 -1.828125 -1.765625l-3.46875 0l0 2.265625q0 5.3125 3.109375 5.3125q1.359375 0 2.125 -0.90625q0.765625 -0.90625 0.765625 -2.328125zm-14.703125 -14.484375l1.875 -0.078125q-2.1875 -1.859375 -2.1875 -5.015625q0 -3.546875 2.71875 -4.828125q-1.21875 -0.84375 -1.96875 -2.1875q-0.75 -1.359375 -0.75 -3.203125q0 -5.5625 5.890625 -5.65625l11.328125 0l0 2.890625l-11.15625 0q-1.8125 0 -2.703125 0.828125q-0.90625 0.828125 -0.90625 2.78125q0 1.609375 0.96875 2.671875q0.953125 1.0625 2.578125 1.234375l11.21875 0l0 2.90625l-11.078125 0q-3.6875 0 -3.6875 3.609375q0 2.84375 2.421875 3.890625l12.34375 0l0 2.890625l-16.90625 0l0 -2.734375z" fill-rule="nonzero"/>
    <path fill="#000000" fill-opacity="0.0" d="m105.22184 389.80093l0 0c0 -11.811279 9.574951 -21.38623 21.386253 -21.38623l285.19598 0c5.671997 0 11.111664 2.2531738 15.1223755 6.2638855c4.0107117 4.010681 6.2638855 9.450378 6.2638855 15.122345l0 85.54245c0 11.81131 -9.574951 21.386261 -21.386261 21.386261l-285.19598 0l0 0c-11.811302 0 -21.386253 -9.574951 -21.386253 -21.386261z" fill-rule="evenodd"/>
    <path stroke="#48ffd5" stroke-width="1.0" stroke-linejoin="round" stroke-linecap="butt" d="m105.22184 389.80093l0 0c0 -11.811279 9.574951 -21.38623 21.386253 -21.38623l285.19598 0c5.671997 0 11.111664 2.2531738 15.1223755 6.2638855c4.0107117 4.010681 6.2638855 9.450378 6.2638855 15.122345l0 85.54245c0 11.81131 -9.574951 21.386261 -21.386261 21.386261l-285.19598 0l0 0c-11.811302 0 -21.386253 -9.574951 -21.386253 -21.386261z" fill-rule="evenodd"/>
    <path fill="#5f7d95" d="m151.21193 398.71558c-3.143982 0 -5.6907196 2.5465393 -5.6907196 5.68692c0 3.1336975 2.5467377 5.680237 5.6907196 5.680237c3.1305695 0 5.677307 -2.5465393 5.677307 -5.680237c0 -3.1403809 -2.5467377 -5.68692 -5.677307 -5.68692z" fill-rule="evenodd"/>
    <path fill="#5f7d95" d="m143.63213 413.87064c-4.1808014 0 -7.5764465 3.526245 -7.5764465 7.706726l0 11.367126c0 1.9929504 1.3857727 3.7107544 3.7077026 3.7107544c0.5972595 0 1.2549133 -0.11407471 1.9696045 -0.36569214l0 23.297943c0 2.0902405 1.697815 3.7879333 3.7882233 3.7879333c2.0937653 0 3.7915802 -1.6976929 3.7915802 -3.7879333l0 -13.386932c0 -1.0501404 0.84555054 -1.888916 1.8991394 -1.888916c1.0401764 0 1.8890839 0.83877563 1.8890839 1.888916l0 13.386932c0 2.0902405 1.6978302 3.7879333 3.7882233 3.7879333c2.0904083 0 3.7882233 -1.6976929 3.7882233 -3.7879333l0 -23.297943c0.7147064 0.25161743 1.3757172 0.36569214 1.9729614 0.36569214c2.32193 0 3.7177734 -1.717804 3.7177734 -3.7107544l0 -11.367126c0 -4.180481 -3.405716 -7.706726 -7.5798035 -7.706726z" fill-rule="evenodd"/>
    <path fill="#48ffd5" d="m209.70341 398.71558c-3.1439972 0 -5.690735 2.5465393 -5.690735 5.68692c0 3.1336975 2.5467377 5.680237 5.690735 5.680237c3.1305695 0 5.677292 -2.5465393 5.677292 -5.680237c0 -3.1403809 -2.5467224 -5.68692 -5.677292 -5.68692z" fill-rule="evenodd"/>
    <path fill="#48ffd5" d="m202.1236 413.87064c-4.1808014 0 -7.5764465 3.526245 -7.5764465 7.706726l0 11.367126c0 1.9929504 1.3857727 3.7107544 3.7077026 3.7107544c0.5972595 0 1.2549133 -0.11407471 1.9696045 -0.36569214l0 23.297943c0 2.0902405 1.6978302 3.7879333 3.7882233 3.7879333c2.0937653 0 3.7915802 -1.6976929 3.7915802 -3.7879333l0 -13.386932c0 -1.0501404 0.8455658 -1.888916 1.8991547 -1.888916c1.0401611 0 1.8890686 0.83877563 1.8890686 1.888916l0 13.386932c0 2.0902405 1.6978302 3.7879333 3.7882233 3.7879333c2.0904083 0 3.7882233 -1.6976929 3.7882233 -3.7879333l0 -23.297943c0.7147064 0.25161743 1.3757172 0.36569214 1.9729767 0.36569214c2.3219147 0 3.7177582 -1.717804 3.7177582 -3.7107544l0 -11.367126c0 -4.180481 -3.405716 -7.706726 -7.5798035 -7.706726z" fill-rule="evenodd"/>
    <path fill="#48ffd5" d="m268.1949 398.71558c-3.143982 0 -5.690735 2.5465393 -5.690735 5.68692c0 3.1336975 2.546753 5.680237 5.690735 5.680237c3.1305542 0 5.677307 -2.5465393 5.677307 -5.680237c0 -3.1403809 -2.546753 -5.68692 -5.677307 -5.68692z" fill-rule="evenodd"/>
    <path fill="#48ffd5" d="m260.61508 413.87064c-4.1808167 0 -7.576462 3.526245 -7.576462 7.706726l0 11.367126c0 1.9929504 1.3857727 3.7107544 3.707718 3.7107544c0.597229 0 1.2548828 -0.11407471 1.9696045 -0.36569214l0 23.297943c0 2.0902405 1.697815 3.7879333 3.788208 3.7879333c2.09375 0 3.7915955 -1.6976929 3.7915955 -3.7879333l0 -13.386932c0 -1.0501404 0.84555054 -1.888916 1.8991394 -1.888916c1.0401611 0 1.8890686 0.83877563 1.8890686 1.888916l0 13.386932c0 2.0902405 1.697815 3.7879333 3.7882385 3.7879333c2.090393 0 3.788208 -1.6976929 3.788208 -3.7879333l0 -23.297943c0.71469116 0.25161743 1.3757019 0.36569214 1.9729614 0.36569214c2.32193 0 3.7177734 -1.717804 3.7177734 -3.7107544l0 -11.367126c0 -4.180481 -3.4057007 -7.706726 -7.5798035 -7.706726z" fill-rule="evenodd"/>
    <path fill="#48ffd5" d="m385.17783 398.7151c-3.143982 0 -5.690735 2.5465088 -5.690735 5.68692c0 3.133667 2.546753 5.6802063 5.690735 5.6802063c3.1305847 0 5.677307 -2.5465393 5.677307 -5.6802063c0 -3.1404114 -2.5467224 -5.68692 -5.677307 -5.68692z" fill-rule="evenodd"/>
    <path fill="#48ffd5" d="m377.59802 413.87015c-4.1808167 0 -7.5764465 3.5262146 -7.5764465 7.7066956l0 11.367157c0 1.9929199 1.3857727 3.7107544 3.7077026 3.7107544c0.5972595 0 1.2549133 -0.11407471 1.9696045 -0.36572266l0 23.297943c0 2.0902405 1.697815 3.7879333 3.788208 3.7879333c2.0937805 0 3.7915955 -1.6976929 3.7915955 -3.7879333l0 -13.386902c0 -1.0501709 0.84555054 -1.8889465 1.8991394 -1.8889465c1.0401611 0 1.8890686 0.83877563 1.8890686 1.8889465l0 13.386902c0 2.0902405 1.6978455 3.7879333 3.7882385 3.7879333c2.090393 0 3.788208 -1.6976929 3.788208 -3.7879333l0 -23.297943c0.7147217 0.25164795 1.3757324 0.36572266 1.972992 0.36572266c2.3218994 0 3.717743 -1.7178345 3.717743 -3.7107544l0 -11.367157c0 -4.180481 -3.4057007 -7.7066956 -7.5798035 -7.7066956z" fill-rule="evenodd"/>
    <path fill="#48ffd5" d="m326.68634 398.7151c-3.143982 0 -5.6907043 2.5465088 -5.6907043 5.68692c0 3.133667 2.5467224 5.6802063 5.6907043 5.6802063c3.1305847 0 5.677307 -2.5465393 5.677307 -5.6802063c0 -3.1404114 -2.5467224 -5.68692 -5.677307 -5.68692z" fill-rule="evenodd"/>
    <path fill="#48ffd5" d="m319.10654 413.87015c-4.180786 0 -7.5764465 3.5262146 -7.5764465 7.7066956l0 11.367157c0 1.9929199 1.3857727 3.7107544 3.7077026 3.7107544c0.5972595 0 1.2549133 -0.11407471 1.9696045 -0.36572266l0 23.297943c0 2.0902405 1.697815 3.7879333 3.7882385 3.7879333c2.09375 0 3.791565 -1.6976929 3.791565 -3.7879333l0 -13.386902c0 -1.0501709 0.84555054 -1.8889465 1.8991394 -1.8889465c1.0401917 0 1.8890991 0.83877563 1.8890991 1.8889465l0 13.386902c0 2.0902405 1.697815 3.7879333 3.788208 3.7879333c2.0904236 0 3.7882385 -1.6976929 3.7882385 -3.7879333l0 -23.297943c0.71469116 0.25164795 1.3757019 0.36572266 1.9729614 0.36572266c2.32193 0 3.7177734 -1.7178345 3.7177734 -3.7107544l0 -11.367157c0 -4.180481 -3.4057312 -7.7066956 -7.5798035 -7.7066956z" fill-rule="evenodd"/>
    <path fill="#000000" fill-opacity="0.0" d="m43.249344 496.59576l0 -128.06299l64.62992 0l0 128.06299z" fill-rule="evenodd"/>
    <path fill="#48ffd5" d="m62.688095 454.18146l0 7.3125l20.28125 0l0 2.984375l-20.28125 0l0 7.296875l-2.46875 0l0 -17.59375l2.46875 0zm20.59375 -8.390625q0 3.4375 -2.25 5.59375q-2.265625 2.15625 -6.046875 2.15625l-0.53125 0q-2.515625 0 -4.484375 -0.953125q-1.984375 -0.96875 -3.09375 -2.6875q-1.125 -1.734375 -1.125 -3.75q0 -3.296875 2.171875 -5.125q2.171875 -1.828125 6.21875 -1.828125l1.203125 0l0 11.453125q2.5 -0.0625 4.046875 -1.453125q1.53125 -1.40625 1.53125 -3.5625q0 -1.53125 -0.625 -2.59375q-0.625 -1.0625 -1.65625 -1.859375l1.375 -1.765625q3.265625 2.125 3.265625 6.375zm-15.15625 0.359375q0 1.75 1.28125 2.9375q1.265625 1.1875 3.5625 1.46875l0 -8.46875l-0.21875 0q-2.203125 0.125 -3.40625 1.1875q-1.21875 1.0625 -1.21875 2.875zm14.84375 -20.734375q-0.5 0.25 -1.78125 0.40625q2.09375 2.015625 2.09375 4.8125q0 2.5 -1.40625 4.109375q-1.421875 1.59375 -3.59375 1.59375q-2.640625 0 -4.09375 -2.0q-1.46875 -2.015625 -1.46875 -5.65625l0 -2.8125l-1.328125 0q-1.515625 0 -2.40625 0.90625q-0.90625 0.90625 -0.90625 2.671875q0 1.546875 0.78125 2.59375q0.78125 1.046875 1.890625 1.046875l0 2.90625q-1.265625 0 -2.4375 -0.890625q-1.1875 -0.90625 -1.875 -2.4375q-0.6875 -1.546875 -0.6875 -3.390625q0 -2.921875 1.46875 -4.578125q1.453125 -1.65625 4.015625 -1.71875l7.78125 0q2.328125 0 3.703125 -0.59375l0.25 0l0 3.03125zm-2.203125 4.796875q0 -1.359375 -0.703125 -2.578125q-0.703125 -1.21875 -1.828125 -1.765625l-3.46875 0l0 2.265625q0 5.3125 3.109375 5.3125q1.359375 0 2.125 -0.90625q0.765625 -0.90625 0.765625 -2.328125zm-14.703125 -14.484375l1.875 -0.078125q-2.1875 -1.859375 -2.1875 -5.015625q0 -3.546875 2.71875 -4.828125q-1.21875 -0.84375 -1.96875 -2.1875q-0.75 -1.359375 -0.75 -3.203125q0 -5.5625 5.890625 -5.65625l11.328125 0l0 2.890625l-11.15625 0q-1.8125 0 -2.703125 0.828125q-0.90625 0.828125 -0.90625 2.78125q0 1.609375 0.96875 2.671875q0.953125 1.0625 2.578125 1.234375l11.21875 0l0 2.90625l-11.078125 0q-3.6875 0 -3.6875 3.609375q0 2.84375 2.421875 3.890625l12.34375 0l0 2.890625l-16.90625 0l0 -2.734375z" fill-rule="nonzero"/>
    <path fill="#000000" fill-opacity="0.0" d="m433.19034 107.42913c47.87903 0 71.81711 40.55906 95.758026 81.11811c23.940979 40.55905 47.884766 81.1181 95.76953 81.1181" fill-rule="evenodd"/>
    <path stroke="#48ffd5" stroke-width="2.0" stroke-linejoin="round" stroke-linecap="butt" stroke-dasharray="8.0,6.0" d="m433.19034 107.42913c47.878998 0 71.81708 40.55906 95.758026 81.11811c11.970459 20.279526 23.94165 40.55905 38.905823 55.768707c7.4821167 7.6048126 15.712402 13.942169 25.065002 18.378326c4.6763306 2.2180786 9.633179 3.9608154 14.917358 5.1490784c1.321106 0.2970581 2.6625977 0.55947876 4.0252686 0.7859802l0.88946533 0.14144897" fill-rule="evenodd"/>
    <path fill="#48ffd5" stroke="#48ffd5" stroke-width="2.0" stroke-linecap="butt" d="m612.505 272.06503l9.297241 -2.6176453l-8.8046875 -3.9708862z" fill-rule="evenodd"/>
    <path fill="#000000" fill-opacity="0.0" d="m433.19034 270.00064c47.87903 0 71.81711 -0.07873535 95.758026 -0.1574707c23.940979 -0.07873535 47.884766 -0.1574707 95.76953 -0.1574707" fill-rule="evenodd"/>
    <path stroke="#48ffd5" stroke-width="2.0" stroke-linejoin="round" stroke-linecap="butt" stroke-dasharray="8.0,6.0" d="m433.19034 270.00067c47.878998 0 71.81708 -0.07876587 95.758026 -0.15750122c11.970459 -0.039367676 23.94165 -0.07873535 38.905823 -0.10827637c7.4821167 -0.01473999 15.712402 -0.027038574 25.065002 -0.03567505c4.6763306 -0.0043029785 9.633179 -0.0076904297 14.917358 -0.010009766l4.8813477 -9.765625E-4" fill-rule="evenodd"/>
    <path fill="#48ffd5" stroke="#48ffd5" stroke-width="2.0" stroke-linecap="butt" d="m612.71857 272.99167l9.0755005 -3.305359l-9.076843 -3.3015747z" fill-rule="evenodd"/>
    <path fill="#000000" fill-opacity="0.0" d="m433.19034 432.57217c47.87903 0 71.81711 -40.724396 95.758026 -81.44882c23.940979 -40.724396 47.884766 -81.44882 95.76953 -81.44882" fill-rule="evenodd"/>
    <path stroke="#48ffd5" stroke-width="2.0" stroke-linejoin="round" stroke-linecap="butt" stroke-dasharray="8.0,6.0" d="m433.19034 432.57217c47.878998 0 71.81708 -40.724396 95.758026 -81.44882c11.970459 -20.362183 23.94165 -40.724396 38.905823 -55.996063c7.4821167 -7.6358337 15.712402 -13.998993 25.065002 -18.453247c4.6763306 -2.2271118 9.633179 -3.9769897 14.917358 -5.1700745c1.321106 -0.2982788 2.6625977 -0.56173706 4.0252686 -0.7891846l0.8897705 -0.14205933" fill-rule="evenodd"/>
    <path fill="#48ffd5" stroke="#48ffd5" stroke-width="2.0" stroke-linecap="butt" d="m612.99884 273.86694l8.803467 -3.9735718l-9.298035 -2.6148376z" fill-rule="evenodd"/>
    <path fill="#48ffd5" d="m672.59955 140.01672c-3.143982 0 -5.690735 2.5465393 -5.690735 5.68692c0 3.1336823 2.546753 5.6802216 5.690735 5.6802216c3.1305542 0 5.677307 -2.5465393 5.677307 -5.6802216c0 -3.1403809 -2.546753 -5.68692 -5.677307 -5.68692z" fill-rule="evenodd"/>
    <path fill="#48ffd5" d="m665.0197 155.17178c-4.180786 0 -7.576416 3.5262299 -7.576416 7.706711l0 11.367142c0 1.9929352 1.3857422 3.7107544 3.7077026 3.7107544c0.597229 0 1.2548828 -0.11407471 1.9696045 -0.3657074l0 23.297943c0 2.0902405 1.697815 3.7879333 3.788208 3.7879333c2.09375 0 3.791565 -1.6976929 3.791565 -3.7879333l0 -13.386917c0 -1.0501556 0.84558105 -1.8889313 1.8991699 -1.8889313c1.0401611 0 1.8890381 0.83877563 1.8890381 1.8889313l0 13.386917c0 2.0902405 1.697876 3.7879333 3.788269 3.7879333c2.090393 0 3.788208 -1.6976929 3.788208 -3.7879333l0 -23.297943c0.7147217 0.2516327 1.3757324 0.3657074 1.9729614 0.3657074c2.3218994 0 3.7177734 -1.7178192 3.7177734 -3.7107544l0 -11.367142c0 -4.180481 -3.4057007 -7.706711 -7.579834 -7.706711z" fill-rule="evenodd"/>
    <path fill="#48ffd5" d="m731.0877 238.16107c-3.143982 0 -5.690735 2.5465393 -5.690735 5.6869354c0 3.1336823 2.546753 5.6802063 5.690735 5.6802063c3.1306152 0 5.677307 -2.546524 5.677307 -5.6802063c0 -3.140396 -2.546692 -5.6869354 -5.677307 -5.6869354z" fill-rule="evenodd"/>
    <path fill="#48ffd5" d="m723.50793 253.31615c-4.180847 0 -7.576477 3.5262299 -7.576477 7.706711l0 11.367126c0 1.9929504 1.3858032 3.710785 3.7077026 3.710785c0.59729004 0 1.2549438 -0.11407471 1.9696045 -0.36572266l0 23.297943c0 2.0902405 1.697815 3.7879333 3.788208 3.7879333c2.093811 0 3.791626 -1.6976929 3.791626 -3.7879333l0 -13.386932c0 -1.0501404 0.84552 -1.888916 1.8991089 -1.888916c1.0401611 0 1.8890991 0.83877563 1.8890991 1.888916l0 13.386932c0 2.0902405 1.697815 3.7879333 3.788208 3.7879333c2.090393 0 3.788208 -1.6976929 3.788208 -3.7879333l0 -23.297943c0.7147217 0.25164795 1.3757324 0.36572266 1.9730225 0.36572266c2.3218994 0 3.7177124 -1.7178345 3.7177124 -3.710785l0 -11.367126c0 -4.180481 -3.4057007 -7.706711 -7.579773 -7.706711z" fill-rule="evenodd"/>
    <path fill="#48ffd5" d="m789.57806 238.16107c-3.143982 0 -5.690735 2.5465393 -5.690735 5.6869354c0 3.1336823 2.546753 5.6802063 5.690735 5.6802063c3.1305542 0 5.677307 -2.546524 5.677307 -5.6802063c0 -3.140396 -2.546753 -5.6869354 -5.677307 -5.6869354z" fill-rule="evenodd"/>
    <path fill="#48ffd5" d="m781.9983 253.31615c-4.180847 0 -7.576477 3.5262299 -7.576477 7.706711l0 11.367126c0 1.9929504 1.3858032 3.710785 3.7077026 3.710785c0.597229 0 1.2548828 -0.11407471 1.9696045 -0.36572266l0 23.297943c0 2.0902405 1.697815 3.7879333 3.788208 3.7879333c2.09375 0 3.791565 -1.6976929 3.791565 -3.7879333l0 -13.386932c0 -1.0501404 0.84558105 -1.888916 1.8991699 -1.888916c1.0401611 0 1.8890991 0.83877563 1.8890991 1.888916l0 13.386932c0 2.0902405 1.697815 3.7879333 3.788208 3.7879333c2.090393 0 3.788208 -1.6976929 3.788208 -3.7879333l0 -23.297943c0.7147217 0.25164795 1.3757324 0.36572266 1.9729614 0.36572266c2.3219604 0 3.7177734 -1.7178345 3.7177734 -3.710785l0 -11.367126c0 -4.180481 -3.4057007 -7.706711 -7.579773 -7.706711z" fill-rule="evenodd"/>
    <path fill="#48ffd5" d="m848.0684 238.16107c-3.143982 0 -5.690735 2.5465393 -5.690735 5.6869354c0 3.1336823 2.546753 5.6802063 5.690735 5.6802063c3.1305542 0 5.677307 -2.546524 5.677307 -5.6802063c0 -3.140396 -2.546753 -5.6869354 -5.677307 -5.6869354z" fill-rule="evenodd"/>
    <path fill="#48ffd5" d="m840.4886 253.31615c-4.180786 0 -7.576416 3.5262299 -7.576416 7.706711l0 11.367126c0 1.9929504 1.3857422 3.710785 3.7077026 3.710785c0.597229 0 1.2548828 -0.11407471 1.9696045 -0.36572266l0 23.297943c0 2.0902405 1.697815 3.7879333 3.788208 3.7879333c2.09375 0 3.791565 -1.6976929 3.791565 -3.7879333l0 -13.386932c0 -1.0501404 0.84558105 -1.888916 1.8991699 -1.888916c1.0401611 0 1.8890991 0.83877563 1.8890991 1.888916l0 13.386932c0 2.0902405 1.697815 3.7879333 3.788208 3.7879333c2.090393 0 3.788208 -1.6976929 3.788208 -3.7879333l0 -23.297943c0.7147217 0.25164795 1.3757324 0.36572266 1.9729614 0.36572266c2.3219604 0 3.7177734 -1.7178345 3.7177734 -3.710785l0 -11.367126c0 -4.180481 -3.4057007 -7.706711 -7.579834 -7.706711z" fill-rule="evenodd"/>
    <path fill="#48ffd5" d="m672.59955 238.16107c-3.143982 0 -5.690735 2.5465393 -5.690735 5.6869354c0 3.1336823 2.546753 5.6802063 5.690735 5.6802063c3.1305542 0 5.677307 -2.546524 5.677307 -5.6802063c0 -3.140396 -2.546753 -5.6869354 -5.677307 -5.6869354z" fill-rule="evenodd"/>
    <path fill="#48ffd5" d="m665.0197 253.31615c-4.180786 0 -7.576416 3.5262299 -7.576416 7.706711l0 11.367126c0 1.9929504 1.3857422 3.710785 3.7077026 3.710785c0.597229 0 1.2548828 -0.11407471 1.9696045 -0.36572266l0 23.297943c0 2.0902405 1.697815 3.7879333 3.788208 3.7879333c2.09375 0 3.791565 -1.6976929 3.791565 -3.7879333l0 -13.386932c0 -1.0501404 0.84558105 -1.888916 1.8991699 -1.888916c1.0401611 0 1.8890381 0.83877563 1.8890381 1.888916l0 13.386932c0 2.0902405 1.697876 3.7879333 3.788269 3.7879333c2.090393 0 3.788208 -1.6976929 3.788208 -3.7879333l0 -23.297943c0.7147217 0.25164795 1.3757324 0.36572266 1.9729614 0.36572266c2.3218994 0 3.7177734 -1.7178345 3.7177734 -3.710785l0 -11.367126c0 -4.180481 -3.4057007 -7.706711 -7.579834 -7.706711z" fill-rule="evenodd"/>
    <path fill="#48ffd5" d="m731.0877 336.30545c-3.143982 0 -5.690735 2.5465088 -5.690735 5.68692c0 3.133667 2.546753 5.6802063 5.690735 5.6802063c3.1306152 0 5.677307 -2.5465393 5.677307 -5.6802063c0 -3.1404114 -2.546692 -5.68692 -5.677307 -5.68692z" fill-rule="evenodd"/>
    <path fill="#48ffd5" d="m723.50793 351.4605c-4.180847 0 -7.576477 3.5262146 -7.576477 7.7066956l0 11.367157c0 1.9929199 1.3858032 3.7107544 3.7077026 3.7107544c0.59729004 0 1.2549438 -0.11407471 1.9696045 -0.36572266l0 23.297943c0 2.0902405 1.697815 3.7879333 3.788208 3.7879333c2.093811 0 3.791626 -1.6976929 3.791626 -3.7879333l0 -13.386902c0 -1.0501709 0.84552 -1.8889465 1.8991089 -1.8889465c1.0401611 0 1.8890991 0.83877563 1.8890991 1.8889465l0 13.386902c0 2.0902405 1.697815 3.7879333 3.788208 3.7879333c2.090393 0 3.788208 -1.6976929 3.788208 -3.7879333l0 -23.297943c0.7147217 0.25164795 1.3757324 0.36572266 1.9730225 0.36572266c2.3218994 0 3.7177124 -1.7178345 3.7177124 -3.7107544l0 -11.367157c0 -4.180481 -3.4057007 -7.7066956 -7.579773 -7.7066956z" fill-rule="evenodd"/>
    <path fill="#48ffd5" d="m789.57806 336.30545c-3.143982 0 -5.690735 2.5465088 -5.690735 5.68692c0 3.133667 2.546753 5.6802063 5.690735 5.6802063c3.1305542 0 5.677307 -2.5465393 5.677307 -5.6802063c0 -3.1404114 -2.546753 -5.68692 -5.677307 -5.68692z" fill-rule="evenodd"/>
    <path fill="#48ffd5" d="m781.9983 351.4605c-4.180847 0 -7.576477 3.5262146 -7.576477 7.7066956l0 11.367157c0 1.9929199 1.3858032 3.7107544 3.7077026 3.7107544c0.597229 0 1.2548828 -0.11407471 1.9696045 -0.36572266l0 23.297943c0 2.0902405 1.697815 3.7879333 3.788208 3.7879333c2.09375 0 3.791565 -1.6976929 3.791565 -3.7879333l0 -13.386902c0 -1.0501709 0.84558105 -1.8889465 1.8991699 -1.8889465c1.0401611 0 1.8890991 0.83877563 1.8890991 1.8889465l0 13.386902c0 2.0902405 1.697815 3.7879333 3.788208 3.7879333c2.090393 0 3.788208 -1.6976929 3.788208 -3.7879333l0 -23.297943c0.7147217 0.25164795 1.3757324 0.36572266 1.9729614 0.36572266c2.3219604 0 3.7177734 -1.7178345 3.7177734 -3.7107544l0 -11.367157c0 -4.180481 -3.4057007 -7.7066956 -7.579773 -7.7066956z" fill-rule="evenodd"/>
    <path fill="#48ffd5" d="m848.0684 336.30545c-3.143982 0 -5.690735 2.5465088 -5.690735 5.68692c0 3.133667 2.546753 5.6802063 5.690735 5.6802063c3.1305542 0 5.677307 -2.5465393 5.677307 -5.6802063c0 -3.1404114 -2.546753 -5.68692 -5.677307 -5.68692z" fill-rule="evenodd"/>
    <path fill="#48ffd5" d="m840.4886 351.4605c-4.180786 0 -7.576416 3.5262146 -7.576416 7.7066956l0 11.367157c0 1.9929199 1.3857422 3.7107544 3.7077026 3.7107544c0.597229 0 1.2548828 -0.11407471 1.9696045 -0.36572266l0 23.297943c0 2.0902405 1.697815 3.7879333 3.788208 3.7879333c2.09375 0 3.791565 -1.6976929 3.791565 -3.7879333l0 -13.386902c0 -1.0501709 0.84558105 -1.8889465 1.8991699 -1.8889465c1.0401611 0 1.8890991 0.83877563 1.8890991 1.8889465l0 13.386902c0 2.0902405 1.697815 3.7879333 3.788208 3.7879333c2.090393 0 3.788208 -1.6976929 3.788208 -3.7879333l0 -23.297943c0.7147217 0.25164795 1.3757324 0.36572266 1.9729614 0.36572266c2.3219604 0 3.7177734 -1.7178345 3.7177734 -3.7107544l0 -11.367157c0 -4.180481 -3.4057007 -7.7066956 -7.579834 -7.7066956z" fill-rule="evenodd"/>
    <path fill="#48ffd5" d="m672.59955 336.30545c-3.143982 0 -5.690735 2.5465088 -5.690735 5.68692c0 3.133667 2.546753 5.6802063 5.690735 5.6802063c3.1305542 0 5.677307 -2.5465393 5.677307 -5.6802063c0 -3.1404114 -2.546753 -5.68692 -5.677307 -5.68692z" fill-rule="evenodd"/>
    <path fill="#48ffd5" d="m665.0197 351.4605c-4.180786 0 -7.576416 3.5262146 -7.576416 7.7066956l0 11.367157c0 1.9929199 1.3857422 3.7107544 3.7077026 3.7107544c0.597229 0 1.2548828 -0.11407471 1.9696045 -0.36572266l0 23.297943c0 2.0902405 1.697815 3.7879333 3.788208 3.7879333c2.09375 0 3.791565 -1.6976929 3.791565 -3.7879333l0 -13.386902c0 -1.0501709 0.84558105 -1.8889465 1.8991699 -1.8889465c1.0401611 0 1.8890381 0.83877563 1.8890381 1.8889465l0 13.386902c0 2.0902405 1.697876 3.7879333 3.788269 3.7879333c2.090393 0 3.788208 -1.6976929 3.788208 -3.7879333l0 -23.297943c0.7147217 0.25164795 1.3757324 0.36572266 1.9729614 0.36572266c2.3218994 0 3.7177734 -1.7178345 3.7177734 -3.7107544l0 -11.367157c0 -4.180481 -3.4057007 -7.7066956 -7.579834 -7.7066956z" fill-rule="evenodd"/>
  </g>
</svg>