<?xml version="1.0" encoding="utf-8"?>
<svg version="1.1" viewBox="0.0 0.0 960.0 540.0" fill="none" stroke="none" stroke-linecap="square" stroke-miterlimit="10" xmlns="http://www.w3.org/2000/svg">
  <clipPath id="g7573bcd9e6_0_218.0">
    <path d="m0 0l960.0 0l0 540.0l-960.0 0l0 -540.0z" clip-rule="nonzero"/>
  </clipPath>
  <g clip-path="url(#g7573bcd9e6_0_218.0)">
    <path fill="#000000" fill-opacity="0.0" d="m477.2361 234.2745c44.776886 -103.43831 219.40683 0 0 132.99213c-219.4068 -132.99213 -44.776886 -236.43044 0 -132.99213z" fill-rule="evenodd"/>
    <path stroke="#ffd0d0" stroke-width="2.0" stroke-linejoin="round" stroke-linecap="butt" d="m477.2361 234.2745c44.776886 -103.43831 219.40683 0 0 132.99213c-219.4068 -132.99213 -44.776886 -236.43044 0 -132.99213z" fill-rule="evenodd"/>
    <path fill="#ffd0d0" d="m426.95486 274.03052l0 8.90625l-3.0 0l0 -22.75l8.390625 0q3.734375 0 5.84375 1.90625q2.125 1.90625 2.125 5.046875q0 3.3125 -2.078125 5.109375q-2.0625 1.78125 -5.921875 1.78125l-5.359375 0zm0 -2.453125l5.390625 0q2.40625 0 3.6875 -1.125q1.28125 -1.140625 1.28125 -3.28125q0 -2.03125 -1.28125 -3.25q-1.28125 -1.21875 -3.515625 -1.265625l-5.5625 0l0 8.921875zm24.90625 -2.953125q-0.65625 -0.109375 -1.421875 -0.109375q-2.84375 0 -3.859375 2.421875l0 12.0l-2.890625 0l0 -16.90625l2.8125 0l0.046875 1.953125q1.421875 -2.265625 4.03125 -2.265625q0.84375 0 1.28125 0.21875l0 2.6875zm1.578125 5.703125q0 -2.484375 0.96875 -4.46875q0.984375 -1.984375 2.71875 -3.0625q1.75 -1.078125 3.984375 -1.078125q3.453125 0 5.578125 2.390625q2.140625 2.390625 2.140625 6.359375l0 0.203125q0 2.46875 -0.953125 4.4375q-0.9375 1.953125 -2.703125 3.046875q-1.75 1.09375 -4.03125 1.09375q-3.4375 0 -5.578125 -2.390625q-2.125 -2.390625 -2.125 -6.328125l0 -0.203125zm2.90625 0.34375q0 2.8125 1.296875 4.515625q1.3125 1.703125 3.5 1.703125q2.203125 0 3.5 -1.71875q1.296875 -1.734375 1.296875 -4.84375q0 -2.78125 -1.328125 -4.5q-1.3125 -1.734375 -3.5 -1.734375q-2.140625 0 -3.453125 1.703125q-1.3125 1.703125 -1.3125 4.875zm15.40625 -0.328125q0 -3.890625 1.84375 -6.25q1.84375 -2.375 4.828125 -2.375q2.96875 0 4.703125 2.03125l0 -8.8125l2.890625 0l0 24.0l-2.65625 0l-0.140625 -1.8125q-1.734375 2.125 -4.828125 2.125q-2.9375 0 -4.796875 -2.40625q-1.84375 -2.40625 -1.84375 -6.28125l0 -0.21875zm2.890625 0.328125q0 2.875 1.1875 4.5q1.1875 1.625 3.28125 1.625q2.75 0 4.015625 -2.46875l0 -7.765625q-1.296875 -2.390625 -3.984375 -2.390625q-2.125 0 -3.3125 1.640625q-1.1875 1.640625 -1.1875 4.859375zm26.296875 6.59375q-1.6875 1.984375 -4.953125 1.984375q-2.703125 0 -4.125 -1.5625q-1.40625 -1.578125 -1.421875 -4.65625l0 -11.0l2.890625 0l0 10.921875q0 3.84375 3.125 3.84375q3.3125 0 4.40625 -2.46875l0 -12.296875l2.890625 0l0 16.90625l-2.75 0l-0.0625 -1.671875zm13.9844055 -0.375q1.546875 0 2.703125 -0.9375q1.15625 -0.9375 1.28125 -2.34375l2.734375 0q-0.078125 1.453125 -1.0 2.765625q-0.921875 1.3125 -2.46875 2.09375q-1.53125 0.78125 -3.25 0.78125q-3.4531555 0 -5.5000305 -2.296875q-2.03125 -2.3125 -2.03125 -6.3125l0 -0.484375q0 -2.46875 0.90625 -4.390625q0.90625 -1.921875 2.59375 -2.984375q1.7031555 -1.0625 4.0156555 -1.0625q2.84375 0 4.71875 1.703125q1.890625 1.703125 2.015625 4.421875l-2.734375 0q-0.125 -1.640625 -1.25 -2.6875q-1.109375 -1.0625 -2.75 -1.0625q-2.203125 0 -3.4219055 1.59375q-1.203125 1.578125 -1.203125 4.578125l0 0.546875q0 2.921875 1.203125 4.5q1.2031555 1.578125 3.4375305 1.578125zm13.890625 -18.953125l0 4.09375l3.15625 0l0 2.234375l-3.15625 0l0 10.484375q0 1.015625 0.421875 1.53125q0.421875 0.5 1.4375 0.5q0.5 0 1.375 -0.1875l0 2.34375q-1.140625 0.3125 -2.21875 0.3125q-1.9375 0 -2.921875 -1.171875q-0.984375 -1.171875 -0.984375 -3.328125l0 -10.484375l-3.078125 0l0 -2.234375l3.078125 0l0 -4.09375l2.890625 0z" fill-rule="nonzero"/>
    <path fill="#000000" fill-opacity="0.0" d="m209.14305 70.40058l0 0c0 -8.63089 6.9967194 -15.627609 15.627609 -15.627609l134.13062 0c4.144684 0 8.119629 1.6464767 11.0503845 4.577221c2.930725 2.9307442 4.5772095 6.9056892 4.5772095 11.050388l0 62.508568c0 8.63089 -6.996704 15.627609 -15.627594 15.627609l-134.13062 0c-8.63089 0 -15.627609 -6.9967194 -15.627609 -15.627609z" fill-rule="evenodd"/>
    <path stroke="#48ffd5" stroke-width="1.0" stroke-linejoin="round" stroke-linecap="butt" d="m209.14305 70.40058l0 0c0 -8.63089 6.9967194 -15.627609 15.627609 -15.627609l134.13062 0c4.144684 0 8.119629 1.6464767 11.0503845 4.577221c2.930725 2.9307442 4.5772095 6.9056892 4.5772095 11.050388l0 62.508568c0 8.63089 -6.996704 15.627609 -15.627594 15.627609l-134.13062 0c-8.63089 0 -15.627609 -6.9967194 -15.627609 -15.627609z" fill-rule="evenodd"/>
    <path fill="#48ffd5" d="m249.16019 95.69486l0 -17.0625l4.8125 0q2.234375 0 3.9375 0.984375q1.71875 0.984375 2.640625 2.796875q0.9375 1.8125 0.953125 4.171875l0 1.09375q0 2.40625 -0.9375 4.234375q-0.9375 1.8125 -2.671875 2.78125q-1.71875 0.96875 -4.015625 1.0l-4.71875 0zm2.25 -15.21875l0 13.375l2.359375 0q2.609375 0 4.046875 -1.609375q1.453125 -1.625 1.453125 -4.609375l0 -1.0q0 -2.90625 -1.375 -4.515625q-1.359375 -1.609375 -3.859375 -1.640625l-2.625 0zm18.410156 15.453125q-2.578125 0 -4.203125 -1.6875q-1.609375 -1.703125 -1.609375 -4.53125l0 -0.40625q0 -1.890625 0.71875 -3.359375q0.71875 -1.484375 2.015625 -2.328125q1.296875 -0.84375 2.8125 -0.84375q2.46875 0 3.828125 1.640625q1.375 1.625 1.375 4.65625l0 0.90625l-8.578125 0q0.046875 1.875 1.09375 3.03125q1.046875 1.15625 2.65625 1.15625q1.15625 0 1.953125 -0.46875q0.796875 -0.46875 1.390625 -1.25l1.328125 1.03125q-1.59375 2.453125 -4.78125 2.453125zm-0.265625 -11.375q-1.3125 0 -2.203125 0.96875q-0.890625 0.953125 -1.109375 2.671875l6.359375 0l0 -0.171875q-0.09375 -1.640625 -0.890625 -2.546875q-0.796875 -0.921875 -2.15625 -0.921875zm9.761719 -1.546875l0.046875 1.40625q1.40625 -1.640625 3.765625 -1.640625q2.65625 0 3.625 2.046875q0.625 -0.921875 1.640625 -1.484375q1.015625 -0.5625 2.40625 -0.5625q4.171875 0 4.234375 4.421875l0 8.5l-2.171875 0l0 -8.375q0 -1.359375 -0.625 -2.03125q-0.609375 -0.671875 -2.078125 -0.671875q-1.203125 0 -2.0 0.71875q-0.796875 0.71875 -0.921875 1.9375l0 8.421875l-2.1875 0l0 -8.3125q0 -2.765625 -2.703125 -2.765625q-2.140625 0 -2.921875 1.8125l0 9.265625l-2.171875 0l0 -12.6875l2.0625 0zm26.816406 12.6875q-0.1875 -0.375 -0.296875 -1.34375q-1.515625 1.578125 -3.609375 1.578125q-1.875 0 -3.078125 -1.0625q-1.203125 -1.0625 -1.203125 -2.6875q0 -1.984375 1.5 -3.078125q1.515625 -1.09375 4.234375 -1.09375l2.109375 0l0 -1.0q0 -1.140625 -0.6875 -1.8125q-0.671875 -0.671875 -1.984375 -0.671875q-1.171875 0 -1.953125 0.59375q-0.78125 0.578125 -0.78125 1.40625l-2.1875 0q0 -0.9375 0.671875 -1.828125q0.6875 -0.890625 1.828125 -1.40625q1.15625 -0.515625 2.546875 -0.515625q2.1875 0 3.421875 1.109375q1.25 1.09375 1.296875 3.015625l0 5.828125q0 1.75 0.453125 2.78125l0 0.1875l-2.28125 0zm-3.59375 -1.65625q1.015625 0 1.921875 -0.515625q0.921875 -0.53125 1.328125 -1.375l0 -2.609375l-1.6875 0q-3.984375 0 -3.984375 2.328125q0 1.03125 0.671875 1.609375q0.6875 0.5625 1.75 0.5625zm10.8671875 -11.03125l0.078125 1.59375q1.453125 -1.828125 3.796875 -1.828125q4.015625 0 4.046875 4.546875l0 8.375l-2.15625 0l0 -8.390625q-0.015625 -1.375 -0.640625 -2.03125q-0.609375 -0.65625 -1.90625 -0.65625q-1.0625 0 -1.859375 0.5625q-0.796875 0.5625 -1.234375 1.484375l0 9.03125l-2.171875 0l0 -12.6875l2.046875 0zm10.6640625 6.234375q0 -2.90625 1.375 -4.6875q1.390625 -1.78125 3.640625 -1.78125q2.21875 0 3.515625 1.53125l0 -6.609375l2.171875 0l0 18.0l-1.984375 0l-0.109375 -1.359375q-1.296875 1.59375 -3.625 1.59375q-2.203125 0 -3.59375 -1.796875q-1.390625 -1.8125 -1.390625 -4.71875l0 -0.171875zm2.171875 0.25q0 2.15625 0.890625 3.375q0.890625 1.21875 2.46875 1.21875q2.0625 0 3.0 -1.84375l0 -5.828125q-0.96875 -1.796875 -2.984375 -1.796875q-1.59375 0 -2.484375 1.234375q-0.890625 1.234375 -0.890625 3.640625z" fill-rule="nonzero"/>
    <path fill="#48ffd5" d="m248.25394 122.46049q-0.859375 1.234375 -2.421875 1.859375q-1.546875 0.609375 -3.609375 0.609375q-2.09375 0 -3.71875 -0.96875q-1.609375 -0.984375 -2.5 -2.78125q-0.875 -1.8125 -0.890625 -4.203125l0 -1.484375q0 -3.859375 1.796875 -5.96875q1.796875 -2.125 5.046875 -2.125q2.671875 0 4.296875 1.375q1.640625 1.359375 2.0 3.859375l-2.25 0q-0.625 -3.390625 -4.03125 -3.390625q-2.265625 0 -3.4375 1.59375q-1.15625 1.59375 -1.171875 4.59375l0 1.40625q0 2.859375 1.3125 4.5625q1.3125 1.6875 3.5625 1.6875q1.265625 0 2.203125 -0.28125q0.953125 -0.28125 1.578125 -0.953125l0 -3.828125l-3.953125 0l0 -1.828125l6.1875 0l0 6.265625zm8.675781 2.46875q-2.578125 0 -4.203125 -1.6875q-1.609375 -1.703125 -1.609375 -4.53125l0 -0.40625q0 -1.890625 0.71875 -3.359375q0.71875 -1.484375 2.015625 -2.328125q1.296875 -0.84375 2.8125 -0.84375q2.46875 0 3.828125 1.640625q1.375 1.625 1.375 4.65625l0 0.90625l-8.578125 0q0.046875 1.875 1.09375 3.03125q1.046875 1.15625 2.65625 1.15625q1.15625 0 1.953125 -0.46875q0.796875 -0.46875 1.390625 -1.25l1.328125 1.03125q-1.59375 2.453125 -4.78125 2.453125zm-0.265625 -11.375q-1.3125 0 -2.203125 0.96875q-0.890625 0.953125 -1.109375 2.671875l6.359375 0l0 -0.171875q-0.09375 -1.640625 -0.890625 -2.546875q-0.796875 -0.921875 -2.15625 -0.921875zm9.761719 -1.546875l0.078125 1.59375q1.453125 -1.828125 3.796875 -1.828125q4.015625 0 4.046875 4.546875l0 8.375l-2.15625 0l0 -8.390625q-0.015625 -1.375 -0.640625 -2.03125q-0.609375 -0.65625 -1.90625 -0.65625q-1.0625 0 -1.859375 0.5625q-0.796875 0.5625 -1.234375 1.484375l0 9.03125l-2.171875 0l0 -12.6875l2.046875 0zm16.460938 12.921875q-2.578125 0 -4.203125 -1.6875q-1.609375 -1.703125 -1.609375 -4.53125l0 -0.40625q0 -1.890625 0.71875 -3.359375q0.71875 -1.484375 2.015625 -2.328125q1.296875 -0.84375 2.8125 -0.84375q2.46875 0 3.828125 1.640625q1.375 1.625 1.375 4.65625l0 0.90625l-8.578125 0q0.046875 1.875 1.09375 3.03125q1.046875 1.15625 2.65625 1.15625q1.15625 0 1.953125 -0.46875q0.796875 -0.46875 1.390625 -1.25l1.328125 1.03125q-1.59375 2.453125 -4.78125 2.453125zm-0.265625 -11.375q-1.3125 0 -2.203125 0.96875q-0.890625 0.953125 -1.109375 2.671875l6.359375 0l0 -0.171875q-0.09375 -1.640625 -0.890625 -2.546875q-0.796875 -0.921875 -2.15625 -0.921875zm13.839844 0.40625q-0.484375 -0.078125 -1.0625 -0.078125q-2.125 0 -2.890625 1.8125l0 9.0l-2.171875 0l0 -12.6875l2.109375 0l0.03125 1.46875q1.078125 -1.703125 3.03125 -1.703125q0.625 0 0.953125 0.171875l0 2.015625zm9.355469 10.734375q-0.1875 -0.375 -0.296875 -1.34375q-1.515625 1.578125 -3.609375 1.578125q-1.875 0 -3.078125 -1.0625q-1.203125 -1.0625 -1.203125 -2.6875q0 -1.984375 1.5 -3.078125q1.515625 -1.09375 4.234375 -1.09375l2.109375 0l0 -1.0q0 -1.140625 -0.6875 -1.8125q-0.671875 -0.671875 -1.984375 -0.671875q-1.171875 0 -1.953125 0.59375q-0.78125 0.578125 -0.78125 1.40625l-2.1875 0q0 -0.9375 0.671875 -1.828125q0.6875 -0.890625 1.828125 -1.40625q1.15625 -0.515625 2.546875 -0.515625q2.1875 0 3.421875 1.109375q1.25 1.09375 1.296875 3.015625l0 5.828125q0 1.75 0.453125 2.78125l0 0.1875l-2.28125 0zm-3.59375 -1.65625q1.015625 0 1.921875 -0.515625q0.921875 -0.53125 1.328125 -1.375l0 -2.609375l-1.6875 0q-3.984375 0 -3.984375 2.328125q0 1.03125 0.671875 1.609375q0.6875 0.5625 1.75 0.5625zm11.7578125 -14.09375l0 3.0625l2.375 0l0 1.6875l-2.375 0l0 7.859375q0 0.765625 0.3125 1.140625q0.328125 0.375 1.09375 0.375q0.375 0 1.03125 -0.140625l0 1.765625q-0.859375 0.234375 -1.671875 0.234375q-1.453125 0 -2.1875 -0.875q-0.734375 -0.890625 -0.734375 -2.5l0 -7.859375l-2.3125 0l0 -1.6875l2.3125 0l0 -3.0625l2.15625 0zm7.2617188 15.75l-2.171875 0l0 -12.6875l2.171875 0l0 12.6875zm-2.34375 -16.046875q0 -0.53125 0.3125 -0.890625q0.328125 -0.359375 0.953125 -0.359375q0.640625 0 0.96875 0.359375q0.328125 0.359375 0.328125 0.890625q0 0.53125 -0.328125 0.890625q-0.328125 0.34375 -0.96875 0.34375q-0.625 0 -0.953125 -0.34375q-0.3125 -0.359375 -0.3125 -0.890625zm5.2304688 9.59375q0 -1.875 0.734375 -3.359375q0.734375 -1.484375 2.03125 -2.296875q1.3125 -0.8125 3.0 -0.8125q2.578125 0 4.171875 1.796875q1.609375 1.796875 1.609375 4.765625l0 0.15625q0 1.859375 -0.71875 3.328125q-0.703125 1.46875 -2.015625 2.296875q-1.3125 0.8125 -3.03125 0.8125q-2.578125 0 -4.1875 -1.796875q-1.59375 -1.796875 -1.59375 -4.75l0 -0.140625zm2.1875 0.25q0 2.109375 0.96875 3.390625q0.984375 1.28125 2.625 1.28125q1.65625 0 2.625 -1.296875q0.96875 -1.296875 0.96875 -3.625q0 -2.09375 -0.984375 -3.390625q-0.984375 -1.296875 -2.625 -1.296875q-1.609375 0 -2.59375 1.28125q-0.984375 1.28125 -0.984375 3.65625zm14.125 -6.484375l0.078125 1.59375q1.453125 -1.828125 3.796875 -1.828125q4.015625 0 4.046875 4.546875l0 8.375l-2.15625 0l0 -8.390625q-0.015625 -1.375 -0.640625 -2.03125q-0.609375 -0.65625 -1.90625 -0.65625q-1.0625 0 -1.859375 0.5625q-0.796875 0.5625 -1.234375 1.484375l0 9.03125l-2.171875 0l0 -12.6875l2.046875 0z" fill-rule="nonzero"/>
    <path fill="#000000" fill-opacity="0.0" d="m585.4722 70.40058l0 0c0 -8.63089 6.996704 -15.627609 15.6276245 -15.627609l134.13062 0c4.1447144 0 8.119629 1.6464767 11.050354 4.577221c2.9307861 2.9307442 4.5772705 6.9056892 4.5772705 11.050388l0 62.508568c0 8.63089 -6.996765 15.627609 -15.6276245 15.627609l-134.13062 0c-8.63092 0 -15.6276245 -6.9967194 -15.6276245 -15.627609z" fill-rule="evenodd"/>
    <path stroke="#48ffd5" stroke-width="1.0" stroke-linejoin="round" stroke-linecap="butt" d="m585.4722 70.40058l0 0c0 -8.63089 6.996704 -15.627609 15.6276245 -15.627609l134.13062 0c4.1447144 0 8.119629 1.6464767 11.050354 4.577221c2.9307861 2.9307442 4.5772705 6.9056892 4.5772705 11.050388l0 62.508568c0 8.63089 -6.996765 15.627609 -15.6276245 15.627609l-134.13062 0c-8.63092 0 -15.6276245 -6.9967194 -15.6276245 -15.627609z" fill-rule="evenodd"/>
    <path fill="#48ffd5" d="m646.0773 102.58549q-2.90625 -0.828125 -4.21875 -2.03125q-1.3125 -1.21875 -1.3125 -3.0q0 -2.015625 1.609375 -3.328125q1.609375 -1.328125 4.1875 -1.328125q1.75 0 3.125 0.6875q1.390625 0.671875 2.140625 1.875q0.75 1.1875 0.75 2.609375l-2.25 0q0 -1.546875 -0.984375 -2.4375q-0.984375 -0.890625 -2.78125 -0.890625q-1.671875 0 -2.609375 0.734375q-0.921875 0.734375 -0.921875 2.03125q0 1.046875 0.875 1.765625q0.890625 0.71875 3.015625 1.328125q2.140625 0.59375 3.328125 1.3125q1.203125 0.71875 1.78125 1.6875q0.59375 0.953125 0.59375 2.25q0 2.078125 -1.625 3.328125q-1.609375 1.25 -4.328125 1.25q-1.75 0 -3.28125 -0.671875q-1.515625 -0.671875 -2.34375 -1.84375q-0.828125 -1.171875 -0.828125 -2.671875l2.265625 0q0 1.546875 1.140625 2.453125q1.140625 0.890625 3.046875 0.890625q1.78125 0 2.734375 -0.71875q0.953125 -0.734375 0.953125 -1.984375q0 -1.25 -0.890625 -1.9375q-0.875 -0.6875 -3.171875 -1.359375zm16.691406 7.609375q-0.1875 -0.375 -0.296875 -1.34375q-1.515625 1.578125 -3.609375 1.578125q-1.875 0 -3.078125 -1.0625q-1.203125 -1.0625 -1.203125 -2.6875q0 -1.984375 1.5 -3.078125q1.515625 -1.09375 4.234375 -1.09375l2.109375 0l0 -1.0q0 -1.140625 -0.6875 -1.8125q-0.671875 -0.671875 -1.984375 -0.671875q-1.171875 0 -1.953125 0.59375q-0.78125 0.578125 -0.78125 1.40625l-2.1875 0q0 -0.9375 0.671875 -1.828125q0.6875 -0.890625 1.828125 -1.40625q1.15625 -0.515625 2.546875 -0.515625q2.1875 0 3.421875 1.109375q1.25 1.09375 1.296875 3.015625l0 5.828125q0 1.75 0.453125 2.78125l0 0.1875l-2.28125 0zm-3.59375 -1.65625q1.015625 0 1.921875 -0.515625q0.921875 -0.53125 1.328125 -1.375l0 -2.609375l-1.6875 0q-3.984375 0 -3.984375 2.328125q0 1.03125 0.671875 1.609375q0.6875 0.5625 1.75 0.5625zm11.1796875 1.65625l-2.171875 0l0 -18.0l2.171875 0l0 18.0zm8.730469 0.234375q-2.578125 0 -4.203125 -1.6875q-1.609375 -1.703125 -1.609375 -4.53125l0 -0.40625q0 -1.890625 0.71875 -3.359375q0.71875 -1.484375 2.015625 -2.328125q1.296875 -0.84375 2.8125 -0.84375q2.46875 0 3.828125 1.640625q1.375 1.625 1.375 4.65625l0 0.90625l-8.578125 0q0.046875 1.875 1.09375 3.03125q1.046875 1.15625 2.65625 1.15625q1.15625 0 1.953125 -0.46875q0.796875 -0.46875 1.390625 -1.25l1.328125 1.03125q-1.59375 2.453125 -4.78125 2.453125zm-0.265625 -11.375q-1.3125 0 -2.203125 0.96875q-0.890625 0.953125 -1.109375 2.671875l6.359375 0l0 -0.171875q-0.09375 -1.640625 -0.890625 -2.546875q-0.796875 -0.921875 -2.15625 -0.921875zm15.105469 7.78125q0 -0.890625 -0.671875 -1.375q-0.65625 -0.484375 -2.3125 -0.828125q-1.640625 -0.359375 -2.609375 -0.84375q-0.96875 -0.5 -1.4375 -1.171875q-0.453125 -0.6875 -0.453125 -1.625q0 -1.5625 1.3125 -2.640625q1.328125 -1.078125 3.375 -1.078125q2.15625 0 3.5 1.125q1.34375 1.109375 1.34375 2.84375l-2.1875 0q0 -0.890625 -0.75 -1.53125q-0.75 -0.65625 -1.90625 -0.65625q-1.1875 0 -1.859375 0.515625q-0.65625 0.515625 -0.65625 1.359375q0 0.78125 0.609375 1.1875q0.625 0.390625 2.25 0.75q1.625 0.359375 2.625 0.875q1.015625 0.5 1.5 1.21875q0.484375 0.703125 0.484375 1.71875q0 1.703125 -1.359375 2.734375q-1.359375 1.015625 -3.515625 1.015625q-1.53125 0 -2.703125 -0.53125q-1.171875 -0.546875 -1.84375 -1.515625q-0.65625 -0.96875 -0.65625 -2.09375l2.171875 0q0.0625 1.09375 0.875 1.734375q0.8125 0.640625 2.15625 0.640625q1.21875 0 1.96875 -0.5q0.75 -0.5 0.75 -1.328125z" fill-rule="nonzero"/>
    <path fill="#000000" fill-opacity="0.0" d="m585.4722 407.09195l0 0c0 -8.63089 6.996704 -15.627594 15.6276245 -15.627594l134.13062 0c4.1447144 0 8.119629 1.6464844 11.050354 4.5772095c2.9307861 2.9307556 4.5772705 6.9057007 4.5772705 11.0503845l0 62.508575c0 8.63089 -6.996765 15.627594 -15.6276245 15.627594l-134.13062 0c-8.63092 0 -15.6276245 -6.996704 -15.6276245 -15.627594z" fill-rule="evenodd"/>
    <path stroke="#48ffd5" stroke-width="1.0" stroke-linejoin="round" stroke-linecap="butt" d="m585.4722 407.09195l0 0c0 -8.63089 6.996704 -15.627594 15.6276245 -15.627594l134.13062 0c4.1447144 0 8.119629 1.6464844 11.050354 4.5772095c2.9307861 2.9307556 4.5772705 6.9057007 4.5772705 11.0503845l0 62.508575c0 8.63089 -6.996765 15.627594 -15.6276245 15.627594l-134.13062 0c-8.63092 0 -15.6276245 -6.996704 -15.6276245 -15.627594z" fill-rule="evenodd"/>
    <path fill="#48ffd5" d="m635.7023 425.69873l0 6.6875l-2.25 0l0 -17.0625l6.296875 0q2.796875 0 4.375 1.4375q1.59375 1.421875 1.59375 3.78125q0 2.484375 -1.5625 3.828125q-1.546875 1.328125 -4.4375 1.328125l-4.015625 0zm0 -1.828125l4.046875 0q1.796875 0 2.75 -0.84375q0.96875 -0.859375 0.96875 -2.46875q0 -1.515625 -0.96875 -2.421875q-0.953125 -0.921875 -2.625 -0.96875l-4.171875 0l0 6.703125zm17.660156 8.75q-2.578125 0 -4.203125 -1.6875q-1.609375 -1.703125 -1.609375 -4.53125l0 -0.40625q0 -1.890625 0.71875 -3.359375q0.71875 -1.484375 2.015625 -2.328125q1.296875 -0.84375 2.8125 -0.84375q2.46875 0 3.828125 1.640625q1.375 1.625 1.375 4.65625l0 0.90625l-8.578125 0q0.046875 1.875 1.09375 3.03125q1.046875 1.15625 2.65625 1.15625q1.15625 0 1.953125 -0.46875q0.796875 -0.46875 1.390625 -1.25l1.328125 1.03125q-1.59375 2.453125 -4.78125 2.453125zm-0.265625 -11.375q-1.3125 0 -2.203125 0.96875q-0.890625 0.953125 -1.109375 2.671875l6.359375 0l0 -0.171875q-0.09375 -1.640625 -0.890625 -2.546875q-0.796875 -0.921875 -2.15625 -0.921875zm7.1367188 4.6875q0 -1.875 0.734375 -3.359375q0.734375 -1.484375 2.03125 -2.296875q1.3125 -0.8125 3.0 -0.8125q2.578125 0 4.171875 1.796875q1.609375 1.796875 1.609375 4.765625l0 0.15625q0 1.859375 -0.71875 3.328125q-0.703125 1.46875 -2.015625 2.296875q-1.3125 0.8125 -3.03125 0.8125q-2.578125 0 -4.1875 -1.796875q-1.59375 -1.796875 -1.59375 -4.75l0 -0.140625zm2.1875 0.25q0 2.109375 0.96875 3.390625q0.984375 1.28125 2.625 1.28125q1.65625 0 2.625 -1.296875q0.96875 -1.296875 0.96875 -3.625q0 -2.09375 -0.984375 -3.390625q-0.984375 -1.296875 -2.625 -1.296875q-1.609375 0 -2.59375 1.28125q-0.984375 1.28125 -0.984375 3.65625zm22.796875 0q0 2.890625 -1.328125 4.671875q-1.328125 1.765625 -3.59375 1.765625q-2.296875 0 -3.625 -1.46875l0 6.109375l-2.171875 0l0 -17.5625l1.984375 0l0.109375 1.40625q1.3125 -1.640625 3.671875 -1.640625q2.28125 0 3.609375 1.734375q1.34375 1.71875 1.34375 4.78125l0 0.203125zm-2.171875 -0.25q0 -2.140625 -0.921875 -3.375q-0.90625 -1.25 -2.5 -1.25q-1.96875 0 -2.953125 1.75l0 6.0625q0.96875 1.734375 2.96875 1.734375q1.5625 0 2.484375 -1.234375q0.921875 -1.25 0.921875 -3.6875zm7.2773438 6.453125l-2.171875 0l0 -18.0l2.171875 0l0 18.0zm8.730469 0.234375q-2.578125 0 -4.203125 -1.6875q-1.609375 -1.703125 -1.609375 -4.53125l0 -0.40625q0 -1.890625 0.71875 -3.359375q0.71875 -1.484375 2.015625 -2.328125q1.296875 -0.84375 2.8125 -0.84375q2.46875 0 3.828125 1.640625q1.375 1.625 1.375 4.65625l0 0.90625l-8.578125 0q0.046875 1.875 1.09375 3.03125q1.046875 1.15625 2.65625 1.15625q1.15625 0 1.953125 -0.46875q0.796875 -0.46875 1.390625 -1.25l1.328125 1.03125q-1.59375 2.453125 -4.78125 2.453125zm-0.265625 -11.375q-1.3125 0 -2.203125 0.96875q-0.890625 0.953125 -1.109375 2.671875l6.359375 0l0 -0.171875q-0.09375 -1.640625 -0.890625 -2.546875q-0.796875 -0.921875 -2.15625 -0.921875z" fill-rule="nonzero"/>
    <path fill="#48ffd5" d="m625.0968 453.40186q0 2.515625 -0.84375 4.390625q-0.84375 1.859375 -2.390625 2.84375q-1.546875 0.984375 -3.609375 0.984375q-2.015625 0 -3.578125 -0.984375q-1.5625 -1.0 -2.421875 -2.828125q-0.859375 -1.84375 -0.875 -4.25l0 -1.234375q0 -2.453125 0.84375 -4.34375q0.859375 -1.890625 2.421875 -2.890625q1.5625 -1.0 3.578125 -1.0q2.0625 0 3.625 1.0q1.5625 0.984375 2.40625 2.859375q0.84375 1.875 0.84375 4.375l0 1.078125zm-2.234375 -1.09375q0 -3.046875 -1.21875 -4.65625q-1.21875 -1.625 -3.421875 -1.625q-2.125 0 -3.359375 1.625q-1.21875 1.609375 -1.25 4.5l0 1.25q0 2.9375 1.234375 4.625q1.234375 1.6875 3.40625 1.6875q2.171875 0 3.359375 -1.59375q1.203125 -1.59375 1.25 -4.546875l0 -1.265625zm15.984375 2.875q0 2.890625 -1.328125 4.671875q-1.328125 1.765625 -3.59375 1.765625q-2.296875 0 -3.625 -1.46875l0 6.109375l-2.171875 0l0 -17.5625l1.984375 0l0.109375 1.40625q1.3125 -1.640625 3.671875 -1.640625q2.28125 0 3.609375 1.734375q1.34375 1.71875 1.34375 4.78125l0 0.203125zm-2.171875 -0.25q0 -2.140625 -0.921875 -3.375q-0.90625 -1.25 -2.5 -1.25q-1.96875 0 -2.953125 1.75l0 6.0625q0.96875 1.734375 2.96875 1.734375q1.5625 0 2.484375 -1.234375q0.921875 -1.25 0.921875 -3.6875zm10.183594 6.6875q-2.578125 0 -4.203125 -1.6875q-1.609375 -1.703125 -1.609375 -4.53125l0 -0.40625q0 -1.890625 0.71875 -3.359375q0.71875 -1.484375 2.015625 -2.328125q1.296875 -0.84375 2.8125 -0.84375q2.46875 0 3.828125 1.640625q1.375 1.625 1.375 4.65625l0 0.90625l-8.578125 0q0.046875 1.875 1.09375 3.03125q1.046875 1.15625 2.65625 1.15625q1.15625 0 1.953125 -0.46875q0.796875 -0.46875 1.390625 -1.25l1.328125 1.03125q-1.59375 2.453125 -4.78125 2.453125zm-0.265625 -11.375q-1.3125 0 -2.203125 0.96875q-0.890625 0.953125 -1.109375 2.671875l6.359375 0l0 -0.171875q-0.09375 -1.640625 -0.890625 -2.546875q-0.796875 -0.921875 -2.15625 -0.921875zm13.839844 0.40625q-0.484375 -0.078125 -1.0625 -0.078125q-2.125 0 -2.890625 1.8125l0 9.0l-2.171875 0l0 -12.6875l2.109375 0l0.03125 1.46875q1.078125 -1.703125 3.03125 -1.703125q0.625 0 0.953125 0.171875l0 2.015625zm9.355469 10.734375q-0.1875 -0.375 -0.296875 -1.34375q-1.515625 1.578125 -3.609375 1.578125q-1.875 0 -3.078125 -1.0625q-1.203125 -1.0625 -1.203125 -2.6875q0 -1.984375 1.5 -3.078125q1.515625 -1.09375 4.234375 -1.09375l2.109375 0l0 -1.0q0 -1.140625 -0.6875 -1.8125q-0.671875 -0.671875 -1.984375 -0.671875q-1.171875 0 -1.953125 0.59375q-0.78125 0.578125 -0.78125 1.40625l-2.1875 0q0 -0.9375 0.671875 -1.828125q0.6875 -0.890625 1.828125 -1.40625q1.15625 -0.515625 2.546875 -0.515625q2.1875 0 3.421875 1.109375q1.25 1.09375 1.296875 3.015625l0 5.828125q0 1.75 0.453125 2.78125l0 0.1875l-2.28125 0zm-3.59375 -1.65625q1.015625 0 1.921875 -0.515625q0.921875 -0.53125 1.328125 -1.375l0 -2.609375l-1.6875 0q-3.984375 0 -3.984375 2.328125q0 1.03125 0.671875 1.609375q0.6875 0.5625 1.75 0.5625zm11.7578125 -14.09375l0 3.0625l2.375 0l0 1.6875l-2.375 0l0 7.859375q0 0.765625 0.3125 1.140625q0.328125 0.375 1.09375 0.375q0.375 0 1.03125 -0.140625l0 1.765625q-0.859375 0.234375 -1.671875 0.234375q-1.453125 0 -2.1875 -0.875q-0.734375 -0.890625 -0.734375 -2.5l0 -7.859375l-2.3125 0l0 -1.6875l2.3125 0l0 -3.0625l2.15625 0zm7.2617188 15.75l-2.171875 0l0 -12.6875l2.171875 0l0 12.6875zm-2.34375 -16.046875q0 -0.53125 0.3125 -0.890625q0.328125 -0.359375 0.953125 -0.359375q0.640625 0 0.96875 0.359375q0.328125 0.359375 0.328125 0.890625q0 0.53125 -0.328125 0.890625q-0.328125 0.34375 -0.96875 0.34375q-0.625 0 -0.953125 -0.34375q-0.3125 -0.359375 -0.3125 -0.890625zm5.2304688 9.59375q0 -1.875 0.734375 -3.359375q0.734375 -1.484375 2.03125 -2.296875q1.3125 -0.8125 3.0 -0.8125q2.578125 0 4.171875 1.796875q1.609375 1.796875 1.609375 4.765625l0 0.15625q0 1.859375 -0.71875 3.328125q-0.703125 1.46875 -2.015625 2.296875q-1.3125 0.8125 -3.03125 0.8125q-2.578125 0 -4.1875 -1.796875q-1.59375 -1.796875 -1.59375 -4.75l0 -0.140625zm2.1875 0.25q0 2.109375 0.96875 3.390625q0.984375 1.28125 2.625 1.28125q1.65625 0 2.625 -1.296875q0.96875 -1.296875 0.96875 -3.625q0 -2.09375 -0.984375 -3.390625q-0.984375 -1.296875 -2.625 -1.296875q-1.609375 0 -2.59375 1.28125q-0.984375 1.28125 -0.984375 3.65625zm14.125 -6.484375l0.078125 1.59375q1.453125 -1.828125 3.796875 -1.828125q4.015625 0 4.046875 4.546875l0 8.375l-2.15625 0l0 -8.390625q-0.015625 -1.375 -0.640625 -2.03125q-0.609375 -0.65625 -1.90625 -0.65625q-1.0625 0 -1.859375 0.5625q-0.796875 0.5625 -1.234375 1.484375l0 9.03125l-2.171875 0l0 -12.6875l2.046875 0zm18.585938 9.328125q0 -0.890625 -0.671875 -1.375q-0.65625 -0.484375 -2.3125 -0.828125q-1.640625 -0.359375 -2.609375 -0.84375q-0.96875 -0.5 -1.4375 -1.171875q-0.453125 -0.6875 -0.453125 -1.625q0 -1.5625 1.3125 -2.640625q1.328125 -1.078125 3.375 -1.078125q2.15625 0 3.5 1.125q1.34375 1.109375 1.34375 2.84375l-2.1875 0q0 -0.890625 -0.75 -1.53125q-0.75 -0.65625 -1.90625 -0.65625q-1.1875 0 -1.859375 0.515625q-0.65625 0.515625 -0.65625 1.359375q0 0.78125 0.609375 1.1875q0.625 0.390625 2.25 0.75q1.625 0.359375 2.625 0.875q1.015625 0.5 1.5 1.21875q0.484375 0.703125 0.484375 1.71875q0 1.703125 -1.359375 2.734375q-1.359375 1.015625 -3.515625 1.015625q-1.53125 0 -2.703125 -0.53125q-1.171875 -0.546875 -1.84375 -1.515625q-0.65625 -0.96875 -0.65625 -2.09375l2.171875 0q0.0625 1.09375 0.875 1.734375q0.8125 0.640625 2.15625 0.640625q1.21875 0 1.96875 -0.5q0.75 -0.5 0.75 -1.328125z" fill-rule="nonzero"/>
    <path fill="#000000" fill-opacity="0.0" d="m209.14305 407.09195l0 0c0 -8.63089 6.9967194 -15.627594 15.627609 -15.627594l134.13062 0c4.144684 0 8.119629 1.6464844 11.0503845 4.5772095c2.930725 2.9307556 4.5772095 6.9057007 4.5772095 11.0503845l0 62.508575c0 8.63089 -6.996704 15.627594 -15.627594 15.627594l-134.13062 0c-8.63089 0 -15.627609 -6.996704 -15.627609 -15.627594z" fill-rule="evenodd"/>
    <path stroke="#48ffd5" stroke-width="1.0" stroke-linejoin="round" stroke-linecap="butt" d="m209.14305 407.09195l0 0c0 -8.63089 6.9967194 -15.627594 15.627609 -15.627594l134.13062 0c4.144684 0 8.119629 1.6464844 11.0503845 4.5772095c2.930725 2.9307556 4.5772095 6.9057007 4.5772095 11.0503845l0 62.508575c0 8.63089 -6.996704 15.627594 -15.627594 15.627594l-134.13062 0c-8.63089 0 -15.627609 -6.996704 -15.627609 -15.627594z" fill-rule="evenodd"/>
    <path fill="#48ffd5" d="m254.1719 426.96436q-0.3125 2.71875 -2.0 4.1875q-1.671875 1.46875 -4.46875 1.46875q-3.015625 0 -4.84375 -2.171875q-1.828125 -2.171875 -1.828125 -5.796875l0 -1.640625q0 -2.375 0.84375 -4.171875q0.859375 -1.8125 2.421875 -2.78125q1.5625 -0.96875 3.609375 -0.96875q2.71875 0 4.359375 1.515625q1.640625 1.515625 1.90625 4.203125l-2.265625 0q-0.28125 -2.046875 -1.265625 -2.953125q-0.984375 -0.921875 -2.734375 -0.921875q-2.15625 0 -3.390625 1.59375q-1.21875 1.59375 -1.21875 4.546875l0 1.640625q0 2.78125 1.15625 4.421875q1.171875 1.640625 3.25 1.640625q1.875 0 2.875 -0.84375q1.0 -0.859375 1.328125 -2.96875l2.265625 0zm10.558594 4.171875q-1.265625 1.484375 -3.71875 1.484375q-2.015625 0 -3.078125 -1.171875q-1.0625 -1.1875 -1.078125 -3.5l0 -8.25l2.171875 0l0 8.203125q0 2.875 2.34375 2.875q2.484375 0 3.296875 -1.84375l0 -9.234375l2.171875 0l0 12.6875l-2.0625 0l-0.046875 -1.25zm12.792969 -2.109375q0 -0.890625 -0.671875 -1.375q-0.65625 -0.484375 -2.3125 -0.828125q-1.640625 -0.359375 -2.609375 -0.84375q-0.96875 -0.5 -1.4375 -1.171875q-0.453125 -0.6875 -0.453125 -1.625q0 -1.5625 1.3125 -2.640625q1.328125 -1.078125 3.375 -1.078125q2.15625 0 3.5 1.125q1.34375 1.109375 1.34375 2.84375l-2.1875 0q0 -0.890625 -0.75 -1.53125q-0.75 -0.65625 -1.90625 -0.65625q-1.1875 0 -1.859375 0.515625q-0.65625 0.515625 -0.65625 1.359375q0 0.78125 0.609375 1.1875q0.625 0.390625 2.25 0.75q1.625 0.359375 2.625 0.875q1.015625 0.5 1.5 1.21875q0.484375 0.703125 0.484375 1.71875q0 1.703125 -1.359375 2.734375q-1.359375 1.015625 -3.515625 1.015625q-1.53125 0 -2.703125 -0.53125q-1.171875 -0.546875 -1.84375 -1.515625q-0.65625 -0.96875 -0.65625 -2.09375l2.171875 0q0.0625 1.09375 0.875 1.734375q0.8125 0.640625 2.15625 0.640625q1.21875 0 1.96875 -0.5q0.75 -0.5 0.75 -1.328125zm7.921875 -12.390625l0 3.0625l2.375 0l0 1.6875l-2.375 0l0 7.859375q0 0.765625 0.3125 1.140625q0.328125 0.375 1.09375 0.375q0.375 0 1.03125 -0.140625l0 1.765625q-0.859375 0.234375 -1.671875 0.234375q-1.453125 0 -2.1875 -0.875q-0.734375 -0.890625 -0.734375 -2.5l0 -7.859375l-2.3125 0l0 -1.6875l2.3125 0l0 -3.0625l2.15625 0zm4.0898438 9.296875q0 -1.875 0.734375 -3.359375q0.734375 -1.484375 2.03125 -2.296875q1.3125 -0.8125 3.0 -0.8125q2.578125 0 4.171875 1.796875q1.609375 1.796875 1.609375 4.765625l0 0.15625q0 1.859375 -0.71875 3.328125q-0.703125 1.46875 -2.015625 2.296875q-1.3125 0.8125 -3.03125 0.8125q-2.578125 0 -4.1875 -1.796875q-1.59375 -1.796875 -1.59375 -4.75l0 -0.140625zm2.1875 0.25q0 2.109375 0.96875 3.390625q0.984375 1.28125 2.625 1.28125q1.65625 0 2.625 -1.296875q0.96875 -1.296875 0.96875 -3.625q0 -2.09375 -0.984375 -3.390625q-0.984375 -1.296875 -2.625 -1.296875q-1.609375 0 -2.59375 1.28125q-0.984375 1.28125 -0.984375 3.65625zm14.125 -6.484375l0.046875 1.40625q1.40625 -1.640625 3.765625 -1.640625q2.65625 0 3.625 2.046875q0.625 -0.921875 1.640625 -1.484375q1.015625 -0.5625 2.40625 -0.5625q4.171875 0 4.234375 4.421875l0 8.5l-2.171875 0l0 -8.375q0 -1.359375 -0.625 -2.03125q-0.609375 -0.671875 -2.078125 -0.671875q-1.203125 0 -2.0 0.71875q-0.796875 0.71875 -0.921875 1.9375l0 8.421875l-2.1875 0l0 -8.3125q0 -2.765625 -2.703125 -2.765625q-2.140625 0 -2.921875 1.8125l0 9.265625l-2.171875 0l0 -12.6875l2.0625 0zm24.253906 12.921875q-2.578125 0 -4.203125 -1.6875q-1.609375 -1.703125 -1.609375 -4.53125l0 -0.40625q0 -1.890625 0.71875 -3.359375q0.71875 -1.484375 2.015625 -2.328125q1.296875 -0.84375 2.8125 -0.84375q2.46875 0 3.828125 1.640625q1.375 1.625 1.375 4.65625l0 0.90625l-8.578125 0q0.046875 1.875 1.09375 3.03125q1.046875 1.15625 2.65625 1.15625q1.15625 0 1.953125 -0.46875q0.796875 -0.46875 1.390625 -1.25l1.328125 1.03125q-1.59375 2.453125 -4.78125 2.453125zm-0.265625 -11.375q-1.3125 0 -2.203125 0.96875q-0.890625 0.953125 -1.109375 2.671875l6.359375 0l0 -0.171875q-0.09375 -1.640625 -0.890625 -2.546875q-0.796875 -0.921875 -2.15625 -0.921875zm13.839844 0.40625q-0.484375 -0.078125 -1.0625 -0.078125q-2.125 0 -2.890625 1.8125l0 9.0l-2.171875 0l0 -12.6875l2.109375 0l0.03125 1.46875q1.078125 -1.703125 3.03125 -1.703125q0.625 0 0.953125 0.171875l0 2.015625z" fill-rule="nonzero"/>
    <path fill="#48ffd5" d="m253.8223 453.77686q-2.90625 -0.828125 -4.21875 -2.03125q-1.3125 -1.21875 -1.3125 -3.0q0 -2.015625 1.609375 -3.328125q1.609375 -1.328125 4.1875 -1.328125q1.75 0 3.125 0.6875q1.390625 0.671875 2.140625 1.875q0.75 1.1875 0.75 2.609375l-2.25 0q0 -1.546875 -0.984375 -2.4375q-0.984375 -0.890625 -2.78125 -0.890625q-1.671875 0 -2.609375 0.734375q-0.921875 0.734375 -0.921875 2.03125q0 1.046875 0.875 1.765625q0.890625 0.71875 3.015625 1.328125q2.140625 0.59375 3.328125 1.3125q1.203125 0.71875 1.78125 1.6875q0.59375 0.953125 0.59375 2.25q0 2.078125 -1.625 3.328125q-1.609375 1.25 -4.328125 1.25q-1.75 0 -3.28125 -0.671875q-1.515625 -0.671875 -2.34375 -1.84375q-0.828125 -1.171875 -0.828125 -2.671875l2.265625 0q0 1.546875 1.140625 2.453125q1.140625 0.890625 3.046875 0.890625q1.78125 0 2.734375 -0.71875q0.953125 -0.734375 0.953125 -1.984375q0 -1.25 -0.890625 -1.9375q-0.875 -0.6875 -3.171875 -1.359375zm16.691406 6.359375q-1.265625 1.484375 -3.71875 1.484375q-2.015625 0 -3.078125 -1.171875q-1.0625 -1.1875 -1.078125 -3.5l0 -8.25l2.171875 0l0 8.203125q0 2.875 2.34375 2.875q2.484375 0 3.296875 -1.84375l0 -9.234375l2.171875 0l0 12.6875l-2.0625 0l-0.046875 -1.25zm10.496094 -0.28125q1.15625 0 2.015625 -0.703125q0.875 -0.703125 0.96875 -1.765625l2.046875 0q-0.0625 1.09375 -0.75 2.078125q-0.6875 0.984375 -1.84375 1.578125q-1.15625 0.578125 -2.4375 0.578125q-2.59375 0 -4.125 -1.71875q-1.53125 -1.734375 -1.53125 -4.734375l0 -0.375q0 -1.84375 0.671875 -3.28125q0.6875 -1.453125 1.953125 -2.25q1.28125 -0.796875 3.015625 -0.796875q2.125 0 3.53125 1.28125q1.421875 1.28125 1.515625 3.3125l-2.046875 0q-0.09375 -1.21875 -0.9375 -2.015625q-0.828125 -0.796875 -2.0625 -0.796875q-1.65625 0 -2.5625 1.203125q-0.90625 1.1875 -0.90625 3.4375l0 0.40625q0 2.1875 0.890625 3.375q0.90625 1.1875 2.59375 1.1875zm12.5625 0q1.15625 0 2.015625 -0.703125q0.875 -0.703125 0.96875 -1.765625l2.046875 0q-0.0625 1.09375 -0.75 2.078125q-0.6875 0.984375 -1.84375 1.578125q-1.15625 0.578125 -2.4375 0.578125q-2.59375 0 -4.125 -1.71875q-1.53125 -1.734375 -1.53125 -4.734375l0 -0.375q0 -1.84375 0.671875 -3.28125q0.6875 -1.453125 1.953125 -2.25q1.28125 -0.796875 3.015625 -0.796875q2.125 0 3.53125 1.28125q1.421875 1.28125 1.515625 3.3125l-2.046875 0q-0.09375 -1.21875 -0.9375 -2.015625q-0.828125 -0.796875 -2.0625 -0.796875q-1.65625 0 -2.5625 1.203125q-0.90625 1.1875 -0.90625 3.4375l0 0.40625q0 2.1875 0.890625 3.375q0.90625 1.1875 2.59375 1.1875zm12.734375 1.765625q-2.578125 0 -4.203125 -1.6875q-1.609375 -1.703125 -1.609375 -4.53125l0 -0.40625q0 -1.890625 0.71875 -3.359375q0.71875 -1.484375 2.015625 -2.328125q1.296875 -0.84375 2.8125 -0.84375q2.46875 0 3.828125 1.640625q1.375 1.625 1.375 4.65625l0 0.90625l-8.578125 0q0.046875 1.875 1.09375 3.03125q1.046875 1.15625 2.65625 1.15625q1.15625 0 1.953125 -0.46875q0.796875 -0.46875 1.390625 -1.25l1.328125 1.03125q-1.59375 2.453125 -4.78125 2.453125zm-0.265625 -11.375q-1.3125 0 -2.203125 0.96875q-0.890625 0.953125 -1.109375 2.671875l6.359375 0l0 -0.171875q-0.09375 -1.640625 -0.890625 -2.546875q-0.796875 -0.921875 -2.15625 -0.921875zm15.105469 7.78125q0 -0.890625 -0.671875 -1.375q-0.65625 -0.484375 -2.3125 -0.828125q-1.640625 -0.359375 -2.609375 -0.84375q-0.96875 -0.5 -1.4375 -1.171875q-0.453125 -0.6875 -0.453125 -1.625q0 -1.5625 1.3125 -2.640625q1.328125 -1.078125 3.375 -1.078125q2.15625 0 3.5 1.125q1.34375 1.109375 1.34375 2.84375l-2.1875 0q0 -0.890625 -0.75 -1.53125q-0.75 -0.65625 -1.90625 -0.65625q-1.1875 0 -1.859375 0.515625q-0.65625 0.515625 -0.65625 1.359375q0 0.78125 0.609375 1.1875q0.625 0.390625 2.25 0.75q1.625 0.359375 2.625 0.875q1.015625 0.5 1.5 1.21875q0.484375 0.703125 0.484375 1.71875q0 1.703125 -1.359375 2.734375q-1.359375 1.015625 -3.515625 1.015625q-1.53125 0 -2.703125 -0.53125q-1.171875 -0.546875 -1.84375 -1.515625q-0.65625 -0.96875 -0.65625 -2.09375l2.171875 0q0.0625 1.09375 0.875 1.734375q0.8125 0.640625 2.15625 0.640625q1.21875 0 1.96875 -0.5q0.75 -0.5 0.75 -1.328125zm12.375 0q0 -0.890625 -0.671875 -1.375q-0.65625 -0.484375 -2.3125 -0.828125q-1.640625 -0.359375 -2.609375 -0.84375q-0.96875 -0.5 -1.4375 -1.171875q-0.453125 -0.6875 -0.453125 -1.625q0 -1.5625 1.3125 -2.640625q1.328125 -1.078125 3.375 -1.078125q2.15625 0 3.5 1.125q1.34375 1.109375 1.34375 2.84375l-2.1875 0q0 -0.890625 -0.75 -1.53125q-0.75 -0.65625 -1.90625 -0.65625q-1.1875 0 -1.859375 0.515625q-0.65625 0.515625 -0.65625 1.359375q0 0.78125 0.609375 1.1875q0.625 0.390625 2.25 0.75q1.625 0.359375 2.625 0.875q1.015625 0.5 1.5 1.21875q0.484375 0.703125 0.484375 1.71875q0 1.703125 -1.359375 2.734375q-1.359375 1.015625 -3.515625 1.015625q-1.53125 0 -2.703125 -0.53125q-1.171875 -0.546875 -1.84375 -1.515625q-0.65625 -0.96875 -0.65625 -2.09375l2.171875 0q0.0625 1.09375 0.875 1.734375q0.8125 0.640625 2.15625 0.640625q1.21875 0 1.96875 -0.5q0.75 -0.5 0.75 -1.328125z" fill-rule="nonzero"/>
    <path fill="#000000" fill-opacity="0.0" d="m477.2361 367.26663c0 35.543304 -51.35431 71.08661 -102.70865 71.08661" fill-rule="evenodd"/>
    <path stroke="#ffd0d0" stroke-width="2.0" stroke-linejoin="round" stroke-linecap="butt" stroke-dasharray="8.0,6.0" d="m477.23615 367.26666c0 17.771637 -12.838593 35.543304 -32.096466 48.87204c-9.628937 6.6643677 -20.862701 12.218018 -32.898865 16.10556c-6.018097 1.9437561 -12.236786 3.4710388 -18.555786 4.512329c-1.5797119 0.26034546 -3.165741 0.4902954 -4.7564697 0.68878174c-0.7953491 0.099243164 -1.5918884 0.1906128 -2.3894043 0.27404785l-0.028289795 0.0027770996" fill-rule="evenodd"/>
    <path fill="#ffd0d0" stroke="#ffd0d0" stroke-width="2.0" stroke-linecap="butt" d="m386.33716 434.4233l-8.889923 3.776184l9.237366 2.8216248z" fill-rule="evenodd"/>
    <path fill="#000000" fill-opacity="0.0" d="m477.2361 367.26663c0 35.543304 54.11026 71.08661 108.22049 71.08661" fill-rule="evenodd"/>
    <path stroke="#ffd0d0" stroke-width="2.0" stroke-linejoin="round" stroke-linecap="butt" stroke-dasharray="8.0,6.0" d="m477.23615 367.26666c0 17.771637 13.527557 35.543304 33.81888 48.87204c10.14566 6.6643677 21.98227 12.218018 34.6644 16.10556c6.3410034 1.9437561 12.893433 3.4710388 19.551514 4.512329c1.6645508 0.26034546 3.3356934 0.4902954 5.01178 0.68878174c0.8380127 0.099243164 1.6773071 0.1906128 2.5175781 0.27404785l0.6699219 0.06323242" fill-rule="evenodd"/>
    <path fill="#ffd0d0" stroke="#ffd0d0" stroke-width="2.0" stroke-linecap="butt" d="m573.3131 441.08237l9.223022 -2.8681335l-8.9088745 -3.7313232z" fill-rule="evenodd"/>
    <path fill="#000000" fill-opacity="0.0" d="m477.2361 234.2745c0 -66.31496 -51.35431 -132.62991 -102.70865 -132.62991" fill-rule="evenodd"/>
    <path stroke="#ffd0d0" stroke-width="2.0" stroke-linejoin="round" stroke-linecap="butt" stroke-dasharray="8.0,6.0" d="m477.23615 234.2745c0 -33.157486 -12.838593 -66.31496 -32.096466 -91.18306c-9.628937 -12.4340515 -20.862701 -22.795769 -32.898865 -30.048973c-6.018097 -3.6265945 -12.236786 -6.4760666 -18.555786 -8.418884c-1.5797119 -0.48571014 -3.165741 -0.91474915 -4.7564697 -1.2850952c-0.7953491 -0.18517303 -1.5918884 -0.35567474 -2.3894043 -0.511261l-0.06881714 -0.013092041" fill-rule="evenodd"/>
    <path fill="#ffd0d0" stroke="#ffd0d0" stroke-width="2.0" stroke-linecap="butt" d="m386.7923 99.5264l-9.35495 2.4031525l8.711029 4.172325z" fill-rule="evenodd"/>
    <path fill="#000000" fill-opacity="0.0" d="m477.2361 234.2745c0 -66.31496 54.11026 -132.62991 108.22049 -132.62991" fill-rule="evenodd"/>
    <path stroke="#ffd0d0" stroke-width="2.0" stroke-linejoin="round" stroke-linecap="butt" stroke-dasharray="8.0,6.0" d="m477.23615 234.2745c0 -33.157486 13.527557 -66.31496 33.81888 -91.18306c10.14566 -12.4340515 21.98227 -22.795769 34.6644 -30.048973c6.3410034 -3.6265945 12.893433 -6.4760666 19.551514 -8.418884c1.6645508 -0.48571014 3.3356934 -0.91474915 5.01178 -1.2850952c0.8380127 -0.18517303 1.6773071 -0.35567474 2.5175781 -0.511261c0.21014404 -0.038887024 0.4202881 -0.07685089 0.6304321 -0.11387634l0.07244873 -0.012435913" fill-rule="evenodd"/>
    <path fill="#ffd0d0" stroke="#ffd0d0" stroke-width="2.0" stroke-linecap="butt" d="m573.794 105.99156l8.750122 -4.089592l-9.331726 -2.4916916z" fill-rule="evenodd"/>
  </g>
</svg>