<?xml version="1.0" encoding="utf-8"?>
<svg version="1.1" viewBox="0 0 100 68.36" fill="none" stroke="none" stroke-linecap="square" stroke-miterlimit="10" xmlns="http://www.w3.org/2000/svg">
  <clipPath id="g6b53daaa33_0_0.0">
    <path d="m0 0l960.0 0l0 540.0l-960.0 0l0 -540.0z" clip-rule="nonzero"/>
  </clipPath>
  <g clip-path="url(#g6b53daaa33_0_0.0)">
    <path fill="#5f7d95" d="M 19.385 35.238 L 81.185 35.238 L 50.285 57.085 Z" fill-rule="evenodd"/>
    <path fill="#000000" fill-opacity="0.0" d="M -12.296 0 L 118.822 0 L 118.822 40.504 L -12.296 40.504 Z" fill-rule="evenodd"/>
    <path fill="#5f7d95" d="M 15.432 20.748 C 15.432 20.363 15.287 20.061 14.995 19.842 C 14.703 19.623 14.188 19.436 13.448 19.279 C 12.719 19.123 12.141 18.936 11.714 18.717 C 11.287 18.498 10.969 18.238 10.761 17.936 C 10.552 17.633 10.448 17.274 10.448 16.857 C 10.448 16.17 10.74 15.587 11.323 15.107 C 11.917 14.628 12.667 14.389 13.573 14.389 C 14.531 14.389 15.307 14.639 15.901 15.139 C 16.505 15.628 16.807 16.258 16.807 17.029 L 15.354 17.029 C 15.354 16.633 15.182 16.295 14.839 16.014 C 14.505 15.722 14.084 15.576 13.573 15.576 C 13.052 15.576 12.641 15.691 12.339 15.92 C 12.047 16.149 11.901 16.446 11.901 16.811 C 11.901 17.165 12.037 17.43 12.307 17.607 C 12.589 17.784 13.089 17.956 13.807 18.123 C 14.526 18.279 15.11 18.472 15.557 18.701 C 16.005 18.92 16.339 19.186 16.557 19.498 C 16.776 19.811 16.886 20.196 16.886 20.654 C 16.886 21.404 16.584 22.008 15.979 22.467 C 15.375 22.925 14.589 23.154 13.62 23.154 C 12.943 23.154 12.344 23.034 11.823 22.795 C 11.302 22.555 10.896 22.222 10.604 21.795 C 10.313 21.357 10.167 20.889 10.167 20.389 L 11.604 20.389 C 11.636 20.878 11.828 21.264 12.182 21.545 C 12.547 21.826 13.026 21.967 13.62 21.967 C 14.172 21.967 14.61 21.857 14.932 21.639 C 15.266 21.42 15.432 21.123 15.432 20.748 Z M 22.151 21.967 C 22.672 21.967 23.125 21.811 23.511 21.498 C 23.896 21.186 24.11 20.795 24.151 20.326 L 25.511 20.326 C 25.49 20.816 25.323 21.279 25.011 21.717 C 24.709 22.154 24.297 22.503 23.776 22.764 C 23.266 23.024 22.724 23.154 22.151 23.154 C 21.005 23.154 20.089 22.769 19.401 21.998 C 18.724 21.227 18.386 20.175 18.386 18.842 L 18.386 18.607 C 18.386 17.784 18.537 17.055 18.839 16.42 C 19.141 15.774 19.573 15.274 20.136 14.92 C 20.709 14.566 21.38 14.389 22.151 14.389 C 23.099 14.389 23.886 14.675 24.511 15.248 C 25.136 15.811 25.469 16.545 25.511 17.451 L 24.151 17.451 C 24.11 16.899 23.901 16.451 23.526 16.107 C 23.151 15.753 22.693 15.576 22.151 15.576 C 21.412 15.576 20.839 15.842 20.432 16.373 C 20.037 16.894 19.839 17.654 19.839 18.654 L 19.839 18.936 C 19.839 19.904 20.037 20.654 20.432 21.186 C 20.839 21.706 21.412 21.967 22.151 21.967 Z M 31.229 15.842 C 31.011 15.8 30.771 15.779 30.511 15.779 C 29.563 15.779 28.922 16.186 28.589 16.998 L 28.589 22.998 L 27.136 22.998 L 27.136 14.545 L 28.542 14.545 L 28.573 15.514 C 29.042 14.764 29.714 14.389 30.589 14.389 C 30.87 14.389 31.084 14.425 31.229 14.498 L 31.229 15.842 Z M 32.018 18.686 C 32.018 17.863 32.18 17.123 32.503 16.467 C 32.826 15.8 33.279 15.29 33.862 14.936 C 34.446 14.571 35.107 14.389 35.847 14.389 C 37.003 14.389 37.935 14.79 38.643 15.592 C 39.352 16.383 39.706 17.441 39.706 18.764 L 39.706 18.857 C 39.706 19.68 39.55 20.42 39.237 21.076 C 38.925 21.732 38.472 22.243 37.878 22.607 C 37.294 22.972 36.623 23.154 35.862 23.154 C 34.716 23.154 33.789 22.758 33.081 21.967 C 32.373 21.165 32.018 20.107 32.018 18.795 L 32.018 18.686 Z M 33.472 18.857 C 33.472 19.795 33.685 20.55 34.112 21.123 C 34.55 21.686 35.133 21.967 35.862 21.967 C 36.602 21.967 37.185 21.68 37.612 21.107 C 38.05 20.534 38.268 19.727 38.268 18.686 C 38.268 17.758 38.044 17.008 37.597 16.436 C 37.159 15.863 36.576 15.576 35.847 15.576 C 35.138 15.576 34.565 15.863 34.128 16.436 C 33.69 16.998 33.472 17.805 33.472 18.857 Z M 43.097 22.998 L 41.643 22.998 L 41.643 10.998 L 43.097 10.998 L 43.097 22.998 Z M 46.979 22.998 L 45.526 22.998 L 45.526 10.998 L 46.979 10.998 L 46.979 22.998 Z M 52.901 18.701 C 52.901 17.399 53.209 16.357 53.823 15.576 C 54.438 14.784 55.24 14.389 56.229 14.389 C 57.219 14.389 58.005 14.727 58.589 15.404 L 58.589 10.998 L 60.026 10.998 L 60.026 22.998 L 58.698 22.998 L 58.636 22.092 C 58.052 22.8 57.245 23.154 56.214 23.154 C 55.235 23.154 54.438 22.753 53.823 21.951 C 53.209 21.149 52.901 20.102 52.901 18.811 L 52.901 18.701 Z M 54.339 18.857 C 54.339 19.816 54.537 20.566 54.932 21.107 C 55.328 21.649 55.875 21.92 56.573 21.92 C 57.49 21.92 58.162 21.508 58.589 20.686 L 58.589 16.811 C 58.151 16.008 57.485 15.607 56.589 15.607 C 55.88 15.607 55.328 15.883 54.932 16.436 C 54.537 16.977 54.339 17.784 54.339 18.857 Z M 61.893 18.686 C 61.893 17.863 62.055 17.123 62.378 16.467 C 62.701 15.8 63.154 15.29 63.737 14.936 C 64.321 14.571 64.982 14.389 65.722 14.389 C 66.878 14.389 67.81 14.79 68.518 15.592 C 69.227 16.383 69.581 17.441 69.581 18.764 L 69.581 18.857 C 69.581 19.68 69.425 20.42 69.112 21.076 C 68.8 21.732 68.347 22.243 67.753 22.607 C 67.169 22.972 66.498 23.154 65.737 23.154 C 64.591 23.154 63.664 22.758 62.956 21.967 C 62.248 21.165 61.893 20.107 61.893 18.795 L 61.893 18.686 Z M 63.347 18.857 C 63.347 19.795 63.56 20.55 63.987 21.123 C 64.425 21.686 65.008 21.967 65.737 21.967 C 66.477 21.967 67.06 21.68 67.487 21.107 C 67.925 20.534 68.143 19.727 68.143 18.686 C 68.143 17.758 67.919 17.008 67.472 16.436 C 67.034 15.863 66.451 15.576 65.722 15.576 C 65.013 15.576 64.44 15.863 64.003 16.436 C 63.565 16.998 63.347 17.805 63.347 18.857 Z M 78.878 20.998 L 80.503 14.545 L 81.956 14.545 L 79.487 22.998 L 78.315 22.998 L 76.268 16.592 L 74.268 22.998 L 73.097 22.998 L 70.643 14.545 L 72.081 14.545 L 73.737 20.873 L 75.706 14.545 L 76.878 14.545 L 78.878 20.998 Z M 84.792 14.545 L 84.839 15.607 C 85.485 14.795 86.328 14.389 87.37 14.389 C 89.151 14.389 90.052 15.394 90.073 17.404 L 90.073 22.998 L 88.62 22.998 L 88.62 17.404 C 88.62 16.79 88.479 16.337 88.198 16.045 C 87.927 15.753 87.505 15.607 86.932 15.607 C 86.464 15.607 86.052 15.732 85.698 15.982 C 85.344 16.232 85.068 16.561 84.87 16.967 L 84.87 22.998 L 83.417 22.998 L 83.417 14.545 L 84.792 14.545 Z" fill-rule="nonzero"/>
  </g>
</svg>